<svg width="35" height="34" viewBox="0 0 35 34" fill="none" xmlns="http://www.w3.org/2000/svg">
<g clip-path="url(#clip0_421_352)">
<circle cx="18" cy="17" r="15" fill="#F3B8FF"/>
<path d="M32.7164 18.0911L34.1682 18.4684L32.7164 18.0911ZM32.2855 19.7072L33.7297 20.1125L32.2855 19.7072ZM32.1382 20.2323L30.694 19.827L32.1382 20.2323ZM31.9908 20.7573L33.435 21.1626L31.9908 20.7573ZM31.873 21.8978L30.3747 21.9696L31.873 21.8978ZM31.9319 23.1286L33.4302 23.0568L31.9319 23.1286ZM31.5962 24.1959L30.4295 23.2531L31.5962 24.1959ZM30.8658 25.0997L32.0325 26.0425L30.8658 25.0997ZM30.0196 25.8768L29.1796 24.634L30.0196 25.8768ZM29.5386 26.2019L28.6986 24.9591L29.5386 26.2019ZM29.0575 26.527L29.8975 27.7698L29.0575 26.527ZM28.2306 27.2851L27.0586 26.3489L28.2306 27.2851ZM27.8847 27.7181L29.0566 28.6543L27.8847 27.7181ZM27.5388 28.1511L28.7107 29.0873L27.5388 28.1511ZM26.5435 29.6716L27.8315 30.4406L26.5435 29.6716ZM26.2189 30.2154L24.9309 29.4465L26.2189 30.2154ZM25.2357 30.7014L25.1045 32.1957L25.2357 30.7014ZM24.5773 30.6436L24.7085 29.1494L24.5773 30.6436ZM23.9188 30.5858L24.05 29.0915L23.9188 30.5858ZM22.807 30.9842L23.871 32.0415L22.807 30.9842ZM21.9003 31.8965L22.9643 32.9539L21.9003 31.8965ZM20.8505 32.248L20.5913 33.7255L20.8505 32.248ZM19.6575 32.0387L19.9168 30.5613L19.6575 32.0387ZM18.5054 31.8569L18.2991 33.3426L18.5054 31.8569ZM17.9499 31.7797L18.1563 30.294L17.9499 31.7797ZM17.3943 31.7025L17.1879 33.1882L17.3943 31.7025ZM16.3175 31.447L16.8031 30.0278L16.3175 31.447ZM15.2751 31.0903L14.7895 32.5095L15.2751 31.0903ZM14.1391 31.0137L14.3841 32.4936V32.4936L14.1391 31.0137ZM13.5244 31.1155L13.7693 32.5953L13.5244 31.1155ZM12.9096 31.2172L12.6647 29.7373L12.9096 31.2172ZM11.7688 31.0779L12.3937 29.7142L11.7688 31.0779ZM11.2428 30.8368L11.8676 29.4732L11.2428 30.8368ZM10.7167 30.5958L10.0918 31.9594L10.7167 30.5958ZM9.72253 30.0145L8.84076 31.228L9.72253 30.0145ZM7.85448 28.6381L8.76788 27.4483L7.85448 28.6381ZM7.39071 28.2821L6.47732 29.4719L7.39071 28.2821ZM6.92695 27.9261L7.84035 26.7362L6.92695 27.9261ZM6.24762 26.3058L4.76896 26.558V26.558L6.24762 26.3058ZM5.67188 24.6163L6.81663 23.647L5.67188 24.6163ZM5.31171 24.1909L6.45646 23.2216L5.31171 24.1909ZM4.95154 23.7656L3.80679 24.7349L4.95154 23.7656ZM4.33704 22.8382L2.99895 23.5161L4.33704 22.8382ZM3.8284 21.8341L5.16649 21.1563L3.8284 21.8341ZM3.59663 20.7608L2.0978 20.7016L3.59663 20.7608ZM3.28797 18.5021L2.05395 19.3548L3.28797 18.5021ZM2.5353 17.4129L1.30128 18.2657L2.5353 17.4129ZM2.29804 15.6924L0.808422 15.5162L2.29804 15.6924ZM2.36758 15.1044L0.877962 14.9282L2.36758 15.1044ZM2.96564 14.0666L1.99343 12.9243L2.96564 14.0666ZM4.02267 13.1669L4.99487 14.3092L4.02267 13.1669ZM4.67414 12.1901L6.13491 12.5309L4.67414 12.1901ZM4.92004 11.136L3.45927 10.7952L4.92004 11.136ZM5.26477 10.1057L3.89214 9.50082L5.26477 10.1057ZM5.48655 9.60243L4.11391 8.99755L5.48655 9.60243ZM5.70833 9.09915L7.08096 9.70403L5.70833 9.09915ZM6.34788 8.23471L5.36689 7.09996L6.34788 8.23471ZM6.76566 7.87354L5.78467 6.73879L6.76566 7.87354ZM7.18344 7.51237L8.16443 8.64712L7.18344 7.51237ZM8.1161 6.07138L9.47006 6.71699L8.1161 6.07138ZM8.37354 5.53148L7.01959 4.88587L8.37354 5.53148ZM9.24425 4.92066L9.07197 3.43059L9.24425 4.92066ZM10.4708 4.77885L10.2985 3.28878L10.4708 4.77885ZM11.5619 4.48274L12.2014 5.83959L11.5619 4.48274ZM12.0398 4.25752L11.4003 2.90067L12.0398 4.25752ZM12.5176 4.03231L11.8781 2.67546L12.5176 4.03231ZM13.4904 3.60316L12.919 2.21627L13.4904 3.60316ZM18.7421 2.3798L18.5148 0.897107L18.7421 2.3798ZM19.8425 2.3564L20.0059 0.865328L19.8425 2.3564ZM20.3951 2.41696L20.2317 3.90803L20.3951 2.41696ZM20.9477 2.47753L20.7843 3.9686L20.9477 2.47753ZM21.9612 2.87911L21.0691 4.08499L21.9612 2.87911ZM22.8832 3.56116L21.9911 4.76704L22.8832 3.56116ZM23.9443 3.92747L23.8811 5.42614L23.9443 3.92747ZM26.2596 4.26699L25.5758 5.60208L26.2596 4.26699ZM26.7744 4.53066L26.0906 5.86575L26.7744 4.53066ZM27.2892 4.79434L27.973 3.45925L27.2892 4.79434ZM28.1602 5.51412L26.9779 6.43721L28.1602 5.51412ZM28.5163 5.97021L29.6986 5.04711L28.5163 5.97021ZM28.8724 6.42631L27.6901 7.34941L28.8724 6.42631ZM29.5413 7.35251L28.2926 8.18356L29.5413 7.35251ZM29.8542 7.82261L31.1029 6.99156L29.8542 7.82261ZM30.1671 8.29271L31.4158 7.46166L30.1671 8.29271ZM30.6931 9.27968L32.0798 8.70782L30.6931 9.27968ZM31.1194 10.3134L29.7327 10.8853L31.1194 10.3134ZM31.5907 11.3266L32.9214 10.6343L31.5907 11.3266ZM32.1069 12.3191L30.7762 13.0113L32.1069 12.3191ZM32.4744 13.3645L33.9455 13.0717L32.4744 13.3645ZM32.693 14.4629L31.2218 14.7556L32.693 14.4629ZM32.9915 15.509L31.5897 16.0429L32.9915 15.509ZM33.1808 16.006L34.5826 15.4721L33.1808 16.006ZM33.3701 16.503L34.7719 15.9691L33.3701 16.503ZM32.8582 17.5455L31.4064 17.1682L32.8582 17.5455ZM32.7164 18.0911L31.2647 17.7137L31.1229 18.2593L32.5746 18.6366L34.0264 19.0139L34.1682 18.4684L32.7164 18.0911ZM32.5746 18.6366L31.1229 18.2593C31.0307 18.6139 30.9368 18.9615 30.8413 19.3019L32.2855 19.7072L33.7297 20.1125C33.8307 19.7528 33.9295 19.3866 34.0264 19.0139L32.5746 18.6366ZM32.2855 19.7072L30.8413 19.3019L30.694 19.827L32.1382 20.2323L33.5824 20.6375L33.7297 20.1125L32.2855 19.7072ZM32.1382 20.2323L30.694 19.827L30.5466 20.3521L31.9908 20.7573L33.435 21.1626L33.5824 20.6375L32.1382 20.2323ZM31.9908 20.7573L30.5466 20.3521C30.3996 20.8759 30.3483 21.419 30.3747 21.9696L31.873 21.8978L33.3712 21.8261C33.3583 21.5561 33.3856 21.3389 33.435 21.1626L31.9908 20.7573ZM31.873 21.8978L30.3747 21.9696L30.4041 22.585L31.9024 22.5132L33.4007 22.4414L33.3712 21.8261L31.873 21.8978ZM31.9024 22.5132L30.4041 22.585L30.4336 23.2004L31.9319 23.1286L33.4302 23.0568L33.4007 22.4414L31.9024 22.5132ZM31.9319 23.1286L30.4336 23.2004C30.4348 23.2245 30.4336 23.2394 30.4327 23.2467C30.4319 23.2538 30.4311 23.2553 30.4318 23.2531C30.4326 23.2507 30.4337 23.248 30.4347 23.2461C30.4357 23.2444 30.4347 23.2467 30.4295 23.2531L31.5962 24.1959L32.7629 25.1387C33.2523 24.533 33.4663 23.8103 33.4302 23.0568L31.9319 23.1286ZM31.5962 24.1959L30.4295 23.2531L30.0643 23.705L31.231 24.6478L32.3977 25.5906L32.7629 25.1387L31.5962 24.1959ZM31.231 24.6478L30.0643 23.705L29.6992 24.1569L30.8658 25.0997L32.0325 26.0425L32.3977 25.5906L31.231 24.6478ZM30.8658 25.0997L29.6992 24.1569C29.5491 24.3426 29.3771 24.5005 29.1796 24.634L30.0196 25.8768L30.8596 27.1195C31.3035 26.8195 31.6957 26.4593 32.0325 26.0425L30.8658 25.0997ZM30.0196 25.8768L29.1796 24.634L28.6986 24.9591L29.5386 26.2019L30.3785 27.4446L30.8596 27.1195L30.0196 25.8768ZM29.5386 26.2019L28.6986 24.9591L28.2175 25.2843L29.0575 26.527L29.8975 27.7698L30.3785 27.4446L29.5386 26.2019ZM29.0575 26.527L28.2175 25.2843C27.7774 25.5818 27.3882 25.9363 27.0586 26.3489L28.2306 27.2851L29.4025 28.2214C29.5341 28.0566 29.6962 27.9058 29.8975 27.7698L29.0575 26.527ZM28.2306 27.2851L27.0586 26.3489L26.7127 26.7818L27.8847 27.7181L29.0566 28.6543L29.4025 28.2214L28.2306 27.2851ZM27.8847 27.7181L26.7127 26.7818L26.3668 27.2148L27.5388 28.1511L28.7107 29.0873L29.0566 28.6543L27.8847 27.7181ZM27.5388 28.1511L26.3668 27.2148C26.0883 27.5634 25.8267 27.9461 25.5803 28.3589L26.8682 29.1278L28.1561 29.8968C28.3426 29.5845 28.528 29.316 28.7107 29.0873L27.5388 28.1511ZM26.8682 29.1278L25.5803 28.3589L25.2556 28.9027L26.5435 29.6716L27.8315 30.4406L28.1561 29.8968L26.8682 29.1278ZM26.5435 29.6716L25.2556 28.9027L24.9309 29.4465L26.2189 30.2154L27.5068 30.9844L27.8315 30.4406L26.5435 29.6716ZM26.2189 30.2154L24.9309 29.4465C24.9472 29.4192 25.0129 29.33 25.146 29.2642C25.2751 29.2004 25.369 29.2074 25.3669 29.2072L25.2357 30.7014L25.1045 32.1957C25.5415 32.234 26.0187 32.1793 26.4755 31.9535C26.9363 31.7257 27.274 31.3742 27.5068 30.9844L26.2189 30.2154ZM25.2357 30.7014L25.3669 29.2072L24.7085 29.1494L24.5773 30.6436L24.4461 32.1379L25.1045 32.1957L25.2357 30.7014ZM24.5773 30.6436L24.7085 29.1494L24.05 29.0915L23.9188 30.5858L23.7876 32.08L24.4461 32.1379L24.5773 30.6436ZM23.9188 30.5858L24.05 29.0915C23.1818 29.0153 22.369 29.2969 21.743 29.9268L22.807 30.9842L23.871 32.0415C23.8767 32.0358 23.8744 32.0391 23.8634 32.0462C23.852 32.0536 23.8363 32.0619 23.8176 32.0686C23.799 32.0752 23.7841 32.078 23.7758 32.079C23.7681 32.0799 23.7712 32.0786 23.7876 32.08L23.9188 30.5858ZM22.807 30.9842L21.743 29.9268L21.2897 30.383L22.3537 31.4403L23.4176 32.4977L23.871 32.0415L22.807 30.9842ZM22.3537 31.4403L21.2897 30.383L20.8364 30.8392L21.9003 31.8965L22.9643 32.9539L23.4176 32.4977L22.3537 31.4403ZM21.9003 31.8965L20.8364 30.8392C20.8234 30.8522 20.855 30.8169 20.935 30.7901C21.0185 30.7621 21.0863 30.7665 21.1097 30.7706L20.8505 32.248L20.5913 33.7255C21.5065 33.886 22.3416 33.5805 22.9643 32.9539L21.9003 31.8965ZM20.8505 32.248L21.1097 30.7706L20.5133 30.6659L20.254 32.1434L19.9948 33.6208L20.5913 33.7255L20.8505 32.248ZM20.254 32.1434L20.5133 30.6659L19.9168 30.5613L19.6575 32.0387L19.3983 33.5161L19.9948 33.6208L20.254 32.1434ZM19.6575 32.0387L19.9168 30.5613C19.5029 30.4887 19.1012 30.4252 18.7118 30.3711L18.5054 31.8569L18.2991 33.3426C18.6505 33.3914 19.0168 33.4492 19.3983 33.5161L19.6575 32.0387ZM18.5054 31.8569L18.7118 30.3711L18.1563 30.294L17.9499 31.7797L17.7435 33.2654L18.2991 33.3426L18.5054 31.8569ZM17.9499 31.7797L18.1563 30.294L17.6007 30.2168L17.3943 31.7025L17.1879 33.1882L17.7435 33.2654L17.9499 31.7797ZM17.3943 31.7025L17.6007 30.2168C17.3235 30.1783 17.0582 30.1151 16.8031 30.0278L16.3175 31.447L15.8319 32.8662C16.2718 33.0167 16.7243 33.1238 17.1879 33.1882L17.3943 31.7025ZM16.3175 31.447L16.8031 30.0278L16.2819 29.8494L15.7963 31.2687L15.3107 32.6879L15.8319 32.8662L16.3175 31.447ZM15.7963 31.2687L16.2819 29.8494L15.7607 29.6711L15.2751 31.0903L14.7895 32.5095L15.3107 32.6879L15.7963 31.2687ZM15.2751 31.0903L15.7607 29.6711C15.1492 29.4619 14.5163 29.4309 13.8942 29.5339L14.1391 31.0137L14.3841 32.4936C14.5816 32.4609 14.7061 32.481 14.7895 32.5095L15.2751 31.0903ZM14.1391 31.0137L13.8942 29.5339L13.2795 29.6356L13.5244 31.1155L13.7693 32.5953L14.3841 32.4936L14.1391 31.0137ZM13.5244 31.1155L13.2795 29.6356L12.6647 29.7373L12.9096 31.2172L13.1545 32.6971L13.7693 32.5953L13.5244 31.1155ZM12.9096 31.2172L12.6647 29.7373C12.5261 29.7603 12.4514 29.7407 12.3937 29.7142L11.7688 31.0779L11.1439 32.4415C11.7876 32.7365 12.4734 32.8098 13.1545 32.6971L12.9096 31.2172ZM11.7688 31.0779L12.3937 29.7142L11.8676 29.4732L11.2428 30.8368L10.6179 32.2005L11.1439 32.4415L11.7688 31.0779ZM11.2428 30.8368L11.8676 29.4732L11.3416 29.2321L10.7167 30.5958L10.0918 31.9594L10.6179 32.2005L11.2428 30.8368ZM10.7167 30.5958L11.3416 29.2321C11.0813 29.1128 10.8359 28.9694 10.6043 28.8011L9.72253 30.0145L8.84076 31.228C9.23327 31.5132 9.65071 31.7573 10.0918 31.9594L10.7167 30.5958ZM9.72253 30.0145L10.6043 28.8011L10.1362 28.4609L9.25444 29.6744L8.37267 30.8879L8.84076 31.228L9.72253 30.0145ZM9.25444 29.6744L10.1362 28.4609L9.66811 28.1208L8.78634 29.3343L7.90457 30.5477L8.37267 30.8879L9.25444 29.6744ZM8.78634 29.3343L9.66811 28.1208C9.3668 27.9018 9.06672 27.6777 8.76788 27.4483L7.85448 28.6381L6.94108 29.8279C7.26059 30.0732 7.58175 30.3131 7.90457 30.5477L8.78634 29.3343ZM7.85448 28.6381L8.76788 27.4483L8.30411 27.0922L7.39071 28.2821L6.47732 29.4719L6.94108 29.8279L7.85448 28.6381ZM7.39071 28.2821L8.30411 27.0922L7.84035 26.7362L6.92695 27.9261L6.01355 29.1159L6.47732 29.4719L7.39071 28.2821ZM6.92695 27.9261L7.84035 26.7362C7.8374 26.734 7.83886 26.7347 7.84242 26.7388C7.84604 26.7429 7.84894 26.7471 7.85062 26.75C7.85221 26.7527 7.85069 26.7508 7.84757 26.7419C7.84435 26.7327 7.839 26.7148 7.83406 26.6858L6.3554 26.9379L4.87675 27.1901C5.00546 27.9449 5.37443 28.6253 6.01355 29.1159L6.92695 27.9261ZM6.3554 26.9379L7.83406 26.6858L7.72628 26.0537L6.24762 26.3058L4.76896 26.558L4.87675 27.1901L6.3554 26.9379ZM6.24762 26.3058L7.72628 26.0537L7.6185 25.4216L6.13984 25.6738L4.66118 25.9259L4.76896 26.558L6.24762 26.3058ZM6.13984 25.6738L7.6185 25.4216C7.50841 24.776 7.25494 24.1646 6.81663 23.647L5.67188 24.6163L4.52714 25.5856C4.56906 25.6351 4.62755 25.7287 4.66118 25.9259L6.13984 25.6738ZM5.67188 24.6163L6.81663 23.647L6.45646 23.2216L5.31171 24.1909L4.16697 25.1602L4.52714 25.5856L5.67188 24.6163ZM5.31171 24.1909L6.45646 23.2216L6.09628 22.7963L4.95154 23.7656L3.80679 24.7349L4.16697 25.1602L5.31171 24.1909ZM4.95154 23.7656L6.09628 22.7963C5.93249 22.6028 5.79233 22.3917 5.67513 22.1603L4.33704 22.8382L2.99895 23.5161C3.22085 23.9541 3.49035 24.3612 3.80679 24.7349L4.95154 23.7656ZM4.33704 22.8382L5.67513 22.1603L5.42081 21.6583L4.08272 22.3362L2.74463 23.014L2.99895 23.5161L4.33704 22.8382ZM4.08272 22.3362L5.42081 21.6583L5.16649 21.1563L3.8284 21.8341L2.4903 22.512L2.74463 23.014L4.08272 22.3362ZM3.8284 21.8341L5.16649 21.1563C5.11436 21.0534 5.09034 20.9498 5.09546 20.8199L3.59663 20.7608L2.0978 20.7016C2.07285 21.3336 2.20334 21.9456 2.4903 22.512L3.8284 21.8341ZM3.59663 20.7608L5.09546 20.8199L5.11802 20.2486L3.61919 20.1894L2.12036 20.1302L2.0978 20.7016L3.59663 20.7608ZM3.61919 20.1894L5.11802 20.2486L5.14058 19.6772L3.64175 19.618L2.14292 19.5589L2.12036 20.1302L3.61919 20.1894ZM3.64175 19.618L5.14058 19.6772C5.17039 18.9222 4.92729 18.2358 4.52199 17.6493L3.28797 18.5021L2.05395 19.3548C2.15044 19.4945 2.14319 19.5521 2.14292 19.5589L3.64175 19.618ZM3.28797 18.5021L4.52199 17.6493L4.14565 17.1047L2.91164 17.9575L1.67762 18.8102L2.05395 19.3548L3.28797 18.5021ZM2.91164 17.9575L4.14565 17.1047L3.76932 16.5601L2.5353 17.4129L1.30128 18.2657L1.67762 18.8102L2.91164 17.9575ZM2.5353 17.4129L3.76932 16.5601C3.72849 16.5011 3.71948 16.4698 3.71825 16.4653C3.71745 16.4623 3.71758 16.4619 3.71765 16.4629C3.71772 16.4638 3.71745 16.4622 3.71812 16.4565L2.2285 16.2803L0.738882 16.1041C0.644491 16.9022 0.86908 17.6402 1.30128 18.2657L2.5353 17.4129ZM2.2285 16.2803L3.71812 16.4565L3.78766 15.8685L2.29804 15.6924L0.808422 15.5162L0.738882 16.1041L2.2285 16.2803ZM2.29804 15.6924L3.78766 15.8685L3.8572 15.2806L2.36758 15.1044L0.877962 14.9282L0.808422 15.5162L2.29804 15.6924ZM2.36758 15.1044L3.8572 15.2806C3.857 15.2823 3.85619 15.287 3.85421 15.2929C3.85225 15.2988 3.85064 15.3014 3.85151 15.2999C3.85294 15.2974 3.87213 15.2648 3.93784 15.2089L2.96564 14.0666L1.99343 12.9243C1.40583 13.4244 0.9763 14.0967 0.877962 14.9282L2.36758 15.1044ZM2.96564 14.0666L3.93784 15.2089L4.46635 14.7591L3.49415 13.6168L2.52195 12.4745L1.99343 12.9243L2.96564 14.0666ZM3.49415 13.6168L4.46635 14.7591L4.99487 14.3092L4.02267 13.1669L3.05047 12.0247L2.52195 12.4745L3.49415 13.6168ZM4.02267 13.1669L4.99487 14.3092C5.52228 13.8604 5.96175 13.2731 6.13491 12.5309L4.67414 12.1901L3.21336 11.8493C3.2166 11.8354 3.21907 11.8397 3.20185 11.8656C3.1829 11.894 3.13948 11.9489 3.05047 12.0247L4.02267 13.1669ZM4.67414 12.1901L6.13491 12.5309L6.25787 12.0038L4.79709 11.663L3.33631 11.3223L3.21336 11.8493L4.67414 12.1901ZM4.79709 11.663L6.25787 12.0038L6.38082 11.4768L4.92004 11.136L3.45927 10.7952L3.33631 11.3223L4.79709 11.663ZM4.92004 11.136L6.38082 11.4768C6.44132 11.2175 6.52645 10.9624 6.63741 10.7106L5.26477 10.1057L3.89214 9.50082C3.70739 9.92006 3.56271 10.3518 3.45927 10.7952L4.92004 11.136ZM5.26477 10.1057L6.63741 10.7106L6.85918 10.2073L5.48655 9.60243L4.11391 8.99755L3.89214 9.50082L5.26477 10.1057ZM5.48655 9.60243L6.85918 10.2073L7.08096 9.70403L5.70833 9.09915L4.33569 8.49428L4.11391 8.99755L5.48655 9.60243ZM5.70833 9.09915L7.08096 9.70403C7.13876 9.57285 7.21784 9.46545 7.32887 9.36946L6.34788 8.23471L5.36689 7.09996C4.92089 7.48553 4.57359 7.95442 4.33569 8.49428L5.70833 9.09915ZM6.34788 8.23471L7.32887 9.36946L7.74665 9.00829L6.76566 7.87354L5.78467 6.73879L5.36689 7.09996L6.34788 8.23471ZM6.76566 7.87354L7.74665 9.00829L8.16443 8.64712L7.18344 7.51237L6.20245 6.37762L5.78467 6.73879L6.76566 7.87354ZM7.18344 7.51237L8.16443 8.64712C8.61238 8.25986 8.95929 7.78818 9.21261 7.2569L7.85866 6.61129L6.5047 5.96569C6.41477 6.15429 6.31153 6.28332 6.20245 6.37762L7.18344 7.51237ZM7.85866 6.61129L9.21261 7.2569L9.47006 6.71699L8.1161 6.07138L6.76214 5.42578L6.5047 5.96569L7.85866 6.61129ZM8.1161 6.07138L9.47006 6.71699L9.7275 6.17708L8.37354 5.53148L7.01959 4.88587L6.76214 5.42578L8.1161 6.07138ZM8.37354 5.53148L9.7275 6.17708C9.7162 6.20077 9.67323 6.27236 9.58138 6.33679C9.53932 6.3663 9.49907 6.38559 9.46651 6.39727C9.43488 6.40862 9.41627 6.41077 9.41653 6.41074L9.24425 4.92066L9.07197 3.43059C8.17014 3.53486 7.42201 4.04191 7.01959 4.88587L8.37354 5.53148ZM9.24425 4.92066L9.41653 6.41074L10.0298 6.33983L9.85752 4.84976L9.68524 3.35968L9.07197 3.43059L9.24425 4.92066ZM9.85752 4.84976L10.0298 6.33983L10.6431 6.26893L10.4708 4.77885L10.2985 3.28878L9.68524 3.35968L9.85752 4.84976ZM10.4708 4.77885L10.6431 6.26893C11.1872 6.20602 11.7129 6.06983 12.2014 5.83959L11.5619 4.48274L10.9224 3.12588C10.7738 3.19593 10.5721 3.25715 10.2985 3.28878L10.4708 4.77885ZM11.5619 4.48274L12.2014 5.83959L12.6792 5.61438L12.0398 4.25752L11.4003 2.90067L10.9224 3.12588L11.5619 4.48274ZM12.0398 4.25752L12.6792 5.61438L13.1571 5.38916L12.5176 4.03231L11.8781 2.67546L11.4003 2.90067L12.0398 4.25752ZM12.5176 4.03231L13.1571 5.38916C13.4529 5.24973 13.7545 5.11668 14.0619 4.99005L13.4904 3.60316L12.919 2.21627C12.5664 2.36155 12.2194 2.5146 11.8781 2.67546L12.5176 4.03231ZM13.4904 3.60316L14.0619 4.99005L14.5568 4.78611L13.9854 3.39922L13.4139 2.01234L12.919 2.21627L13.4904 3.60316ZM13.9854 3.39922L14.5568 4.78611L15.0518 4.58217L14.4803 3.19529L13.9089 1.8084L13.4139 2.01234L13.9854 3.39922ZM14.4803 3.19529L15.0518 4.58217C15.2779 4.48898 15.5122 4.42177 15.7566 4.38036L15.5061 2.90143L15.2555 1.4225C14.7922 1.50098 14.3426 1.62967 13.9089 1.8084L14.4803 3.19529ZM15.5061 2.90143L15.7566 4.38036L16.2874 4.29045L16.0368 2.81152L15.7863 1.33259L15.2555 1.4225L15.5061 2.90143ZM16.0368 2.81152L16.2874 4.29045L16.8182 4.20053L16.5676 2.7216L16.3171 1.24267L15.7863 1.33259L16.0368 2.81152ZM16.5676 2.7216L16.8182 4.20053C17.164 4.14194 17.5158 4.08523 17.8735 4.03041L17.6463 2.54772L17.4191 1.06503C17.0463 1.12217 16.6789 1.18138 16.3171 1.24267L16.5676 2.7216ZM17.6463 2.54772L17.8735 4.03041L18.4214 3.94645L18.1942 2.46376L17.9669 0.98107L17.4191 1.06503L17.6463 2.54772ZM18.1942 2.46376L18.4214 3.94645L18.9693 3.86249L18.7421 2.3798L18.5148 0.897107L17.9669 0.98107L18.1942 2.46376ZM18.7421 2.3798L18.9693 3.86249C19.2049 3.82638 19.4403 3.8213 19.6791 3.84747L19.8425 2.3564L20.0059 0.865328C19.5079 0.810742 19.0098 0.821259 18.5148 0.897107L18.7421 2.3798ZM19.8425 2.3564L19.6791 3.84747L20.2317 3.90803L20.3951 2.41696L20.5585 0.925892L20.0059 0.865328L19.8425 2.3564ZM20.3951 2.41696L20.2317 3.90803L20.7843 3.9686L20.9477 2.47753L21.1111 0.986456L20.5585 0.925892L20.3951 2.41696ZM20.9477 2.47753L20.7843 3.9686C20.8802 3.97912 20.9682 4.0103 21.0691 4.08499L21.9612 2.87911L22.8533 1.67324C22.3397 1.29323 21.7519 1.05669 21.1111 0.986456L20.9477 2.47753ZM21.9612 2.87911L21.0691 4.08499L21.5301 4.42601L22.4222 3.22014L23.3143 2.01426L22.8533 1.67324L21.9612 2.87911ZM22.4222 3.22014L21.5301 4.42601L21.9911 4.76704L22.8832 3.56116L23.7753 2.35529L23.3143 2.01426L22.4222 3.22014ZM22.8832 3.56116L21.9911 4.76704C22.5511 5.18135 23.1967 5.39731 23.8811 5.42614L23.9443 3.92747L24.0074 2.4288C23.8916 2.42392 23.8299 2.39567 23.7753 2.35529L22.8832 3.56116ZM23.9443 3.92747L23.8811 5.42614L24.4813 5.45142L24.5444 3.95275L24.6076 2.45408L24.0074 2.4288L23.9443 3.92747ZM24.5444 3.95275L24.4813 5.45142L25.0814 5.4767L25.1446 3.97803L25.2077 2.47936L24.6076 2.45408L24.5444 3.95275ZM25.1446 3.97803L25.0814 5.4767C25.2738 5.4848 25.4327 5.52878 25.5758 5.60208L26.2596 4.26699L26.9433 2.9319C26.4 2.65363 25.8155 2.50496 25.2077 2.47936L25.1446 3.97803ZM26.2596 4.26699L25.5758 5.60208L26.0906 5.86575L26.7744 4.53066L27.4582 3.19557L26.9433 2.9319L26.2596 4.26699ZM26.7744 4.53066L26.0906 5.86575L26.6055 6.12943L27.2892 4.79434L27.973 3.45925L27.4582 3.19557L26.7744 4.53066ZM27.2892 4.79434L26.6055 6.12943C26.7545 6.20573 26.8747 6.30503 26.9779 6.43721L28.1602 5.51412L29.3425 4.59102C28.9709 4.11506 28.5105 3.73451 27.973 3.45925L27.2892 4.79434ZM28.1602 5.51412L26.9779 6.43721L27.334 6.89331L28.5163 5.97021L29.6986 5.04711L29.3425 4.59102L28.1602 5.51412ZM28.5163 5.97021L27.334 6.89331L27.6901 7.34941L28.8724 6.42631L30.0547 5.50321L29.6986 5.04711L28.5163 5.97021ZM28.8724 6.42631L27.6901 7.34941C27.9047 7.62438 28.1055 7.90244 28.2926 8.18356L29.5413 7.35251L30.7901 6.52146C30.56 6.17578 30.3148 5.83638 30.0547 5.50321L28.8724 6.42631ZM29.5413 7.35251L28.2926 8.18356L28.6055 8.65366L29.8542 7.82261L31.1029 6.99156L30.7901 6.52146L29.5413 7.35251ZM29.8542 7.82261L28.6055 8.65366L28.9183 9.12376L30.1671 8.29271L31.4158 7.46166L31.1029 6.99156L29.8542 7.82261ZM30.1671 8.29271L28.9183 9.12376C29.0731 9.35631 29.202 9.59857 29.3064 9.85154L30.6931 9.27968L32.0798 8.70782C31.8999 8.27163 31.6782 7.85592 31.4158 7.46166L30.1671 8.29271ZM30.6931 9.27968L29.3064 9.85154L29.5195 10.3684L30.9062 9.79656L32.2929 9.2247L32.0798 8.70782L30.6931 9.27968ZM30.9062 9.79656L29.5195 10.3684L29.7327 10.8853L31.1194 10.3134L32.5061 9.74157L32.2929 9.2247L30.9062 9.79656ZM31.1194 10.3134L29.7327 10.8853C29.8916 11.2708 30.0674 11.6487 30.2599 12.0188L31.5907 11.3266L32.9214 10.6343C32.7697 10.3428 32.6313 10.0452 32.5061 9.74157L31.1194 10.3134ZM31.5907 11.3266L30.2599 12.0188L30.5181 12.515L31.8488 11.8228L33.1795 11.1306L32.9214 10.6343L31.5907 11.3266ZM31.8488 11.8228L30.5181 12.515L30.7762 13.0113L32.1069 12.3191L33.4377 11.6268L33.1795 11.1306L31.8488 11.8228ZM32.1069 12.3191L30.7762 13.0113C30.8828 13.2161 30.958 13.4301 31.0032 13.6573L32.4744 13.3645L33.9455 13.0717C33.845 12.5666 33.6753 12.0836 33.4377 11.6268L32.1069 12.3191ZM32.4744 13.3645L31.0032 13.6573L31.1125 14.2064L32.5837 13.9137L34.0548 13.6209L33.9455 13.0717L32.4744 13.3645ZM32.5837 13.9137L31.1125 14.2064L31.2218 14.7556L32.693 14.4629L34.1641 14.1701L34.0548 13.6209L32.5837 13.9137ZM32.693 14.4629L31.2218 14.7556C31.3102 15.1996 31.4322 15.6293 31.5897 16.0429L32.9915 15.509L34.3933 14.9752C34.2985 14.7261 34.2215 14.4583 34.1641 14.1701L32.693 14.4629ZM32.9915 15.509L31.5897 16.0429L31.779 16.5399L33.1808 16.006L34.5826 15.4721L34.3933 14.9752L32.9915 15.509ZM33.1808 16.006L31.779 16.5399L31.9683 17.0369L33.3701 16.503L34.7719 15.9691L34.5826 15.4721L33.1808 16.006ZM33.3701 16.503L31.9683 17.0369C32.0249 17.1855 31.9972 17.1523 31.9845 17.0242C31.9807 16.9865 31.9456 16.6885 32.1078 16.3384C32.2032 16.1326 32.3733 15.8971 32.6503 15.7228C32.9253 15.5497 33.2052 15.5 33.4195 15.5V17V18.5C33.6571 18.5 33.9569 18.4451 34.2484 18.2617C34.5418 18.077 34.725 17.826 34.8299 17.5995C35.0113 17.2079 34.9817 16.8478 34.9697 16.7273C34.9405 16.4335 34.8415 16.1518 34.7719 15.9691L33.3701 16.503ZM33.4195 17V15.5H33.2797V17V18.5H33.4195V17ZM33.2797 17V15.5H33.1398V17V18.5H33.2797V17ZM33.1398 17V15.5C32.5927 15.5 32.2147 15.7734 32.0244 15.9584C31.8383 16.1393 31.7272 16.3311 31.6666 16.4483C31.5428 16.6882 31.4626 16.9522 31.4064 17.1682L32.8582 17.5455L34.31 17.9228C34.3484 17.7752 34.3624 17.7664 34.3324 17.8245C34.3188 17.8508 34.2545 17.9744 34.1152 18.1098C33.9716 18.2493 33.6403 18.5 33.1398 18.5V17ZM32.8582 17.5455L31.4064 17.1682L31.2647 17.7137L32.7164 18.0911L34.1682 18.4684L34.31 17.9228L32.8582 17.5455Z" fill="#F3B8FF"/>
<path d="M28.532 18.6148L27.0913 18.1972L28.532 18.6148ZM28.188 19.6578L29.5937 20.1813L28.188 19.6578ZM28.0001 20.1626L26.5944 19.6391L28.0001 20.1626ZM27.8121 20.6673L29.2178 21.1908L27.8121 20.6673ZM27.569 21.785L26.0751 21.6508L27.569 21.785ZM27.4589 23.0107L28.9529 23.145L27.4589 23.0107ZM26.9574 24.0012L25.9887 22.856L26.9574 24.0012ZM26.0645 24.7565L27.0332 25.9018L26.0645 24.7565ZM25.0754 25.3317L25.5887 26.7412L25.0754 25.3317ZM24.5329 25.5293L24.0196 24.1199L24.5329 25.5293ZM23.9903 25.7269L23.477 24.3175L23.9903 25.7269ZM22.9945 26.2334L23.8394 27.4728L22.9945 26.2334ZM22.0882 26.8513L21.2433 25.6119L22.0882 26.8513ZM20.1414 28.3506L19.2065 27.1776L20.1414 28.3506ZM19.0604 28.4327L18.3479 29.7527L19.0604 28.4327ZM17.894 27.8032L18.6065 26.4832L17.894 27.8032ZM16.7005 27.6937L16.2226 26.2719L16.7005 27.6937ZM15.4799 28.104L15.9578 29.5258L15.4799 28.104ZM14.3986 27.922L13.4461 29.0808L14.3986 27.922ZM13.4566 27.1478L14.4091 25.989L13.4566 27.1478ZM12.5636 26.3964L11.5834 27.5318L12.5636 26.3964ZM12.1417 26.0321L13.1219 24.8967L12.1417 26.0321ZM11.7197 25.6679L10.7395 26.8033L11.7197 25.6679ZM10.986 24.8582L9.75718 25.7185L10.986 24.8582ZM10.3624 23.9676L11.5911 23.1073L10.3624 23.9676ZM9.51083 23.2158L8.77023 24.5202L9.51083 23.2158ZM8.43136 22.6029L9.17197 21.2985L8.43136 22.6029ZM7.66119 21.7596L6.28281 22.3512L7.66119 21.7596ZM7.43075 21.2227L6.05237 21.8144L7.43075 21.2227ZM6.70505 18.4165L5.22227 18.6431L6.70505 18.4165ZM6.53429 16.6587L5.03794 16.7633L6.53429 16.6587ZM6.87911 15.001L7.99686 16.0013L6.87911 15.001ZM7.30641 14.5235L6.18865 13.5232L7.30641 14.5235ZM7.73371 14.046L6.61596 13.0457L7.73371 14.046ZM8.5736 11.9657L7.12095 11.5917L8.5736 11.9657ZM9.00038 10.95L7.71465 10.1774L9.00038 10.95ZM9.5789 9.9872L8.29316 9.21462L9.5789 9.9872ZM10.3754 9.24943L9.69877 7.91072L10.3754 9.24943ZM11.3899 8.73666L10.7133 7.39794L11.3899 8.73666ZM12.2232 7.90305L10.9171 7.16541L12.2232 7.90305ZM12.5492 7.32582L13.8553 8.06345L12.5492 7.32582ZM14.9397 5.6714L14.5252 4.22983L14.9397 5.6714ZM17.3185 6.54372L18.0686 5.24474L17.3185 6.54372ZM19.5099 6.78876L19.4147 5.29179L19.5099 6.78876ZM22.6043 7.48342L23.5476 6.31715L22.6043 7.48342ZM23.0282 7.82626L22.0849 8.99253L23.0282 7.82626ZM23.452 8.16911L22.5087 9.33537L23.452 8.16911ZM24.4407 8.69839L24.9109 7.274L24.4407 8.69839ZM25.0054 8.88482L24.5351 10.3092L25.0054 8.88482ZM25.5701 9.07126L25.0999 10.4956L25.5701 9.07126ZM26.2464 9.86011L27.7213 9.58708L26.2464 9.86011ZM26.4694 11.0649L24.9944 11.338L26.4694 11.0649ZM26.8084 12.1301L25.4622 12.7918L26.8084 12.1301ZM27.2633 13.0557L25.9171 13.7173L27.2633 13.0557ZM27.6726 14.0101L29.0794 13.4898L27.6726 14.0101ZM27.8544 14.5018L29.2613 13.9814L27.8544 14.5018ZM28.0363 14.9934L26.6294 15.5138L28.0363 14.9934ZM28.2626 15.8638L26.7729 16.0388L28.2626 15.8638ZM28.3071 16.2425L29.7969 16.0676L28.3071 16.2425ZM28.3516 16.6213L26.8618 16.7962L28.3516 16.6213ZM28.844 17.5383L30.2847 17.9558L28.844 17.5383ZM28.688 18.0765L27.2473 17.659L27.0913 18.1972L28.532 18.6148L29.9727 19.0323L30.1287 18.494L28.688 18.0765ZM28.532 18.6148L27.0913 18.1972C26.9972 18.5217 26.8942 18.834 26.7823 19.1343L28.188 19.6578L29.5937 20.1813C29.7325 19.8085 29.8588 19.4254 29.9727 19.0323L28.532 18.6148ZM28.188 19.6578L26.7823 19.1343L26.5944 19.6391L28.0001 20.1626L29.4058 20.686L29.5937 20.1813L28.188 19.6578ZM28.0001 20.1626L26.5944 19.6391L26.4064 20.1439L27.8121 20.6673L29.2178 21.1908L29.4058 20.686L28.0001 20.1626ZM27.8121 20.6673L26.4064 20.1439C26.2284 20.6219 26.1221 21.1276 26.0751 21.6508L27.569 21.785L29.063 21.9192C29.0894 21.6252 29.1452 21.3858 29.2178 21.1908L27.8121 20.6673ZM27.569 21.785L26.0751 21.6508L26.02 22.2636L27.514 22.3979L29.008 22.5321L29.063 21.9192L27.569 21.785ZM27.514 22.3979L26.02 22.2636L25.9649 22.8765L27.4589 23.0107L28.9529 23.145L29.008 22.5321L27.514 22.3979ZM27.4589 23.0107L25.9649 22.8765C25.9641 22.886 25.9631 22.8928 25.9623 22.8971C25.9615 22.9014 25.961 22.9034 25.961 22.9034C25.961 22.9034 25.9614 22.9018 25.9626 22.8987C25.9638 22.8957 25.9654 22.8918 25.9678 22.8872C25.9727 22.8775 25.9785 22.8686 25.9841 22.8616C25.9896 22.8547 25.9922 22.8531 25.9887 22.856L26.9574 24.0012L27.9261 25.1465C28.542 24.6255 28.8829 23.9237 28.9529 23.145L27.4589 23.0107ZM26.9574 24.0012L25.9887 22.856L25.5422 23.2336L26.5109 24.3789L27.4797 25.5241L27.9261 25.1465L26.9574 24.0012ZM26.5109 24.3789L25.5422 23.2336L25.0958 23.6113L26.0645 24.7565L27.0332 25.9018L27.4797 25.5241L26.5109 24.3789ZM26.0645 24.7565L25.0958 23.6113C24.9315 23.7502 24.7556 23.8518 24.5622 23.9223L25.0754 25.3317L25.5887 26.7412C26.1188 26.5482 26.6023 26.2663 27.0332 25.9018L26.0645 24.7565ZM25.0754 25.3317L24.5622 23.9223L24.0196 24.1199L24.5329 25.5293L25.0461 26.9388L25.5887 26.7412L25.0754 25.3317ZM24.5329 25.5293L24.0196 24.1199L23.477 24.3175L23.9903 25.7269L24.5035 27.1364L25.0461 26.9388L24.5329 25.5293ZM23.9903 25.7269L23.477 24.3175C23.0043 24.4896 22.5601 24.7142 22.1496 24.994L22.9945 26.2334L23.8394 27.4728C24.0332 27.3407 24.2528 27.2277 24.5035 27.1364L23.9903 25.7269ZM22.9945 26.2334L22.1496 24.994L21.6964 25.3029L22.5414 26.5423L23.3863 27.7817L23.8394 27.4728L22.9945 26.2334ZM22.5414 26.5423L21.6964 25.3029L21.2433 25.6119L22.0882 26.8513L22.9331 28.0907L23.3863 27.7817L22.5414 26.5423ZM22.0882 26.8513L21.2433 25.6119C20.906 25.8418 20.5589 26.0998 20.2023 26.384L21.1372 27.557L22.0721 28.73C22.3793 28.4851 22.6663 28.2726 22.9331 28.0907L22.0882 26.8513ZM21.1372 27.557L20.2023 26.384L19.7044 26.7808L20.6393 27.9538L21.5742 29.1268L22.0721 28.73L21.1372 27.557ZM20.6393 27.9538L19.7044 26.7808L19.2065 27.1776L20.1414 28.3506L21.0763 29.5236L21.5742 29.1268L20.6393 27.9538ZM20.1414 28.3506L19.2065 27.1776C19.2338 27.1559 19.3394 27.0867 19.5086 27.0738C19.6729 27.0614 19.7709 27.1116 19.7728 27.1127L19.0604 28.4327L18.3479 29.7527C18.7386 29.9636 19.2112 30.1051 19.7358 30.0652C20.2653 30.025 20.7171 29.8099 21.0763 29.5236L20.1414 28.3506ZM19.0604 28.4327L19.7728 27.1127L19.1896 26.7979L18.4772 28.118L17.7648 29.438L18.3479 29.7527L19.0604 28.4327ZM18.4772 28.118L19.1896 26.7979L18.6065 26.4832L17.894 27.8032L17.1816 29.1232L17.7648 29.438L18.4772 28.118ZM17.894 27.8032L18.6065 26.4832C17.8642 26.0826 17.036 25.9984 16.2226 26.2719L16.7005 27.6937L17.1785 29.1155C17.1907 29.1114 17.194 29.1115 17.1895 29.1121C17.1874 29.1123 17.1842 29.1126 17.18 29.1127C17.1758 29.1128 17.1714 29.1126 17.167 29.1122C17.1626 29.1118 17.1588 29.1112 17.1561 29.1106C17.1533 29.1101 17.152 29.1097 17.1525 29.1098C17.1531 29.11 17.1627 29.113 17.1816 29.1232L17.894 27.8032ZM16.7005 27.6937L16.2226 26.2719L15.6123 26.477L16.0902 27.8988L16.5682 29.3207L17.1785 29.1155L16.7005 27.6937ZM16.0902 27.8988L15.6123 26.477L15.0019 26.6822L15.4799 28.104L15.9578 29.5258L16.5682 29.3207L16.0902 27.8988ZM15.4799 28.104L15.0019 26.6822C14.9915 26.6857 15.051 26.6647 15.1533 26.6819C15.2597 26.6998 15.3287 26.7449 15.351 26.7633L14.3986 27.922L13.4461 29.0808C14.186 29.689 15.0939 29.8162 15.9578 29.5258L15.4799 28.104ZM14.3986 27.922L15.351 26.7633L14.88 26.3761L13.9276 27.5349L12.9751 28.6937L13.4461 29.0808L14.3986 27.922ZM13.9276 27.5349L14.88 26.3761L14.4091 25.989L13.4566 27.1478L12.5041 28.3066L12.9751 28.6937L13.9276 27.5349ZM13.4566 27.1478L14.4091 25.989C14.1035 25.7379 13.8152 25.4952 13.5438 25.2609L12.5636 26.3964L11.5834 27.5318C11.8747 27.7833 12.1816 28.0415 12.5041 28.3066L13.4566 27.1478ZM12.5636 26.3964L13.5438 25.2609L13.1219 24.8967L12.1417 26.0321L11.1615 27.1676L11.5834 27.5318L12.5636 26.3964ZM12.1417 26.0321L13.1219 24.8967L12.6999 24.5324L11.7197 25.6679L10.7395 26.8033L11.1615 27.1676L12.1417 26.0321ZM11.7197 25.6679L12.6999 24.5324C12.5101 24.3686 12.3496 24.1906 12.2147 23.998L10.986 24.8582L9.75718 25.7185C10.038 26.1196 10.3667 26.4814 10.7395 26.8033L11.7197 25.6679ZM10.986 24.8582L12.2147 23.998L11.9029 23.5526L10.6742 24.4129L9.44538 25.2732L9.75718 25.7185L10.986 24.8582ZM10.6742 24.4129L11.9029 23.5526L11.5911 23.1073L10.3624 23.9676L9.13358 24.8279L9.44538 25.2732L10.6742 24.4129ZM10.3624 23.9676L11.5911 23.1073C11.2386 22.6037 10.7775 22.21 10.2514 21.9114L9.51083 23.2158L8.77023 24.5202C8.96384 24.6301 9.07041 24.7376 9.13358 24.8279L10.3624 23.9676ZM9.51083 23.2158L10.2514 21.9114L9.7117 21.6049L8.9711 22.9093L8.23049 24.2137L8.77023 24.5202L9.51083 23.2158ZM8.9711 22.9093L9.7117 21.6049L9.17197 21.2985L8.43136 22.6029L7.69076 23.9073L8.23049 24.2137L8.9711 22.9093ZM8.43136 22.6029L9.17197 21.2985C9.07788 21.245 9.05574 21.2056 9.03958 21.1679L7.66119 21.7596L6.28281 22.3512C6.57389 23.0294 7.06521 23.5521 7.69076 23.9073L8.43136 22.6029ZM7.66119 21.7596L9.03958 21.1679L8.80913 20.6311L7.43075 21.2227L6.05237 21.8144L6.28281 22.3512L7.66119 21.7596ZM7.43075 21.2227L8.80913 20.6311L8.57869 20.0942L7.20031 20.6859L5.82192 21.2775L6.05237 21.8144L7.43075 21.2227ZM7.20031 20.6859L8.57869 20.0942C8.47518 19.8531 8.40402 19.6043 8.36437 19.3449L6.88159 19.5715L5.39881 19.7981C5.47686 20.3087 5.61818 20.8029 5.82192 21.2775L7.20031 20.6859ZM6.88159 19.5715L8.36437 19.3449L8.2761 18.7673L6.79332 18.994L5.31054 19.2206L5.39881 19.7981L6.88159 19.5715ZM6.79332 18.994L8.2761 18.7673L8.18783 18.1898L6.70505 18.4165L5.22227 18.6431L5.31054 19.2206L6.79332 18.994ZM6.70505 18.4165L8.18783 18.1898C8.13524 17.8458 8.09656 17.4973 8.07188 17.1443L6.57553 17.2488L5.07918 17.3534C5.1095 17.7872 5.15715 18.2171 5.22227 18.6431L6.70505 18.4165ZM6.57553 17.2488L8.07188 17.1443L8.03064 16.5541L6.53429 16.6587L5.03794 16.7633L5.07918 17.3534L6.57553 17.2488ZM6.53429 16.6587L8.03064 16.5541L7.9894 15.964L6.49305 16.0686L4.9967 16.1731L5.03794 16.7633L6.53429 16.6587ZM6.49305 16.0686L7.9894 15.964C7.98934 15.9631 7.98981 15.9695 7.98822 15.9813C7.9866 15.9933 7.98355 16.0056 7.97955 16.0167C7.97561 16.0276 7.97245 16.0325 7.97335 16.0311C7.97443 16.0293 7.98089 16.0191 7.99686 16.0013L6.87911 15.001L5.76135 14.0007C5.23111 14.5932 4.93845 15.3396 4.9967 16.1731L6.49305 16.0686ZM6.87911 15.001L7.99686 16.0013L8.42417 15.5238L7.30641 14.5235L6.18865 13.5232L5.76135 14.0007L6.87911 15.001ZM7.30641 14.5235L8.42417 15.5238L8.85147 15.0463L7.73371 14.046L6.61596 13.0457L6.18865 13.5232L7.30641 14.5235ZM7.73371 14.046L8.85147 15.0463C9.2706 14.578 9.59065 14.0319 9.75119 13.4082L8.29854 13.0343L6.84589 12.6603C6.82306 12.749 6.76656 12.8774 6.61596 13.0457L7.73371 14.046ZM8.29854 13.0343L9.75119 13.4082L9.88872 12.8739L8.43607 12.5L6.98342 12.126L6.84589 12.6603L8.29854 13.0343ZM8.43607 12.5L9.88872 12.8739L10.0262 12.3396L8.5736 11.9657L7.12095 11.5917L6.98342 12.126L8.43607 12.5ZM8.5736 11.9657L10.0262 12.3396C10.0812 12.1261 10.1665 11.9216 10.2861 11.7225L9.00038 10.95L7.71465 10.1774C7.44857 10.6202 7.24938 11.0928 7.12095 11.5917L8.5736 11.9657ZM9.00038 10.95L10.2861 11.7225L10.5754 11.2412L9.28964 10.4686L8.0039 9.696L7.71465 10.1774L9.00038 10.95ZM9.28964 10.4686L10.5754 11.2412L10.8646 10.7598L9.5789 9.9872L8.29316 9.21462L8.0039 9.696L9.28964 10.4686ZM9.5789 9.9872L10.8646 10.7598C10.91 10.6843 10.963 10.6332 11.052 10.5881L10.3754 9.24943L9.69877 7.91072C9.11149 8.20755 8.63346 8.64828 8.29316 9.21462L9.5789 9.9872ZM10.3754 9.24943L11.052 10.5881L11.5593 10.3318L10.8827 8.99304L10.206 7.65433L9.69877 7.91072L10.3754 9.24943ZM10.8827 8.99304L11.5593 10.3318L12.0666 10.0754L11.3899 8.73666L10.7133 7.39794L10.206 7.65433L10.8827 8.99304ZM11.3899 8.73666L12.0666 10.0754C12.7111 9.7496 13.191 9.23969 13.5293 8.64068L12.2232 7.90305L10.9171 7.16541C10.8207 7.33603 10.7451 7.38186 10.7133 7.39794L11.3899 8.73666ZM12.2232 7.90305L13.5293 8.64068L13.8553 8.06345L12.5492 7.32582L11.2431 6.58819L10.9171 7.16541L12.2232 7.90305ZM12.5492 7.32582L13.8553 8.06345L14.1813 7.48623L12.8751 6.7486L11.569 6.01097L11.2431 6.58819L12.5492 7.32582ZM12.8751 6.7486L14.1813 7.48623C14.1964 7.45946 14.2078 7.44421 14.2136 7.43709C14.2193 7.43022 14.2205 7.42992 14.2167 7.43307C14.2127 7.43635 14.2069 7.44028 14.2006 7.44358C14.1944 7.44683 14.1918 7.44728 14.1952 7.4463L13.7807 6.00472L13.3661 4.56315C12.5625 4.79423 11.9587 5.32098 11.569 6.01097L12.8751 6.7486ZM13.7807 6.00472L14.1952 7.4463L14.7748 7.27964L14.3602 5.83806L13.9456 4.39649L13.3661 4.56315L13.7807 6.00472ZM14.3602 5.83806L14.7748 7.27964L15.3543 7.11298L14.9397 5.6714L14.5252 4.22983L13.9456 4.39649L14.3602 5.83806ZM14.9397 5.6714L15.3543 7.11298C15.3508 7.11399 15.3419 7.11607 15.3291 7.1169C15.3163 7.11775 15.3055 7.11695 15.2984 7.11588C15.2917 7.11485 15.2932 7.1143 15.304 7.11826C15.3151 7.12234 15.3367 7.13146 15.3689 7.15005L16.119 5.85107L16.8691 4.55209C16.1737 4.15051 15.3622 3.98912 14.5252 4.22983L14.9397 5.6714ZM16.119 5.85107L15.3689 7.15005L15.9687 7.49637L16.7188 6.19739L17.4689 4.89841L16.8691 4.55209L16.119 5.85107ZM16.7188 6.19739L15.9687 7.49637L16.5684 7.8427L17.3185 6.54372L18.0686 5.24474L17.4689 4.89841L16.7188 6.19739ZM17.3185 6.54372L16.5684 7.8427C17.1478 8.17725 17.8178 8.39947 18.5441 8.35326L18.4488 6.85628L18.3536 5.35931C18.3724 5.35812 18.2889 5.37195 18.0686 5.24474L17.3185 6.54372ZM18.4488 6.85628L18.5441 8.35326L19.0746 8.3195L18.9794 6.82252L18.8841 5.32555L18.3536 5.35931L18.4488 6.85628ZM18.9794 6.82252L19.0746 8.3195L19.6052 8.28574L19.5099 6.78876L19.4147 5.29179L18.8841 5.32555L18.9794 6.82252ZM19.5099 6.78876L19.6052 8.28574C19.8354 8.27109 20.0693 8.28434 20.3095 8.32762L20.5755 6.8514L20.8415 5.37517C20.3684 5.28992 19.8919 5.26142 19.4147 5.29179L19.5099 6.78876ZM20.5755 6.8514L20.3095 8.32762L20.8445 8.42402L21.1105 6.94779L21.3764 5.47156L20.8415 5.37517L20.5755 6.8514ZM21.1105 6.94779L20.8445 8.42402L21.3794 8.52041L21.6454 7.04418L21.9114 5.56795L21.3764 5.47156L21.1105 6.94779ZM21.6454 7.04418L21.3794 8.52041C21.4871 8.53981 21.5739 8.57926 21.661 8.64969L22.6043 7.48342L23.5476 6.31715C23.0695 5.93045 22.5171 5.67708 21.9114 5.56795L21.6454 7.04418ZM22.6043 7.48342L21.661 8.64969L22.0849 8.99253L23.0282 7.82626L23.9715 6.66L23.5476 6.31715L22.6043 7.48342ZM23.0282 7.82626L22.0849 8.99253L22.5087 9.33537L23.452 8.16911L24.3953 7.00284L23.9715 6.66L23.0282 7.82626ZM23.452 8.16911L22.5087 9.33537C22.9444 9.68776 23.4376 9.94688 23.9704 10.1228L24.4407 8.69839L24.9109 7.274C24.6907 7.20132 24.5248 7.10759 24.3953 7.00284L23.452 8.16911ZM24.4407 8.69839L23.9704 10.1228L24.5351 10.3092L25.0054 8.88482L25.4756 7.46044L24.9109 7.274L24.4407 8.69839ZM25.0054 8.88482L24.5351 10.3092L25.0999 10.4956L25.5701 9.07126L26.0403 7.64687L25.4756 7.46044L25.0054 8.88482ZM25.5701 9.07126L25.0999 10.4956C25.0669 10.4848 24.9724 10.4426 24.8827 10.3379C24.7948 10.2354 24.7737 10.1454 24.7714 10.1331L26.2464 9.86011L27.7213 9.58708C27.6447 9.17326 27.4737 8.75097 27.1604 8.38543C26.8452 8.01784 26.4498 7.78205 26.0403 7.64687L25.5701 9.07126ZM26.2464 9.86011L24.7714 10.1331L24.8829 10.7356L26.3579 10.4625L27.8328 10.1895L27.7213 9.58708L26.2464 9.86011ZM26.3579 10.4625L24.8829 10.7356L24.9944 11.338L26.4694 11.0649L27.9443 10.7919L27.8328 10.1895L26.3579 10.4625ZM26.4694 11.0649L24.9944 11.338C25.0892 11.8499 25.24 12.3397 25.4622 12.7918L26.8084 12.1301L28.1545 11.4685C28.0735 11.3035 27.9983 11.0832 27.9443 10.7919L26.4694 11.0649ZM26.8084 12.1301L25.4622 12.7918L25.6896 13.2546L27.0358 12.5929L28.382 11.9313L28.1545 11.4685L26.8084 12.1301ZM27.0358 12.5929L25.6896 13.2546L25.9171 13.7173L27.2633 13.0557L28.6095 12.394L28.382 11.9313L27.0358 12.5929ZM27.2633 13.0557L25.9171 13.7173C26.0457 13.9791 26.162 14.25 26.2657 14.5305L27.6726 14.0101L29.0794 13.4898C28.9407 13.1147 28.7841 12.7493 28.6095 12.394L27.2633 13.0557ZM27.6726 14.0101L26.2657 14.5305L26.4476 15.0221L27.8544 14.5018L29.2613 13.9814L29.0794 13.4898L27.6726 14.0101ZM27.8544 14.5018L26.4476 15.0221L26.6294 15.5138L28.0363 14.9934L29.4431 14.4731L29.2613 13.9814L27.8544 14.5018ZM28.0363 14.9934L26.6294 15.5138C26.7236 15.7685 26.7611 15.939 26.7729 16.0388L28.2626 15.8638L29.7524 15.6888C29.7048 15.2837 29.5914 14.8739 29.4431 14.4731L28.0363 14.9934ZM28.2626 15.8638L26.7729 16.0388L26.8173 16.4175L28.3071 16.2425L29.7969 16.0676L29.7524 15.6888L28.2626 15.8638ZM28.3071 16.2425L26.8173 16.4175L26.8618 16.7962L28.3516 16.6213L29.8413 16.4463L29.7969 16.0676L28.3071 16.2425ZM28.3516 16.6213L26.8618 16.7962C26.8838 16.9832 26.9334 17.2903 27.0898 17.5933C27.2593 17.9217 27.714 18.5 28.5471 18.5V17V15.5C28.8624 15.5 29.1563 15.6073 29.3869 15.7829C29.5955 15.9417 29.7049 16.119 29.7556 16.2174C29.8468 16.3941 29.849 16.5119 29.8413 16.4463L28.3516 16.6213ZM28.5471 17V18.5H28.698V17V15.5H28.5471V17ZM28.698 17V18.5H28.849V17V15.5H28.698V17ZM28.849 17V18.5C28.6323 18.5 28.3691 18.4493 28.1126 18.2961C27.8575 18.1437 27.6918 17.9393 27.5919 17.7582C27.4179 17.4428 27.4229 17.1659 27.4233 17.1206C27.4245 16.9936 27.4491 16.9628 27.4033 17.1207L28.844 17.5383L30.2847 17.9558C30.3429 17.7549 30.4203 17.4549 30.4232 17.1485C30.4244 17.0135 30.4175 16.6693 30.2187 16.309C30.1064 16.1056 29.9252 15.8844 29.6513 15.7207C29.3761 15.5563 29.0909 15.5 28.849 15.5V17ZM28.844 17.5383L27.4033 17.1207L27.2473 17.659L28.688 18.0765L30.1287 18.494L30.2847 17.9558L28.844 17.5383Z" fill="white"/>
</g>
<defs>
<clipPath id="clip0_421_352">
<rect width="35" height="34" fill="white"/>
</clipPath>
</defs>
</svg>
