<svg width="41" height="40" viewBox="0 0 41 40" fill="none" xmlns="http://www.w3.org/2000/svg">
<path d="M12.7508 6.65328C12.7155 2.481 18.2758 1.02584 20.2889 4.68053V4.68053C21.4972 6.87415 24.3959 7.44015 26.3406 5.86218V5.86218C29.5806 3.23322 34.1851 6.67315 32.5829 10.5257V10.5257C31.6212 12.8381 32.986 15.4573 35.4322 15.9939V15.9939C39.5077 16.8879 39.6891 22.6326 35.6781 23.7819V23.7819C33.2706 24.4718 32.0738 27.1719 33.1795 29.419V29.419C35.0215 33.1628 30.6433 36.8864 27.2438 34.467V34.467C25.2034 33.0149 22.3462 33.7627 21.2787 36.0281V36.0281C19.5002 39.8026 13.8592 38.7011 13.6312 34.5349V34.5349C13.4943 32.0342 11.1283 30.2666 8.69148 30.8445V30.8445C4.63166 31.8073 1.9757 26.7103 5.0908 23.9344V23.9344C6.96055 22.2683 6.86734 19.3163 4.8962 17.7715V17.7715C1.61218 15.1977 3.94127 9.94319 8.05375 10.648V10.648C10.5221 11.071 12.772 9.15758 12.7508 6.65328V6.65328Z" fill="#F3B8FF"/>
<path d="M22.3816 7.27275L20.4364 8.84316L22.3816 7.27275ZM23.7909 7.19264L21.7945 5.68786L23.7909 7.19264ZM24.5026 6.24845L22.5062 4.74367L24.5026 6.24845ZM25.2143 5.30426L27.2107 6.80904L25.2143 5.30426ZM26.9879 4.66091L26.3065 7.06626L26.9879 4.66091ZM28.0498 4.96175L28.7312 2.5564L28.0498 4.96175ZM29.1118 5.26258L28.4304 7.66793L29.1118 5.26258ZM31.1715 6.04359L30.0874 8.29631L31.1715 6.04359ZM33.1671 7.00393L34.2512 4.75121L33.1671 7.00393ZM33.4644 8.46644L35.5 9.91783L33.4644 8.46644ZM32.0636 10.4311L30.028 8.97972L32.0636 10.4311ZM31.6651 12.5369L34.0794 11.8879L31.6651 12.5369ZM32.2691 14.7837L34.6834 14.1347L32.2691 14.7837ZM33.8416 15.7622L34.125 18.2461L33.8416 15.7622ZM38.3566 18.6315L35.9114 19.152L38.3566 18.6315ZM38.0848 20.3827L40.0569 21.9192L38.0848 20.3827ZM37.5785 21.0326L35.6064 19.4961L37.5785 21.0326ZM37.0722 21.6824L39.0443 23.2189L37.0722 21.6824ZM35.8663 22.9329L37.4949 24.8297L35.8663 22.9329ZM35.1668 23.5335L36.7953 25.4303V25.4303L35.1668 23.5335ZM34.4673 24.1341L32.8387 22.2373L34.4673 24.1341ZM33.0008 27.4239L30.5966 26.7383L33.0008 27.4239ZM33.1149 29.2534L30.7908 30.1746L33.1149 29.2534ZM33.4848 30.1864L35.8088 29.2652L33.4848 30.1864ZM33.8546 31.1194L31.5305 32.0406L33.8546 31.1194ZM32.6535 33.1633L34.097 35.2045L32.6535 33.1633ZM31.8681 33.7187L30.4246 31.6775L31.8681 33.7187ZM30.2984 34.3054L30.398 36.8034L30.2984 34.3054ZM29.5141 34.3367L29.6138 36.8347L29.5141 34.3367ZM28.7299 34.368L28.6303 31.87V31.87L28.7299 34.368ZM26.9942 34.0942L26.2309 36.4749L26.9942 34.0942ZM25.0912 33.4841L24.328 35.8648L25.0912 33.4841ZM23.4456 33.8688L25.2077 35.6422L23.4456 33.8688ZM22.0573 35.2483L20.2952 33.4749L22.0573 35.2483ZM20.6169 36.3037L21.7169 38.5486L20.6169 36.3037ZM19.8707 36.6693L20.9707 38.9143L19.8707 36.6693ZM19.1244 37.0349L18.0245 34.7899L19.1244 37.0349ZM17.6533 37.2666L17.1989 39.7249L17.6533 37.2666ZM16.9284 37.1326L17.3827 34.6742L16.9284 37.1326ZM16.2035 36.9986L15.7491 39.457L16.2035 36.9986ZM15.3517 36.1077L17.8173 35.6944L15.3517 36.1077ZM15.2248 35.3508L12.7592 35.764L15.2248 35.3508ZM15.0979 34.5938L12.6323 35.0071L15.0979 34.5938ZM14.2367 32.8712L12.2467 34.3845V34.3845L14.2367 32.8712ZM10.9676 30.3084L10.2194 27.923L10.9676 30.3084ZM9.90154 30.6428L10.6497 33.0282V33.0282L9.90154 30.6428ZM8.83552 30.9771L9.58371 33.3626L8.83552 30.9771ZM6.79866 30.9395L5.90412 33.274L6.79866 30.9395ZM4.85699 30.1955L5.75153 27.861V27.861L4.85699 30.1955ZM3.48844 26.6723L5.96876 26.3592L3.48844 26.6723ZM4.00992 24.8959L2.15257 23.2225L4.00992 24.8959ZM4.66397 24.17L6.52132 25.8434V25.8434L4.66397 24.17ZM5.93656 21.8409L3.4386 21.9421L5.93656 21.8409ZM5.86553 20.0866L8.36348 19.9855L5.86553 20.0866ZM5.2051 17.5164L7.55044 16.6507L5.2051 17.5164ZM4.89264 16.6699L2.5473 17.5355L4.89264 16.6699ZM4.37803 15.0062L1.9512 15.6066L4.37803 15.0062ZM3.97372 13.372L6.40056 12.7716L3.97372 13.372ZM4.53773 11.9677L6.05862 13.9518L4.53773 11.9677ZM5.30389 11.3804L6.82478 13.3646L5.30389 11.3804ZM6.07005 10.7931L4.54916 8.80897L6.07005 10.7931ZM7.91589 10.5166L7.22438 12.9191L7.91589 10.5166ZM8.99558 10.8274L8.30406 13.2299L8.99558 10.8274ZM10.0753 11.1382L10.7668 8.73572L10.0753 11.1382ZM11.8261 10.4738L9.76675 9.05643L11.8261 10.4738ZM13.1684 8.52363L15.2278 9.94104L13.1684 8.52363ZM13.8921 4.87111L11.3926 4.82207L13.8921 4.87111ZM14.728 3.67879L15.588 6.0262L14.728 3.67879ZM15.5464 3.37894L14.6864 1.03153L15.5464 3.37894ZM17.667 3.38976L19.6264 1.83708L17.667 3.38976ZM18.6346 4.61079L16.6752 6.16347L18.6346 4.61079ZM19.411 5.08611L20.4596 7.35559L19.411 5.08611ZM19.7036 4.95092L18.6551 2.68143L19.7036 4.95092ZM19.9963 4.81572L21.0448 7.0852L19.9963 4.81572ZM20.9865 5.5446L22.9317 3.97419L20.9865 5.5446ZM21.684 6.40868L19.7388 7.97909L20.4364 8.84316L22.3816 7.27275L24.3268 5.70235L23.6293 4.83827L21.684 6.40868ZM22.3816 7.27275L20.4364 8.84316C20.8778 9.38984 21.8077 10.2613 23.2246 10.1807C24.566 10.1045 25.397 9.21525 25.7873 8.69742L23.7909 7.19264L21.7945 5.68786C21.7104 5.79949 22.0693 5.23834 22.9409 5.18879C23.3881 5.16337 23.7558 5.29409 23.9979 5.43639C24.2165 5.56483 24.3185 5.692 24.3268 5.70235L22.3816 7.27275ZM23.7909 7.19264L25.7873 8.69742L26.499 7.75323L24.5026 6.24845L22.5062 4.74367L21.7945 5.68786L23.7909 7.19264ZM24.5026 6.24845L26.499 7.75323L27.2107 6.80904L25.2143 5.30426L23.2178 3.79948L22.5062 4.74367L24.5026 6.24845ZM25.2143 5.30426L27.2107 6.80904C27.2302 6.78313 27.1284 6.92632 26.866 7.02149C26.5888 7.12204 26.3685 7.08382 26.3065 7.06626L26.9879 4.66091L27.6693 2.25556C26.8993 2.03745 26.0294 2.00617 25.161 2.32116C24.3074 2.63079 23.6728 3.19593 23.2178 3.79948L25.2143 5.30426ZM26.9879 4.66091L26.3065 7.06626L27.3684 7.36709L28.0498 4.96175L28.7312 2.5564L27.6693 2.25556L26.9879 4.66091ZM28.0498 4.96175L27.3684 7.36709L28.4304 7.66793L29.1118 5.26258L29.7932 2.85724L28.7312 2.5564L28.0498 4.96175ZM29.1118 5.26258L28.4304 7.66793C28.9995 7.82916 29.5514 8.03836 30.0874 8.29631L31.1715 6.04359L32.2556 3.79087C31.4612 3.4086 30.64 3.09712 29.7932 2.85724L29.1118 5.26258ZM31.1715 6.04359L30.0874 8.29631L31.0852 8.77648L32.1693 6.52376L33.2534 4.27105L32.2556 3.79087L31.1715 6.04359ZM32.1693 6.52376L31.0852 8.77648L32.083 9.25665L33.1671 7.00393L34.2512 4.75121L33.2534 4.27105L32.1693 6.52376ZM33.1671 7.00393L32.083 9.25665C32.0652 9.24809 31.4611 8.94727 31.2904 8.10775C31.1368 7.35202 31.5003 6.91487 31.4289 7.01505L33.4644 8.46644L35.5 9.91783C35.8955 9.36311 36.4429 8.35477 36.1902 7.11154C35.9204 5.78452 34.9341 5.07989 34.2512 4.75121L33.1671 7.00393ZM33.4644 8.46644L31.4289 7.01505L30.7284 7.99738L32.764 9.44877L34.7995 10.9002L35.5 9.91783L33.4644 8.46644ZM32.764 9.44877L30.7284 7.99738L30.028 8.97972L32.0636 10.4311L34.0991 11.8825L34.7995 10.9002L32.764 9.44877ZM32.0636 10.4311L30.028 8.97972C29.1459 10.2169 28.8474 11.685 29.2508 13.1859L31.6651 12.5369L34.0794 11.8879C34.0759 11.8748 34.0745 11.8669 34.074 11.8637C34.0735 11.8606 34.0738 11.8615 34.074 11.866C34.0742 11.8706 34.0743 11.8775 34.0737 11.8863C34.0731 11.8952 34.0719 11.9044 34.0702 11.9135C34.0684 11.9226 34.0665 11.93 34.0648 11.9355C34.0631 11.9409 34.062 11.9431 34.0626 11.9418C34.0635 11.9396 34.0726 11.9197 34.0991 11.8825L32.0636 10.4311ZM31.6651 12.5369L29.2508 13.1859L29.5528 14.3093L31.9671 13.6603L34.3814 13.0113L34.0794 11.8879L31.6651 12.5369ZM31.9671 13.6603L29.5528 14.3093L29.8548 15.4327L32.2691 14.7837L34.6834 14.1347L34.3814 13.0113L31.9671 13.6603ZM32.2691 14.7837L29.8548 15.4327C30.076 16.2556 30.5638 17.1348 31.4925 17.7127C32.3866 18.269 33.352 18.3343 34.125 18.2461L33.8416 15.7622L33.5583 13.2783C33.4843 13.2867 33.7641 13.2372 34.134 13.4674C34.5385 13.7191 34.6636 14.0608 34.6834 14.1347L32.2691 14.7837ZM33.8416 15.7622L34.125 18.2461L35.3955 18.1011L35.1122 15.6172L34.8288 13.1334L33.5583 13.2783L33.8416 15.7622ZM35.1122 15.6172L35.3955 18.1011L36.666 17.9562L36.3827 15.4723L36.0993 12.9884L34.8288 13.1334L35.1122 15.6172ZM36.3827 15.4723L36.666 17.9562C36.7621 17.9452 36.4563 18.005 36.0533 17.7489C35.5975 17.4593 35.4653 17.0565 35.4425 16.9493L37.8877 16.4287L40.3329 15.9082C40.1537 15.0668 39.6925 14.1374 38.7351 13.529C37.8305 12.9541 36.8503 12.9028 36.0993 12.9884L36.3827 15.4723ZM37.8877 16.4287L35.4425 16.9493L35.6769 18.0507L38.1221 17.5301L40.5673 17.0096L40.3329 15.9082L37.8877 16.4287ZM38.1221 17.5301L35.6769 18.0507L35.9114 19.152L38.3566 18.6315L40.8018 18.1109L40.5673 17.0096L38.1221 17.5301ZM38.3566 18.6315L35.9114 19.152C35.9427 19.2989 35.9234 19.3141 35.9355 19.2365C35.9419 19.195 35.9565 19.1332 35.9875 19.0595C36.0189 18.985 36.0613 18.9121 36.1127 18.8462L38.0848 20.3827L40.0569 21.9192C40.9982 20.7111 41.0524 19.2881 40.8018 18.1109L38.3566 18.6315ZM38.0848 20.3827L36.1127 18.8462L35.6064 19.4961L37.5785 21.0326L39.5506 22.5691L40.0569 21.9192L38.0848 20.3827ZM37.5785 21.0326L35.6064 19.4961L35.1001 20.1459L37.0722 21.6824L39.0443 23.2189L39.5506 22.5691L37.5785 21.0326ZM37.0722 21.6824L35.1001 20.1459C34.876 20.4335 34.5926 20.7314 34.2378 21.0361L35.8663 22.9329L37.4949 24.8297C38.0727 24.3335 38.5932 23.7978 39.0443 23.2189L37.0722 21.6824ZM35.8663 22.9329L34.2378 21.0361L33.5382 21.6367L35.1668 23.5335L36.7953 25.4303L37.4949 24.8297L35.8663 22.9329ZM35.1668 23.5335L33.5382 21.6367L32.8387 22.2373L34.4673 24.1341L36.0958 26.0309L36.7953 25.4303L35.1668 23.5335ZM34.4673 24.1341L32.8387 22.2373C31.9964 22.9604 31.4111 23.8824 31.1079 24.9454L33.5121 25.6311L35.9162 26.3167C35.9539 26.1845 36.0054 26.1085 36.0958 26.0309L34.4673 24.1341ZM33.5121 25.6311L31.1079 24.9454L30.8523 25.8419L33.2564 26.5275L35.6606 27.2132L35.9162 26.3167L33.5121 25.6311ZM33.2564 26.5275L30.8523 25.8419L30.5966 26.7383L33.0008 27.4239L35.4049 28.1096L35.6606 27.2132L33.2564 26.5275ZM33.0008 27.4239L30.5966 26.7383C30.2632 27.9074 30.3579 29.0822 30.7908 30.1746L33.1149 29.2534L35.439 28.3322C35.3789 28.1805 35.3975 28.1357 35.4049 28.1096L33.0008 27.4239ZM33.1149 29.2534L30.7908 30.1746L31.1607 31.1076L33.4848 30.1864L35.8088 29.2652L35.439 28.3322L33.1149 29.2534ZM33.4848 30.1864L31.1607 31.1076L31.5305 32.0406L33.8546 31.1194L36.1787 30.1982L35.8088 29.2652L33.4848 30.1864ZM33.8546 31.1194L31.5305 32.0406C31.5129 31.9962 31.4114 31.7022 31.5277 31.2857C31.6478 30.8553 31.9061 30.6299 31.9955 30.5667L33.4389 32.6079L34.8824 34.6491C35.4954 34.2155 36.0848 33.5569 36.3435 32.6304C36.5983 31.7177 36.4428 30.8647 36.1787 30.1982L33.8546 31.1194ZM33.4389 32.6079L31.9955 30.5667L31.2101 31.1221L32.6535 33.1633L34.097 35.2045L34.8824 34.6491L33.4389 32.6079ZM32.6535 33.1633L31.2101 31.1221L30.4246 31.6775L31.8681 33.7187L33.3115 35.7599L34.097 35.2045L32.6535 33.1633ZM31.8681 33.7187L30.4246 31.6775C30.3131 31.7564 30.2406 31.789 30.2076 31.8013C30.1778 31.8125 30.1776 31.8083 30.1988 31.8074L30.2984 34.3054L30.398 36.8034C31.5024 36.7594 32.483 36.3458 33.3115 35.7599L31.8681 33.7187ZM30.2984 34.3054L30.1988 31.8074L29.4145 31.8387L29.5141 34.3367L29.6138 36.8347L30.398 36.8034L30.2984 34.3054ZM29.5141 34.3367L29.4145 31.8387L28.6303 31.87L28.7299 34.368L28.8295 36.866L29.6138 36.8347L29.5141 34.3367ZM28.7299 34.368L28.6303 31.87C28.4672 31.8765 28.1857 31.8509 27.7574 31.7136L26.9942 34.0942L26.2309 36.4749C27.0712 36.7443 27.9469 36.9012 28.8295 36.866L28.7299 34.368ZM26.9942 34.0942L27.7574 31.7136L26.8059 31.4085L26.0427 33.7892L25.2795 36.1698L26.2309 36.4749L26.9942 34.0942ZM26.0427 33.7892L26.8059 31.4085L25.8544 31.1035L25.0912 33.4841L24.328 35.8648L25.2795 36.1698L26.0427 33.7892ZM25.0912 33.4841L25.8544 31.1035C25.1856 30.8891 24.4247 30.8088 23.635 30.9934C22.842 31.1788 22.1907 31.5914 21.6835 32.0954L23.4456 33.8688L25.2077 35.6422C25.1632 35.6864 25.0176 35.805 24.7731 35.8622C24.532 35.9185 24.3625 35.8759 24.328 35.8648L25.0912 33.4841ZM23.4456 33.8688L21.6835 32.0954L20.9893 32.7852L22.7514 34.5586L24.5136 36.332L25.2077 35.6422L23.4456 33.8688ZM22.7514 34.5586L20.9893 32.7852L20.2952 33.4749L22.0573 35.2483L23.8194 37.0217L24.5136 36.332L22.7514 34.5586ZM22.0573 35.2483L20.2952 33.4749C19.9924 33.7757 19.7304 33.9541 19.5169 34.0587L20.6169 36.3037L21.7169 38.5486C22.4984 38.1657 23.1966 37.6405 23.8194 37.0217L22.0573 35.2483ZM20.6169 36.3037L19.5169 34.0587L18.7707 34.4243L19.8707 36.6693L20.9707 38.9143L21.7169 38.5486L20.6169 36.3037ZM19.8707 36.6693L18.7707 34.4243L18.0245 34.7899L19.1244 37.0349L20.2244 39.2799L20.9707 38.9143L19.8707 36.6693ZM19.1244 37.0349L18.0245 34.7899C17.9745 34.8144 17.9661 34.8106 17.9947 34.8061C18.0082 34.804 18.0265 34.8023 18.0482 34.8025C18.0698 34.8028 18.0901 34.805 18.1077 34.8082L17.6533 37.2666L17.1989 39.7249C18.276 39.924 19.3093 39.7283 20.2244 39.2799L19.1244 37.0349ZM17.6533 37.2666L18.1077 34.8082L17.3827 34.6742L16.9284 37.1326L16.474 39.591L17.1989 39.7249L17.6533 37.2666ZM16.9284 37.1326L17.3827 34.6742L16.6578 34.5403L16.2035 36.9986L15.7491 39.457L16.474 39.591L16.9284 37.1326ZM16.2035 36.9986L16.6578 34.5403C16.8288 34.5719 17.1474 34.6804 17.4351 34.9813C17.716 35.2751 17.7972 35.5744 17.8173 35.6944L15.3517 36.1077L12.8861 36.521C12.9908 37.1457 13.2563 37.8458 13.8211 38.4365C14.3927 39.0344 15.0949 39.3361 15.7491 39.457L16.2035 36.9986ZM15.3517 36.1077L17.8173 35.6944L17.6904 34.9375L15.2248 35.3508L12.7592 35.764L12.8861 36.521L15.3517 36.1077ZM15.2248 35.3508L17.6904 34.9375L17.5635 34.1805L15.0979 34.5938L12.6323 35.0071L12.7592 35.764L15.2248 35.3508ZM15.0979 34.5938L17.5635 34.1805C17.384 33.1094 16.8334 32.1557 16.2267 31.3579L14.2367 32.8712L12.2467 34.3845C12.4204 34.6128 12.5243 34.785 12.5831 34.9027C12.6425 35.0215 12.64 35.0529 12.6323 35.0071L15.0979 34.5938ZM14.2367 32.8712L16.2267 31.3579L15.4923 30.3922L13.5023 31.9055L11.5124 33.4188L12.2467 34.3845L14.2367 32.8712ZM13.5023 31.9055L15.4923 30.3922L14.7579 29.4265L12.768 30.9398L10.778 32.4531L11.5124 33.4188L13.5023 31.9055ZM12.768 30.9398L14.7579 29.4265C14.2969 28.8203 13.6509 28.2461 12.778 27.9399C11.886 27.6271 10.9978 27.6789 10.2194 27.923L10.9676 30.3084L11.7157 32.6938C11.648 32.7151 11.4152 32.7606 11.1234 32.6582C10.8506 32.5626 10.7494 32.4155 10.778 32.4531L12.768 30.9398ZM10.9676 30.3084L10.2194 27.923L9.15335 28.2574L9.90154 30.6428L10.6497 33.0282L11.7157 32.6938L10.9676 30.3084ZM9.90154 30.6428L9.15335 28.2574L8.08733 28.5917L8.83552 30.9771L9.58371 33.3626L10.6497 33.0282L9.90154 30.6428ZM8.83552 30.9771L8.08733 28.5917C7.87142 28.6595 7.77374 28.6359 7.6932 28.605L6.79866 30.9395L5.90412 33.274C7.11803 33.7391 8.37826 33.7407 9.58371 33.3626L8.83552 30.9771ZM6.79866 30.9395L7.6932 28.605L6.72237 28.233L5.82783 30.5675L4.93329 32.902L5.90412 33.274L6.79866 30.9395ZM5.82783 30.5675L6.72237 28.233L5.75153 27.861L4.85699 30.1955L3.96245 32.53L4.93329 32.902L5.82783 30.5675ZM4.85699 30.1955L5.75153 27.861C5.78742 27.8747 5.93368 27.9444 6.07106 28.1215C6.20669 28.2964 6.232 28.4449 6.23391 28.46L3.75358 28.7731L1.27326 29.0861C1.36355 29.8015 1.61695 30.5372 2.12038 31.1862C2.62557 31.8374 3.27934 32.2682 3.96245 32.53L4.85699 30.1955ZM3.75358 28.7731L6.23391 28.46L6.10134 27.4096L3.62101 27.7227L1.14069 28.0357L1.27326 29.0861L3.75358 28.7731ZM3.62101 27.7227L6.10134 27.4096L5.96876 26.3592L3.48844 26.6723L1.00812 26.9853L1.14069 28.0357L3.62101 27.7227ZM3.48844 26.6723L5.96876 26.3592C5.96146 26.3014 5.97418 26.3292 5.9513 26.4072C5.94057 26.4437 5.92524 26.4797 5.90704 26.5118C5.88909 26.5435 5.87338 26.5625 5.86727 26.5693L4.00992 24.8959L2.15257 23.2225C1.18581 24.2955 0.837304 25.6319 1.00812 26.9853L3.48844 26.6723ZM4.00992 24.8959L5.86727 26.5693L6.52132 25.8434L4.66397 24.17L2.80662 22.4966L2.15257 23.2225L4.00992 24.8959ZM4.66397 24.17L6.52132 25.8434L7.17537 25.1174L5.31802 23.444L3.46067 21.7706L2.80662 22.4966L4.66397 24.17ZM5.31802 23.444L7.17537 25.1174C7.99457 24.2081 8.48769 23.0533 8.43451 21.7398L5.93656 21.8409L3.4386 21.9421C3.43792 21.9252 3.43863 21.8994 3.44381 21.8677C3.44901 21.8358 3.45743 21.8058 3.46727 21.7803C3.48802 21.7266 3.50224 21.7245 3.46067 21.7706L5.31802 23.444ZM5.93656 21.8409L8.43451 21.7398L8.399 20.8626L5.90104 20.9638L3.40309 21.0649L3.4386 21.9421L5.93656 21.8409ZM5.90104 20.9638L8.399 20.8626L8.36348 19.9855L5.86553 20.0866L3.36758 20.1878L3.40309 21.0649L5.90104 20.9638ZM5.86553 20.0866L8.36348 19.9855C8.32894 19.1322 8.15919 18.3 7.8629 17.4973L5.51756 18.3629L3.17222 19.2286C3.29254 19.5546 3.35477 19.8715 3.36758 20.1878L5.86553 20.0866ZM5.51756 18.3629L7.8629 17.4973L7.55044 16.6507L5.2051 17.5164L2.85976 18.3821L3.17222 19.2286L5.51756 18.3629ZM5.2051 17.5164L7.55044 16.6507L7.23798 15.8042L4.89264 16.6699L2.5473 17.5355L2.85976 18.3821L5.2051 17.5164ZM4.89264 16.6699L7.23798 15.8042C7.05946 15.3205 6.91588 14.8545 6.80486 14.4058L4.37803 15.0062L1.9512 15.6066C2.10972 16.2474 2.30921 16.8905 2.5473 17.5355L4.89264 16.6699ZM4.37803 15.0062L6.80486 14.4058L6.60271 13.5887L4.17588 14.1891L1.74905 14.7895L1.9512 15.6066L4.37803 15.0062ZM4.17588 14.1891L6.60271 13.5887L6.40056 12.7716L3.97372 13.372L1.54689 13.9724L1.74905 14.7895L4.17588 14.1891ZM3.97372 13.372L6.40056 12.7716C6.44434 12.9486 6.45688 13.237 6.33355 13.5441C6.22028 13.8261 6.06261 13.9488 6.05862 13.9518L4.53773 11.9677L3.01684 9.98351C2.50208 10.3781 1.99503 10.9305 1.69375 11.6807C1.38242 12.4559 1.36834 13.2507 1.54689 13.9724L3.97372 13.372ZM4.53773 11.9677L6.05862 13.9518L6.82478 13.3646L5.30389 11.3804L3.783 9.39624L3.01684 9.98351L4.53773 11.9677ZM5.30389 11.3804L6.82478 13.3646L7.59094 12.7773L6.07005 10.7931L4.54916 8.80897L3.783 9.39624L5.30389 11.3804ZM6.07005 10.7931L7.59094 12.7773C7.56246 12.7991 7.51831 12.8274 7.45939 12.8527C7.40007 12.8782 7.33996 12.8945 7.28494 12.9028C7.17287 12.9196 7.1402 12.8949 7.22438 12.9191L7.91589 10.5166L8.60741 8.11417C7.26765 7.72854 5.79812 7.85162 4.54916 8.80897L6.07005 10.7931ZM7.91589 10.5166L7.22438 12.9191L8.30406 13.2299L8.99558 10.8274L9.6871 8.42495L8.60741 8.11417L7.91589 10.5166ZM8.99558 10.8274L8.30406 13.2299L9.38375 13.5406L10.0753 11.1382L10.7668 8.73572L9.6871 8.42495L8.99558 10.8274ZM10.0753 11.1382L9.38375 13.5406C10.1562 13.763 11.0478 13.8033 11.9397 13.4649C12.8188 13.1313 13.4499 12.5241 13.8855 11.8913L11.8261 10.4738L9.76675 9.05643C9.75492 9.07361 9.87049 8.90218 10.1659 8.79009C10.4742 8.6731 10.7141 8.72056 10.7668 8.73572L10.0753 11.1382ZM11.8261 10.4738L13.8855 11.8913L14.5566 10.9161L12.4972 9.49874L10.4379 8.08132L9.76675 9.05643L11.8261 10.4738ZM12.4972 9.49874L14.5566 10.9161L15.2278 9.94104L13.1684 8.52363L11.109 7.10622L10.4379 8.08132L12.4972 9.49874ZM13.1684 8.52363L15.2278 9.94104C15.8639 9.01675 16.3326 7.9255 16.3566 6.70509L13.8571 6.65605L11.3575 6.60701C11.3581 6.57656 11.3677 6.73036 11.109 7.10622L13.1684 8.52363ZM13.8571 6.65605L16.3566 6.70509L16.3741 5.81263L13.8746 5.76358L11.375 5.71454L11.3575 6.60701L13.8571 6.65605ZM13.8746 5.76358L16.3741 5.81263L16.3916 4.92016L13.8921 4.87111L11.3926 4.82207L11.375 5.71454L13.8746 5.76358ZM13.8921 4.87111L16.3916 4.92016C16.3899 5.00613 16.3615 5.27005 16.1568 5.56195C15.9491 5.85832 15.6983 5.98579 15.588 6.0262L14.728 3.67879L13.8679 1.33139C13.2121 1.57169 12.5492 1.99783 12.0628 2.69165C11.5795 3.38098 11.4059 4.14112 11.3926 4.82207L13.8921 4.87111ZM14.728 3.67879L15.588 6.0262L16.4065 5.72635L15.5464 3.37894L14.6864 1.03153L13.8679 1.33139L14.728 3.67879ZM15.5464 3.37894L16.4065 5.72635L17.2249 5.4265L16.3648 3.07909L15.5048 0.731684L14.6864 1.03153L15.5464 3.37894ZM16.3648 3.07909L17.2249 5.4265C17.174 5.44514 16.9054 5.53066 16.5194 5.43859C16.1047 5.33965 15.835 5.10319 15.7076 4.94244L17.667 3.38976L19.6264 1.83708C19.1765 1.26932 18.5285 0.77757 17.6797 0.575076C16.8597 0.37945 16.1013 0.513139 15.5048 0.731684L16.3648 3.07909ZM17.667 3.38976L15.7076 4.94244L16.1914 5.55295L18.1508 4.00027L20.1102 2.44759L19.6264 1.83708L17.667 3.38976ZM18.1508 4.00027L16.1914 5.55295L16.6752 6.16347L18.6346 4.61079L20.594 3.05811L20.1102 2.44759L18.1508 4.00027ZM18.6346 4.61079L16.6752 6.16347C16.9082 6.45743 17.2688 6.86312 17.7653 7.16705C18.2888 7.48752 19.3181 7.88296 20.4596 7.35559L19.411 5.08611L18.3625 2.81663C19.3088 2.3794 20.1112 2.74067 20.3759 2.90271C20.6136 3.0482 20.6836 3.17116 20.594 3.05811L18.6346 4.61079ZM19.411 5.08611L20.4596 7.35559L20.7522 7.2204L19.7036 4.95092L18.6551 2.68143L18.3625 2.81663L19.411 5.08611ZM19.7036 4.95092L20.7522 7.2204L21.0448 7.0852L19.9963 4.81572L18.9477 2.54624L18.6551 2.68143L19.7036 4.95092ZM19.9963 4.81572L21.0448 7.0852C20.4099 7.37854 19.8204 7.31317 19.4693 7.21099C19.1495 7.11792 18.9558 6.97883 18.9081 6.94371C18.8143 6.87469 18.8539 6.8829 19.0413 7.11501L20.9865 5.5446L22.9317 3.97419C22.654 3.63025 22.296 3.22895 21.8721 2.91698C21.6261 2.73591 20.4111 1.87012 18.9477 2.54624L19.9963 4.81572ZM20.9865 5.5446L19.0413 7.11501L19.7388 7.97909L21.684 6.40868L23.6293 4.83827L22.9317 3.97419L20.9865 5.5446Z" fill="#F3B8FF"/>
<path d="M21.8405 10.873L20.8096 11.9626L21.8405 10.873ZM22.26 11.2699L23.2909 10.1802L22.26 11.2699ZM23.2626 11.5421L22.949 10.0752L23.2626 11.5421ZM24.4288 11.2928L24.1152 9.82593V9.82593L24.4288 11.2928ZM25.4922 10.997L24.9886 9.58401L25.4922 10.997ZM26.4528 10.6546L26.9563 12.0676L26.4528 10.6546ZM27.3795 10.7214L28.0849 9.39758L27.3795 10.7214ZM27.826 10.9593L27.1206 12.283L27.826 10.9593ZM28.2724 11.1972L28.9778 9.87338L28.2724 11.1972ZM29.0551 12.4319L30.4764 11.9524L29.0551 12.4319ZM29.2232 12.9303L27.8019 13.4097L29.2232 12.9303ZM29.3853 13.9605L27.8854 13.9433L29.3853 13.9605ZM29.3792 14.4923L30.8791 14.5094L29.3792 14.4923ZM29.3731 15.0241L30.873 15.0412L29.3731 15.0241ZM29.6127 16.0301L30.9446 15.3402L29.6127 16.0301ZM29.8584 16.5043L28.5265 17.1943L29.8584 16.5043ZM30.104 16.9786L31.4359 16.2886L30.104 16.9786ZM30.7992 17.7376L31.6019 16.4704L30.7992 17.7376ZM31.6983 18.3071L30.8957 19.5743L31.6983 18.3071ZM32.4072 19.0269L31.1187 19.7948L32.4072 19.0269ZM32.9258 19.8969L31.6373 20.6649L32.9258 19.8969ZM32.9387 20.7917L31.6166 20.0832L32.9387 20.7917ZM32.4461 21.7111L33.7682 22.4196L32.4461 21.7111ZM31.7175 22.4439L30.9783 21.1387L31.7175 22.4439ZM30.7531 22.9901L31.4923 24.2953L30.7531 22.9901ZM30.1752 23.7787L31.6501 24.0523L30.1752 23.7787ZM30.0796 24.2941L28.6048 24.0205L30.0796 24.2941ZM29.984 24.8096L31.4588 25.0832L29.984 24.8096ZM29.9046 25.8563L28.4053 25.9023L29.9046 25.8563ZM29.9373 26.9189L31.4365 26.8729L29.9373 26.9189ZM29.8356 28.0225L28.3665 27.7197L29.8356 28.0225ZM29.5997 29.1672L31.0688 29.47L29.5997 29.1672ZM28.9409 30.0844L28.1342 28.8198L28.9409 30.0844ZM27.8592 30.7743L27.0526 29.5097L27.8592 30.7743ZM26.8186 30.7255L25.8902 31.9036L26.8186 30.7255ZM26.3189 30.3316L27.2473 29.1535L26.3189 30.3316ZM25.8191 29.9378L24.8907 31.116L25.8191 29.9378ZM24.813 29.7367L25.3466 31.1386L24.813 29.7367ZM24.3066 29.9295L23.773 28.5276L24.3066 29.9295ZM23.8002 30.1222L24.3338 31.5241L23.8002 30.1222ZM22.8961 30.5892L23.7476 31.8241L22.8961 30.5892ZM22.4985 30.8634L21.647 29.6284L22.4985 30.8634ZM21.217 31.732L20.3919 30.4793L21.217 31.732ZM20.2446 32.3725L21.0697 33.6251L20.2446 32.3725ZM19.1997 32.5571L18.8458 34.0147L19.1997 32.5571ZM18.641 32.4214L18.9949 30.9638L18.641 32.4214ZM18.0823 32.2858L18.4362 30.8281L18.0823 32.2858ZM17.2686 31.647L15.9307 32.3252L17.2686 31.647ZM16.7584 30.6406L18.0963 29.9624L16.7584 30.6406ZM16.335 29.5814L17.7706 29.1466L16.335 29.5814ZM15.9982 28.4694L14.5626 28.9041L15.9982 28.4694ZM15.2455 27.7438L15.6635 26.3032L15.2455 27.7438ZM14.6612 27.5743L14.2432 29.0149V29.0149L14.6612 27.5743ZM14.0768 27.4048L13.6588 28.8453V28.8453L14.0768 27.4048ZM11.5942 27.8348L12.046 29.2652L11.5942 27.8348ZM10.8795 27.3867L12.3676 27.1985L10.8795 27.3867ZM10.7975 26.7388L9.30935 26.927L10.7975 26.7388ZM10.7155 26.0908L9.22738 26.2791L10.7155 26.0908ZM10.6513 25.001L9.15251 24.9408L10.6513 25.001ZM10.6691 24.5592L9.17028 24.499L10.6691 24.5592ZM10.6868 24.1174L9.18804 24.0571L10.6868 24.1174ZM11.0438 23.1907L9.81473 22.3308L11.0438 23.1907ZM11.383 22.7059L12.6121 23.5657L11.383 22.7059ZM11.7222 22.221L12.9513 23.0809L11.7222 22.221ZM11.7327 21.2608L12.9664 20.4076L11.7327 21.2608ZM11.0753 20.3102L9.84158 21.1634L11.0753 20.3102ZM10.4609 19.344L11.7574 18.5895L10.4609 19.344ZM9.8896 18.3622L11.1861 17.6077L9.8896 18.3622ZM9.59654 17.2551L8.09664 17.2731L9.59654 17.2551ZM9.58914 16.6389L8.08925 16.6569L9.58914 16.6389ZM9.58175 16.0227L11.0816 16.0047L9.58175 16.0227ZM10.1335 15.2875L9.82116 13.8204L10.1335 15.2875ZM10.6926 15.1685L11.0049 16.6356L10.6926 15.1685ZM11.2517 15.0494L11.564 16.5166L11.2517 15.0494ZM12.2712 14.5211L13.2679 15.6421L12.2712 14.5211ZM13.1921 13.7024L14.1887 14.8234L13.1921 13.7024ZM14.1211 13.1581L13.7058 11.7167L14.1211 13.1581ZM15.0582 12.888L15.4735 14.3294L15.0582 12.888ZM15.5702 12.1934L14.0747 12.0774L15.5702 12.1934ZM15.6136 11.6337L17.1091 11.7497L15.6136 11.6337ZM15.657 11.0741L17.1525 11.1901L15.657 11.0741ZM16.0695 9.96675L14.8256 9.12846L16.0695 9.96675ZM16.4386 9.41906L17.6825 10.2573L16.4386 9.41906ZM16.8077 8.87137L18.0516 9.70966L16.8077 8.87137ZM17.783 8.49823L18.198 7.0568L17.783 8.49823ZM18.9952 8.84732L18.5802 10.2887L18.9952 8.84732ZM19.8812 9.32485L18.7793 10.3426L19.8812 9.32485ZM20.161 9.62784L19.0591 10.6456L20.161 9.62784ZM20.4409 9.93083L21.5428 8.9131L20.4409 9.93083ZM20.7909 10.1952L21.5146 11.509L20.7909 10.1952ZM20.9313 10.1178L21.655 11.4317L20.9313 10.1178ZM21.421 10.4761L20.3901 11.5657L21.421 10.4761ZM21.8405 10.873L20.8096 11.9626L21.2291 12.3595L22.26 11.2699L23.2909 10.1802L22.8713 9.78333L21.8405 10.873ZM22.26 11.2699L21.2291 12.3595C21.8812 12.9764 22.7233 13.1913 23.5762 13.009L23.2626 11.5421L22.949 10.0752C22.9536 10.0743 23.0179 10.0628 23.1135 10.0888C23.211 10.1153 23.2713 10.1618 23.2909 10.1802L22.26 11.2699ZM23.2626 11.5421L23.5762 13.009L24.1593 12.8843L23.8457 11.4174L23.5321 9.95059L22.949 10.0752L23.2626 11.5421ZM23.8457 11.4174L24.1593 12.8843L24.7424 12.7596L24.4288 11.2928L24.1152 9.82593L23.5321 9.95059L23.8457 11.4174ZM24.4288 11.2928L24.7424 12.7596C25.1851 12.665 25.6041 12.5495 25.9957 12.4099L25.4922 10.997L24.9886 9.58401C24.7399 9.67267 24.45 9.75436 24.1152 9.82593L24.4288 11.2928ZM25.4922 10.997L25.9957 12.4099L26.476 12.2387L25.9725 10.8258L25.4689 9.41284L24.9886 9.58401L25.4922 10.997ZM25.9725 10.8258L26.476 12.2387L26.9563 12.0676L26.4528 10.6546L25.9492 9.24167L25.4689 9.41284L25.9725 10.8258ZM26.4528 10.6546L26.9563 12.0676C26.9399 12.0734 26.8892 12.0871 26.8169 12.0818C26.7442 12.0766 26.6937 12.0556 26.6741 12.0451L27.3795 10.7214L28.0849 9.39758C27.4115 9.03869 26.6634 8.98715 25.9492 9.24167L26.4528 10.6546ZM27.3795 10.7214L26.6741 12.0451L27.1206 12.283L27.826 10.9593L28.5314 9.63548L28.0849 9.39758L27.3795 10.7214ZM27.826 10.9593L27.1206 12.283L27.567 12.5209L28.2724 11.1972L28.9778 9.87338L28.5314 9.63548L27.826 10.9593ZM28.2724 11.1972L27.567 12.5209C27.5546 12.5143 27.5259 12.4952 27.4977 12.4614C27.4702 12.4284 27.4632 12.4056 27.4657 12.4129L28.887 11.9335L30.3083 11.454C30.0793 10.7753 29.6276 10.2196 28.9778 9.87338L28.2724 11.1972ZM28.887 11.9335L27.4657 12.4129L27.6338 12.9113L29.0551 12.4319L30.4764 11.9524L30.3083 11.454L28.887 11.9335ZM29.0551 12.4319L27.6338 12.9113L27.8019 13.4097L29.2232 12.9303L30.6445 12.4508L30.4764 11.9524L29.0551 12.4319ZM29.2232 12.9303L27.8019 13.4097C27.8595 13.5803 27.8875 13.7557 27.8854 13.9433L29.3853 13.9605L30.8852 13.9776C30.8911 13.4562 30.8112 12.9448 30.6445 12.4508L29.2232 12.9303ZM29.3853 13.9605L27.8854 13.9433L27.8793 14.4751L29.3792 14.4923L30.8791 14.5094L30.8852 13.9776L29.3853 13.9605ZM29.3792 14.4923L27.8793 14.4751L27.8732 15.0069L29.3731 15.0241L30.873 15.0412L30.8791 14.5094L29.3792 14.4923ZM29.3731 15.0241L27.8732 15.0069C27.8663 15.6085 28.0044 16.1865 28.2808 16.7201L29.6127 16.0301L30.9446 15.3402C30.8934 15.2414 30.8718 15.1488 30.873 15.0412L29.3731 15.0241ZM29.6127 16.0301L28.2808 16.7201L28.5265 17.1943L29.8584 16.5043L31.1903 15.8144L30.9446 15.3402L29.6127 16.0301ZM29.8584 16.5043L28.5265 17.1943L28.7721 17.6685L30.104 16.9786L31.4359 16.2886L31.1903 15.8144L29.8584 16.5043ZM30.104 16.9786L28.7721 17.6685C29.0576 18.2197 29.4716 18.6722 29.9966 19.0047L30.7992 17.7376L31.6019 16.4704C31.5275 16.4232 31.478 16.3698 31.4359 16.2886L30.104 16.9786ZM30.7992 17.7376L29.9966 19.0047L30.4461 19.2895L31.2488 18.0223L32.0514 16.7551L31.6019 16.4704L30.7992 17.7376ZM31.2488 18.0223L30.4461 19.2895L30.8957 19.5743L31.6983 18.3071L32.501 17.0399L32.0514 16.7551L31.2488 18.0223ZM31.6983 18.3071L30.8957 19.5743C31.0069 19.6447 31.0725 19.7173 31.1187 19.7948L32.4072 19.0269L33.6957 18.2589C33.3961 17.7563 32.9892 17.3491 32.501 17.0399L31.6983 18.3071ZM32.4072 19.0269L31.1187 19.7948L31.378 20.2299L32.6665 19.4619L33.955 18.6939L33.6957 18.2589L32.4072 19.0269ZM32.6665 19.4619L31.378 20.2299L31.6373 20.6649L32.9258 19.8969L34.2143 19.1289L33.955 18.6939L32.6665 19.4619ZM32.9258 19.8969L31.6373 20.6649C31.6072 20.6144 31.561 20.5069 31.5588 20.3599C31.5567 20.2151 31.5985 20.1169 31.6166 20.0832L32.9387 20.7917L34.2609 21.5002C34.6646 20.7467 34.6663 19.8874 34.2143 19.1289L32.9258 19.8969ZM32.9387 20.7917L31.6166 20.0832L31.3703 20.5429L32.6924 21.2514L34.0145 21.9599L34.2609 21.5002L32.9387 20.7917ZM32.6924 21.2514L31.3703 20.5429L31.1239 21.0026L32.4461 21.7111L33.7682 22.4196L34.0145 21.9599L32.6924 21.2514ZM32.4461 21.7111L31.1239 21.0026C31.1022 21.0432 31.0691 21.0873 30.9783 21.1387L31.7175 22.4439L32.4567 23.7491C33.0089 23.4364 33.4615 22.9919 33.7682 22.4196L32.4461 21.7111ZM31.7175 22.4439L30.9783 21.1387L30.4961 21.4118L31.2353 22.717L31.9745 24.0222L32.4567 23.7491L31.7175 22.4439ZM31.2353 22.717L30.4961 21.4118L30.0139 21.6849L30.7531 22.9901L31.4923 24.2953L31.9745 24.0222L31.2353 22.717ZM30.7531 22.9901L30.0139 21.6849C29.332 22.0711 28.8501 22.6981 28.7004 23.505L30.1752 23.7787L31.6501 24.0523C31.6439 24.0857 31.6239 24.147 31.5774 24.2104C31.5325 24.2718 31.4916 24.2957 31.4923 24.2953L30.7531 22.9901ZM30.1752 23.7787L28.7004 23.505L28.6048 24.0205L30.0796 24.2941L31.5544 24.5677L31.6501 24.0523L30.1752 23.7787ZM30.0796 24.2941L28.6048 24.0205L28.5091 24.5359L29.984 24.8096L31.4588 25.0832L31.5544 24.5677L30.0796 24.2941ZM29.984 24.8096L28.5091 24.5359C28.4256 24.9864 28.3912 25.4425 28.4053 25.9023L29.9046 25.8563L31.4039 25.8103C31.3963 25.5617 31.4149 25.32 31.4588 25.0832L29.984 24.8096ZM29.9046 25.8563L28.4053 25.9023L28.4216 26.4336L29.9209 26.3876L31.4202 26.3416L31.4039 25.8103L29.9046 25.8563ZM29.9209 26.3876L28.4216 26.4336L28.438 26.9649L29.9373 26.9189L31.4365 26.8729L31.4202 26.3416L29.9209 26.3876ZM29.9373 26.9189L28.438 26.9649C28.4449 27.1912 28.4238 27.4417 28.3665 27.7197L29.8356 28.0225L31.3047 28.3254C31.4047 27.8403 31.4513 27.3551 31.4365 26.8729L29.9373 26.9189ZM29.8356 28.0225L28.3665 27.7197L28.2485 28.2921L29.7176 28.5949L31.1867 28.8977L31.3047 28.3254L29.8356 28.0225ZM29.7176 28.5949L28.2485 28.2921L28.1306 28.8644L29.5997 29.1672L31.0688 29.47L31.1867 28.8977L29.7176 28.5949ZM29.5997 29.1672L28.1306 28.8644C28.1309 28.8627 28.1328 28.8544 28.1382 28.842C28.1437 28.8295 28.1506 28.8175 28.1577 28.8076C28.1646 28.7979 28.169 28.7941 28.1672 28.7957C28.1652 28.7976 28.1555 28.8062 28.1342 28.8198L28.9409 30.0844L29.7475 31.3491C30.4129 30.9247 30.8999 30.2894 31.0688 29.47L29.5997 29.1672ZM28.9409 30.0844L28.1342 28.8198L27.5934 29.1647L28.4 30.4294L29.2067 31.6941L29.7475 31.3491L28.9409 30.0844ZM28.4 30.4294L27.5934 29.1647L27.0526 29.5097L27.8592 30.7743L28.6658 32.039L29.2067 31.6941L28.4 30.4294ZM27.8592 30.7743L27.0526 29.5097C27.0722 29.4972 27.1976 29.4268 27.399 29.4363C27.6017 29.4458 27.7233 29.5286 27.747 29.5473L26.8186 30.7255L25.8902 31.9036C26.2471 32.1849 26.7087 32.4071 27.2583 32.433C27.8066 32.4587 28.2856 32.2815 28.6658 32.039L27.8592 30.7743ZM26.8186 30.7255L27.747 29.5473L27.2473 29.1535L26.3189 30.3316L25.3904 31.5098L25.8902 31.9036L26.8186 30.7255ZM26.3189 30.3316L27.2473 29.1535L26.7475 28.7597L25.8191 29.9378L24.8907 31.116L25.3904 31.5098L26.3189 30.3316ZM25.8191 29.9378L26.7475 28.7597C26.0855 28.2379 25.2033 27.9832 24.2794 28.3349L24.813 29.7367L25.3466 31.1386C25.267 31.1689 25.1487 31.1865 25.0237 31.1616C24.9108 31.139 24.8659 31.0964 24.8907 31.116L25.8191 29.9378ZM24.813 29.7367L24.2794 28.3349L23.773 28.5276L24.3066 29.9295L24.8402 31.3314L25.3466 31.1386L24.813 29.7367ZM24.3066 29.9295L23.773 28.5276L23.2666 28.7204L23.8002 30.1222L24.3338 31.5241L24.8402 31.3314L24.3066 29.9295ZM23.8002 30.1222L23.2666 28.7204C22.8301 28.8865 22.4198 29.0956 22.0447 29.3543L22.8961 30.5892L23.7476 31.8241C23.9027 31.7172 24.095 31.615 24.3338 31.5241L23.8002 30.1222ZM22.8961 30.5892L22.0447 29.3543L21.647 29.6284L22.4985 30.8634L23.3499 32.0983L23.7476 31.8241L22.8961 30.5892ZM22.4985 30.8634L21.647 29.6284L21.2494 29.9026L22.1008 31.1375L22.9523 32.3724L23.3499 32.0983L22.4985 30.8634ZM22.1008 31.1375L21.2494 29.9026C20.9945 30.0783 20.7089 30.2705 20.3919 30.4793L21.217 31.732L22.0421 32.9846C22.3733 32.7665 22.6769 32.5623 22.9523 32.3724L22.1008 31.1375ZM21.217 31.732L20.3919 30.4793L19.9057 30.7995L20.7308 32.0522L21.5559 33.3049L22.0421 32.9846L21.217 31.732ZM20.7308 32.0522L19.9057 30.7995L19.4195 31.1198L20.2446 32.3725L21.0697 33.6251L21.5559 33.3049L20.7308 32.0522ZM20.2446 32.3725L19.4195 31.1198C19.4114 31.1251 19.4332 31.1098 19.4793 31.1016C19.5002 31.0979 19.5193 31.097 19.5346 31.0976C19.5495 31.0982 19.5563 31.1001 19.5536 31.0994L19.1997 32.5571L18.8458 34.0147C19.6284 34.2048 20.403 34.0643 21.0697 33.6251L20.2446 32.3725ZM19.1997 32.5571L19.5536 31.0994L18.9949 30.9638L18.641 32.4214L18.2871 33.8791L18.8458 34.0147L19.1997 32.5571ZM18.641 32.4214L18.9949 30.9638L18.4362 30.8281L18.0823 32.2858L17.7284 33.7434L18.2871 33.8791L18.641 32.4214ZM18.0823 32.2858L18.4362 30.8281C18.4351 30.8279 18.4748 30.8383 18.5258 30.8784C18.5775 30.919 18.6016 30.9592 18.6065 30.9687L17.2686 31.647L15.9307 32.3252C16.3033 33.0603 16.9392 33.5518 17.7284 33.7434L18.0823 32.2858ZM17.2686 31.647L18.6065 30.9687L18.3514 30.4655L17.0135 31.1438L15.6756 31.822L15.9307 32.3252L17.2686 31.647ZM17.0135 31.1438L18.3514 30.4655L18.0963 29.9624L16.7584 30.6406L15.4205 31.3188L15.6756 31.822L17.0135 31.1438ZM16.7584 30.6406L18.0963 29.9624C17.9671 29.7073 17.8582 29.4359 17.7706 29.1466L16.335 29.5814L14.8994 30.0161C15.0362 30.4682 15.2097 30.9029 15.4205 31.3188L16.7584 30.6406ZM16.335 29.5814L17.7706 29.1466L17.6022 28.5906L16.1666 29.0254L14.731 29.4601L14.8994 30.0161L16.335 29.5814ZM16.1666 29.0254L17.6022 28.5906L17.4339 28.0346L15.9982 28.4694L14.5626 28.9041L14.731 29.4601L16.1666 29.0254ZM15.9982 28.4694L17.4339 28.0346C17.1663 27.1511 16.5129 26.5497 15.6635 26.3032L15.2455 27.7438L14.8275 29.1844C14.8289 29.1848 14.8124 29.1802 14.7847 29.1648C14.7562 29.149 14.7209 29.1247 14.6849 29.09C14.6059 29.0139 14.5723 28.9362 14.5626 28.9041L15.9982 28.4694ZM15.2455 27.7438L15.6635 26.3032L15.0791 26.1337L14.6612 27.5743L14.2432 29.0149L14.8275 29.1844L15.2455 27.7438ZM14.6612 27.5743L15.0791 26.1337L14.4948 25.9642L14.0768 27.4048L13.6588 28.8453L14.2432 29.0149L14.6612 27.5743ZM14.0768 27.4048L14.4948 25.9642C13.7948 25.7611 13.0855 25.7907 12.4079 26.0047L12.8597 27.4351L13.3115 28.8654C13.4775 28.813 13.5796 28.8224 13.6588 28.8453L14.0768 27.4048ZM12.8597 27.4351L12.4079 26.0047L11.7751 26.2046L12.2269 27.6349L12.6787 29.0653L13.3115 28.8654L12.8597 27.4351ZM12.2269 27.6349L11.7751 26.2046L11.1424 26.4045L11.5942 27.8348L12.046 29.2652L12.6787 29.0653L12.2269 27.6349ZM11.5942 27.8348L11.1424 26.4045C11.1446 26.4038 11.2203 26.3791 11.3489 26.3822C11.4883 26.3856 11.6902 26.4229 11.8959 26.5518C12.1028 26.6815 12.2276 26.8501 12.2945 26.9828C12.3558 27.1045 12.3666 27.1906 12.3676 27.1985L10.8795 27.3867L9.39133 27.575C9.44391 27.9906 9.63231 28.6735 10.3024 29.0936C10.9641 29.5085 11.6547 29.3887 12.046 29.2652L11.5942 27.8348ZM10.8795 27.3867L12.3676 27.1985L12.2856 26.5505L10.7975 26.7388L9.30935 26.927L9.39133 27.575L10.8795 27.3867ZM10.7975 26.7388L12.2856 26.5505L12.2037 25.9025L10.7155 26.0908L9.22738 26.2791L9.30935 26.927L10.7975 26.7388ZM10.7155 26.0908L12.2037 25.9025C12.155 25.518 12.1428 25.2438 12.1501 25.0613L10.6513 25.001L9.15251 24.9408C9.13617 25.3474 9.16672 25.7997 9.22738 26.2791L10.7155 26.0908ZM10.6513 25.001L12.1501 25.0613L12.1679 24.6195L10.6691 24.5592L9.17028 24.499L9.15251 24.9408L10.6513 25.001ZM10.6691 24.5592L12.1679 24.6195L12.1856 24.1777L10.6868 24.1174L9.18804 24.0571L9.17028 24.499L10.6691 24.5592ZM10.6868 24.1174L12.1856 24.1777C12.1826 24.2518 12.157 24.2162 12.2729 24.0506L11.0438 23.1907L9.81473 22.3308C9.47829 22.8117 9.21471 23.3939 9.18804 24.0571L10.6868 24.1174ZM11.0438 23.1907L12.2729 24.0506L12.6121 23.5657L11.383 22.7059L10.1539 21.846L9.81473 22.3308L11.0438 23.1907ZM11.383 22.7059L12.6121 23.5657L12.9513 23.0809L11.7222 22.221L10.4932 21.3611L10.1539 21.846L11.383 22.7059ZM11.7222 22.221L12.9513 23.0809C13.1969 22.7298 13.3886 22.2808 13.3944 21.7549C13.4002 21.2257 13.2159 20.7683 12.9664 20.4076L11.7327 21.2608L10.499 22.114C10.4687 22.0702 10.3923 21.9314 10.3945 21.7221C10.3968 21.5163 10.4737 21.3889 10.4932 21.3611L11.7222 22.221ZM11.7327 21.2608L12.9664 20.4076L12.6377 19.9323L11.404 20.7855L10.1703 21.6387L10.499 22.114L11.7327 21.2608ZM11.404 20.7855L12.6377 19.9323L12.309 19.457L11.0753 20.3102L9.84158 21.1634L10.1703 21.6387L11.404 20.7855ZM11.0753 20.3102L12.309 19.457C12.1117 19.1716 11.9279 18.8825 11.7574 18.5895L10.4609 19.344L9.16447 20.0984C9.37487 20.46 9.60064 20.815 9.84158 21.1634L11.0753 20.3102ZM10.4609 19.344L11.7574 18.5895L11.4717 18.0986L10.1753 18.8531L8.8788 19.6075L9.16447 20.0984L10.4609 19.344ZM10.1753 18.8531L11.4717 18.0986L11.1861 17.6077L9.8896 18.3622L8.59314 19.1166L8.8788 19.6075L10.1753 18.8531ZM9.8896 18.3622L11.1861 17.6077C11.1368 17.5231 11.0985 17.4116 11.0964 17.2371L9.59654 17.2551L8.09664 17.2731C8.10441 17.9202 8.26151 18.5468 8.59314 19.1166L9.8896 18.3622ZM9.59654 17.2551L11.0964 17.2371L11.089 16.6209L9.58914 16.6389L8.08925 16.6569L8.09664 17.2731L9.59654 17.2551ZM9.58914 16.6389L11.089 16.6209L11.0816 16.0047L9.58175 16.0227L8.08186 16.0407L8.08925 16.6569L9.58914 16.6389ZM9.58175 16.0227L11.0816 16.0047C11.0818 16.018 11.0805 16.2115 10.9157 16.4311C10.7408 16.6643 10.5244 16.7379 10.4458 16.7546L10.1335 15.2875L9.82116 13.8204C9.36983 13.9164 8.87512 14.1522 8.51623 14.6305C8.16753 15.0951 8.07677 15.6166 8.08186 16.0407L9.58175 16.0227ZM10.1335 15.2875L10.4458 16.7546L11.0049 16.6356L10.6926 15.1685L10.3803 13.7013L9.82116 13.8204L10.1335 15.2875ZM10.6926 15.1685L11.0049 16.6356L11.564 16.5166L11.2517 15.0494L10.9394 13.5823L10.3803 13.7013L10.6926 15.1685ZM11.2517 15.0494L11.564 16.5166C12.2107 16.3789 12.7823 16.0739 13.2679 15.6421L12.2712 14.5211L11.2746 13.4001C11.1464 13.5141 11.0383 13.5613 10.9394 13.5823L11.2517 15.0494ZM12.2712 14.5211L13.2679 15.6421L13.7283 15.2328L12.7317 14.1117L11.735 12.9907L11.2746 13.4001L12.2712 14.5211ZM12.7317 14.1117L13.7283 15.2328L14.1887 14.8234L13.1921 13.7024L12.1954 12.5814L11.735 12.9907L12.7317 14.1117ZM13.1921 13.7024L14.1887 14.8234C14.371 14.6614 14.4882 14.6133 14.5363 14.5994L14.1211 13.1581L13.7058 11.7167C13.1291 11.8829 12.627 12.1977 12.1954 12.5814L13.1921 13.7024ZM14.1211 13.1581L14.5363 14.5994L15.0049 14.4644L14.5896 13.0231L14.1744 11.5817L13.7058 11.7167L14.1211 13.1581ZM14.5896 13.0231L15.0049 14.4644L15.4735 14.3294L15.0582 12.888L14.6429 11.4467L14.1744 11.5817L14.5896 13.0231ZM15.0582 12.888L15.4735 14.3294C15.9039 14.2054 16.3214 13.9529 16.628 13.5368C16.9231 13.1365 17.036 12.6931 17.0657 12.3094L15.5702 12.1934L14.0747 12.0774C14.0755 12.0668 14.0887 11.9257 14.2131 11.7569C14.3491 11.5724 14.525 11.4807 14.6429 11.4467L15.0582 12.888ZM15.5702 12.1934L17.0657 12.3094L17.1091 11.7497L15.6136 11.6337L14.1181 11.5178L14.0747 12.0774L15.5702 12.1934ZM15.6136 11.6337L17.1091 11.7497L17.1525 11.1901L15.657 11.0741L14.1615 10.9581L14.1181 11.5178L15.6136 11.6337ZM15.657 11.0741L17.1525 11.1901C17.1582 11.1177 17.1865 10.9933 17.3134 10.805L16.0695 9.96675L14.8256 9.12846C14.4604 9.6704 14.2138 10.2842 14.1615 10.9581L15.657 11.0741ZM16.0695 9.96675L17.3134 10.805L17.6825 10.2573L16.4386 9.41906L15.1947 8.58077L14.8256 9.12846L16.0695 9.96675ZM16.4386 9.41906L17.6825 10.2573L18.0516 9.70966L16.8077 8.87137L15.5638 8.03309L15.1947 8.58077L16.4386 9.41906ZM16.8077 8.87137L18.0516 9.70966C18.0481 9.71495 17.966 9.83103 17.7721 9.9052C17.5713 9.98205 17.412 9.95235 17.3679 9.93966L17.783 8.49823L18.198 7.0568C17.7499 6.92775 17.226 6.90205 16.7001 7.10329C16.1811 7.30184 15.8135 7.66267 15.5638 8.03309L16.8077 8.87137ZM17.783 8.49823L17.3679 9.93966L17.974 10.1142L18.3891 8.67277L18.8042 7.23135L18.198 7.0568L17.783 8.49823ZM18.3891 8.67277L17.974 10.1142L18.5802 10.2887L18.9952 8.84732L19.4103 7.40589L18.8042 7.23135L18.3891 8.67277ZM18.9952 8.84732L18.5802 10.2887C18.704 10.3244 18.7749 10.3565 18.8081 10.3744C18.8409 10.392 18.8201 10.3868 18.7793 10.3426L19.8812 9.32485L20.9831 8.30713C20.537 7.8241 19.9491 7.56105 19.4103 7.40589L18.9952 8.84732ZM19.8812 9.32485L18.7793 10.3426L19.0591 10.6456L20.161 9.62784L21.263 8.61011L20.9831 8.30713L19.8812 9.32485ZM20.161 9.62784L19.0591 10.6456L19.339 10.9485L20.4409 9.93083L21.5428 8.9131L21.263 8.61011L20.161 9.62784ZM20.4409 9.93083L19.339 10.9485C19.4499 11.0686 19.5977 11.2196 19.7643 11.3454C19.8416 11.4037 19.9966 11.514 20.2082 11.5947C20.3836 11.6616 20.9277 11.8323 21.5146 11.509L20.7909 10.1952L20.0672 8.88129C20.6307 8.57091 21.1427 8.74028 21.2772 8.79161C21.4479 8.85671 21.5534 8.93712 21.5723 8.9514C21.6222 8.9891 21.6185 8.99502 21.5428 8.9131L20.4409 9.93083ZM20.7909 10.1952L21.5146 11.509L21.5848 11.4704L20.8611 10.1565L20.1374 8.84264L20.0672 8.88129L20.7909 10.1952ZM20.8611 10.1565L21.5848 11.4704L21.655 11.4317L20.9313 10.1178L20.2075 8.80398L20.1374 8.84264L20.8611 10.1565ZM20.9313 10.1178L21.655 11.4317C21.278 11.6393 20.9245 11.6252 20.7482 11.6008C20.5669 11.5756 20.4355 11.5217 20.3773 11.4957C20.3107 11.466 20.2641 11.4383 20.2429 11.4251C20.2194 11.4106 20.2056 11.4005 20.2031 11.3987C20.1994 11.396 20.2138 11.4064 20.2504 11.4382C20.2852 11.4684 20.3314 11.5102 20.3901 11.5657L21.421 10.4761L22.4518 9.38644C22.2992 9.24206 22.1337 9.09401 21.9744 8.97744C21.902 8.92445 21.7686 8.83138 21.599 8.75575C21.5146 8.71813 21.3606 8.65698 21.1603 8.62921C20.965 8.60213 20.5962 8.58992 20.2075 8.80398L20.9313 10.1178ZM21.421 10.4761L20.3901 11.5657L20.8096 11.9626L21.8405 10.873L22.8713 9.78333L22.4518 9.38644L21.421 10.4761Z" fill="white"/>
</svg>
