<svg width="47" height="43" viewBox="0 0 47 43" fill="none" xmlns="http://www.w3.org/2000/svg">
<g clip-path="url(#clip0_421_347)">
<path d="M3.12351 14.1317C5.95315 9.06998 12.3504 7.26049 17.4122 10.0901L22.2129 12.7739L24.8967 7.9731C27.7263 2.91134 34.1236 1.10184 39.1853 3.93148C44.2471 6.76112 46.0566 13.1584 43.2269 18.2201L30.2962 41.3512L7.16513 28.4204C2.10337 25.5908 0.293876 19.1935 3.12351 14.1317Z" fill="#F3B8FF"/>
<path d="M4.54185 11.6921L4.10603 10.2568L4.54185 11.6921ZM5.14255 11.5097L5.57837 12.945L5.14255 11.5097ZM5.74326 11.3273L5.30744 9.89203L5.74326 11.3273ZM6.818 10.8955L7.5164 12.223L6.818 10.8955ZM8.74159 9.95497L8.2043 8.5545L8.74159 9.95497ZM9.74455 9.57018L9.20726 8.16971L9.74455 9.57018ZM10.782 9.41491L10.6784 10.9113L10.782 9.41491ZM11.318 9.45203L11.4217 7.95562L11.318 9.45203ZM11.854 9.48916L11.7504 10.9856L11.854 9.48916ZM12.955 9.3742L12.5651 7.92575L12.955 9.3742ZM14.085 9.07005L14.4749 10.5185L14.085 9.07005ZM15.2635 8.93788L15.2148 10.4371L15.2635 8.93788ZM16.4904 8.97769L16.5391 7.47848L16.4904 8.97769ZM17.5718 9.3431L18.4628 8.13639L17.5718 9.3431ZM18.5077 10.0341L17.6167 11.2408L18.5077 10.0341ZM19.3721 10.8231L20.4904 9.82344L19.3721 10.8231ZM21.0938 12.2306L20.8794 13.7152L21.0938 12.2306ZM22.1582 12.3842L22.3725 10.8996L22.1582 12.3842ZM22.9291 11.9501L21.57 11.3153L22.9291 11.9501ZM23.4064 10.9281L22.0474 10.2933L23.4064 10.9281ZM23.9096 9.92053L22.5856 9.21545L23.9096 9.92053ZM24.4385 8.92736L25.7625 9.63244L24.4385 8.92736ZM25.1065 8.04075L24.0639 6.96224L25.1065 8.04075ZM25.5099 7.65074L26.5524 8.72925L25.5099 7.65074ZM25.9134 7.26072L24.8709 6.18221L25.9134 7.26072ZM26.6862 6.48766L25.6063 5.4466L26.6862 6.48766ZM27.4247 5.72156L28.5046 6.76262L27.4247 5.72156ZM28.1336 4.83318L29.3786 5.66989L28.1336 4.83318ZM28.8129 3.82251L27.5679 2.98579L28.8129 3.82251ZM29.7401 3.26698L29.6125 1.77242L29.7401 3.26698ZM30.3277 3.21679L30.4554 4.71134L30.3277 3.21679ZM30.9154 3.16659L31.043 4.66115L30.9154 3.16659ZM32.0384 2.77571L31.2331 1.5102L32.0384 2.77571ZM33.1092 2.09433L33.9145 3.35984L33.1092 2.09433ZM34.1999 2.07598L34.9529 0.778733L34.1999 2.07598ZM35.3104 2.72067L34.5573 4.01792L35.3104 2.72067ZM36.4176 3.12893L36.1869 4.61108L36.4176 3.12893ZM37.5214 3.30076L37.7521 1.8186L37.5214 3.30076ZM38.6745 3.49985L38.397 4.97395L38.6745 3.49985ZM39.2756 3.61303L39.5532 2.13893L39.2756 3.61303ZM39.8768 3.72621L39.5992 5.20031L39.8768 3.72621ZM40.7197 4.43293L39.3304 4.99869L40.7197 4.43293ZM40.9614 5.02646L42.3506 4.46071L40.9614 5.02646ZM41.2031 5.62L42.5923 5.05424L41.2031 5.62ZM42.0118 6.50093L42.69 5.163L42.0118 6.50093ZM43.1457 7.07571L42.4674 8.41363L43.1457 7.07571ZM43.6993 7.9964L45.1989 8.028L43.6993 7.9964ZM43.6726 9.26298L42.1729 9.23138L43.6726 9.26298ZM44.0121 10.3991L42.7843 11.2608L44.0121 10.3991ZM44.7179 11.4046L45.9456 10.5429L44.7179 11.4046ZM45.0639 12.4987L46.5638 12.516L45.0639 12.4987ZM45.0503 13.6814L43.5504 13.6641L45.0503 13.6814ZM44.9086 14.8466L46.3688 15.1898L44.9086 14.8466ZM44.7737 15.4206L43.3135 15.0774L44.7737 15.4206ZM44.6388 15.9945L46.099 16.3377L44.6388 15.9945ZM44.0079 16.9593L43.0795 15.7811L44.0079 16.9593ZM43.0159 17.741L43.9443 18.9192L43.0159 17.741ZM42.5267 18.7801L41.0268 18.7958L42.5267 18.7801ZM42.5335 19.4283L41.0336 19.444L42.5335 19.4283ZM42.5403 20.0765L44.0402 20.0608L42.5403 20.0765ZM42.2781 21.2188L40.9607 20.5016L42.2781 21.2188ZM41.7402 22.2069L43.0576 22.9241L41.7402 22.2069ZM41.1029 23.1396L39.9542 22.1749L41.1029 23.1396ZM40.7346 23.5781L39.586 22.6135L40.7346 23.5781ZM40.3663 24.0166L41.515 24.9813L40.3663 24.0166ZM39.778 24.9766L41.1599 25.5599L39.778 24.9766ZM39.5579 25.498L38.1759 24.9146L39.5579 25.498ZM39.3378 26.0194L40.7197 26.6027L39.3378 26.0194ZM38.7537 26.9817L39.9104 27.9367L38.7537 26.9817ZM38.0256 27.8635L36.8689 26.9085L38.0256 27.8635ZM37.3509 28.7752L36.099 27.9489L37.3509 28.7752ZM37.0402 29.2459L38.292 30.0722L37.0402 29.2459ZM36.7295 29.7167L37.9813 30.543L36.7295 29.7167ZM36.3475 30.792L37.8372 30.9675L36.3475 30.792ZM36.2051 32.0012L34.7154 31.8257L36.2051 32.0012ZM35.5029 32.8976L36.1325 34.2591L35.5029 32.8976ZM34.872 33.1893L35.5015 34.5508L34.872 33.1893ZM34.2411 33.481L33.6116 32.1195L34.2411 33.481ZM33.5664 34.3927L35.0627 34.4983L33.5664 34.3927ZM33.4789 35.6326L31.9826 35.527L33.4789 35.6326ZM33.1452 36.7349L31.8596 35.9622L33.1452 36.7349ZM32.5653 37.6996L33.8509 38.4724L32.5653 37.6996ZM31.7984 38.5598L32.7297 39.7356L31.7984 38.5598ZM30.8444 39.3153L29.9131 38.1394L30.8444 39.3153ZM30.2482 39.8956L31.5408 40.6567L30.2482 39.8956ZM30.0097 40.3005L28.7172 39.5394L30.0097 40.3005ZM29.2328 40.5267L29.1787 39.0277L29.2328 40.5267ZM28.5751 40.5505L28.6292 42.0495L28.5751 40.5505ZM26.9681 39.9668L25.6065 40.596L26.9681 39.9668ZM26.3849 38.7046L25.0232 39.3338L26.3849 38.7046ZM25.5104 37.9634L25.7889 36.4894L25.5104 37.9634ZM24.3447 37.7431L24.0662 39.217L24.3447 37.7431ZM23.2301 37.4313L22.6982 38.8338L23.2301 37.4313ZM21.2639 36.3375L20.0692 37.2446L21.2639 36.3375ZM20.5215 35.3599L21.7162 34.4528L20.5215 35.3599ZM19.5154 34.8541L19.5554 33.3547L19.5154 34.8541ZM18.2455 34.8202L18.2055 36.3197L18.2455 34.8202ZM17.0884 34.5845L17.6681 33.201L17.0884 34.5845ZM16.0441 34.147L15.4645 35.5305L16.0441 34.147ZM15.1138 33.5058L14.0351 34.5481L15.1138 33.5058ZM14.2973 32.6608L13.2186 33.7031L14.2973 32.6608ZM13.4949 31.7906L14.6206 30.7993L13.4949 31.7906ZM12.7065 30.8953L13.8323 29.904L12.7065 30.8953ZM11.7417 30.3157L12.0797 28.8543L11.7417 30.3157ZM10.6004 30.0517L10.2624 31.5131L10.6004 30.0517ZM8.26042 29.6265L8.01518 31.1063L8.26042 29.6265ZM7.13428 28.289L5.75759 28.8846L7.13428 28.289ZM6.86611 27.6691L8.2428 27.0735L6.86611 27.6691ZM5.52061 26.6345L4.98177 28.0344L5.52061 26.6345ZM2.66357 23.9957L1.33547 24.693L2.66357 23.9957ZM2.39377 23.4818L1.06568 24.1791L2.39377 23.4818ZM2.12397 22.968L3.45206 22.2707L2.12397 22.968ZM2.06432 21.8541L0.648654 21.3582L2.06432 21.8541ZM2.67571 19.5358L1.17672 19.5908L2.67571 19.5358ZM2.63762 18.4988L4.13661 18.4437L2.63762 18.4988ZM2.71725 17.4651L1.24402 17.1829L2.71725 17.4651ZM2.81592 16.9499L1.3427 16.6677L2.81592 16.9499ZM3.1109 15.5117L4.56967 15.861L3.1109 15.5117ZM3.20854 15.104L1.74978 14.7547L3.20854 15.104ZM3.30618 14.6962L1.84741 14.3469L3.30618 14.6962ZM3.32792 13.5674L1.91759 13.0566L3.32792 13.5674ZM3.53233 13.0031L4.94265 13.514L5.14706 12.9497L3.73673 12.4388L2.3264 11.928L2.122 12.4923L3.53233 13.0031ZM3.73673 12.4388L5.14706 12.9497C5.14157 12.9648 5.1171 13.0171 5.06023 13.0698C5.00521 13.1208 4.96379 13.1316 4.97766 13.1274L4.54185 11.6921L4.10603 10.2568C3.27755 10.5084 2.63216 11.0839 2.3264 11.928L3.73673 12.4388ZM4.54185 11.6921L4.97766 13.1274L5.57837 12.945L5.14255 11.5097L4.70673 10.0744L4.10603 10.2568L4.54185 11.6921ZM5.14255 11.5097L5.57837 12.945L6.17908 12.7626L5.74326 11.3273L5.30744 9.89203L4.70673 10.0744L5.14255 11.5097ZM5.74326 11.3273L6.17908 12.7626C6.65524 12.618 7.1036 12.4402 7.5164 12.223L6.818 10.8955L6.11961 9.56803C5.90036 9.68338 5.63222 9.79341 5.30744 9.89203L5.74326 11.3273ZM6.818 10.8955L7.5164 12.223L7.99043 11.9736L7.29204 10.6461L6.59364 9.31864L6.11961 9.56803L6.818 10.8955ZM7.29204 10.6461L7.99043 11.9736L8.46447 11.7242L7.76607 10.3968L7.06768 9.06926L6.59364 9.31864L7.29204 10.6461ZM7.76607 10.3968L8.46447 11.7242C8.72813 11.5855 8.9995 11.4626 9.27888 11.3554L8.74159 9.95497L8.2043 8.5545C7.81504 8.70383 7.43607 8.87545 7.06768 9.06926L7.76607 10.3968ZM8.74159 9.95497L9.27888 11.3554L9.78036 11.163L9.24307 9.76257L8.70578 8.3621L8.2043 8.5545L8.74159 9.95497ZM9.24307 9.76257L9.78036 11.163L10.2818 10.9707L9.74455 9.57018L9.20726 8.16971L8.70578 8.3621L9.24307 9.76257ZM9.74455 9.57018L10.2818 10.9707C10.412 10.9207 10.5391 10.9017 10.6784 10.9113L10.782 9.41491L10.8857 7.9185C10.3103 7.87865 9.74575 7.96312 9.20726 8.16971L9.74455 9.57018ZM10.782 9.41491L10.6784 10.9113L11.2144 10.9484L11.318 9.45203L11.4217 7.95562L10.8857 7.9185L10.782 9.41491ZM11.318 9.45203L11.2144 10.9484L11.7504 10.9856L11.854 9.48916L11.9577 7.99274L11.4217 7.95562L11.318 9.45203ZM11.854 9.48916L11.7504 10.9856C12.2879 11.0228 12.8218 10.9634 13.3449 10.8226L12.955 9.3742L12.5651 7.92575C12.3349 7.98773 12.1348 8.00501 11.9577 7.99274L11.854 9.48916ZM12.955 9.3742L13.3449 10.8226L13.9099 10.6706L13.52 9.22212L13.1301 7.77368L12.5651 7.92575L12.955 9.3742ZM13.52 9.22212L13.9099 10.6706L14.4749 10.5185L14.085 9.07005L13.6951 7.6216L13.1301 7.77368L13.52 9.22212ZM14.085 9.07005L14.4749 10.5185C14.7018 10.4574 14.9464 10.4284 15.2148 10.4371L15.2635 8.93788L15.3121 7.43866C14.7625 7.42083 14.2215 7.47991 13.6951 7.6216L14.085 9.07005ZM15.2635 8.93788L15.2148 10.4371L15.8283 10.457L15.8769 8.95778L15.9256 7.45857L15.3121 7.43866L15.2635 8.93788ZM15.8769 8.95778L15.8283 10.457L16.4418 10.4769L16.4904 8.97769L16.5391 7.47848L15.9256 7.45857L15.8769 8.95778ZM16.4904 8.97769L16.4418 10.4769C16.5646 10.4809 16.6274 10.5104 16.6809 10.5498L17.5718 9.3431L18.4628 8.13639C17.8923 7.71516 17.2342 7.50104 16.5391 7.47848L16.4904 8.97769ZM17.5718 9.3431L16.6809 10.5498L17.1488 10.8953L18.0398 9.68861L18.9307 8.48189L18.4628 8.13639L17.5718 9.3431ZM18.0398 9.68861L17.1488 10.8953L17.6167 11.2408L18.5077 10.0341L19.3987 8.8274L18.9307 8.48189L18.0398 9.68861ZM18.5077 10.0341L17.6167 11.2408C17.8442 11.4087 18.0564 11.602 18.2538 11.8228L19.3721 10.8231L20.4904 9.82344C20.1592 9.4529 19.7952 9.12015 19.3987 8.8274L18.5077 10.0341ZM19.3721 10.8231L18.2538 11.8228L18.6503 12.2664L19.7686 11.2667L20.8869 10.267L20.4904 9.82344L19.3721 10.8231ZM19.7686 11.2667L18.6503 12.2664L19.0468 12.7099L20.1651 11.7102L21.2834 10.7105L20.8869 10.267L19.7686 11.2667ZM20.1651 11.7102L19.0468 12.7099C19.5194 13.2385 20.138 13.6081 20.8794 13.7152L21.0938 12.2306L21.3081 10.746C21.3079 10.7459 21.3113 10.7464 21.3167 10.7483C21.3222 10.7501 21.3265 10.7522 21.3288 10.7535C21.3309 10.7547 21.3283 10.7535 21.3212 10.7477C21.3139 10.7418 21.3011 10.7303 21.2834 10.7105L20.1651 11.7102ZM21.0938 12.2306L20.8794 13.7152L21.4116 13.792L21.626 12.3074L21.8403 10.8228L21.3081 10.746L21.0938 12.2306ZM21.626 12.3074L21.4116 13.792L21.9438 13.8689L22.1582 12.3842L22.3725 10.8996L21.8403 10.8228L21.626 12.3074ZM22.1582 12.3842L21.9438 13.8689C22.3764 13.9313 22.8781 13.8886 23.3531 13.6211C23.8209 13.3577 24.1126 12.9606 24.2881 12.5849L22.9291 11.9501L21.57 11.3153C21.5864 11.2802 21.6701 11.1259 21.8809 11.0072C22.0989 10.8844 22.2948 10.8884 22.3725 10.8996L22.1582 12.3842ZM22.9291 11.9501L24.2881 12.5849L24.5268 12.0739L23.1677 11.4391L21.8087 10.8043L21.57 11.3153L22.9291 11.9501ZM23.1677 11.4391L24.5268 12.0739L24.7655 11.5629L23.4064 10.9281L22.0474 10.2933L21.8087 10.8043L23.1677 11.4391ZM23.4064 10.9281L24.7655 11.5629C24.9136 11.2459 25.0696 10.9335 25.2335 10.6256L23.9096 9.92053L22.5856 9.21545C22.397 9.56967 22.2176 9.92896 22.0474 10.2933L23.4064 10.9281ZM23.9096 9.92053L25.2335 10.6256L25.498 10.129L24.174 9.42394L22.8501 8.71886L22.5856 9.21545L23.9096 9.92053ZM24.174 9.42394L25.498 10.129L25.7625 9.63244L24.4385 8.92736L23.1145 8.22228L22.8501 8.71886L24.174 9.42394ZM24.4385 8.92736L25.7625 9.63244C25.8652 9.43944 25.993 9.26999 26.149 9.11927L25.1065 8.04075L24.0639 6.96224C23.6819 7.33154 23.3644 7.75316 23.1145 8.22228L24.4385 8.92736ZM25.1065 8.04075L26.149 9.11927L26.5524 8.72925L25.5099 7.65074L24.4674 6.57223L24.0639 6.96224L25.1065 8.04075ZM25.5099 7.65074L26.5524 8.72925L26.9559 8.33924L25.9134 7.26072L24.8709 6.18221L24.4674 6.57223L25.5099 7.65074ZM25.9134 7.26072L26.9559 8.33924C27.2369 8.06762 27.507 7.79746 27.7661 7.52872L26.6862 6.48766L25.6063 5.4466C25.373 5.68859 25.1279 5.9338 24.8709 6.18221L25.9134 7.26072ZM26.6862 6.48766L27.7661 7.52872L28.1354 7.14567L27.0555 6.10461L25.9755 5.06355L25.6063 5.4466L26.6862 6.48766ZM27.0555 6.10461L28.1354 7.14567L28.5046 6.76262L27.4247 5.72156L26.3448 4.6805L25.9755 5.06355L27.0555 6.10461ZM27.4247 5.72156L28.5046 6.76262C28.8197 6.43584 29.1101 6.0694 29.3786 5.66989L28.1336 4.83318L26.8887 3.99647C26.7043 4.27074 26.5221 4.49656 26.3448 4.6805L27.4247 5.72156ZM28.1336 4.83318L29.3786 5.66989L29.7182 5.16456L28.4733 4.32784L27.2283 3.49113L26.8887 3.99647L28.1336 4.83318ZM28.4733 4.32784L29.7182 5.16456L30.0578 4.65922L28.8129 3.82251L27.5679 2.98579L27.2283 3.49113L28.4733 4.32784ZM28.8129 3.82251L30.0578 4.65922C30.0637 4.65054 30.0427 4.68337 29.9854 4.7177C29.9268 4.75283 29.8783 4.76064 29.8678 4.76154L29.7401 3.26698L29.6125 1.77242C28.7511 1.846 28.0383 2.28585 27.5679 2.98579L28.8129 3.82251ZM29.7401 3.26698L29.8678 4.76154L30.4554 4.71134L30.3277 3.21679L30.2001 1.72223L29.6125 1.77242L29.7401 3.26698ZM30.3277 3.21679L30.4554 4.71134L31.043 4.66115L30.9154 3.16659L30.7877 1.67203L30.2001 1.72223L30.3277 3.21679ZM30.9154 3.16659L31.043 4.66115C31.6939 4.60555 32.2985 4.3881 32.8436 4.04122L32.0384 2.77571L31.2331 1.5102C31.0643 1.61757 30.9203 1.66071 30.7877 1.67203L30.9154 3.16659ZM32.0384 2.77571L32.8436 4.04122L33.3791 3.70054L32.5738 2.43502L31.7685 1.1695L31.2331 1.5102L32.0384 2.77571ZM32.5738 2.43502L33.3791 3.70054L33.9145 3.35984L33.1092 2.09433L32.3039 0.828814L31.7685 1.1695L32.5738 2.43502ZM33.1092 2.09433L33.9145 3.35984C33.8983 3.37014 33.8123 3.41687 33.6748 3.41918C33.5384 3.42148 33.4555 3.37833 33.4468 3.37323L34.1999 2.07598L34.9529 0.778733C34.574 0.558739 34.1242 0.411202 33.6243 0.419611C33.1233 0.428038 32.677 0.591391 32.3039 0.828814L33.1092 2.09433ZM34.1999 2.07598L33.4468 3.37323L34.002 3.69558L34.7551 2.39833L35.5082 1.10108L34.9529 0.778733L34.1999 2.07598ZM34.7551 2.39833L34.002 3.69558L34.5573 4.01792L35.3104 2.72067L36.0635 1.42342L35.5082 1.10108L34.7551 2.39833ZM35.3104 2.72067L34.5573 4.01792C35.0648 4.31255 35.6095 4.5212 36.1869 4.61108L36.4176 3.12893L36.6483 1.64678C36.4898 1.62211 36.2963 1.55859 36.0635 1.42342L35.3104 2.72067ZM36.4176 3.12893L36.1869 4.61108L36.7388 4.69699L36.9695 3.21484L37.2002 1.73269L36.6483 1.64678L36.4176 3.12893ZM36.9695 3.21484L36.7388 4.69699L37.2907 4.78291L37.5214 3.30076L37.7521 1.8186L37.2002 1.73269L36.9695 3.21484ZM37.5214 3.30076L37.2907 4.78291C37.6416 4.83753 38.0103 4.90115 38.397 4.97395L38.6745 3.49985L38.952 2.02575C38.5372 1.94763 38.1371 1.87853 37.7521 1.8186L37.5214 3.30076ZM38.6745 3.49985L38.397 4.97395L38.9981 5.08713L39.2756 3.61303L39.5532 2.13893L38.952 2.02575L38.6745 3.49985ZM39.2756 3.61303L38.9981 5.08713L39.5992 5.20031L39.8768 3.72621L40.1543 2.25211L39.5532 2.13893L39.2756 3.61303ZM39.8768 3.72621L39.5992 5.20031C39.5758 5.19591 39.5024 5.17437 39.4243 5.10891C39.3488 5.04559 39.3268 4.98964 39.3304 4.99869L40.7197 4.43293L42.1089 3.86717C41.7665 3.02659 41.084 2.42714 40.1543 2.25211L39.8768 3.72621ZM40.7197 4.43293L39.3304 4.99869L39.5722 5.59222L40.9614 5.02646L42.3506 4.46071L42.1089 3.86717L40.7197 4.43293ZM40.9614 5.02646L39.5722 5.59222L39.8139 6.18576L41.2031 5.62L42.5923 5.05424L42.3506 4.46071L40.9614 5.02646ZM41.2031 5.62L39.8139 6.18576C40.1101 6.91303 40.6304 7.48242 41.3335 7.83885L42.0118 6.50093L42.69 5.163C42.6513 5.1434 42.6367 5.12869 42.6311 5.12263C42.6254 5.11642 42.6104 5.09878 42.5923 5.05424L41.2031 5.62ZM42.0118 6.50093L41.3335 7.83885L41.9005 8.12624L42.5787 6.78832L43.2569 5.4504L42.69 5.163L42.0118 6.50093ZM42.5787 6.78832L41.9005 8.12624L42.4674 8.41363L43.1457 7.07571L43.8239 5.73779L43.2569 5.4504L42.5787 6.78832ZM43.1457 7.07571L42.4674 8.41363C42.4516 8.40562 42.3599 8.35202 42.282 8.22255C42.204 8.09275 42.1992 7.98525 42.1996 7.9648L43.6993 7.9964L45.1989 8.028C45.2082 7.58534 45.1156 7.1133 44.853 6.67661C44.5906 6.24024 44.2176 5.93741 43.8239 5.73779L43.1457 7.07571ZM43.6993 7.9964L42.1996 7.9648L42.1862 8.59809L43.6859 8.62969L45.1856 8.66129L45.1989 8.028L43.6993 7.9964ZM43.6859 8.62969L42.1862 8.59809L42.1729 9.23138L43.6726 9.26298L45.1722 9.29458L45.1856 8.66129L43.6859 8.62969ZM43.6726 9.26298L42.1729 9.23138C42.1575 9.96202 42.3597 10.6557 42.7843 11.2608L44.0121 10.3991L45.2399 9.53733C45.194 9.47201 45.1698 9.40833 45.1722 9.29458L43.6726 9.26298ZM44.0121 10.3991L42.7843 11.2608L43.1372 11.7636L44.365 10.9018L45.5928 10.0401L45.2399 9.53733L44.0121 10.3991ZM44.365 10.9018L43.1372 11.7636L43.4901 12.2663L44.7179 11.4046L45.9456 10.5429L45.5928 10.0401L44.365 10.9018ZM44.7179 11.4046L43.4901 12.2663C43.5522 12.3549 43.5648 12.4142 43.564 12.4815L45.0639 12.4987L46.5638 12.516C46.5721 11.7948 46.354 11.1247 45.9456 10.5429L44.7179 11.4046ZM45.0639 12.4987L43.564 12.4815L43.5572 13.0728L45.0571 13.09L46.557 13.1073L46.5638 12.516L45.0639 12.4987ZM45.0571 13.09L43.5572 13.0728L43.5504 13.6641L45.0503 13.6814L46.5502 13.6987L46.557 13.1073L45.0571 13.09ZM45.0503 13.6814L43.5504 13.6641C43.5471 13.9489 43.5131 14.228 43.4484 14.5034L44.9086 14.8466L46.3688 15.1898C46.4839 14.7 46.5444 14.2023 46.5502 13.6987L45.0503 13.6814ZM44.9086 14.8466L43.4484 14.5034L43.3135 15.0774L44.7737 15.4206L46.2339 15.7637L46.3688 15.1898L44.9086 14.8466ZM44.7737 15.4206L43.3135 15.0774L43.1786 15.6513L44.6388 15.9945L46.099 16.3377L46.2339 15.7637L44.7737 15.4206ZM44.6388 15.9945L43.1786 15.6513C43.1721 15.6791 43.1639 15.7146 43.0795 15.7811L44.0079 16.9593L44.9363 18.1374C45.5133 17.6828 45.9257 17.0751 46.099 16.3377L44.6388 15.9945ZM44.0079 16.9593L43.0795 15.7811L42.5835 16.172L43.5119 17.3501L44.4403 18.5283L44.9363 18.1374L44.0079 16.9593ZM43.5119 17.3501L42.5835 16.172L42.0875 16.5628L43.0159 17.741L43.9443 18.9192L44.4403 18.5283L43.5119 17.3501ZM43.0159 17.741L42.0875 16.5628C41.3804 17.1201 41.0175 17.913 41.0268 18.7958L42.5267 18.7801L44.0266 18.7644C44.0264 18.7452 44.0293 18.7787 44.0027 18.8351C43.9906 18.861 43.9763 18.8827 43.9629 18.8991C43.9499 18.9151 43.9418 18.9211 43.9443 18.9192L43.0159 17.741ZM42.5267 18.7801L41.0268 18.7958L41.0336 19.444L42.5335 19.4283L44.0334 19.4126L44.0266 18.7644L42.5267 18.7801ZM42.5335 19.4283L41.0336 19.444L41.0404 20.0922L42.5403 20.0765L44.0402 20.0608L44.0334 19.4126L42.5335 19.4283ZM42.5403 20.0765L41.0404 20.0922C41.0426 20.3079 41.0001 20.4292 40.9607 20.5016L42.2781 21.2188L43.5955 21.936C43.9147 21.3496 44.047 20.7094 44.0402 20.0608L42.5403 20.0765ZM42.2781 21.2188L40.9607 20.5016L40.6917 20.9957L42.0091 21.7129L43.3266 22.4301L43.5955 21.936L42.2781 21.2188ZM42.0091 21.7129L40.6917 20.9957L40.4227 21.4897L41.7402 22.2069L43.0576 22.9241L43.3266 22.4301L42.0091 21.7129ZM41.7402 22.2069L40.4227 21.4897C40.2921 21.7296 40.1366 21.9578 39.9542 22.1749L41.1029 23.1396L42.2516 24.1042C42.5603 23.7366 42.8296 23.343 43.0576 22.9241L41.7402 22.2069ZM41.1029 23.1396L39.9542 22.1749L39.586 22.6135L40.7346 23.5781L41.8833 24.5427L42.2516 24.1042L41.1029 23.1396ZM40.7346 23.5781L39.586 22.6135L39.2177 23.052L40.3663 24.0166L41.515 24.9813L41.8833 24.5427L40.7346 23.5781ZM40.3663 24.0166L39.2177 23.052C38.8769 23.4577 38.6017 23.906 38.396 24.3933L39.778 24.9766L41.1599 25.5599C41.2476 25.352 41.3647 25.1603 41.515 24.9813L40.3663 24.0166ZM39.778 24.9766L38.396 24.3933L38.1759 24.9146L39.5579 25.498L40.9398 26.0813L41.1599 25.5599L39.778 24.9766ZM39.5579 25.498L38.1759 24.9146L37.9559 25.436L39.3378 26.0194L40.7197 26.6027L40.9398 26.0813L39.5579 25.498ZM39.3378 26.0194L37.9559 25.436C37.8664 25.6481 37.7479 25.8439 37.597 26.0267L38.7537 26.9817L39.9104 27.9367C40.2448 27.5316 40.5158 27.0859 40.7197 26.6027L39.3378 26.0194ZM38.7537 26.9817L37.597 26.0267L37.2329 26.4676L38.3896 27.4226L39.5463 28.3776L39.9104 27.9367L38.7537 26.9817ZM38.3896 27.4226L37.2329 26.4676L36.8689 26.9085L38.0256 27.8635L39.1823 28.8185L39.5463 28.3776L38.3896 27.4226ZM38.0256 27.8635L36.8689 26.9085C36.5927 27.2431 36.3359 27.5899 36.099 27.9489L37.3509 28.7752L38.6028 29.6015C38.7801 29.3328 38.9731 29.0719 39.1823 28.8185L38.0256 27.8635ZM37.3509 28.7752L36.099 27.9489L35.7883 28.4196L37.0402 29.2459L38.292 30.0722L38.6028 29.6015L37.3509 28.7752ZM37.0402 29.2459L35.7883 28.4196L35.4776 28.8904L36.7295 29.7167L37.9813 30.543L38.292 30.0722L37.0402 29.2459ZM36.7295 29.7167L35.4776 28.8904C35.1314 29.4148 34.9305 29.9998 34.8578 30.6165L36.3475 30.792L37.8372 30.9675C37.8595 30.7781 37.9132 30.6461 37.9813 30.543L36.7295 29.7167ZM36.3475 30.792L34.8578 30.6165L34.7866 31.2211L36.2763 31.3966L37.766 31.5721L37.8372 30.9675L36.3475 30.792ZM36.2763 31.3966L34.7866 31.2211L34.7154 31.8257L36.2051 32.0012L37.6948 32.1767L37.766 31.5721L36.2763 31.3966ZM36.2051 32.0012L34.7154 31.8257C34.7179 31.8047 34.7248 31.7692 34.7423 31.7255C34.7601 31.6812 34.7845 31.6391 34.8131 31.6026C34.8716 31.528 34.915 31.5168 34.8734 31.5361L35.5029 32.8976L36.1325 34.2591C36.9469 33.8825 37.5767 33.1793 37.6948 32.1767L36.2051 32.0012ZM35.5029 32.8976L34.8734 31.5361L34.2425 31.8278L34.872 33.1893L35.5015 34.5508L36.1325 34.2591L35.5029 32.8976ZM34.872 33.1893L34.2425 31.8278L33.6116 32.1195L34.2411 33.481L34.8706 34.8425L35.5015 34.5508L34.872 33.1893ZM34.2411 33.481L33.6116 32.1195C32.7663 32.5103 32.143 33.2541 32.0701 34.2871L33.5664 34.3927L35.0627 34.4983C35.0613 34.5179 35.0561 34.5555 35.0389 34.6041C35.0213 34.6536 34.9954 34.7029 34.9627 34.7471C34.8952 34.8382 34.8377 34.8578 34.8706 34.8425L34.2411 33.481ZM33.5664 34.3927L32.0701 34.2871L32.0264 34.907L33.5226 35.0127L35.0189 35.1183L35.0627 34.4983L33.5664 34.3927ZM33.5226 35.0127L32.0264 34.907L31.9826 35.527L33.4789 35.6326L34.9751 35.7382L35.0189 35.1183L33.5226 35.0127ZM33.4789 35.6326L31.9826 35.527C31.9683 35.7294 31.9187 35.8637 31.8596 35.9622L33.1452 36.7349L34.4308 37.5077C34.7582 36.963 34.9311 36.3624 34.9751 35.7382L33.4789 35.6326ZM33.1452 36.7349L31.8596 35.9622L31.5696 36.4445L32.8552 37.2173L34.1409 37.9901L34.4308 37.5077L33.1452 36.7349ZM32.8552 37.2173L31.5696 36.4445L31.2797 36.9269L32.5653 37.6996L33.8509 38.4724L34.1409 37.9901L32.8552 37.2173ZM32.5653 37.6996L31.2797 36.9269C31.1866 37.0817 31.0552 37.2349 30.8671 37.3839L31.7984 38.5598L32.7297 39.7356C33.1775 39.3809 33.5574 38.9607 33.8509 38.4724L32.5653 37.6996ZM31.7984 38.5598L30.8671 37.3839L30.3901 37.7617L31.3214 38.9375L32.2527 40.1134L32.7297 39.7356L31.7984 38.5598ZM31.3214 38.9375L30.3901 37.7617L29.9131 38.1394L30.8444 39.3153L31.7757 40.4912L32.2527 40.1134L31.3214 38.9375ZM30.8444 39.3153L29.9131 38.1394C29.6105 38.3791 29.1951 38.7277 28.9556 39.1344L30.2482 39.8956L31.5408 40.6567C31.5047 40.718 31.4762 40.7511 31.4747 40.753C31.471 40.7573 31.4785 40.7481 31.503 40.7242C31.5534 40.6752 31.6402 40.5985 31.7757 40.4912L30.8444 39.3153ZM30.2482 39.8956L28.9556 39.1344L28.8364 39.3369L30.129 40.098L31.4215 40.8592L31.5408 40.6567L30.2482 39.8956ZM30.129 40.098L28.8364 39.3369L28.7172 39.5394L30.0097 40.3005L31.3023 41.0616L31.4215 40.8592L30.129 40.098ZM30.0097 40.3005L28.7172 39.5394C28.8493 39.3151 29.0156 39.1844 29.1246 39.1166C29.231 39.0505 29.3131 39.0249 29.3366 39.0181C29.3764 39.0065 29.3411 39.0218 29.1787 39.0277L29.2328 40.5267L29.2869 42.0257C29.5631 42.0158 29.8764 41.9855 30.1752 41.8985C30.4269 41.8252 30.9695 41.6268 31.3023 41.0616L30.0097 40.3005ZM29.2328 40.5267L29.1787 39.0277L28.521 39.0514L28.5751 40.5505L28.6292 42.0495L29.2869 42.0257L29.2328 40.5267ZM28.5751 40.5505L28.521 39.0514L27.8633 39.0752L27.9174 40.5742L27.9715 42.0732L28.6292 42.0495L28.5751 40.5505ZM27.9174 40.5742L27.8633 39.0752C27.8963 39.074 28.02 39.0813 28.1597 39.1707C28.2935 39.2563 28.335 39.3489 28.3298 39.3376L26.9681 39.9668L25.6065 40.596C25.7956 41.0054 26.0926 41.4097 26.5429 41.6977C26.999 41.9896 27.5001 42.0902 27.9715 42.0732L27.9174 40.5742ZM26.9681 39.9668L28.3298 39.3376L28.0382 38.7065L26.6765 39.3357L25.3148 39.9649L25.6065 40.596L26.9681 39.9668ZM26.6765 39.3357L28.0382 38.7065L27.7465 38.0754L26.3849 38.7046L25.0232 39.3338L25.3148 39.9649L26.6765 39.3357ZM26.3849 38.7046L27.7465 38.0754C27.3888 37.3011 26.7403 36.6692 25.7889 36.4894L25.5104 37.9634L25.2319 39.4373C25.2107 39.4333 25.1799 39.4247 25.1442 39.4079C25.1082 39.3909 25.0764 39.3698 25.0506 39.348C24.9982 39.3036 24.9984 39.2801 25.0232 39.3338L26.3849 38.7046ZM25.5104 37.9634L25.7889 36.4894L25.206 36.3793L24.9275 37.8532L24.649 39.3272L25.2319 39.4373L25.5104 37.9634ZM24.9275 37.8532L25.206 36.3793L24.6232 36.2692L24.3447 37.7431L24.0662 39.217L24.649 39.3272L24.9275 37.8532ZM24.3447 37.7431L24.6232 36.2692C24.3173 36.2114 24.0308 36.1307 23.7621 36.0288L23.2301 37.4313L22.6982 38.8338C23.1383 39.0008 23.5949 39.128 24.0662 39.217L24.3447 37.7431ZM23.2301 37.4313L23.7621 36.0288L23.2304 35.8271L22.6984 37.2297L22.1665 38.6322L22.6982 38.8338L23.2301 37.4313ZM22.6984 37.2297L23.2304 35.8271L22.6987 35.6255L22.1667 37.028L21.6348 38.4305L22.1665 38.6322L22.6984 37.2297ZM22.1667 37.028L22.6987 35.6255C22.6281 35.5987 22.5499 35.5508 22.4585 35.4304L21.2639 36.3375L20.0692 37.2446C20.4727 37.776 20.9965 38.1884 21.6348 38.4305L22.1667 37.028ZM21.2639 36.3375L22.4585 35.4304L22.0873 34.9416L20.8927 35.8487L19.6981 36.7558L20.0692 37.2446L21.2639 36.3375ZM20.8927 35.8487L22.0873 34.9416L21.7162 34.4528L20.5215 35.3599L19.3269 36.267L19.6981 36.7558L20.8927 35.8487ZM20.5215 35.3599L21.7162 34.4528C21.1827 33.7502 20.4151 33.3776 19.5554 33.3547L19.5154 34.8541L19.4754 36.3536C19.495 36.3541 19.4638 36.3559 19.4107 36.3292C19.3863 36.317 19.3653 36.3026 19.3491 36.2888C19.3332 36.2753 19.3263 36.2663 19.3269 36.267L20.5215 35.3599ZM19.5154 34.8541L19.5554 33.3547L18.9205 33.3377L18.8805 34.8372L18.8404 36.3366L19.4754 36.3536L19.5154 34.8541ZM18.8805 34.8372L18.9205 33.3377L18.2855 33.3208L18.2455 34.8202L18.2055 36.3197L18.8404 36.3366L18.8805 34.8372ZM18.2455 34.8202L18.2855 33.3208C18.0252 33.3138 17.8254 33.267 17.6681 33.201L17.0884 34.5845L16.5088 35.968C17.0476 36.1938 17.6192 36.304 18.2055 36.3197L18.2455 34.8202ZM17.0884 34.5845L17.6681 33.201L17.1459 32.9823L16.5663 34.3658L15.9866 35.7492L16.5088 35.968L17.0884 34.5845ZM16.5663 34.3658L17.1459 32.9823L16.6238 32.7635L16.0441 34.147L15.4645 35.5305L15.9866 35.7492L16.5663 34.3658ZM16.0441 34.147L16.6238 32.7635C16.4706 32.6993 16.3286 32.6043 16.1925 32.4634L15.1138 33.5058L14.0351 34.5481C14.4433 34.9705 14.9215 35.303 15.4645 35.5305L16.0441 34.147ZM15.1138 33.5058L16.1925 32.4634L15.7842 32.041L14.7055 33.0833L13.6268 34.1256L14.0351 34.5481L15.1138 33.5058ZM14.7055 33.0833L15.7842 32.041L15.376 31.6185L14.2973 32.6608L13.2186 33.7031L13.6268 34.1256L14.7055 33.0833ZM14.2973 32.6608L15.376 31.6185C15.1201 31.3537 14.8683 31.0807 14.6206 30.7993L13.4949 31.7906L12.3691 32.7819C12.6469 33.0975 12.9301 33.4045 13.2186 33.7031L14.2973 32.6608ZM13.4949 31.7906L14.6206 30.7993L14.2264 30.3517L13.1007 31.343L11.9749 32.3343L12.3691 32.7819L13.4949 31.7906ZM13.1007 31.343L14.2264 30.3517L13.8323 29.904L12.7065 30.8953L11.5807 31.8866L11.9749 32.3343L13.1007 31.343ZM12.7065 30.8953L13.8323 29.904C13.3665 29.3751 12.7713 29.0143 12.0797 28.8543L11.7417 30.3157L11.4036 31.7771C11.4729 31.7931 11.5209 31.8187 11.5807 31.8866L12.7065 30.8953ZM11.7417 30.3157L12.0797 28.8543L11.5091 28.7223L11.171 30.1837L10.833 31.6451L11.4036 31.7771L11.7417 30.3157ZM11.171 30.1837L11.5091 28.7223L10.9385 28.5903L10.6004 30.0517L10.2624 31.5131L10.833 31.6451L11.171 30.1837ZM10.6004 30.0517L10.9385 28.5903C10.5267 28.495 10.1089 28.4123 9.68523 28.3421L9.43999 29.8219L9.19475 31.3018C9.55746 31.3619 9.9133 31.4323 10.2624 31.5131L10.6004 30.0517ZM9.43999 29.8219L9.68523 28.3421L9.09544 28.2444L8.85021 29.7242L8.60497 31.204L9.19475 31.3018L9.43999 29.8219ZM8.85021 29.7242L9.09544 28.2444L8.50566 28.1466L8.26042 29.6265L8.01518 31.1063L8.60497 31.204L8.85021 29.7242ZM8.26042 29.6265L8.50566 28.1466C8.52537 28.1499 8.55848 28.1579 8.59905 28.1761C8.64019 28.1946 8.67937 28.2191 8.71341 28.2476C8.78345 28.3062 8.79469 28.3492 8.77915 28.3132L7.40246 28.9088L6.02577 29.5044C6.37601 30.314 7.04677 30.9458 8.01518 31.1063L8.26042 29.6265ZM7.40246 28.9088L8.77915 28.3132L8.51097 27.6934L7.13428 28.289L5.75759 28.8846L6.02577 29.5044L7.40246 28.9088ZM7.13428 28.289L8.51097 27.6934L8.2428 27.0735L6.86611 27.6691L5.48942 28.2647L5.75759 28.8846L7.13428 28.289ZM6.86611 27.6691L8.2428 27.0735C7.93351 26.3586 7.39717 25.7496 6.59811 25.442L6.05927 26.8419L5.52043 28.2417C5.51197 28.2385 5.49973 28.2327 5.4862 28.2237C5.47267 28.2148 5.46262 28.206 5.4565 28.1997C5.44373 28.1866 5.46057 28.198 5.48942 28.2647L6.86611 27.6691ZM6.05927 26.8419L6.59811 25.442L6.05944 25.2346L5.52061 26.6345L4.98177 28.0344L5.52043 28.2417L6.05927 26.8419ZM5.52061 26.6345L6.05944 25.2346L5.52078 25.0273L4.98195 26.4272L4.44311 27.8271L4.98177 28.0344L5.52061 26.6345ZM4.98195 26.4272L5.52078 25.0273C5.38396 24.9746 5.2803 24.9015 5.19026 24.7995L4.0658 25.7923L2.94134 26.7851C3.35461 27.2532 3.86171 27.6033 4.44311 27.8271L4.98195 26.4272ZM4.0658 25.7923L5.19026 24.7995L4.81278 24.372L3.68832 25.3647L2.56386 26.3575L2.94134 26.7851L4.0658 25.7923ZM3.68832 25.3647L4.81278 24.372L4.4353 23.9444L3.31084 24.9372L2.18638 25.9299L2.56386 26.3575L3.68832 25.3647ZM3.31084 24.9372L4.4353 23.9444C4.26451 23.751 4.11671 23.5367 3.99166 23.2985L2.66357 23.9957L1.33547 24.693C1.57015 25.14 1.85387 25.5533 2.18638 25.9299L3.31084 24.9372ZM2.66357 23.9957L3.99166 23.2985L3.72186 22.7846L2.39377 23.4818L1.06568 24.1791L1.33547 24.693L2.66357 23.9957ZM2.39377 23.4818L3.72186 22.7846L3.45206 22.2707L2.12397 22.968L0.795879 23.6652L1.06568 24.1791L2.39377 23.4818ZM2.12397 22.968L3.45206 22.2707C3.45395 22.2743 3.45893 22.2848 3.46359 22.3014C3.46829 22.3183 3.47113 22.3359 3.47201 22.3523C3.47391 22.3877 3.46569 22.3908 3.47999 22.35L2.06432 21.8541L0.648654 21.3582C0.385597 22.1092 0.403045 22.917 0.795879 23.6652L2.12397 22.968ZM2.06432 21.8541L3.47999 22.35L3.69013 21.75L2.27447 21.2542L0.8588 20.7583L0.648654 21.3582L2.06432 21.8541ZM2.27447 21.2542L3.69013 21.75L3.90028 21.1501L2.48461 20.6542L1.06895 20.1583L0.8588 20.7583L2.27447 21.2542ZM2.48461 20.6542L3.90028 21.1501C4.08879 20.6119 4.19563 20.0505 4.1747 19.4807L2.67571 19.5358L1.17672 19.5908C1.18119 19.7123 1.16063 19.8966 1.06895 20.1583L2.48461 20.6542ZM2.67571 19.5358L4.1747 19.4807L4.15566 18.9622L2.65667 19.0173L1.15768 19.0723L1.17672 19.5908L2.67571 19.5358ZM2.65667 19.0173L4.15566 18.9622L4.13661 18.4437L2.63762 18.4988L1.13863 18.5539L1.15768 19.0723L2.65667 19.0173ZM2.63762 18.4988L4.13661 18.4437C4.12811 18.2123 4.14573 17.9809 4.19047 17.7473L2.71725 17.4651L1.24402 17.1829C1.15721 17.6363 1.12174 18.0939 1.13863 18.5539L2.63762 18.4988ZM2.71725 17.4651L4.19047 17.7473L4.28915 17.2321L2.81592 16.9499L1.3427 16.6677L1.24402 17.1829L2.71725 17.4651ZM2.81592 16.9499L4.28915 17.2321L4.38782 16.7168L2.91459 16.4347L1.44137 16.1525L1.3427 16.6677L2.81592 16.9499ZM2.91459 16.4347L4.38782 16.7168C4.45031 16.3906 4.51103 16.1059 4.56967 15.861L3.1109 15.5117L1.65214 15.1624C1.58059 15.4612 1.51044 15.7919 1.44137 16.1525L2.91459 16.4347ZM3.1109 15.5117L4.56967 15.861L4.66731 15.4533L3.20854 15.104L1.74978 14.7547L1.65214 15.1624L3.1109 15.5117ZM3.20854 15.104L4.66731 15.4533L4.76494 15.0455L3.30618 14.6962L1.84741 14.3469L1.74978 14.7547L3.20854 15.104ZM3.30618 14.6962L4.76494 15.0455C4.80348 14.8846 4.84634 14.6789 4.85904 14.4729C4.86495 14.3771 4.871 14.1922 4.82498 13.9775C4.78848 13.8072 4.64365 13.2631 4.06567 12.94L3.33374 14.2493L2.60181 15.5586C2.04719 15.2485 1.91873 14.7328 1.89161 14.6063C1.85498 14.4354 1.86342 14.3096 1.86473 14.2883C1.86825 14.2313 1.87397 14.236 1.84741 14.3469L3.30618 14.6962ZM3.33374 14.2493L4.06567 12.94L3.9956 12.9008L3.26367 14.2101L2.53173 15.5194L2.60181 15.5586L3.33374 14.2493ZM3.26367 14.2101L3.9956 12.9008L3.92552 12.8616L3.19359 14.1709L2.46166 15.4802L2.53173 15.5194L3.26367 14.2101ZM3.19359 14.1709L3.92552 12.8616C4.34789 13.0977 4.52898 13.4604 4.59999 13.6685C4.66889 13.8704 4.67506 14.0362 4.67565 14.1057C4.67635 14.1874 4.66904 14.2477 4.66532 14.2744C4.66114 14.3044 4.65706 14.323 4.6563 14.3264C4.65511 14.3317 4.65894 14.3141 4.67415 14.2656C4.68856 14.2196 4.70941 14.1579 4.73825 14.0783L3.32792 13.5674L1.91759 13.0566C1.84387 13.2601 1.77185 13.4774 1.72797 13.6745C1.70856 13.7618 1.67406 13.9321 1.67576 14.1313C1.6766 14.2292 1.68587 14.4179 1.76073 14.6373C1.8377 14.8629 2.02762 15.2376 2.46166 15.4802L3.19359 14.1709ZM3.32792 13.5674L4.73825 14.0783L4.94265 13.514L3.53233 13.0031L2.122 12.4923L1.91759 13.0566L3.32792 13.5674Z" fill="#F3B8FF"/>
<path d="M14.3837 17.0853L14.4941 18.5813L14.3837 17.0853ZM15.6363 16.9929L15.5259 15.4969L15.6363 16.9929ZM17.2877 16.8348L17.4504 18.326L17.2877 16.8348ZM18.8233 16.8046L18.5865 18.2858L18.8233 16.8046ZM19.3339 16.8862L19.5707 15.4051L19.3339 16.8862ZM20.7963 17.3888L21.7105 16.1995L20.7963 17.3888ZM21.679 18.0673L20.7648 19.2565L21.679 18.0673ZM23.6438 18.0998L23.9398 19.5703L23.6438 18.0998ZM24.2667 17.4175L22.7954 17.1256L24.2667 17.4175ZM24.3818 16.8374L22.9105 16.5455L24.3818 16.8374ZM24.4969 16.2573L25.9682 16.5493L24.4969 16.2573ZM25.0359 15.2345L26.1194 16.2719V16.2719L25.0359 15.2345ZM25.4599 14.7917L26.5433 15.8291L25.4599 14.7917ZM25.8838 14.349L24.8003 13.3116L25.8838 14.349ZM26.8896 13.7534L26.5084 12.3026L26.8896 13.7534ZM27.4714 13.6005L27.8526 15.0513L27.4714 13.6005ZM28.0533 13.4477L28.4344 14.8984L28.0533 13.4477ZM29.1584 13.1803L29.4789 14.6457V14.6457L29.1584 13.1803ZM29.6816 13.0659L30.0021 14.5313L29.6816 13.0659ZM30.2049 12.9515L29.8843 11.4861L30.2049 12.9515ZM31.2708 12.8781L31.1574 14.3738L31.2708 12.8781ZM32.3561 12.9604L32.4694 11.4646L32.3561 12.9604ZM33.3855 13.2636L34.0968 11.943L33.3855 13.2636ZM34.3589 13.7879L33.6475 15.1085L34.3589 13.7879ZM35.0876 14.5393L33.7432 15.2046L35.0876 14.5393ZM35.5718 15.5176L36.9162 14.8523L35.5718 15.5176ZM35.9858 16.4871L37.398 15.9815L35.9858 16.4871ZM36.3297 17.4477L34.9175 17.9533L36.3297 17.4477ZM36.7195 18.492L38.1188 17.9516L36.7195 18.492ZM36.9373 19.056L35.5381 19.5964L36.9373 19.056ZM37.1552 19.62L35.7559 20.1604L37.1552 19.62ZM37.0065 20.6526L35.8249 19.7287L37.0065 20.6526ZM36.6401 21.1213L37.8218 22.0453L36.6401 21.1213ZM36.2736 21.59L35.092 20.6661L36.2736 21.59ZM35.8148 23.2959L34.319 23.1842L35.8148 23.2959ZM35.7686 23.9145L37.2645 24.0262L35.7686 23.9145ZM35.1996 24.8853L34.3616 23.6413L35.1996 24.8853ZM34.1541 25.5897L34.9922 26.8337L34.1541 25.5897ZM33.4209 26.4687L32.0279 25.9124L33.4209 26.4687ZM33.0002 27.5223L34.3932 28.0786L33.0002 27.5223ZM32.6806 28.6325L31.2062 28.3567L32.6806 28.6325ZM32.4623 29.7994L33.9368 30.0752L32.4623 29.7994ZM31.8231 30.7308L30.9998 29.4769L31.8231 30.7308ZM30.7628 31.427L31.5861 32.6809L30.7628 31.427ZM30.1781 33.0334L31.6767 33.0984L30.1781 33.0334ZM30.1508 33.6625L28.6522 33.5975L30.1508 33.6625ZM27.7257 34.6269L27.5637 36.1181L27.7257 34.6269ZM26.5107 34.4948L26.6727 33.0036L26.5107 34.4948ZM22.4955 32.4551L21.7407 33.7513V33.7513L22.4955 32.4551ZM20.9618 30.5876L19.7106 31.4148L20.9618 30.5876ZM19.9644 30.0662L19.9801 31.5661L19.9644 30.0662ZM19.3162 30.073L19.3005 28.5731L19.3162 30.073ZM17.526 29.8175L16.8083 31.1346L17.526 29.8175ZM14.7316 27.8589L13.7427 28.9867L14.7316 27.8589ZM13.8477 27.0825L12.8568 28.2085L13.8477 27.0825ZM12.3862 25.3253L10.919 25.6371L12.3862 25.3253ZM12.2631 24.7458L10.7958 25.0577L12.2631 24.7458ZM12.1399 24.1664L13.6071 23.8546L12.1399 24.1664ZM12.1106 21.9125L10.613 21.8285L12.1106 21.9125ZM12.111 20.7514L10.6129 20.8283L12.111 20.7514ZM12.0491 19.5457L13.5471 19.4688L12.0491 19.5457ZM13.2492 18.2392L14.6126 18.8647L14.8667 18.3108L13.5033 17.6854L12.1399 17.0599L11.8859 17.6138L13.2492 18.2392ZM13.5033 17.6854L14.8667 18.3108C14.8543 18.3379 14.8049 18.4232 14.6952 18.4979C14.5878 18.5712 14.501 18.5808 14.4941 18.5813L14.3837 17.0853L14.2733 15.5894C13.8488 15.6207 13.4065 15.7458 13.0056 16.019C12.6025 16.2938 12.3217 16.6637 12.1399 17.0599L13.5033 17.6854ZM14.3837 17.0853L14.4941 18.5813L15.1204 18.535L15.01 17.0391L14.8996 15.5432L14.2733 15.5894L14.3837 17.0853ZM15.01 17.0391L15.1204 18.535L15.7467 18.4888L15.6363 16.9929L15.5259 15.4969L14.8996 15.5432L15.01 17.0391ZM15.6363 16.9929L15.7467 18.4888C16.1781 18.457 16.5755 18.4214 16.9379 18.3819L16.7752 16.8907L16.6125 15.3996C16.2914 15.4346 15.9296 15.4672 15.5259 15.4969L15.6363 16.9929ZM16.7752 16.8907L16.9379 18.3819L17.4504 18.326L17.2877 16.8348L17.125 15.3437L16.6125 15.3996L16.7752 16.8907ZM17.2877 16.8348L17.4504 18.326L17.9629 18.27L17.8002 16.7789L17.6375 15.2877L17.125 15.3437L17.2877 16.8348ZM17.8002 16.7789L17.9629 18.27C18.1712 18.2473 18.3779 18.2524 18.5865 18.2858L18.8233 16.8046L19.0602 15.3234C18.5881 15.2479 18.1126 15.2359 17.6375 15.2877L17.8002 16.7789ZM18.8233 16.8046L18.5865 18.2858L19.097 18.3674L19.3339 16.8862L19.5707 15.4051L19.0602 15.3234L18.8233 16.8046ZM19.3339 16.8862L19.097 18.3674L19.6076 18.4491L19.8444 16.9679L20.0813 15.4867L19.5707 15.4051L19.3339 16.8862ZM19.8444 16.9679L19.6076 18.4491C19.6827 18.4611 19.7703 18.492 19.8822 18.578L20.7963 17.3888L21.7105 16.1995C21.2339 15.8332 20.6869 15.5836 20.0813 15.4867L19.8444 16.9679ZM20.7963 17.3888L19.8822 18.578L20.3235 18.9173L21.2377 17.728L22.1518 16.5388L21.7105 16.1995L20.7963 17.3888ZM21.2377 17.728L20.3235 18.9173L20.7648 19.2565L21.679 18.0673L22.5932 16.878L22.1518 16.5388L21.2377 17.728ZM21.679 18.0673L20.7648 19.2565C21.3738 19.7246 22.126 19.9355 22.9242 19.7748L22.6282 18.3043L22.3321 16.8338C22.3679 16.8266 22.4299 16.8232 22.5004 16.8408C22.5679 16.8577 22.5994 16.8828 22.5932 16.878L21.679 18.0673ZM22.6282 18.3043L22.9242 19.7748L23.432 19.6726L23.136 18.2021L22.84 16.7316L22.3321 16.8338L22.6282 18.3043ZM23.136 18.2021L23.432 19.6726L23.9398 19.5703L23.6438 18.0998L23.3478 16.6293L22.84 16.7316L23.136 18.2021ZM23.6438 18.0998L23.9398 19.5703C24.3819 19.4813 24.8167 19.2669 25.1612 18.8895C25.4946 18.5243 25.6611 18.0972 25.7381 17.7094L24.2667 17.4175L22.7954 17.1256C22.7956 17.1245 22.8199 17.0045 22.9457 16.8668C23.0826 16.7168 23.2443 16.6502 23.3478 16.6293L23.6438 18.0998ZM24.2667 17.4175L25.7381 17.7094L25.8531 17.1293L24.3818 16.8374L22.9105 16.5455L22.7954 17.1256L24.2667 17.4175ZM24.3818 16.8374L25.8531 17.1293L25.9682 16.5493L24.4969 16.2573L23.0256 15.9654L22.9105 16.5455L24.3818 16.8374ZM24.4969 16.2573L25.9682 16.5493C25.9872 16.4535 26.0268 16.3685 26.1194 16.2719L25.0359 15.2345L23.9525 14.1971C23.4798 14.6908 23.1601 15.2877 23.0256 15.9654L24.4969 16.2573ZM25.0359 15.2345L26.1194 16.2719L26.5433 15.8291L25.4599 14.7917L24.3764 13.7544L23.9525 14.1971L25.0359 15.2345ZM25.4599 14.7917L26.5433 15.8291L26.9672 15.3864L25.8838 14.349L24.8003 13.3116L24.3764 13.7544L25.4599 14.7917ZM25.8838 14.349L26.9672 15.3864C27.0622 15.2872 27.1558 15.2343 27.2707 15.2042L26.8896 13.7534L26.5084 12.3026C25.8475 12.4763 25.2706 12.8205 24.8003 13.3116L25.8838 14.349ZM26.8896 13.7534L27.2707 15.2042L27.8526 15.0513L27.4714 13.6005L27.0903 12.1497L26.5084 12.3026L26.8896 13.7534ZM27.4714 13.6005L27.8526 15.0513L28.4344 14.8984L28.0533 13.4477L27.6722 11.9969L27.0903 12.1497L27.4714 13.6005ZM28.0533 13.4477L28.4344 14.8984C28.8047 14.8012 29.1527 14.7171 29.4789 14.6457L29.1584 13.1803L28.8379 11.715C28.4665 11.7962 28.0778 11.8903 27.6722 11.9969L28.0533 13.4477ZM29.1584 13.1803L29.4789 14.6457L30.0021 14.5313L29.6816 13.0659L29.3611 11.6005L28.8379 11.715L29.1584 13.1803ZM29.6816 13.0659L30.0021 14.5313L30.5254 14.4168L30.2049 12.9515L29.8843 11.4861L29.3611 11.6005L29.6816 13.0659ZM30.2049 12.9515L30.5254 14.4168C30.7295 14.3722 30.9386 14.3573 31.1574 14.3738L31.2708 12.8781L31.3841 11.3824C30.8793 11.3442 30.3778 11.3782 29.8843 11.4861L30.2049 12.9515ZM31.2708 12.8781L31.1574 14.3738L31.7001 14.415L31.8134 12.9192L31.9268 11.4235L31.3841 11.3824L31.2708 12.8781ZM31.8134 12.9192L31.7001 14.415L32.2428 14.4561L32.3561 12.9604L32.4694 11.4646L31.9268 11.4235L31.8134 12.9192ZM32.3561 12.9604L32.2428 14.4561C32.3918 14.4674 32.5316 14.5074 32.6741 14.5842L33.3855 13.2636L34.0968 11.943C33.5905 11.6703 33.044 11.5082 32.4694 11.4646L32.3561 12.9604ZM33.3855 13.2636L32.6741 14.5842L33.1608 14.8464L33.8722 13.5258L34.5835 12.2052L34.0968 11.943L33.3855 13.2636ZM33.8722 13.5258L33.1608 14.8464L33.6475 15.1085L34.3589 13.7879L35.0702 12.4673L34.5835 12.2052L33.8722 13.5258ZM34.3589 13.7879L33.6475 15.1085C33.7019 15.1378 33.7217 15.1611 33.7432 15.2046L35.0876 14.5393L36.432 13.874C36.1308 13.2653 35.6647 12.7876 35.0702 12.4673L34.3589 13.7879ZM35.0876 14.5393L33.7432 15.2046L33.9853 15.6937L35.3297 15.0284L36.6741 14.3631L36.432 13.874L35.0876 14.5393ZM35.3297 15.0284L33.9853 15.6937L34.2274 16.1829L35.5718 15.5176L36.9162 14.8523L36.6741 14.3631L35.3297 15.0284ZM35.5718 15.5176L34.2274 16.1829C34.3648 16.4607 34.4797 16.7306 34.5736 16.9927L35.9858 16.4871L37.398 15.9815C37.2626 15.6032 37.1014 15.2267 36.9162 14.8523L35.5718 15.5176ZM35.9858 16.4871L34.5736 16.9927L34.7455 17.473L36.1578 16.9674L37.57 16.4618L37.398 15.9815L35.9858 16.4871ZM36.1578 16.9674L34.7455 17.473L34.9175 17.9533L36.3297 17.4477L37.7419 16.9421L37.57 16.4618L36.1578 16.9674ZM36.3297 17.4477L34.9175 17.9533C35.037 18.2871 35.1714 18.647 35.3202 19.0325L36.7195 18.492L38.1188 17.9516C37.9772 17.5851 37.8517 17.2488 37.7419 16.9421L36.3297 17.4477ZM36.7195 18.492L35.3202 19.0325L35.5381 19.5964L36.9373 19.056L38.3366 18.5156L38.1188 17.9516L36.7195 18.492ZM36.9373 19.056L35.5381 19.5964L35.7559 20.1604L37.1552 19.62L38.5544 19.0796L38.3366 18.5156L36.9373 19.056ZM37.1552 19.62L35.7559 20.1604C35.7507 20.147 35.7249 20.0668 35.7422 19.9465C35.7597 19.8248 35.8088 19.7493 35.8249 19.7287L37.0065 20.6526L38.1882 21.5766C38.7641 20.84 38.886 19.9381 38.5544 19.0796L37.1552 19.62ZM37.0065 20.6526L35.8249 19.7287L35.4584 20.1974L36.6401 21.1213L37.8218 22.0453L38.1882 21.5766L37.0065 20.6526ZM36.6401 21.1213L35.4584 20.1974L35.092 20.6661L36.2736 21.59L37.4553 22.5139L37.8218 22.0453L36.6401 21.1213ZM36.2736 21.59L35.092 20.6661C34.6569 21.2226 34.4171 21.8707 34.3652 22.5656L35.861 22.6773L37.3568 22.789C37.3665 22.6591 37.4018 22.5824 37.4553 22.5139L36.2736 21.59ZM35.861 22.6773L34.3652 22.5656L34.319 23.1842L35.8148 23.2959L37.3106 23.4076L37.3568 22.789L35.861 22.6773ZM35.8148 23.2959L34.319 23.1842L34.2728 23.8028L35.7686 23.9145L37.2645 24.0262L37.3106 23.4076L35.8148 23.2959ZM35.7686 23.9145L34.2728 23.8028C34.2725 23.8061 34.273 23.7961 34.2788 23.7768C34.2848 23.7569 34.2946 23.7329 34.3092 23.7081C34.3411 23.6536 34.372 23.6343 34.3616 23.6413L35.1996 24.8853L36.0377 26.1293C36.7602 25.6426 37.1988 24.9055 37.2645 24.0262L35.7686 23.9145ZM35.1996 24.8853L34.3616 23.6413L33.8388 23.9935L34.6769 25.2375L35.515 26.4815L36.0377 26.1293L35.1996 24.8853ZM34.6769 25.2375L33.8388 23.9935L33.316 24.3456L34.1541 25.5897L34.9922 26.8337L35.515 26.4815L34.6769 25.2375ZM34.1541 25.5897L33.316 24.3456C32.7466 24.7293 32.2922 25.2507 32.0279 25.9124L33.4209 26.4687L34.814 27.025C34.8302 26.9843 34.8646 26.9197 34.9922 26.8337L34.1541 25.5897ZM33.4209 26.4687L32.0279 25.9124L31.8175 26.4392L33.2106 26.9955L34.6036 27.5518L34.814 27.025L33.4209 26.4687ZM33.2106 26.9955L31.8175 26.4392L31.6071 26.966L33.0002 27.5223L34.3932 28.0786L34.6036 27.5518L33.2106 26.9955ZM33.0002 27.5223L31.6071 26.966C31.4291 27.4119 31.2961 27.8763 31.2062 28.3567L32.6806 28.6325L34.1551 28.9084C34.2107 28.6109 34.2908 28.3351 34.3932 28.0786L33.0002 27.5223ZM32.6806 28.6325L31.2062 28.3567L31.0971 28.9401L32.5715 29.2159L34.0459 29.4918L34.1551 28.9084L32.6806 28.6325ZM32.5715 29.2159L31.0971 28.9401L30.9879 29.5235L32.4623 29.7994L33.9368 30.0752L34.0459 29.4918L32.5715 29.2159ZM32.4623 29.7994L30.9879 29.5235C30.9875 29.5256 30.9885 29.5198 30.993 29.5089C30.9975 29.4977 31.0038 29.4859 31.0112 29.4751C31.0147 29.4701 31.0179 29.466 31.0204 29.4631C31.0216 29.4617 31.0226 29.4606 31.0233 29.4598C31.024 29.4591 31.0243 29.4587 31.0243 29.4588C31.0243 29.4588 31.0239 29.4592 31.023 29.4599C31.0221 29.4607 31.0207 29.4619 31.0188 29.4634C31.0149 29.4665 31.0087 29.4711 30.9998 29.4769L31.8231 30.7308L32.6463 31.9847C33.3147 31.5459 33.7834 30.8947 33.9368 30.0752L32.4623 29.7994ZM31.8231 30.7308L30.9998 29.4769L30.4697 29.825L31.2929 31.0789L32.1162 32.3328L32.6463 31.9847L31.8231 30.7308ZM31.2929 31.0789L30.4697 29.825L29.9395 30.1731L30.7628 31.427L31.5861 32.6809L32.1162 32.3328L31.2929 31.0789ZM30.7628 31.427L29.9395 30.1731C29.1864 30.6676 28.746 31.4339 28.7068 32.3392L30.2054 32.4042L31.704 32.4692C31.704 32.4691 31.7002 32.5204 31.6613 32.5885C31.6227 32.6563 31.5818 32.6836 31.5861 32.6809L30.7628 31.427ZM30.2054 32.4042L28.7068 32.3392L28.6795 32.9684L30.1781 33.0334L31.6767 33.0984L31.704 32.4692L30.2054 32.4042ZM30.1781 33.0334L28.6795 32.9684L28.6522 33.5975L30.1508 33.6625L31.6494 33.7276L31.6767 33.0984L30.1781 33.0334ZM30.1508 33.6625L28.6522 33.5975C28.6498 33.6518 28.6427 33.5233 28.7613 33.3412C28.8248 33.2436 28.9147 33.1467 29.0309 33.0678C29.1458 32.9898 29.2584 32.9484 29.3479 32.9283L29.6759 34.392L30.0039 35.8557C30.5124 35.7418 30.9704 35.4466 31.2755 34.9778C31.5524 34.5525 31.6335 34.0927 31.6494 33.7276L30.1508 33.6625ZM29.6759 34.392L29.3479 32.9283L28.9004 33.0286L29.2284 34.4923L29.5564 35.956L30.0039 35.8557L29.6759 34.392ZM29.2284 34.4923L28.9004 33.0286L28.4528 33.1289L28.7808 34.5926L29.1088 36.0563L29.5564 35.956L29.2284 34.4923ZM28.7808 34.5926L28.4528 33.1289C28.3586 33.15 28.1801 33.1674 27.8878 33.1356L27.7257 34.6269L27.5637 36.1181C28.0815 36.1743 28.6063 36.1689 29.1088 36.0563L28.7808 34.5926ZM27.7257 34.6269L27.8878 33.1356L27.2803 33.0696L27.1182 34.5608L26.9562 36.0521L27.5637 36.1181L27.7257 34.6269ZM27.1182 34.5608L27.2803 33.0696L26.6727 33.0036L26.5107 34.4948L26.3487 35.986L26.9562 36.0521L27.1182 34.5608ZM26.5107 34.4948L26.6727 33.0036C26.4567 32.9801 26.2948 32.923 26.1654 32.8484L25.4159 34.1477L24.6664 35.447C25.1867 35.7472 25.7547 35.9215 26.3487 35.986L26.5107 34.4948ZM25.4159 34.1477L26.1654 32.8484L25.6781 32.5673L24.9286 33.8666L24.1791 35.1659L24.6664 35.447L25.4159 34.1477ZM24.9286 33.8666L25.6781 32.5673L25.1908 32.2862L24.4413 33.5855L23.6918 34.8848L24.1791 35.1659L24.9286 33.8666ZM24.4413 33.5855L25.1908 32.2862C24.8678 32.0998 24.545 31.9128 24.2227 31.7251L23.4679 33.0213L22.713 34.3175C23.0389 34.5073 23.3652 34.6964 23.6918 34.8848L24.4413 33.5855ZM23.4679 33.0213L24.2227 31.7251L23.7365 31.442L22.9817 32.7382L22.2269 34.0344L22.713 34.3175L23.4679 33.0213ZM22.9817 32.7382L23.7365 31.442L23.2504 31.1589L22.4955 32.4551L21.7407 33.7513L22.2269 34.0344L22.9817 32.7382ZM22.4955 32.4551L23.2504 31.1589C23.1493 31.1 23.0331 31.0006 22.9114 30.8166L21.6602 31.6438L20.4089 32.4711C20.7529 32.9913 21.1935 33.4327 21.7407 33.7513L22.4955 32.4551ZM21.6602 31.6438L22.9114 30.8166L22.5623 30.2884L21.311 31.1157L20.0598 31.943L20.4089 32.4711L21.6602 31.6438ZM21.311 31.1157L22.5623 30.2884L22.2131 29.7603L20.9618 30.5876L19.7106 31.4148L20.0598 31.943L21.311 31.1157ZM20.9618 30.5876L22.2131 29.7603C21.6915 28.9714 20.8753 28.5566 19.9487 28.5663L19.9644 30.0662L19.9801 31.5661C19.9868 31.5661 19.9272 31.5665 19.843 31.5225C19.7573 31.4777 19.7164 31.4236 19.7106 31.4148L20.9618 30.5876ZM19.9644 30.0662L19.9487 28.5663L19.3005 28.5731L19.3162 30.073L19.3319 31.5729L19.9801 31.5661L19.9644 30.0662ZM19.3162 30.073L19.3005 28.5731L18.6523 28.5799L18.668 30.0798L18.6837 31.5797L19.3319 31.5729L19.3162 30.073ZM18.668 30.0798L18.6523 28.5799C18.4366 28.5821 18.3157 28.5396 18.2438 28.5004L17.526 29.8175L16.8083 31.1346C17.3947 31.4542 18.035 31.5865 18.6837 31.5797L18.668 30.0798ZM17.526 29.8175L18.2438 28.5004L17.75 28.2313L17.0323 29.5485L16.3145 30.8656L16.8083 31.1346L17.526 29.8175ZM17.0323 29.5485L17.75 28.2313L17.2563 27.9623L16.5386 29.2794L15.8208 30.5965L16.3145 30.8656L17.0323 29.5485ZM16.5386 29.2794L17.2563 27.9623C17.0276 27.8376 16.8076 27.6842 16.596 27.4987L15.6071 28.6265L14.6182 29.7544C14.9902 30.0806 15.3912 30.3624 15.8208 30.5965L16.5386 29.2794ZM15.6071 28.6265L16.596 27.4987L16.1583 27.1149L15.1693 28.2427L14.1804 29.3705L14.6182 29.7544L15.6071 28.6265ZM15.1693 28.2427L16.1583 27.1149L15.7205 26.731L14.7316 27.8589L13.7427 28.9867L14.1804 29.3705L15.1693 28.2427ZM14.7316 27.8589L15.7205 26.731C15.4294 26.4757 15.1354 26.2175 14.8387 25.9564L13.8477 27.0825L12.8568 28.2085C13.1549 28.4708 13.4502 28.7302 13.7427 28.9867L14.7316 27.8589ZM13.8477 27.0825L14.8387 25.9564L14.3925 25.5638L13.4016 26.6899L12.4107 27.8159L12.8568 28.2085L13.8477 27.0825ZM13.4016 26.6899L14.3925 25.5638L13.9464 25.1712L12.9555 26.2973L11.9645 27.4233L12.4107 27.8159L13.4016 26.6899ZM12.9555 26.2973L13.9464 25.1712C13.8903 25.1219 13.8682 25.083 13.8534 25.0134L12.3862 25.3253L10.919 25.6371C11.0684 26.34 11.4258 26.9492 11.9645 27.4233L12.9555 26.2973ZM12.3862 25.3253L13.8534 25.0134L13.7303 24.434L12.2631 24.7458L10.7958 25.0577L10.919 25.6371L12.3862 25.3253ZM12.2631 24.7458L13.7303 24.434L13.6071 23.8546L12.1399 24.1664L10.6727 24.4783L10.7958 25.0577L12.2631 24.7458ZM12.1399 24.1664L13.6071 23.8546C13.551 23.5906 13.5327 23.3445 13.5457 23.1128L12.0481 23.0288L10.5504 22.9449C10.5217 23.4574 10.5646 23.9697 10.6727 24.4783L12.1399 24.1664ZM12.0481 23.0288L13.5457 23.1128L13.577 22.5546L12.0793 22.4707L10.5817 22.3867L10.5504 22.9449L12.0481 23.0288ZM12.0793 22.4707L13.577 22.5546L13.6083 21.9964L12.1106 21.9125L10.613 21.8285L10.5817 22.3867L12.0793 22.4707ZM12.1106 21.9125L13.6083 21.9964C13.6324 21.5667 13.6322 21.1258 13.609 20.6745L12.111 20.7514L10.6129 20.8283C10.631 21.1808 10.6306 21.514 10.613 21.8285L12.1106 21.9125ZM12.111 20.7514L13.609 20.6745L13.5781 20.0717L12.08 20.1485L10.582 20.2254L10.6129 20.8283L12.111 20.7514ZM12.08 20.1485L13.5781 20.0717L13.5471 19.4688L12.0491 19.5457L10.5511 19.6225L10.582 20.2254L12.08 20.1485ZM12.0491 19.5457L13.5471 19.4688C13.5371 19.2739 13.564 19.3615 13.5084 19.5478C13.4883 19.6152 13.3602 20.05 12.8805 20.3312C12.2705 20.6889 11.6955 20.4809 11.467 20.3531L12.1989 19.0438L12.9308 17.7345C12.642 17.5731 12.0156 17.3607 11.363 17.7433C10.8407 18.0496 10.6789 18.5386 10.6337 18.6897C10.5282 19.0433 10.5404 19.4155 10.5511 19.6225L12.0491 19.5457ZM12.1989 19.0438L11.467 20.3531L11.6477 20.4542L12.3796 19.1448L13.1115 17.8355L12.9308 17.7345L12.1989 19.0438ZM12.3796 19.1448L11.6477 20.4542L11.8285 20.5552L12.5604 19.2459L13.2923 17.9365L13.1115 17.8355L12.3796 19.1448ZM12.5604 19.2459L11.8285 20.5552C12.2225 20.7754 12.6822 20.8196 13.1059 20.6862C13.47 20.5715 13.7117 20.3571 13.8414 20.2221C14.0939 19.9591 14.2569 19.6402 14.3586 19.4185L12.9952 18.7931L11.6318 18.1676C11.5641 18.3152 11.5699 18.2563 11.6775 18.1442C11.7347 18.0847 11.907 17.9185 12.2048 17.8247C12.5621 17.7122 12.9585 17.75 13.2923 17.9365L12.5604 19.2459ZM12.9952 18.7931L14.3586 19.4185L14.6126 18.8647L13.2492 18.2392L11.8859 17.6138L11.6318 18.1676L12.9952 18.7931Z" fill="white"/>
</g>
<defs>
<clipPath id="clip0_421_347">
<rect width="47" height="43" fill="white"/>
</clipPath>
</defs>
</svg>
