<svg width="70" height="35" viewBox="0 0 70 35" fill="none" xmlns="http://www.w3.org/2000/svg">
<path d="M1.07227 17.1758C1.07227 8.61537 8.01185 1.67578 16.5723 1.67578H52.5723C61.1327 1.67578 68.0723 8.61537 68.0723 17.1758V17.1758C68.0723 25.7362 61.1327 32.6758 52.5723 32.6758H16.5723C8.01185 32.6758 1.07227 25.7362 1.07227 17.1758V17.1758Z" fill="#D06FE4"/>
<path d="M17.9673 1.92723L17.7899 2.91137L17.9673 1.92723ZM18.8973 2.11468L19.1148 1.13862L18.8973 2.11468ZM19.8273 2.32195L19.6097 3.298L19.8273 2.32195ZM20.7573 2.18921L21.2104 3.08065L20.7573 2.18921ZM21.6873 1.71647L21.2341 0.82503L21.6873 1.71647ZM22.6173 1.38317L22.8213 2.36213L22.6173 1.38317ZM23.5473 1.18932L23.3432 0.210365L23.5473 1.18932ZM24.4773 1.3713L24.9916 0.513718L24.4773 1.3713ZM25.4073 1.92909L24.8929 2.78667L25.4073 1.92909ZM26.3373 1.99778L25.9253 1.08656L26.3373 1.99778ZM27.2673 1.57737L27.6792 2.4886L27.2673 1.57737ZM28.1973 1.62368L27.7143 2.49929L28.1973 1.62368ZM28.6623 1.88018L29.1453 1.00457L28.6623 1.88018ZM29.1273 2.13669L28.6443 3.0123L29.1273 2.13669ZM30.5223 2.3016L30.4243 1.30642L30.5223 2.3016ZM31.9173 2.17552L31.8433 1.17826L31.9173 2.17552ZM33.7773 1.8493L34.2092 2.75118L33.7773 1.8493ZM34.7073 1.40385L34.2753 0.501964L34.7073 1.40385ZM35.6373 1.12344L35.5142 0.131047L35.6373 1.12344ZM36.1023 1.06576L36.2254 2.05816L36.1023 1.06576ZM36.5673 1.00809L36.4442 0.0156924L36.5673 1.00809ZM37.4973 1.26933L38.0629 0.444656L37.4973 1.26933ZM38.4273 1.90717L37.8617 2.73185L38.4273 1.90717ZM39.3573 1.90143L38.7848 1.08151L39.3573 1.90143ZM39.8223 1.57676L39.2498 0.756839L39.8223 1.57676ZM40.2873 1.25209L40.8597 2.07201L40.2873 1.25209ZM41.2173 1.05578L40.9512 2.01973L41.2173 1.05578ZM41.6823 1.18413L41.9483 0.220178L41.6823 1.18413ZM42.1473 1.31248L42.4133 0.348532L42.1473 1.31248ZM43.0773 1.60589L43.4118 0.663491L43.0773 1.60589ZM44.0073 1.93599L43.6728 2.87838L44.0073 1.93599ZM45.8673 2.08578L45.8563 1.08584L45.8673 2.08578ZM46.7973 1.98025L46.5861 1.00279L46.7973 1.98025ZM47.2623 1.87982L47.0511 0.902359L47.2623 1.87982ZM47.7273 1.77938L47.9384 2.75684L47.7273 1.77938ZM48.6573 1.70134L48.6092 2.70018L48.6573 1.70134ZM50.5173 1.92282L50.8322 0.973715L50.5173 1.92282ZM51.4473 2.23145L51.1323 3.18055L51.4473 2.23145ZM52.391 2.03978L52.9767 2.8503L52.391 2.03978ZM52.8698 1.6938L53.4555 2.50432L52.8698 1.6938ZM53.3486 1.34783L52.7628 0.537309L53.3486 1.34783ZM54.2474 1.37767L54.9142 0.632376L54.2474 1.37767ZM55.0876 2.12931L55.7544 1.38402L55.0876 2.12931ZM55.9614 2.55814L56.0775 1.5649L55.9614 2.55814ZM56.8689 2.66416L56.7529 3.65741L56.8689 2.66416ZM58.4445 3.54209L57.8521 4.34773L58.4445 3.54209ZM59.2823 3.90732L59.0912 4.88891L59.2823 3.90732ZM60.2099 4.08784L60.4009 3.10625L60.2099 4.08784ZM60.996 4.50868L60.28 5.20675L60.996 4.50868ZM61.3183 4.83925L62.0343 4.14118L61.3183 4.83925ZM61.6406 5.16983L60.9245 5.8679V5.8679L61.6406 5.16983ZM62.3043 5.79395L62.9562 5.03571L62.3043 5.79395ZM62.987 6.38103L62.3351 7.13928L62.987 6.38103ZM63.7447 6.92244L63.2331 7.78166L63.7447 6.92244ZM64.5773 7.41819L65.0889 6.55897L64.5773 7.41819ZM65.3114 8.022L64.5654 8.68801L65.3114 8.022ZM66.5156 9.49942L67.3684 8.9772L66.5156 9.49942ZM66.7664 9.90902L65.9136 10.4312L66.7664 9.90902ZM67.0172 10.3186L67.87 9.79638L67.0172 10.3186ZM67.3509 11.2049L68.3361 11.0336L67.3509 11.2049ZM67.5167 12.1583L66.5315 12.3296L67.5167 12.1583ZM67.8194 13.0734L68.7134 12.6252L67.8194 13.0734ZM68.0393 13.5119L68.9332 13.0637L68.0393 13.5119ZM68.2591 13.9503L67.3651 14.3985L68.2591 13.9503ZM68.3922 14.8774L67.4076 14.7028L68.3922 14.8774ZM68.2188 15.8547L69.2035 16.0294L68.2188 15.8547ZM68.3072 17.7577L67.3148 17.8805L68.3072 17.7577ZM68.1408 18.669L69.0312 19.1241L68.1408 18.669ZM67.916 19.1087L67.0256 18.6536L67.916 19.1087ZM67.6912 19.5485L68.5817 20.0036L67.6912 19.5485ZM67.3339 20.4219L68.2902 20.7143L67.3339 20.4219ZM67.2013 20.8555L68.1576 21.1479L67.2013 20.8555ZM67.0687 21.2891L66.1124 20.9967L67.0687 21.2891ZM67.0312 22.2612L66.0464 22.435L67.0312 22.2612ZM67.1263 22.7997L68.1111 22.6259L67.1263 22.7997ZM67.2213 23.3383L66.2365 23.5121L67.2213 23.3383ZM66.8446 24.1567L67.3549 25.0167L66.8446 24.1567ZM65.901 24.7166L65.3907 23.8566L65.901 24.7166ZM65.3223 25.4857L64.3454 25.272L65.3223 25.4857ZM65.2153 25.9748L66.1922 26.1884L65.2153 25.9748ZM65.1084 26.4639L64.1315 26.2502L65.1084 26.4639ZM64.7435 27.3646L65.591 27.8955L64.7435 27.3646ZM64.2278 28.1877L63.3804 27.6568L64.2278 28.1877ZM63.6347 28.9543L64.3618 29.6409L63.6347 28.9543ZM62.9642 29.6644L62.2372 28.9778L62.9642 29.6644ZM62.1103 30.1057L61.9462 29.1192L62.1103 30.1057ZM61.5917 30.192L61.7558 31.1784L61.5917 30.192ZM61.0731 30.2783L61.2372 31.2647L61.0731 30.2783ZM60.1746 30.644L60.7672 31.4495L60.1746 30.644ZM59.4149 31.2029L58.8223 30.3974L59.4149 31.2029ZM58.6375 31.7845L59.2425 32.5807L58.6375 31.7845ZM57.8422 32.3889L58.4473 33.185L57.8422 32.3889ZM56.918 32.5201L56.6091 33.4712L56.918 32.5201ZM56.3914 32.3491L56.0826 33.3002L56.3914 32.3491ZM55.8649 32.1781L55.556 33.1292L55.8649 32.1781ZM54.891 32.0872L54.7146 31.1029L54.891 32.0872ZM53.9963 32.2475L54.1727 33.2318L53.9963 32.2475ZM53.089 32.5503L52.6533 31.6502L53.089 32.5503ZM52.6289 32.773L53.0646 33.6731L52.6289 32.773ZM52.1689 32.9957L51.7332 32.0956L52.1689 32.9957ZM51.2439 33.0198L50.8513 33.9395L51.2439 33.0198ZM50.7789 32.8213L51.1715 31.9016L50.7789 32.8213ZM50.3139 32.6228L50.7065 31.7031L50.3139 32.6228ZM49.3839 32.3458L49.5503 31.3598L49.3839 32.3458ZM48.9189 32.2673L48.7524 33.2534L48.9189 32.2673ZM48.4539 32.1888L48.2874 33.1749L48.4539 32.1888ZM47.5239 32.367L48.0071 33.2425L47.5239 32.367ZM47.0589 32.6236L47.5421 33.4991L47.0589 32.6236ZM46.5939 32.8803L46.1107 32.0048L46.5939 32.8803ZM45.1989 32.6916L45.6308 31.7897L45.1989 32.6916ZM44.7339 32.4689L44.302 33.3708L44.7339 32.4689ZM43.8039 32.4053L43.4803 31.4591L43.8039 32.4053ZM42.8739 32.7233L43.1974 33.6695L42.8739 32.7233ZM41.9439 32.8103L42.0968 31.8221L41.9439 32.8103ZM41.0139 32.6664L41.1668 31.6781L41.0139 32.6664ZM40.0839 32.5765L40.0454 33.5758L40.0839 32.5765ZM39.1539 32.5407L39.1924 31.5414L39.1539 32.5407ZM38.2239 32.6244L38.0103 31.6475L38.2239 32.6244ZM37.2939 32.8278L37.5075 33.8047L37.2939 32.8278ZM36.3639 32.8647L36.2258 33.8551L36.3639 32.8647ZM35.4339 32.735L35.5719 31.7446L35.4339 32.735ZM34.5039 32.7347L34.6411 33.7252L34.5039 32.7347ZM33.5739 32.8635L33.4366 31.873L33.5739 32.8635ZM32.6439 32.6958L33.0906 31.8011L32.6439 32.6958ZM32.1789 32.4636L31.7322 33.3583L32.1789 32.4636ZM31.7139 32.2314L31.2672 33.1261L31.7139 32.2314ZM30.7839 32.2128L30.3666 31.304V31.304L30.7839 32.2128ZM30.3189 32.4262L30.7361 33.335L30.3189 32.4262ZM29.8539 32.6397L30.2711 33.5485L29.8539 32.6397ZM28.9239 32.7246L29.1905 31.7608L28.9239 32.7246ZM28.4589 32.5959L28.1922 33.5597L28.4589 32.5959ZM27.9939 32.4673L28.2605 31.5035L27.9939 32.4673ZM27.0639 32.3104L27.1244 31.3123L27.0639 32.3104ZM26.1339 32.254L26.1944 31.2559L26.1339 32.254ZM25.2039 32.4536L25.6438 33.3517L25.2039 32.4536ZM24.7389 32.6814L24.299 31.7834L24.7389 32.6814ZM24.2739 32.9092L24.7138 33.8072L24.2739 32.9092ZM23.3439 33.1572L23.3004 32.1581L23.3439 33.1572ZM22.8789 33.1774L22.9223 34.1764L22.8789 33.1774ZM22.4139 33.1976L22.4573 34.1967L22.4139 33.1976ZM21.4839 33.1332L21.3048 34.117L21.4839 33.1332ZM21.0189 33.0486L21.1979 32.0647L21.0189 33.0486ZM20.5539 32.964L20.3748 33.9478L20.5539 32.964ZM19.6239 32.9371L19.7472 33.9295L19.6239 32.9371ZM19.1589 32.9949L19.0356 32.0025L19.1589 32.9949ZM18.6939 33.0526L18.8172 34.045L18.6939 33.0526ZM17.7656 32.855L17.2828 33.7307L17.7656 32.855ZM17.3022 32.5996L17.785 31.7238L17.3022 32.5996ZM16.8389 32.3441L17.3217 31.4684L16.8389 32.3441ZM15.4393 32.3546L15.1661 31.3927L15.4393 32.3546ZM14.9712 32.4876L15.2445 33.4495L14.9712 32.4876ZM14.0598 32.4731L13.7441 33.4219L14.0598 32.4731ZM13.173 32.178L13.4887 31.2292L13.173 32.178ZM12.3112 31.84L12.7255 30.9299L12.3112 31.84ZM11.4741 31.4589L11.0598 32.369L11.4741 31.4589ZM10.6904 30.9917L11.2943 30.1946L10.6904 30.9917ZM9.96004 30.4384L9.35617 31.2355L9.96004 30.4384ZM9.18806 29.9731L9.6087 29.0659L9.18806 29.9731ZM8.37447 29.5959L7.95382 30.5031L8.37447 29.5959ZM7.46159 29.3002L7.66854 28.3219L7.46159 29.3002ZM6.44942 29.0861L6.24247 30.0645L6.44942 29.0861ZM5.81944 28.4561L4.84637 28.6866L5.81944 28.4561ZM5.69554 27.9332L6.66861 27.7026L5.69554 27.9332ZM5.15119 26.5544L5.89782 25.8891L5.15119 26.5544ZM4.55806 25.8887L3.81143 26.5539L4.55806 25.8887ZM3.73267 25.3281L3.33721 26.2466L3.73267 25.3281ZM3.20384 25.1005L2.80839 26.0189L3.20384 25.1005ZM2.67501 24.8728L3.07047 23.9543L2.67501 24.8728ZM2.2196 23.0602L1.22067 23.0139L2.2196 23.0602ZM2.0051 22.1188L1.13954 22.6197L2.0051 22.1188ZM1.52716 21.2928L2.39271 20.792L1.52716 21.2928ZM1.12622 19.9512L0.141092 20.123L1.12622 19.9512ZM1.15634 17.6113L0.165471 17.4764L1.15634 17.6113ZM1.25256 16.2185L0.253169 16.1836L1.25256 16.2185ZM1.78124 14.4693L0.923888 13.9545L1.78124 14.4693ZM2.02948 14.0558L2.88683 14.5705L2.02948 14.0558ZM2.23364 11.2426L3.16126 11.6161L2.23364 11.2426ZM2.58232 10.3767L1.65471 10.0031L2.58232 10.3767ZM3.00459 9.5479L3.85207 10.0787L3.00459 9.5479ZM3.50043 8.75625L2.65294 8.22544L3.50043 8.75625ZM4.33763 7.01731L5.25337 7.41908L4.33763 7.01731ZM4.84552 6.1976L5.61225 6.83957L4.84552 6.1976ZM5.15699 5.8256L4.39026 5.18363L5.15699 5.8256ZM5.46846 5.4536L4.70173 4.81163L5.46846 5.4536ZM6.17658 4.80242L5.60102 3.98466L6.17658 4.80242ZM6.96989 4.24406L6.39432 3.42631L6.96989 4.24406ZM8.82855 3.63452L8.60814 2.65911L8.82855 3.63452ZM9.79067 3.46971L9.67625 2.47628L9.79067 3.46971ZM10.2655 3.41502L10.3799 4.40845L10.2655 3.41502ZM10.7402 3.36034L10.6258 2.3669L10.7402 3.36034ZM11.571 2.89922L12.3232 3.55809L11.571 2.89922ZM12.2829 2.08637L11.5306 1.42751L12.2829 2.08637ZM13.6277 1.87066L13.8171 0.888758L13.6277 1.87066ZM14.1221 1.96602L13.9327 2.94792L14.1221 1.96602ZM15.0734 2.13229L14.92 3.12046L15.0734 2.13229ZM15.9872 2.2741L16.1405 1.28593L15.9872 2.2741ZM16.4761 2.1777L15.494 1.98953L16.4761 2.1777ZM16.5402 1.84309L17.5223 2.03126L16.5402 1.84309ZM17.0373 1.7596L16.8599 2.74374L17.0373 1.7596ZM17.5023 1.84341L17.3249 2.82755L17.7899 2.91137L17.9673 1.92723L18.1447 0.943084L17.6797 0.859269L17.5023 1.84341ZM17.9673 1.92723L17.7899 2.91137C18.0863 2.9648 18.3829 3.02458 18.6797 3.09073L18.8973 2.11468L19.1148 1.13862C18.7916 1.06659 18.4682 1.0014 18.1447 0.943084L17.9673 1.92723ZM18.8973 2.11468L18.6797 3.09073L19.1447 3.19436L19.3623 2.21831L19.5798 1.24226L19.1148 1.13862L18.8973 2.11468ZM19.3623 2.21831L19.1447 3.19436L19.6097 3.298L19.8273 2.32195L20.0448 1.34589L19.5798 1.24226L19.3623 2.21831ZM19.8273 2.32195L19.6097 3.298C20.1683 3.42249 20.7145 3.33275 21.2104 3.08065L20.7573 2.18921L20.3041 1.29777C20.1801 1.36083 20.1062 1.35958 20.0448 1.34589L19.8273 2.32195ZM20.7573 2.18921L21.2104 3.08065L21.6754 2.84428L21.2223 1.95284L20.7691 1.0614L20.3041 1.29777L20.7573 2.18921ZM21.2223 1.95284L21.6754 2.84428L22.1404 2.60791L21.6873 1.71647L21.2341 0.82503L20.7691 1.0614L21.2223 1.95284ZM21.6873 1.71647L22.1404 2.60791C22.3793 2.4865 22.6059 2.40704 22.8213 2.36213L22.6173 1.38317L22.4132 0.404215C22.0087 0.488538 21.6153 0.631283 21.2341 0.82503L21.6873 1.71647ZM22.6173 1.38317L22.8213 2.36213L23.2863 2.26521L23.0823 1.28625L22.8782 0.30729L22.4132 0.404215L22.6173 1.38317ZM23.0823 1.28625L23.2863 2.26521L23.7513 2.16828L23.5473 1.18932L23.3432 0.210365L22.8782 0.30729L23.0823 1.28625ZM23.5473 1.18932L23.7513 2.16828C23.7801 2.16229 23.8358 2.15264 23.9629 2.22887L24.4773 1.3713L24.9916 0.513718C24.4987 0.218086 23.9345 0.0871263 23.3432 0.210365L23.5473 1.18932ZM24.4773 1.3713L23.9629 2.22887L24.4279 2.50777L24.9423 1.65019L25.4566 0.792615L24.9916 0.513718L24.4773 1.3713ZM24.9423 1.65019L24.4279 2.50777L24.8929 2.78667L25.4073 1.92909L25.9216 1.07151L25.4566 0.792615L24.9423 1.65019ZM25.4073 1.92909L24.8929 2.78667C25.4634 3.12882 26.1189 3.19394 26.7492 2.909L26.3373 1.99778L25.9253 1.08656C25.9145 1.09146 25.9127 1.09091 25.919 1.08973C25.9219 1.08917 25.926 1.0886 25.931 1.08831C25.936 1.08802 25.9411 1.08807 25.9459 1.08843C25.9508 1.08878 25.9546 1.08939 25.9572 1.08992C25.9597 1.09044 25.9603 1.09074 25.959 1.09028C25.9563 1.08937 25.9439 1.08485 25.9216 1.07151L25.4073 1.92909ZM26.3373 1.99778L26.7492 2.909L27.2142 2.6988L26.8023 1.78758L26.3903 0.876357L25.9253 1.08656L26.3373 1.99778ZM26.8023 1.78758L27.2142 2.6988L27.6792 2.4886L27.2673 1.57737L26.8553 0.666154L26.3903 0.876357L26.8023 1.78758ZM27.2673 1.57737L27.6792 2.4886C27.6931 2.4823 27.6988 2.48144 27.6969 2.48181C27.6948 2.48225 27.6893 2.48295 27.6825 2.48261C27.6759 2.48228 27.6734 2.48122 27.6768 2.48223C27.6806 2.48337 27.693 2.48755 27.7143 2.49929L28.1973 1.62368L28.6803 0.748061C28.1074 0.432057 27.466 0.390099 26.8553 0.666154L27.2673 1.57737ZM28.1973 1.62368L27.7143 2.49929L28.1793 2.7558L28.6623 1.88018L29.1453 1.00457L28.6803 0.748061L28.1973 1.62368ZM28.6623 1.88018L28.1793 2.7558L28.6443 3.0123L29.1273 2.13669L29.6103 1.26107L29.1453 1.00457L28.6623 1.88018ZM29.1273 2.13669L28.6443 3.0123C29.1063 3.2672 29.6173 3.39557 30.1553 3.34258L30.0573 2.3474L29.9593 1.35221C29.8773 1.36029 29.7682 1.34818 29.6103 1.26107L29.1273 2.13669ZM30.0573 2.3474L30.1553 3.34258L30.6203 3.29679L30.5223 2.3016L30.4243 1.30642L29.9593 1.35221L30.0573 2.3474ZM30.5223 2.3016L30.6203 3.29679L31.0853 3.25099L30.9873 2.25581L30.8893 1.26062L30.4243 1.30642L30.5223 2.3016ZM30.9873 2.25581L31.0853 3.25099C31.3873 3.22125 31.6893 3.19518 31.9913 3.17278L31.9173 2.17552L31.8433 1.17826C31.5252 1.20185 31.2072 1.22931 30.8893 1.26062L30.9873 2.25581ZM31.9173 2.17552L31.9913 3.17278L32.4563 3.13828L32.3823 2.14102L32.3083 1.14376L31.8433 1.17826L31.9173 2.17552ZM32.3823 2.14102L32.4563 3.13828L32.9213 3.10378L32.8473 2.10652L32.7733 1.10926L32.3083 1.14376L32.3823 2.14102ZM32.8473 2.10652L32.9213 3.10378C33.368 3.07064 33.7988 2.94779 34.2092 2.75118L33.7773 1.8493L33.3453 0.947415C33.1358 1.04777 32.9466 1.09641 32.7733 1.10926L32.8473 2.10652ZM33.7773 1.8493L34.2092 2.75118L34.6742 2.52845L34.2423 1.62657L33.8103 0.724689L33.3453 0.947415L33.7773 1.8493ZM34.2423 1.62657L34.6742 2.52845L35.1392 2.30573L34.7073 1.40385L34.2753 0.501964L33.8103 0.724689L34.2423 1.62657ZM34.7073 1.40385L35.1392 2.30573C35.3616 2.19924 35.5677 2.13973 35.7604 2.11584L35.6373 1.12344L35.5142 0.131047C35.0868 0.184057 34.673 0.311483 34.2753 0.501964L34.7073 1.40385ZM35.6373 1.12344L35.7604 2.11584L36.2254 2.05816L36.1023 1.06576L35.9792 0.0733697L35.5142 0.131047L35.6373 1.12344ZM36.1023 1.06576L36.2254 2.05816L36.6904 2.00048L36.5673 1.00809L36.4442 0.0156924L35.9792 0.0733697L36.1023 1.06576ZM36.5673 1.00809L36.6904 2.00048C36.7108 1.99794 36.78 1.99002 36.9317 2.09401L37.4973 1.26933L38.0629 0.444656C37.5945 0.123417 37.0437 -0.0586724 36.4442 0.0156924L36.5673 1.00809ZM37.4973 1.26933L36.9317 2.09401L37.3967 2.41293L37.9623 1.58825L38.5279 0.763578L38.0629 0.444656L37.4973 1.26933ZM37.9623 1.58825L37.3967 2.41293L37.8617 2.73185L38.4273 1.90717L38.9929 1.0825L38.5279 0.763578L37.9623 1.58825ZM38.4273 1.90717L37.8617 2.73185C38.1486 2.92863 38.4994 3.06765 38.8984 3.06518C39.2969 3.06272 39.6456 2.91977 39.9297 2.72135L39.3573 1.90143L38.7848 1.08151C38.759 1.09953 38.7976 1.06576 38.8861 1.06522C38.9262 1.06497 38.9594 1.07208 38.9815 1.07959C39.0022 1.08661 39.0059 1.09147 38.9929 1.0825L38.4273 1.90717ZM39.3573 1.90143L39.9297 2.72135L40.3947 2.39668L39.8223 1.57676L39.2498 0.756839L38.7848 1.08151L39.3573 1.90143ZM39.8223 1.57676L40.3947 2.39668L40.8597 2.07201L40.2873 1.25209L39.7148 0.432171L39.2498 0.756839L39.8223 1.57676ZM40.2873 1.25209L40.8597 2.07201C40.9255 2.02608 40.958 2.01928 40.9588 2.01912C40.9595 2.01898 40.9567 2.01953 40.9523 2.01939C40.9479 2.01924 40.9471 2.01859 40.9512 2.01973L41.2173 1.05578L41.4833 0.0918248C40.8346 -0.0872387 40.2213 0.0785464 39.7148 0.432171L40.2873 1.25209ZM41.2173 1.05578L40.9512 2.01973L41.4162 2.14808L41.6823 1.18413L41.9483 0.220178L41.4833 0.0918248L41.2173 1.05578ZM41.6823 1.18413L41.4162 2.14808L41.8812 2.27643L42.1473 1.31248L42.4133 0.348532L41.9483 0.220178L41.6823 1.18413ZM42.1473 1.31248L41.8812 2.27643C42.1676 2.3555 42.4548 2.44607 42.7428 2.54828L43.0773 1.60589L43.4118 0.663491C43.0797 0.545639 42.7469 0.440609 42.4133 0.348532L42.1473 1.31248ZM43.0773 1.60589L42.7428 2.54828L43.2078 2.71333L43.5423 1.77094L43.8768 0.828542L43.4118 0.663491L43.0773 1.60589ZM43.5423 1.77094L43.2078 2.71333L43.6728 2.87838L44.0073 1.93599L44.3418 0.993592L43.8768 0.828542L43.5423 1.77094ZM44.0073 1.93599L43.6728 2.87838C44.0868 3.02535 44.5135 3.10065 44.9482 3.09589L44.9373 2.09595L44.9263 1.09601C44.741 1.09804 44.5477 1.0667 44.3418 0.993592L44.0073 1.93599ZM44.9373 2.09595L44.9482 3.09589L45.4132 3.0908L45.4023 2.09086L45.3913 1.09092L44.9263 1.09601L44.9373 2.09595ZM45.4023 2.09086L45.4132 3.0908L45.8782 3.08572L45.8673 2.08578L45.8563 1.08584L45.3913 1.09092L45.4023 2.09086ZM45.8673 2.08578L45.8782 3.08572C46.2571 3.08157 46.6341 3.03856 47.0084 2.95771L46.7973 1.98025L46.5861 1.00279C46.3404 1.05587 46.0975 1.0832 45.8563 1.08584L45.8673 2.08578ZM46.7973 1.98025L47.0084 2.95771L47.4734 2.85728L47.2623 1.87982L47.0511 0.902359L46.5861 1.00279L46.7973 1.98025ZM47.2623 1.87982L47.4734 2.85728L47.9384 2.75684L47.7273 1.77938L47.5161 0.801924L47.0511 0.902359L47.2623 1.87982ZM47.7273 1.77938L47.9384 2.75684C48.1652 2.70786 48.388 2.68953 48.6092 2.70018L48.6573 1.70134L48.7054 0.702495C48.3065 0.683291 47.9094 0.716992 47.5161 0.801924L47.7273 1.77938ZM48.6573 1.70134L48.6092 2.70018L49.0742 2.72257L49.1223 1.72373L49.1704 0.724884L48.7054 0.702495L48.6573 1.70134ZM49.1223 1.72373L49.0742 2.72257L49.5392 2.74496L49.5873 1.74612L49.6354 0.747272L49.1704 0.724884L49.1223 1.72373ZM49.5873 1.74612L49.5392 2.74496C49.7537 2.75529 49.9741 2.79618 50.2023 2.87192L50.5173 1.92282L50.8322 0.973715C50.4405 0.843706 50.0408 0.766793 49.6354 0.747272L49.5873 1.74612ZM50.5173 1.92282L50.2023 2.87192L50.6673 3.02623L50.9823 2.07713L51.2972 1.12803L50.8322 0.973715L50.5173 1.92282ZM50.9823 2.07713L50.6673 3.02623L51.1323 3.18055L51.4473 2.23145L51.7622 1.28234L51.2972 1.12803L50.9823 2.07713ZM51.4473 2.23145L51.1323 3.18055C51.812 3.4061 52.4576 3.22543 52.9767 2.8503L52.391 2.03978L51.8053 1.22927C51.7355 1.27968 51.7066 1.28274 51.7167 1.28069C51.7217 1.27967 51.7312 1.27855 51.7429 1.27928C51.7483 1.27961 51.753 1.28028 51.7567 1.281C51.7585 1.28135 51.7598 1.28168 51.7608 1.28194C51.7618 1.28219 51.7623 1.28235 51.7622 1.28234L51.4473 2.23145ZM52.391 2.03978L52.9767 2.8503L53.4555 2.50432L52.8698 1.6938L52.2841 0.883287L51.8053 1.22927L52.391 2.03978ZM52.8698 1.6938L53.4555 2.50432L53.9343 2.15834L53.3486 1.34783L52.7628 0.537309L52.2841 0.883287L52.8698 1.6938ZM53.3486 1.34783L53.9343 2.15834C53.9707 2.13205 53.912 2.18615 53.7795 2.18175C53.6402 2.17712 53.5699 2.11332 53.5807 2.12296L54.2474 1.37767L54.9142 0.632376C54.6449 0.391463 54.2847 0.197418 53.8458 0.182847C53.4137 0.168501 53.0456 0.332953 52.7628 0.537309L53.3486 1.34783ZM54.2474 1.37767L53.5807 2.12296L54.0008 2.49878L54.6675 1.75349L55.3343 1.0082L54.9142 0.632376L54.2474 1.37767ZM54.6675 1.75349L54.0008 2.49878L54.4209 2.8746L55.0876 2.12931L55.7544 1.38402L55.3343 1.0082L54.6675 1.75349ZM55.0876 2.12931L54.4209 2.8746C54.8182 3.23005 55.2945 3.48702 55.8454 3.55138L55.9614 2.55814L56.0775 1.5649C56.0234 1.55857 55.9172 1.52966 55.7544 1.38402L55.0876 2.12931ZM55.9614 2.55814L55.8454 3.55138L56.2991 3.60439L56.4152 2.61115L56.5312 1.61791L56.0775 1.5649L55.9614 2.55814ZM56.4152 2.61115L56.2991 3.60439L56.7529 3.65741L56.8689 2.66416L56.985 1.67092L56.5312 1.61791L56.4152 2.61115ZM56.8689 2.66416L56.7529 3.65741C56.8801 3.67227 56.9923 3.71555 57.1042 3.79779L57.6966 2.99215L58.289 2.18651C57.9022 1.90211 57.4627 1.72674 56.985 1.67092L56.8689 2.66416ZM57.6966 2.99215L57.1042 3.79779L57.4781 4.07276L58.0705 3.26712L58.6629 2.46148L58.289 2.18651L57.6966 2.99215ZM58.0705 3.26712L57.4781 4.07276L57.8521 4.34773L58.4445 3.54209L59.0369 2.73645L58.6629 2.46148L58.0705 3.26712ZM58.4445 3.54209L57.8521 4.34773C58.2227 4.62027 58.6396 4.80101 59.0912 4.88891L59.2823 3.90732L59.4733 2.92573C59.3065 2.89328 59.1648 2.83054 59.0369 2.73645L58.4445 3.54209ZM59.2823 3.90732L59.0912 4.88891L59.5551 4.97917L59.7461 3.99758L59.9371 3.01599L59.4733 2.92573L59.2823 3.90732ZM59.7461 3.99758L59.5551 4.97917L60.0189 5.06943L60.2099 4.08784L60.4009 3.10625L59.9371 3.01599L59.7461 3.99758ZM60.2099 4.08784L60.0189 5.06943C60.1333 5.0917 60.2107 5.1357 60.28 5.20675L60.996 4.50868L61.712 3.81061C61.3516 3.44088 60.9049 3.20433 60.4009 3.10625L60.2099 4.08784ZM60.996 4.50868L60.28 5.20675L60.6023 5.53733L61.3183 4.83925L62.0343 4.14118L61.712 3.81061L60.996 4.50868ZM61.3183 4.83925L60.6023 5.53733L60.9245 5.8679L61.6406 5.16983L62.3566 4.47176L62.0343 4.14118L61.3183 4.83925ZM61.6406 5.16983L60.9245 5.8679C61.1594 6.10875 61.4019 6.33692 61.6523 6.5522L62.3043 5.79395L62.9562 5.03571C62.7514 4.8596 62.5515 4.67169 62.3566 4.47176L61.6406 5.16983ZM62.3043 5.79395L61.6523 6.5522L61.9937 6.84574L62.6456 6.08749L63.2976 5.32925L62.9562 5.03571L62.3043 5.79395ZM62.6456 6.08749L61.9937 6.84574L62.3351 7.13928L62.987 6.38103L63.639 5.62279L63.2976 5.32925L62.6456 6.08749ZM62.987 6.38103L62.3351 7.13928C62.6096 7.37534 62.9097 7.58909 63.2331 7.78166L63.7447 6.92244L64.2563 6.06323C64.0247 5.9253 63.8196 5.77811 63.639 5.62279L62.987 6.38103ZM63.7447 6.92244L63.2331 7.78166L63.6494 8.02953L64.161 7.17032L64.6726 6.3111L64.2563 6.06323L63.7447 6.92244ZM64.161 7.17032L63.6494 8.02953L64.0657 8.2774L64.5773 7.41819L65.0889 6.55897L64.6726 6.3111L64.161 7.17032ZM64.5773 7.41819L64.0657 8.2774C64.2571 8.39137 64.4224 8.52785 64.5654 8.68801L65.3114 8.022L66.0573 7.35599C65.7766 7.04157 65.4525 6.77551 65.0889 6.55897L64.5773 7.41819ZM65.3114 8.022L64.5654 8.68801L64.8832 9.04396L65.6292 8.37795L66.3751 7.71194L66.0573 7.35599L65.3114 8.022ZM65.6292 8.37795L64.8832 9.04396L65.201 9.3999L65.947 8.73389L66.6929 8.06788L66.3751 7.71194L65.6292 8.37795ZM65.947 8.73389L65.201 9.3999C65.3728 9.59227 65.5266 9.79928 65.6628 10.0217L66.5156 9.49942L67.3684 8.9772C67.1701 8.65344 66.9449 8.3501 66.6929 8.06788L65.947 8.73389ZM66.5156 9.49942L65.6628 10.0217L65.9136 10.4312L66.7664 9.90902L67.6192 9.38679L67.3684 8.9772L66.5156 9.49942ZM66.7664 9.90902L65.9136 10.4312L66.1644 10.8408L67.0172 10.3186L67.87 9.79638L67.6192 9.38679L66.7664 9.90902ZM67.0172 10.3186L66.1644 10.8408C66.2653 11.0055 66.3319 11.1817 66.3657 11.3762L67.3509 11.2049L68.3361 11.0336C68.2594 10.5924 68.1036 10.1778 67.87 9.79638L67.0172 10.3186ZM67.3509 11.2049L66.3657 11.3762L66.4486 11.8529L67.4338 11.6816L68.419 11.5102L68.3361 11.0336L67.3509 11.2049ZM67.4338 11.6816L66.4486 11.8529L66.5315 12.3296L67.5167 12.1583L68.5019 11.9869L68.419 11.5102L67.4338 11.6816ZM67.5167 12.1583L66.5315 12.3296C66.6037 12.745 66.7358 13.1432 66.9255 13.5216L67.8194 13.0734L68.7134 12.6252C68.61 12.419 68.5402 12.2071 68.5019 11.9869L67.5167 12.1583ZM67.8194 13.0734L66.9255 13.5216L67.1453 13.9601L68.0393 13.5119L68.9332 13.0637L68.7134 12.6252L67.8194 13.0734ZM68.0393 13.5119L67.1453 13.9601L67.3651 14.3985L68.2591 13.9503L69.153 13.5022L68.9332 13.0637L68.0393 13.5119ZM68.2591 13.9503L67.3651 14.3985C67.414 14.496 67.4283 14.5863 67.4076 14.7028L68.3922 14.8774L69.3768 15.0521C69.4718 14.5171 69.3973 13.9894 69.153 13.5022L68.2591 13.9503ZM68.3922 14.8774L67.4076 14.7028L67.3209 15.1914L68.3055 15.3661L69.2902 15.5408L69.3768 15.0521L68.3922 14.8774ZM68.3055 15.3661L67.3209 15.1914L67.2342 15.68L68.2188 15.8547L69.2035 16.0294L69.2902 15.5408L68.3055 15.3661ZM68.2188 15.8547L67.2342 15.68C67.1598 16.0996 67.1464 16.5199 67.1981 16.9376L68.1905 16.8148L69.1829 16.692C69.1568 16.481 69.1623 16.2613 69.2035 16.0294L68.2188 15.8547ZM68.1905 16.8148L67.1981 16.9376L67.2564 17.4091L68.2489 17.2862L69.2413 17.1634L69.1829 16.692L68.1905 16.8148ZM68.2489 17.2862L67.2564 17.4091L67.3148 17.8805L68.3072 17.7577L69.2996 17.6349L69.2413 17.1634L68.2489 17.2862ZM68.3072 17.7577L67.3148 17.8805C67.3281 17.9882 67.313 18.0913 67.2503 18.2138L68.1408 18.669L69.0312 19.1241C69.2683 18.6603 69.3641 18.1559 69.2996 17.6349L68.3072 17.7577ZM68.1408 18.669L67.2503 18.2138L67.0256 18.6536L67.916 19.1087L68.8064 19.5639L69.0312 19.1241L68.1408 18.669ZM67.916 19.1087L67.0256 18.6536L66.8008 19.0934L67.6912 19.5485L68.5817 20.0036L68.8064 19.5639L67.916 19.1087ZM67.6912 19.5485L66.8008 19.0934C66.6266 19.4342 66.4845 19.7797 66.3776 20.1295L67.3339 20.4219L68.2902 20.7143C68.36 20.486 68.4561 20.2492 68.5817 20.0036L67.6912 19.5485ZM67.3339 20.4219L66.3776 20.1295L66.245 20.5631L67.2013 20.8555L68.1576 21.1479L68.2902 20.7143L67.3339 20.4219ZM67.2013 20.8555L66.245 20.5631L66.1124 20.9967L67.0687 21.2891L68.0251 21.5815L68.1576 21.1479L67.2013 20.8555ZM67.0687 21.2891L66.1124 20.9967C65.9693 21.4648 65.9612 21.9522 66.0464 22.435L67.0312 22.2612L68.016 22.0874C67.9745 21.8521 67.9914 21.6915 68.0251 21.5815L67.0687 21.2891ZM67.0312 22.2612L66.0464 22.435L66.1415 22.9735L67.1263 22.7997L68.1111 22.6259L68.016 22.0874L67.0312 22.2612ZM67.1263 22.7997L66.1415 22.9735L66.2365 23.5121L67.2213 23.3383L68.2061 23.1645L68.1111 22.6259L67.1263 22.7997ZM67.2213 23.3383L66.2365 23.5121C66.2405 23.5346 66.2271 23.479 66.2663 23.394C66.3053 23.3093 66.3556 23.2841 66.3343 23.2967L66.8446 24.1567L67.3549 25.0167C67.6481 24.8428 67.9185 24.5878 68.0831 24.2303C68.2477 23.8725 68.2655 23.5009 68.2061 23.1645L67.2213 23.3383ZM66.8446 24.1567L66.3343 23.2967L65.8625 23.5767L66.3728 24.4367L66.8831 25.2967L67.3549 25.0167L66.8446 24.1567ZM66.3728 24.4367L65.8625 23.5767L65.3907 23.8566L65.901 24.7166L66.4114 25.5766L66.8831 25.2967L66.3728 24.4367ZM65.901 24.7166L65.3907 23.8566C64.8632 24.1697 64.482 24.6476 64.3454 25.272L65.3223 25.4857L66.2992 25.6993C66.3053 25.6716 66.3099 25.6368 66.4114 25.5766L65.901 24.7166ZM65.3223 25.4857L64.3454 25.272L64.2384 25.7611L65.2153 25.9748L66.1922 26.1884L66.2992 25.6993L65.3223 25.4857ZM65.2153 25.9748L64.2384 25.7611L64.1315 26.2502L65.1084 26.4639L66.0853 26.6775L66.1922 26.1884L65.2153 25.9748ZM65.1084 26.4639L64.1315 26.2502C64.084 26.4674 64.005 26.6598 63.8961 26.8337L64.7435 27.3646L65.591 27.8955C65.8258 27.5206 65.9901 27.1125 66.0853 26.6775L65.1084 26.4639ZM64.7435 27.3646L63.8961 26.8337L63.6383 27.2452L64.4857 27.7761L65.3331 28.3071L65.591 27.8955L64.7435 27.3646ZM64.4857 27.7761L63.6383 27.2452L63.3804 27.6568L64.2278 28.1877L65.0752 28.7186L65.3331 28.3071L64.4857 27.7761ZM64.2278 28.1877L63.3804 27.6568C63.2436 27.8752 63.0863 28.0786 62.9077 28.2677L63.6347 28.9543L64.3618 29.6409C64.6302 29.3567 64.8683 29.049 65.0752 28.7186L64.2278 28.1877ZM63.6347 28.9543L62.9077 28.2677L62.5724 28.6228L63.2995 29.3093L64.0265 29.9959L64.3618 29.6409L63.6347 28.9543ZM63.2995 29.3093L62.5724 28.6228L62.2372 28.9778L62.9642 29.6644L63.6913 30.3509L64.0265 29.9959L63.2995 29.3093ZM62.9642 29.6644L62.2372 28.9778C62.1753 29.0433 62.0942 29.0946 61.9462 29.1192L62.1103 30.1057L62.2745 31.0921C62.818 31.0017 63.3061 30.7588 63.6913 30.3509L62.9642 29.6644ZM62.1103 30.1057L61.9462 29.1192L61.4276 29.2055L61.5917 30.192L61.7558 31.1784L62.2745 31.0921L62.1103 30.1057ZM61.5917 30.192L61.4276 29.2055L60.9089 29.2918L61.0731 30.2783L61.2372 31.2647L61.7558 31.1784L61.5917 30.192ZM61.0731 30.2783L60.9089 29.2918C60.4262 29.3721 59.9758 29.5488 59.582 29.8385L60.1746 30.644L60.7672 31.4495C60.8798 31.3666 61.0285 31.2994 61.2372 31.2647L61.0731 30.2783ZM60.1746 30.644L59.582 29.8385L59.2022 30.1179L59.7948 30.9234L60.3874 31.7289L60.7672 31.4495L60.1746 30.644ZM59.7948 30.9234L59.2022 30.1179L58.8223 30.3974L59.4149 31.2029L60.0075 32.0084L60.3874 31.7289L59.7948 30.9234ZM59.4149 31.2029L58.8223 30.3974C58.5647 30.5869 58.3014 30.7839 58.0324 30.9883L58.6375 31.7845L59.2425 32.5807C59.5037 32.3822 59.7587 32.1914 60.0075 32.0084L59.4149 31.2029ZM58.6375 31.7845L58.0324 30.9883L57.6348 31.2905L58.2398 32.0867L58.8449 32.8829L59.2425 32.5807L58.6375 31.7845ZM58.2398 32.0867L57.6348 31.2905L57.2371 31.5927L57.8422 32.3889L58.4473 33.185L58.8449 32.8829L58.2398 32.0867ZM57.8422 32.3889L57.2371 31.5927C57.2317 31.5968 57.2334 31.5947 57.242 31.591C57.2461 31.5892 57.251 31.5875 57.2565 31.5859C57.262 31.5844 57.2672 31.5833 57.2718 31.5827C57.2816 31.5813 57.2849 31.5822 57.2792 31.5816C57.2731 31.581 57.256 31.5784 57.2269 31.5689L56.918 32.5201L56.6091 33.4712C57.2323 33.6735 57.8899 33.6086 58.4473 33.185L57.8422 32.3889ZM56.918 32.5201L57.2269 31.5689L56.7003 31.3979L56.3914 32.3491L56.0826 33.3002L56.6091 33.4712L56.918 32.5201ZM56.3914 32.3491L56.7003 31.3979L56.1737 31.2269L55.8649 32.1781L55.556 33.1292L56.0826 33.3002L56.3914 32.3491ZM55.8649 32.1781L56.1737 31.2269C55.7 31.0731 55.2066 31.0147 54.7146 31.1029L54.891 32.0872L55.0673 33.0715C55.1718 33.0528 55.3277 33.055 55.556 33.1292L55.8649 32.1781ZM54.891 32.0872L54.7146 31.1029L54.2673 31.183L54.4436 32.1673L54.62 33.1517L55.0673 33.0715L54.891 32.0872ZM54.4436 32.1673L54.2673 31.183L53.82 31.2632L53.9963 32.2475L54.1727 33.2318L54.62 33.1517L54.4436 32.1673ZM53.9963 32.2475L53.82 31.2632C53.4215 31.3345 53.0321 31.4668 52.6533 31.6502L53.089 32.5503L53.5247 33.4504C53.7592 33.3369 53.9747 33.2673 54.1727 33.2318L53.9963 32.2475ZM53.089 32.5503L52.6533 31.6502L52.1932 31.8729L52.6289 32.773L53.0646 33.6731L53.5247 33.4504L53.089 32.5503ZM52.6289 32.773L52.1932 31.8729L51.7332 32.0956L52.1689 32.9957L52.6046 33.8957L53.0646 33.6731L52.6289 32.773ZM52.1689 32.9957L51.7332 32.0956C51.7127 32.1055 51.6991 32.1098 51.692 32.1116C51.6851 32.1133 51.6821 32.1134 51.6815 32.1134C51.681 32.1134 51.6786 32.1135 51.6731 32.1124C51.6673 32.1112 51.6553 32.1082 51.6365 32.1001L51.2439 33.0198L50.8513 33.9395C51.4305 34.1868 52.0409 34.1686 52.6046 33.8957L52.1689 32.9957ZM51.2439 33.0198L51.6365 32.1001L51.1715 31.9016L50.7789 32.8213L50.3863 33.741L50.8513 33.9395L51.2439 33.0198ZM50.7789 32.8213L51.1715 31.9016L50.7065 31.7031L50.3139 32.6228L49.9213 33.5425L50.3863 33.741L50.7789 32.8213ZM50.3139 32.6228L50.7065 31.7031C50.3292 31.542 49.9434 31.4261 49.5503 31.3598L49.3839 32.3458L49.2174 33.3319C49.4443 33.3702 49.6786 33.4389 49.9213 33.5425L50.3139 32.6228ZM49.3839 32.3458L49.5503 31.3598L49.0853 31.2813L48.9189 32.2673L48.7524 33.2534L49.2174 33.3319L49.3839 32.3458ZM48.9189 32.2673L49.0853 31.2813L48.6203 31.2028L48.4539 32.1888L48.2874 33.1749L48.7524 33.2534L48.9189 32.2673ZM48.4539 32.1888L48.6203 31.2028C48.0595 31.1081 47.5221 31.2258 47.0407 31.4915L47.5239 32.367L48.0071 33.2425C48.1456 33.166 48.2283 33.1649 48.2874 33.1749L48.4539 32.1888ZM47.5239 32.367L47.0407 31.4915L46.5757 31.7482L47.0589 32.6236L47.5421 33.4991L48.0071 33.2425L47.5239 32.367ZM47.0589 32.6236L46.5757 31.7482L46.1107 32.0048L46.5939 32.8803L47.0771 33.7558L47.5421 33.4991L47.0589 32.6236ZM46.5939 32.8803L46.1107 32.0048C46.0909 32.0157 46.0805 32.0189 46.0791 32.0193C46.0784 32.0196 46.0794 32.0192 46.082 32.0188C46.0846 32.0184 46.0881 32.0179 46.0924 32.0178C46.0966 32.0176 46.1008 32.0178 46.1046 32.0181C46.1083 32.0185 46.111 32.019 46.1123 32.0193C46.1153 32.0199 46.11 32.0192 46.0958 32.0124L45.6639 32.9143L45.232 33.8162C45.8437 34.1091 46.4944 34.0774 47.0771 33.7558L46.5939 32.8803ZM45.6639 32.9143L46.0958 32.0124L45.6308 31.7897L45.1989 32.6916L44.767 33.5935L45.232 33.8162L45.6639 32.9143ZM45.1989 32.6916L45.6308 31.7897L45.1658 31.567L44.7339 32.4689L44.302 33.3708L44.767 33.5935L45.1989 32.6916ZM44.7339 32.4689L45.1658 31.567C44.6324 31.3116 44.0514 31.2638 43.4803 31.4591L43.8039 32.4053L44.1274 33.3515C44.1763 33.3347 44.2154 33.3294 44.302 33.3708L44.7339 32.4689ZM43.8039 32.4053L43.4803 31.4591L43.0153 31.6181L43.3389 32.5643L43.6624 33.5105L44.1274 33.3515L43.8039 32.4053ZM43.3389 32.5643L43.0153 31.6181L42.5503 31.7771L42.8739 32.7233L43.1974 33.6695L43.6624 33.5105L43.3389 32.5643ZM42.8739 32.7233L42.5503 31.7771C42.3864 31.8331 42.2398 31.8442 42.0968 31.8221L41.9439 32.8103L41.7909 33.7985C42.268 33.8724 42.7414 33.8254 43.1974 33.6695L42.8739 32.7233ZM41.9439 32.8103L42.0968 31.8221L41.6318 31.7501L41.4789 32.7383L41.3259 33.7266L41.7909 33.7985L41.9439 32.8103ZM41.4789 32.7383L41.6318 31.7501L41.1668 31.6781L41.0139 32.6664L40.8609 33.6546L41.3259 33.7266L41.4789 32.7383ZM41.0139 32.6664L41.1668 31.6781C40.8193 31.6244 40.4711 31.5907 40.1224 31.5772L40.0839 32.5765L40.0454 33.5758C40.3166 33.5862 40.5884 33.6124 40.8609 33.6546L41.0139 32.6664ZM40.0839 32.5765L40.1224 31.5772L39.6574 31.5593L39.6189 32.5586L39.5804 33.5578L40.0454 33.5758L40.0839 32.5765ZM39.6189 32.5586L39.6574 31.5593L39.1924 31.5414L39.1539 32.5407L39.1154 33.5399L39.5804 33.5578L39.6189 32.5586ZM39.1539 32.5407L39.1924 31.5414C38.7958 31.5261 38.4011 31.5621 38.0103 31.6475L38.2239 32.6244L38.4375 33.6014C38.6667 33.5513 38.892 33.5313 39.1154 33.5399L39.1539 32.5407ZM38.2239 32.6244L38.0103 31.6475L37.5453 31.7492L37.7589 32.7261L37.9725 33.703L38.4375 33.6014L38.2239 32.6244ZM37.7589 32.7261L37.5453 31.7492L37.0803 31.8509L37.2939 32.8278L37.5075 33.8047L37.9725 33.703L37.7589 32.7261ZM37.2939 32.8278L37.0803 31.8509C36.8841 31.8938 36.6932 31.9009 36.5019 31.8742L36.3639 32.8647L36.2258 33.8551C36.6546 33.9149 37.0836 33.8974 37.5075 33.8047L37.2939 32.8278ZM36.3639 32.8647L36.5019 31.8742L36.0369 31.8094L35.8989 32.7999L35.7608 33.7903L36.2258 33.8551L36.3639 32.8647ZM35.8989 32.7999L36.0369 31.8094L35.5719 31.7446L35.4339 32.735L35.2958 33.7255L35.7608 33.7903L35.8989 32.7999ZM35.4339 32.735L35.5719 31.7446C35.1706 31.6887 34.768 31.6885 34.3666 31.7441L34.5039 32.7347L34.6411 33.7252C34.8598 33.6949 35.0771 33.695 35.2958 33.7255L35.4339 32.735ZM34.5039 32.7347L34.3666 31.7441L33.9016 31.8085L34.0389 32.7991L34.1761 33.7896L34.6411 33.7252L34.5039 32.7347ZM34.0389 32.7991L33.9016 31.8085L33.4366 31.873L33.5739 32.8635L33.7111 33.854L34.1761 33.7896L34.0389 32.7991ZM33.5739 32.8635L33.4366 31.873C33.3477 31.8853 33.2402 31.8758 33.0906 31.8011L32.6439 32.6958L32.1972 33.5905C32.6675 33.8253 33.18 33.9276 33.7111 33.854L33.5739 32.8635ZM32.6439 32.6958L33.0906 31.8011L32.6256 31.5689L32.1789 32.4636L31.7322 33.3583L32.1972 33.5905L32.6439 32.6958ZM32.1789 32.4636L32.6256 31.5689L32.1606 31.3368L31.7139 32.2314L31.2672 33.1261L31.7322 33.3583L32.1789 32.4636ZM31.7139 32.2314L32.1606 31.3368C31.5846 31.0492 30.9569 31.033 30.3666 31.304L30.7839 32.2128L31.2011 33.1216C31.2184 33.1136 31.2281 33.1112 31.2308 33.1106C31.2331 33.1101 31.2319 33.1105 31.2288 33.1105C31.2257 33.1104 31.2256 33.11 31.23 33.1111C31.2348 33.1123 31.247 33.1161 31.2672 33.1261L31.7139 32.2314ZM30.7839 32.2128L30.3666 31.304L29.9016 31.5175L30.3189 32.4262L30.7361 33.335L31.2011 33.1216L30.7839 32.2128ZM30.3189 32.4262L29.9016 31.5175L29.4366 31.7309L29.8539 32.6397L30.2711 33.5485L30.7361 33.335L30.3189 32.4262ZM29.8539 32.6397L29.4366 31.7309C29.3269 31.7813 29.2588 31.7797 29.1905 31.7608L28.9239 32.7246L28.6572 33.6884C29.209 33.841 29.7608 33.7828 30.2711 33.5485L29.8539 32.6397ZM28.9239 32.7246L29.1905 31.7608L28.7255 31.6321L28.4589 32.5959L28.1922 33.5597L28.6572 33.6884L28.9239 32.7246ZM28.4589 32.5959L28.7255 31.6321L28.2605 31.5035L27.9939 32.4673L27.7272 33.4311L28.1922 33.5597L28.4589 32.5959ZM27.9939 32.4673L28.2605 31.5035C27.8856 31.3997 27.5066 31.3354 27.1244 31.3123L27.0639 32.3104L27.0034 33.3086C27.2412 33.323 27.4821 33.3633 27.7272 33.4311L27.9939 32.4673ZM27.0639 32.3104L27.1244 31.3123L26.6594 31.2841L26.5989 32.2822L26.5384 33.2804L27.0034 33.3086L27.0639 32.3104ZM26.5989 32.2822L26.6594 31.2841L26.1944 31.2559L26.1339 32.254L26.0734 33.2522L26.5384 33.2804L26.5989 32.2822ZM26.1339 32.254L26.1944 31.2559C25.6931 31.2255 25.2116 31.3363 24.764 31.5556L25.2039 32.4536L25.6438 33.3517C25.8162 33.2672 25.9547 33.245 26.0734 33.2522L26.1339 32.254ZM25.2039 32.4536L24.764 31.5556L24.299 31.7834L24.7389 32.6814L25.1788 33.5794L25.6438 33.3517L25.2039 32.4536ZM24.7389 32.6814L24.299 31.7834L23.834 32.0111L24.2739 32.9092L24.7138 33.8072L25.1788 33.5794L24.7389 32.6814ZM24.2739 32.9092L23.834 32.0111C23.6338 32.1092 23.458 32.1513 23.3004 32.1581L23.3439 33.1572L23.3873 34.1562C23.8498 34.1361 24.294 34.0129 24.7138 33.8072L24.2739 32.9092ZM23.3439 33.1572L23.3004 32.1581L22.8354 32.1783L22.8789 33.1774L22.9223 34.1764L23.3873 34.1562L23.3439 33.1572ZM22.8789 33.1774L22.8354 32.1783L22.3704 32.1985L22.4139 33.1976L22.4573 34.1967L22.9223 34.1764L22.8789 33.1774ZM22.4139 33.1976L22.3704 32.1985C22.1361 32.2087 21.9007 32.1926 21.6629 32.1494L21.4839 33.1332L21.3048 34.117C21.6871 34.1866 22.0717 34.2134 22.4573 34.1967L22.4139 33.1976ZM21.4839 33.1332L21.6629 32.1494L21.1979 32.0647L21.0189 33.0486L20.8398 34.0324L21.3048 34.117L21.4839 33.1332ZM21.0189 33.0486L21.1979 32.0647L20.7329 31.9801L20.5539 32.964L20.3748 33.9478L20.8398 34.0324L21.0189 33.0486ZM20.5539 32.964L20.7329 31.9801C20.324 31.9057 19.9121 31.8936 19.5006 31.9447L19.6239 32.9371L19.7472 33.9295C19.9557 33.9036 20.1637 33.9094 20.3748 33.9478L20.5539 32.964ZM19.6239 32.9371L19.5006 31.9447L19.0356 32.0025L19.1589 32.9949L19.2822 33.9872L19.7472 33.9295L19.6239 32.9371ZM19.1589 32.9949L19.0356 32.0025L18.5706 32.0603L18.6939 33.0526L18.8172 34.045L19.2822 33.9872L19.1589 32.9949ZM18.6939 33.0526L18.5706 32.0603C18.4964 32.0695 18.3974 32.0614 18.2483 31.9792L17.7656 32.855L17.2828 33.7307C17.7514 33.9891 18.2714 34.1128 18.8172 34.045L18.6939 33.0526ZM17.7656 32.855L18.2483 31.9792L17.785 31.7238L17.3022 32.5996L16.8194 33.4753L17.2828 33.7307L17.7656 32.855ZM17.3022 32.5996L17.785 31.7238L17.3217 31.4684L16.8389 32.3441L16.3561 33.2199L16.8194 33.4753L17.3022 32.5996ZM16.8389 32.3441L17.3217 31.4684C16.8041 31.1831 16.2232 31.0924 15.6342 31.2597L15.9075 32.2217L16.1807 33.1836C16.2159 33.1736 16.2559 33.1646 16.3561 33.2199L16.8389 32.3441ZM15.9075 32.2217L15.6342 31.2597L15.1661 31.3927L15.4393 32.3546L15.7126 33.3166L16.1807 33.1836L15.9075 32.2217ZM15.4393 32.3546L15.1661 31.3927L14.698 31.5257L14.9712 32.4876L15.2445 33.4495L15.7126 33.3166L15.4393 32.3546ZM14.9712 32.4876L14.698 31.5257C14.5706 31.5618 14.4723 31.5564 14.3755 31.5242L14.0598 32.4731L13.7441 33.4219C14.2384 33.5864 14.7477 33.5907 15.2445 33.4495L14.9712 32.4876ZM14.0598 32.4731L14.3755 31.5242L13.9321 31.3767L13.6164 32.3255L13.3007 33.2744L13.7441 33.4219L14.0598 32.4731ZM13.6164 32.3255L13.9321 31.3767L13.4887 31.2292L13.173 32.178L12.8573 33.1269L13.3007 33.2744L13.6164 32.3255ZM13.173 32.178L13.4887 31.2292C13.2262 31.1418 12.9718 31.042 12.7255 30.9299L12.3112 31.84L11.8968 32.7501C12.2085 32.892 12.5288 33.0176 12.8573 33.1269L13.173 32.178ZM12.3112 31.84L12.7255 30.9299L12.307 30.7393L11.8926 31.6495L11.4783 32.5596L11.8968 32.7501L12.3112 31.84ZM11.8926 31.6495L12.307 30.7393L11.8884 30.5488L11.4741 31.4589L11.0598 32.369L11.4783 32.5596L11.8926 31.6495ZM11.4741 31.4589L11.8884 30.5488C11.6763 30.4522 11.4787 30.3344 11.2943 30.1946L10.6904 30.9917L10.0865 31.7888C10.389 32.018 10.7139 32.2116 11.0598 32.369L11.4741 31.4589ZM10.6904 30.9917L11.2943 30.1946L10.9291 29.918L10.3252 30.7151L9.72135 31.5121L10.0865 31.7888L10.6904 30.9917ZM10.3252 30.7151L10.9291 29.918L10.5639 29.6413L9.96004 30.4384L9.35617 31.2355L9.72135 31.5121L10.3252 30.7151ZM9.96004 30.4384L10.5639 29.6413C10.2647 29.4147 9.94613 29.2223 9.6087 29.0659L9.18806 29.9731L8.76741 30.8803C8.97237 30.9754 9.16843 31.0933 9.35617 31.2355L9.96004 30.4384ZM9.18806 29.9731L9.6087 29.0659L9.20191 28.8773L8.78126 29.7845L8.36062 30.6917L8.76741 30.8803L9.18806 29.9731ZM8.78126 29.7845L9.20191 28.8773L8.79512 28.6887L8.37447 29.5959L7.95382 30.5031L8.36062 30.6917L8.78126 29.7845ZM8.37447 29.5959L8.79512 28.6887C8.4461 28.5268 8.06862 28.4065 7.66854 28.3219L7.46159 29.3002L7.25464 30.2786C7.52934 30.3367 7.76045 30.4135 7.95382 30.5031L8.37447 29.5959ZM7.46159 29.3002L7.66854 28.3219L7.16245 28.2148L6.9555 29.1932L6.74856 30.1715L7.25464 30.2786L7.46159 29.3002ZM6.9555 29.1932L7.16245 28.2148L6.65636 28.1078L6.44942 29.0861L6.24247 30.0645L6.74856 30.1715L6.9555 29.1932ZM6.44942 29.0861L6.65636 28.1078C6.64869 28.1062 6.65791 28.1072 6.67743 28.1172C6.6979 28.1278 6.72251 28.1445 6.746 28.168C6.7969 28.2189 6.79992 28.2569 6.7925 28.2256L5.81944 28.4561L4.84637 28.6866C4.92154 29.004 5.07086 29.3213 5.33175 29.5822C5.59464 29.8451 5.91553 29.9953 6.24247 30.0645L6.44942 29.0861ZM5.81944 28.4561L6.7925 28.2256L6.66861 27.7026L5.69554 27.9332L4.72247 28.1637L4.84637 28.6866L5.81944 28.4561ZM5.69554 27.9332L6.66861 27.7026L6.54471 27.1797L5.57165 27.4102L4.59858 27.6407L4.72247 28.1637L5.69554 27.9332ZM5.57165 27.4102L6.54471 27.1797C6.43168 26.7026 6.22644 26.258 5.89782 25.8891L5.15119 26.5544L4.40455 27.2196C4.47135 27.2946 4.54642 27.4205 4.59858 27.6407L5.57165 27.4102ZM5.15119 26.5544L5.89782 25.8891L5.60126 25.5563L4.85462 26.2215L4.10799 26.8868L4.40455 27.2196L5.15119 26.5544ZM4.85462 26.2215L5.60126 25.5563L5.30469 25.2234L4.55806 25.8887L3.81143 26.5539L4.10799 26.8868L4.85462 26.2215ZM4.55806 25.8887L5.30469 25.2234C4.98583 24.8656 4.5772 24.603 4.12812 24.4097L3.73267 25.3281L3.33721 26.2466C3.59324 26.3569 3.73487 26.468 3.81143 26.5539L4.55806 25.8887ZM3.73267 25.3281L4.12812 24.4097L3.5993 24.182L3.20384 25.1005L2.80839 26.0189L3.33721 26.2466L3.73267 25.3281ZM3.20384 25.1005L3.5993 24.182L3.07047 23.9543L2.67501 24.8728L2.27956 25.7913L2.80839 26.0189L3.20384 25.1005ZM2.67501 24.8728L3.07047 23.9543C3.02458 23.9345 3.06783 23.9422 3.11638 24.0149C3.1396 24.0498 3.15477 24.0863 3.16286 24.1185C3.17058 24.1492 3.16944 24.1662 3.16959 24.163L2.17066 24.1168L1.17173 24.0705C1.15538 24.4235 1.23156 24.7935 1.45264 25.1249C1.66931 25.4497 1.9729 25.6592 2.27956 25.7913L2.67501 24.8728ZM2.17066 24.1168L3.16959 24.163L3.19406 23.6347L2.19513 23.5885L1.1962 23.5422L1.17173 24.0705L2.17066 24.1168ZM2.19513 23.5885L3.19406 23.6347L3.21853 23.1064L2.2196 23.0602L1.22067 23.0139L1.1962 23.5422L2.19513 23.5885ZM2.2196 23.0602L3.21853 23.1064C3.24271 22.5843 3.13614 22.0769 2.87065 21.618L2.0051 22.1188L1.13954 22.6197C1.19269 22.7115 1.22911 22.8316 1.22067 23.0139L2.2196 23.0602ZM2.0051 22.1188L2.87065 21.618L2.63168 21.205L1.76613 21.7058L0.900574 22.2067L1.13954 22.6197L2.0051 22.1188ZM1.76613 21.7058L2.63168 21.205L2.39271 20.792L1.52716 21.2928L0.661604 21.7936L0.900574 22.2067L1.76613 21.7058ZM1.52716 21.2928L2.39271 20.792C2.29154 20.6172 2.22586 20.4359 2.19233 20.2437L1.2072 20.4155L0.222076 20.5873C0.296525 21.0142 0.444146 21.4178 0.661604 21.7936L1.52716 21.2928ZM1.2072 20.4155L2.19233 20.2437L2.11135 19.7794L1.12622 19.9512L0.141092 20.123L0.222076 20.5873L1.2072 20.4155ZM1.12622 19.9512L2.11135 19.7794L2.03036 19.3151L1.04523 19.4869L0.0601072 19.6587L0.141092 20.123L1.12622 19.9512ZM1.04523 19.4869L2.03036 19.3151C1.99418 19.1076 1.99023 18.8995 2.01914 18.687L1.02828 18.5522L0.0374138 18.4173C-0.0190396 18.8321 -0.011687 19.2471 0.0601072 19.6587L1.04523 19.4869ZM1.02828 18.5522L2.01914 18.687L2.08317 18.2166L1.09231 18.0817L0.101442 17.9469L0.0374138 18.4173L1.02828 18.5522ZM1.09231 18.0817L2.08317 18.2166L2.1472 17.7461L1.15634 17.6113L0.165471 17.4764L0.101442 17.9469L1.09231 18.0817ZM1.15634 17.6113L2.1472 17.7461C2.19427 17.4003 2.22392 17.0564 2.23585 16.7146L1.23646 16.6797L0.237071 16.6448C0.227539 16.9178 0.203773 17.195 0.165471 17.4764L1.15634 17.6113ZM1.23646 16.6797L2.23585 16.7146L2.25195 16.2534L1.25256 16.2185L0.253169 16.1836L0.237071 16.6448L1.23646 16.6797ZM1.25256 16.2185L2.25195 16.2534L2.26805 15.7923L1.26866 15.7574L0.269267 15.7225L0.253169 16.1836L1.25256 16.2185ZM1.26866 15.7574L2.26805 15.7923C2.2726 15.662 2.30801 15.5346 2.39035 15.3975L1.533 14.8827L0.675646 14.368C0.426992 14.7822 0.286183 15.2379 0.269267 15.7225L1.26866 15.7574ZM1.533 14.8827L2.39035 15.3975L2.63859 14.984L1.78124 14.4693L0.923888 13.9545L0.675646 14.368L1.533 14.8827ZM1.78124 14.4693L2.63859 14.984L2.88683 14.5705L2.02948 14.0558L1.17213 13.5411L0.923888 13.9545L1.78124 14.4693ZM2.02948 14.0558L2.88683 14.5705C3.16817 14.1019 3.27691 13.5797 3.21701 13.0402L2.22312 13.1506L1.22923 13.261C1.24213 13.3771 1.22178 13.4584 1.17213 13.5411L2.02948 14.0558ZM2.22312 13.1506L3.21701 13.0402L3.1624 12.5485L2.16851 12.6589L1.17462 12.7693L1.22923 13.261L2.22312 13.1506ZM2.16851 12.6589L3.1624 12.5485L3.1078 12.0568L2.11391 12.1672L1.12002 12.2776L1.17462 12.7693L2.16851 12.6589ZM2.11391 12.1672L3.1078 12.0568C3.08851 11.8832 3.11049 11.7422 3.16126 11.6161L2.23364 11.2426L1.30603 10.869C1.12434 11.3202 1.0665 11.7957 1.12002 12.2776L2.11391 12.1672ZM2.23364 11.2426L3.16126 11.6161L3.3356 11.1832L2.40798 10.8096L1.48037 10.4361L1.30603 10.869L2.23364 11.2426ZM2.40798 10.8096L3.3356 11.1832L3.50994 10.7502L2.58232 10.3767L1.65471 10.0031L1.48037 10.4361L2.40798 10.8096ZM2.58232 10.3767L3.50994 10.7502C3.60413 10.5163 3.71806 10.2927 3.85207 10.0787L3.00459 9.5479L2.1571 9.01708C1.96055 9.33089 1.79297 9.65978 1.65471 10.0031L2.58232 10.3767ZM3.00459 9.5479L3.85207 10.0787L4.09999 9.68289L3.25251 9.15208L2.40502 8.62126L2.1571 9.01708L3.00459 9.5479ZM3.25251 9.15208L4.09999 9.68289L4.34791 9.28707L3.50043 8.75625L2.65294 8.22544L2.40502 8.62126L3.25251 9.15208ZM3.50043 8.75625L4.34791 9.28707C4.54023 8.98002 4.7109 8.65551 4.86052 8.31449L3.94477 7.91272L3.02903 7.51095C2.91675 7.76687 2.79118 8.00472 2.65294 8.22544L3.50043 8.75625ZM3.94477 7.91272L4.86052 8.31449L5.05694 7.86679L4.1412 7.46502L3.22546 7.06325L3.02903 7.51095L3.94477 7.91272ZM4.1412 7.46502L5.05694 7.86679L5.25337 7.41908L4.33763 7.01731L3.42189 6.61554L3.22546 7.06325L4.1412 7.46502ZM4.33763 7.01731L5.25337 7.41908C5.34657 7.20665 5.46587 7.0144 5.61225 6.83957L4.84552 6.1976L4.07879 5.55563C3.80988 5.8768 3.59059 6.23102 3.42189 6.61554L4.33763 7.01731ZM4.84552 6.1976L5.61225 6.83957L5.92372 6.46757L5.15699 5.8256L4.39026 5.18363L4.07879 5.55563L4.84552 6.1976ZM5.15699 5.8256L5.92372 6.46757L6.23519 6.09556L5.46846 5.4536L4.70173 4.81163L4.39026 5.18363L5.15699 5.8256ZM5.46846 5.4536L6.23519 6.09556C6.38704 5.9142 6.55882 5.75624 6.75215 5.62017L6.17658 4.80242L5.60102 3.98466C5.26547 4.22083 4.96517 4.49699 4.70173 4.81163L5.46846 5.4536ZM6.17658 4.80242L6.75215 5.62017L7.1488 5.341L6.57323 4.52324L5.99767 3.70548L5.60102 3.98466L6.17658 4.80242ZM6.57323 4.52324L7.1488 5.341L7.54545 5.06182L6.96989 4.24406L6.39432 3.42631L5.99767 3.70548L6.57323 4.52324ZM6.96989 4.24406L7.54545 5.06182C7.69971 4.95324 7.87303 4.87565 8.07429 4.83017L7.85388 3.85476L7.63347 2.87935C7.18494 2.98071 6.76893 3.16264 6.39432 3.42631L6.96989 4.24406ZM7.85388 3.85476L8.07429 4.83017L8.56162 4.72005L8.34121 3.74464L8.1208 2.76923L7.63347 2.87935L7.85388 3.85476ZM8.34121 3.74464L8.56162 4.72005L9.04896 4.60992L8.82855 3.63452L8.60814 2.65911L8.1208 2.76923L8.34121 3.74464ZM8.82855 3.63452L9.04896 4.60992C9.34045 4.54406 9.62577 4.49531 9.9051 4.46314L9.79067 3.46971L9.67625 2.47628C9.32253 2.51702 8.96644 2.57815 8.60814 2.65911L8.82855 3.63452ZM9.79067 3.46971L9.9051 4.46314L10.3799 4.40845L10.2655 3.41502L10.151 2.42159L9.67625 2.47628L9.79067 3.46971ZM10.2655 3.41502L10.3799 4.40845L10.8547 4.35377L10.7402 3.36034L10.6258 2.3669L10.151 2.42159L10.2655 3.41502ZM10.7402 3.36034L10.8547 4.35377C11.4505 4.28514 11.9452 3.98973 12.3232 3.55809L11.571 2.89922L10.8187 2.24036C10.7221 2.35062 10.663 2.36262 10.6258 2.3669L10.7402 3.36034ZM11.571 2.89922L12.3232 3.55809L12.6792 3.15166L11.9269 2.4928L11.1747 1.83393L10.8187 2.24036L11.571 2.89922ZM11.9269 2.4928L12.6792 3.15166L13.0352 2.74523L12.2829 2.08637L11.5306 1.42751L11.1747 1.83393L11.9269 2.4928ZM12.2829 2.08637L13.0352 2.74523C13.0504 2.72781 13.0572 2.72367 13.0535 2.72628C13.0493 2.72934 13.0369 2.73725 13.017 2.74453C12.9968 2.75192 12.9768 2.75576 12.96 2.75685C12.944 2.7579 12.9377 2.756 12.9439 2.75721L13.1333 1.7753L13.3227 0.7934C12.6141 0.656738 11.9813 0.912964 11.5306 1.42751L12.2829 2.08637ZM13.1333 1.7753L12.9439 2.75721L13.4383 2.85256L13.6277 1.87066L13.8171 0.888758L13.3227 0.7934L13.1333 1.7753ZM13.6277 1.87066L13.4383 2.85256L13.9327 2.94792L14.1221 1.96602L14.3115 0.984117L13.8171 0.888758L13.6277 1.87066ZM14.1221 1.96602L13.9327 2.94792C14.2732 3.0136 14.6024 3.07116 14.92 3.12046L15.0734 2.13229L15.2268 1.14412C14.9352 1.09887 14.6302 1.04558 14.3115 0.984117L14.1221 1.96602ZM15.0734 2.13229L14.92 3.12046L15.3769 3.19136L15.5303 2.20319L15.6836 1.21502L15.2268 1.14412L15.0734 2.13229ZM15.5303 2.20319L15.3769 3.19136L15.8338 3.26227L15.9872 2.2741L16.1405 1.28593L15.6836 1.21502L15.5303 2.20319ZM15.9872 2.2741L15.8338 3.26227C16.0202 3.2912 16.276 3.3169 16.5313 3.26657C16.7958 3.21442 17.3364 3.00202 17.4582 2.36587L16.4761 2.1777L15.494 1.98953C15.5357 1.77183 15.6567 1.58404 15.8188 1.45771C15.9601 1.34763 16.0921 1.31465 16.1444 1.30434C16.2367 1.28614 16.2587 1.30428 16.1405 1.28593L15.9872 2.2741ZM16.4761 2.1777L17.4582 2.36587L17.4903 2.19857L16.5082 2.01039L15.526 1.82222L15.494 1.98953L16.4761 2.1777ZM16.5082 2.01039L17.4903 2.19857L17.5223 2.03126L16.5402 1.84309L15.5581 1.65492L15.526 1.82222L16.5082 2.01039ZM16.5402 1.84309L17.5223 2.03126C17.4793 2.25605 17.3518 2.44958 17.1808 2.57702C17.0333 2.6869 16.897 2.7162 16.8462 2.72475C16.7555 2.73997 16.7371 2.7216 16.8599 2.74374L17.0373 1.7596L17.2147 0.775455C17.0275 0.741715 16.7712 0.70932 16.5148 0.752378C16.2537 0.796242 15.6842 0.996621 15.5581 1.65492L16.5402 1.84309ZM17.0373 1.7596L16.8599 2.74374L17.3249 2.82755L17.5023 1.84341L17.6797 0.859269L17.2147 0.775455L17.0373 1.7596Z" fill="#D06FE4"/>
<path d="M16.0452 25.3878C15.8532 25.5798 15.5572 25.6758 15.1572 25.6758C14.8532 25.6758 14.6052 25.6278 14.4132 25.5318C14.1252 25.5958 13.8692 25.6278 13.6452 25.6278C13.0212 25.6278 12.5732 25.4678 12.3012 25.1478C12.2372 25.1638 12.1492 25.1718 12.0372 25.1718C11.6692 25.1718 11.3892 25.0038 11.1972 24.6678C11.0372 24.6838 10.8292 24.6038 10.5732 24.4278C10.3332 24.2358 10.2292 24.0518 10.2612 23.8758C10.0052 23.8118 9.78923 23.6598 9.61323 23.4198C9.45323 23.1638 9.38123 22.8758 9.39723 22.5558C9.22123 22.4918 9.08523 22.3638 8.98923 22.1718C8.89323 21.9798 8.84523 21.7638 8.84523 21.5238C8.84523 21.2678 8.88523 21.0838 8.96523 20.9718C8.78923 20.6998 8.70123 20.3878 8.70123 20.0358C8.70123 19.6678 8.81323 19.3718 9.03723 19.1478C8.86123 19.0198 8.77323 18.8278 8.77323 18.5718C8.77323 18.4118 8.81323 18.2518 8.89323 18.0918C8.97323 17.9318 9.07723 17.8198 9.20523 17.7558C9.17323 17.5318 9.19723 17.3238 9.27723 17.1318C9.37323 16.9238 9.50123 16.7718 9.66123 16.6758C9.62923 16.6278 9.61323 16.5558 9.61323 16.4598C9.61323 16.3158 9.66123 16.1718 9.75723 16.0278C9.86923 15.8838 9.98923 15.7958 10.1172 15.7638C10.1012 15.7158 10.0932 15.6518 10.0932 15.5718C10.0932 15.2358 10.2212 14.9478 10.4772 14.7078C10.7332 14.4518 10.9812 14.3398 11.2212 14.3718C11.2212 14.1478 11.3172 13.9638 11.5092 13.8198C11.7172 13.6598 11.9812 13.5798 12.3012 13.5798C12.4452 13.5798 12.5572 13.5878 12.6372 13.6038C12.7492 13.3638 12.9412 13.1718 13.2132 13.0278C13.4852 12.8678 13.7652 12.7878 14.0532 12.7878C14.2452 12.7878 14.4052 12.8278 14.5332 12.9078C14.7572 12.7158 15.0372 12.6198 15.3732 12.6198C15.6452 12.6198 15.8852 12.6838 16.0932 12.8118C16.3172 12.9398 16.4532 13.1158 16.5012 13.3398C16.7572 13.3398 17.0292 13.4358 17.3172 13.6278C17.6052 13.8038 17.7732 13.9878 17.8212 14.1798C18.2052 14.2918 18.5732 14.5398 18.9252 14.9238C19.2932 15.2918 19.4772 15.6678 19.4772 16.0518C19.4772 16.1158 19.4612 16.2118 19.4292 16.3398C20.1172 16.4838 20.4292 17.1798 20.3652 18.4278C20.5092 18.6678 20.5812 18.9238 20.5812 19.1958C20.5812 19.5158 20.4772 19.8358 20.2692 20.1558C20.3172 20.2998 20.3412 20.4358 20.3412 20.5638C20.3412 20.7558 20.3012 20.9398 20.2212 21.1158C20.1412 21.2918 20.0372 21.4278 19.9092 21.5238C19.9252 21.7798 19.8772 21.9878 19.7652 22.1478C19.6692 22.3078 19.4852 22.5238 19.2132 22.7958C19.2292 22.8598 19.2372 22.9558 19.2372 23.0838C19.2372 23.5638 18.9652 23.8758 18.4212 24.0198C18.3732 24.2758 18.2372 24.4838 18.0132 24.6438C17.8052 24.8038 17.5492 24.8838 17.2452 24.8838C16.9892 25.2358 16.6772 25.4118 16.3092 25.4118C16.1972 25.4118 16.1092 25.4038 16.0452 25.3878ZM13.7892 23.7078C13.9172 23.5958 14.1332 23.5398 14.4372 23.5398C14.6612 23.5398 14.7812 23.5718 14.7972 23.6358C14.9252 23.4918 15.0852 23.3798 15.2772 23.2998C15.4692 23.2198 15.6452 23.1878 15.8052 23.2038C16.0772 22.9318 16.3732 22.7958 16.6932 22.7958C16.8052 22.7958 16.8852 22.8038 16.9332 22.8198C16.9172 22.6758 16.9572 22.5398 17.0532 22.4118C17.1492 22.2678 17.2612 22.1718 17.3892 22.1238C17.3892 21.9158 17.4372 21.7398 17.5332 21.5958C17.6452 21.4358 17.7812 21.3158 17.9412 21.2358C17.9412 20.9158 18.0052 20.6598 18.1332 20.4678C18.0852 20.3398 18.0612 20.2118 18.0612 20.0838C18.0612 19.9078 18.1012 19.7398 18.1812 19.5798C18.2612 19.4038 18.3732 19.2598 18.5172 19.1478C18.3572 19.0038 18.2772 18.8278 18.2772 18.6198C18.2772 18.4278 18.3332 18.2358 18.4452 18.0438C18.1252 17.8518 17.9092 17.6678 17.7972 17.4918C17.7012 17.2998 17.6532 16.9558 17.6532 16.4598C17.5092 16.4758 17.3572 16.3958 17.1972 16.2198C17.0532 16.0438 16.9652 15.8438 16.9332 15.6198C16.7572 15.6678 16.5412 15.6198 16.2852 15.4758C16.0452 15.3158 15.9252 15.1158 15.9252 14.8758C15.7972 14.9398 15.6452 14.9718 15.4692 14.9718C15.1332 14.9718 14.8612 14.8518 14.6532 14.6118C14.4772 14.7878 14.2452 14.9318 13.9572 15.0438C13.6852 15.1398 13.4452 15.1718 13.2372 15.1398C13.2212 15.2998 13.0772 15.4918 12.8052 15.7158C12.5492 15.9238 12.3172 16.0598 12.1092 16.1238C12.1572 16.2198 12.1812 16.3318 12.1812 16.4598C12.1812 16.6198 12.1412 16.7798 12.0612 16.9398C11.9812 17.0998 11.8692 17.2358 11.7252 17.3478C11.7412 17.5718 11.6852 17.7878 11.5572 17.9958C11.4452 18.2038 11.2852 18.3478 11.0772 18.4278C11.1092 18.5558 11.1252 18.6598 11.1252 18.7398C11.1252 18.9638 11.0692 19.1398 10.9572 19.2678C11.0052 19.3798 11.0292 19.4918 11.0292 19.6038C11.0292 19.7798 10.9412 19.9718 10.7652 20.1798C11.1652 20.4518 11.3652 20.8438 11.3652 21.3558C11.3652 21.6278 11.3172 21.8598 11.2212 22.0518C11.3812 22.0678 11.4932 22.1158 11.5572 22.1958C11.6212 22.2758 11.6772 22.4038 11.7252 22.5798C12.1252 22.6278 12.4212 22.8198 12.6132 23.1558C12.7892 23.1558 13.0052 23.2118 13.2612 23.3238C13.5332 23.4358 13.7092 23.5638 13.7892 23.7078ZM24.4959 24.5478C24.5599 24.8998 24.4879 25.1798 24.2799 25.3878C24.0879 25.5798 23.8479 25.6758 23.5599 25.6758C23.3039 25.6758 23.0799 25.5958 22.8879 25.4358C22.6959 25.2598 22.5999 25.0198 22.5999 24.7158C22.5999 24.5238 22.6479 24.3078 22.7439 24.0678C22.6479 23.8438 22.5999 23.6118 22.5999 23.3718C22.5999 23.1798 22.6399 23.0198 22.7199 22.8918C22.6239 22.8278 22.5519 22.7318 22.5039 22.6038C22.4559 22.4758 22.4319 22.3318 22.4319 22.1718C22.4319 22.0118 22.4639 21.8358 22.5279 21.6438C22.3839 21.4678 22.3119 21.2598 22.3119 21.0198C22.3119 20.7158 22.4239 20.4678 22.6479 20.2758C22.6319 20.2278 22.6239 20.1478 22.6239 20.0358C22.6239 19.8758 22.6399 19.7638 22.6719 19.6998C22.4959 19.4758 22.4079 19.1558 22.4079 18.7398C22.4079 18.4518 22.4639 18.2278 22.5759 18.0678C22.4639 17.9718 22.3679 17.8438 22.2879 17.6838C22.2079 17.5078 22.1679 17.3318 22.1679 17.1558C22.1679 16.9638 22.2239 16.7798 22.3359 16.6038C22.2559 16.4118 22.2159 16.2438 22.2159 16.0998C22.2159 15.8598 22.2879 15.6358 22.4319 15.4278C22.2399 15.2358 22.1439 15.0358 22.1439 14.8278C22.1439 14.6678 22.1999 14.4518 22.3119 14.1798C22.1999 13.9558 22.1439 13.7158 22.1439 13.4598C22.1439 13.1238 22.2639 12.9158 22.5039 12.8358C22.5199 12.6118 22.5999 12.4278 22.7439 12.2838C22.8879 12.1398 23.0639 12.0678 23.2719 12.0678C23.5119 12.0678 23.7199 12.1878 23.8959 12.4278C24.0879 12.6518 24.1839 12.9798 24.1839 13.4118C24.1839 13.5878 24.1759 13.7318 24.1599 13.8438C24.2239 13.8118 24.2879 13.7638 24.3519 13.6998C24.4159 13.6198 24.4959 13.5638 24.5919 13.5318C24.6879 13.4998 24.8319 13.4838 25.0239 13.4838C25.0559 13.4038 25.1599 13.3238 25.3359 13.2438C25.5279 13.1638 25.7119 13.1238 25.8879 13.1238C26.0159 13.1238 26.1039 13.1398 26.1519 13.1718C26.2799 13.1078 26.4079 13.0758 26.5359 13.0758C26.7279 13.0758 26.9359 13.2118 27.1599 13.4838C27.5439 13.4518 27.8239 13.5398 27.9999 13.7478C28.2559 13.7318 28.4799 13.7638 28.6719 13.8438C28.8639 13.9238 29.0159 14.0918 29.1279 14.3478C29.4319 14.5398 29.5839 14.7958 29.5839 15.1158C29.5839 15.3878 29.4639 15.6438 29.2239 15.8838C28.9999 16.1078 28.7519 16.2198 28.4799 16.2198C28.1759 16.2198 27.9199 16.0598 27.7119 15.7398C27.5359 15.7398 27.3999 15.7238 27.3039 15.6918C27.2079 15.6598 27.1119 15.5878 27.0159 15.4758C26.9199 15.5078 26.8399 15.5238 26.7759 15.5238C26.6319 15.5238 26.4799 15.4838 26.3199 15.4038C26.0959 15.5478 25.8559 15.6118 25.5999 15.5958C25.5039 15.8198 25.2559 15.9318 24.8559 15.9318C24.8719 15.9798 24.8799 16.0598 24.8799 16.1718C24.8799 16.3798 24.8319 16.5878 24.7359 16.7958C24.6559 16.9878 24.5519 17.1318 24.4239 17.2278C24.5519 17.5318 24.6159 17.8358 24.6159 18.1398C24.6159 18.4118 24.5519 18.6198 24.4239 18.7638C24.4719 18.8278 24.5199 18.9078 24.5679 19.0038C24.6319 19.0998 24.6799 19.1878 24.7119 19.2678C24.7439 19.3958 24.7599 19.4918 24.7599 19.5558C24.7599 19.6678 24.7199 19.8198 24.6399 20.0118C24.7199 20.2038 24.7599 20.3478 24.7599 20.4438C24.7599 20.5718 24.7039 20.7478 24.5919 20.9718C24.6879 21.1318 24.7359 21.3078 24.7359 21.4998C24.7359 21.7238 24.6799 21.9158 24.5679 22.0758C24.6799 22.3318 24.7359 22.5958 24.7359 22.8678C24.7359 23.0758 24.6879 23.2678 24.5919 23.4438C24.6719 23.6038 24.7119 23.7638 24.7119 23.9238C24.7119 24.1478 24.6399 24.3558 24.4959 24.5478ZM37.5492 24.2598C37.5172 24.4038 37.3972 24.5238 37.1892 24.6198C36.9812 24.7158 36.7572 24.7638 36.5172 24.7638C36.4052 24.7638 36.3252 24.7558 36.2772 24.7398C36.1972 24.8678 36.0292 24.9958 35.7732 25.1238C35.5172 25.2518 35.2932 25.3158 35.1012 25.3158C35.0052 25.3158 34.9172 25.2918 34.8372 25.2438C34.6772 25.2758 34.5412 25.2918 34.4292 25.2918C34.2052 25.2918 33.9812 25.2518 33.7572 25.1718C33.5492 25.0918 33.3892 24.9878 33.2772 24.8598C33.0052 24.8918 32.7492 24.8598 32.5092 24.7638C32.2852 24.6518 32.1572 24.5078 32.1252 24.3318C31.9492 24.3638 31.7492 24.2918 31.5252 24.1158C31.3172 23.9398 31.2052 23.6998 31.1892 23.3958C30.9492 23.2678 30.7732 23.0758 30.6612 22.8198C30.5492 22.5638 30.4932 22.2918 30.4932 22.0038C30.4932 21.7958 30.5172 21.6358 30.5652 21.5238C30.4372 21.4118 30.3332 21.1798 30.2532 20.8278C30.1732 20.4598 30.1332 20.0758 30.1332 19.6758C30.1332 19.1958 30.1892 18.8438 30.3012 18.6198C30.2212 18.4598 30.1812 18.2758 30.1812 18.0678C30.1812 17.8918 30.2052 17.7238 30.2532 17.5638C30.3172 17.4038 30.4052 17.2758 30.5172 17.1798C30.4692 17.0998 30.4452 17.0278 30.4452 16.9638C30.4452 16.8518 30.4852 16.7318 30.5652 16.6038C30.6452 16.4758 30.7332 16.3798 30.8292 16.3158C30.8132 16.0598 30.8772 15.8278 31.0212 15.6198C31.1812 15.3958 31.3412 15.2598 31.5012 15.2118C31.4852 15.0518 31.5412 14.8598 31.6692 14.6358C31.7972 14.4118 31.9652 14.2278 32.1732 14.0838C32.3972 13.9398 32.6212 13.8758 32.8452 13.8918C33.1652 13.4438 33.6052 13.2198 34.1652 13.2198C34.4052 13.2198 34.5892 13.2518 34.7172 13.3158C34.8932 13.2358 35.1092 13.1958 35.3652 13.1958C35.6212 13.1958 35.9012 13.2598 36.2052 13.3878C36.3012 13.3398 36.4212 13.3158 36.5652 13.3158C36.7252 13.3158 36.8772 13.3478 37.0212 13.4118C37.1812 13.4598 37.2852 13.5318 37.3332 13.6278C37.3172 13.5638 37.3092 13.4678 37.3092 13.3398C37.3092 13.0838 37.3732 12.8598 37.5012 12.6678C37.3892 12.4758 37.3332 12.2838 37.3332 12.0918C37.3332 11.9958 37.3412 11.9238 37.3572 11.8758C37.3412 11.7958 37.3092 11.6918 37.2612 11.5638C37.2132 11.4198 37.1892 11.2998 37.1892 11.2038C37.1892 11.0758 37.2212 10.9478 37.2852 10.8198C37.2052 10.6598 37.1652 10.4998 37.1652 10.3398C37.1652 10.1638 37.2132 9.99578 37.3092 9.83578C37.1972 9.61178 37.1412 9.37978 37.1412 9.13978C37.1412 8.81978 37.2292 8.53178 37.4052 8.27578C37.5972 8.01978 37.8532 7.89178 38.1732 7.89178C38.4452 7.89178 38.6772 7.99578 38.8692 8.20378C39.0772 8.39578 39.1812 8.61978 39.1812 8.87578C39.1812 8.97178 39.1732 9.04378 39.1572 9.09178C39.3972 9.28378 39.5172 9.54778 39.5172 9.88378C39.5172 10.0598 39.4612 10.2438 39.3492 10.4358C39.3972 10.5478 39.4212 10.6678 39.4212 10.7958C39.4212 10.9718 39.3812 11.1398 39.3012 11.2998C39.3812 11.4598 39.4212 11.6278 39.4212 11.8038C39.4212 12.0278 39.3652 12.2198 39.2532 12.3798C39.4132 12.5718 39.4932 12.7558 39.4932 12.9318C39.4932 13.0598 39.4452 13.1958 39.3492 13.3398C39.3972 13.4358 39.4212 13.5558 39.4212 13.6998C39.4212 13.8118 39.3972 13.9318 39.3492 14.0598C39.4772 14.2358 39.5412 14.4278 39.5412 14.6358C39.5412 14.7958 39.5012 14.9558 39.4212 15.1158C39.5172 15.2758 39.5652 15.4678 39.5652 15.6918C39.5652 16.0598 39.4772 16.3158 39.3012 16.4598C39.4612 16.6518 39.5412 16.9398 39.5412 17.3238C39.5412 17.5478 39.5092 17.7718 39.4452 17.9958C39.3972 18.2198 39.3492 18.3798 39.3012 18.4758C39.4612 18.7158 39.5412 19.0198 39.5412 19.3878C39.5412 19.5638 39.5012 19.7318 39.4212 19.8918C39.5972 20.0678 39.6852 20.3318 39.6852 20.6838C39.6852 21.0678 39.6052 21.3798 39.4452 21.6198C39.6052 21.8278 39.6852 22.1238 39.6852 22.5078C39.6852 22.7638 39.6452 22.9958 39.5652 23.2038C39.5012 23.3958 39.4132 23.5238 39.3012 23.5878C39.3172 23.6998 39.3572 23.8678 39.4212 24.0918C39.5012 24.4438 39.5412 24.6678 39.5412 24.7638C39.5412 25.0198 39.4612 25.2278 39.3012 25.3878C39.1092 25.5798 38.8852 25.6758 38.6292 25.6758C38.4212 25.6758 38.2292 25.6038 38.0532 25.4598C37.8932 25.2998 37.7972 25.0918 37.7652 24.8358C37.6852 24.7558 37.6292 24.6518 37.5972 24.5238C37.5652 24.3798 37.5492 24.2918 37.5492 24.2598ZM34.5492 23.3238C34.5972 23.2118 34.7412 23.1558 34.9812 23.1558C35.0932 23.1558 35.1892 23.1638 35.2692 23.1798C35.3492 23.1958 35.4132 23.2038 35.4612 23.2038C35.4772 23.0918 35.5732 22.9958 35.7492 22.9158C35.9412 22.8198 36.1252 22.7718 36.3012 22.7718C36.4132 22.7718 36.5092 22.7958 36.5892 22.8438C36.5732 22.6838 36.6052 22.5558 36.6852 22.4598C36.7652 22.3638 36.8692 22.2758 36.9972 22.1958C37.1412 22.0998 37.2452 22.0278 37.3092 21.9798C37.2772 21.9158 37.2612 21.7718 37.2612 21.5478C37.2612 21.0678 37.3172 20.7718 37.4292 20.6598C37.3172 20.5478 37.2612 20.3238 37.2612 19.9878C37.2612 19.6038 37.3172 19.2678 37.4292 18.9798C37.3332 18.7718 37.2852 18.4198 37.2852 17.9238C37.2852 17.4438 37.3172 17.1238 37.3812 16.9638C37.2372 16.6758 37.1652 16.3478 37.1652 15.9798C37.1652 15.6918 37.1972 15.4838 37.2612 15.3558C37.1652 15.4198 37.0212 15.4278 36.8292 15.3798C36.6532 15.3158 36.5092 15.2278 36.3972 15.1158C36.3332 15.2118 36.2052 15.2598 36.0132 15.2598C35.8852 15.2598 35.7572 15.2438 35.6292 15.2118C35.5012 15.1638 35.4132 15.1158 35.3652 15.0678C35.1092 15.1798 34.8612 15.2358 34.6212 15.2358C34.5572 15.2358 34.4612 15.2198 34.3332 15.1878C34.1252 15.4118 33.9652 15.5718 33.8532 15.6678C33.7412 15.7638 33.5892 15.8198 33.3972 15.8358C33.3492 15.9478 33.3012 16.0838 33.2532 16.2438C33.2052 16.3878 33.1492 16.5078 33.0852 16.6038C33.0212 16.6998 32.9092 16.7798 32.7492 16.8438C32.7172 17.0518 32.6372 17.2198 32.5092 17.3478C32.5252 17.4118 32.5332 17.4998 32.5332 17.6118C32.5332 17.7718 32.4932 17.9478 32.4132 18.1398C32.4612 18.2518 32.4852 18.4998 32.4852 18.8838C32.4852 19.6198 32.4212 20.0598 32.2932 20.2038C32.3092 20.2678 32.3652 20.4198 32.4612 20.6598C32.5572 20.8998 32.6052 21.1318 32.6052 21.3558C32.6052 21.5318 32.5732 21.6918 32.5092 21.8358C32.8292 21.9638 33.0292 22.1878 33.1092 22.5078C33.2692 22.5558 33.4212 22.6598 33.5652 22.8198C33.9492 22.8038 34.2772 22.9718 34.5492 23.3238ZM52.2852 16.2918C52.4612 16.3718 52.6212 16.5638 52.7652 16.8678C52.9252 17.1718 53.0052 17.4838 53.0052 17.8038C53.0052 18.3478 52.7652 18.7158 52.2852 18.9078C52.1572 19.1318 51.9812 19.3078 51.7572 19.4358C51.5492 19.5638 51.3172 19.6278 51.0612 19.6278C50.8532 19.6278 50.6372 19.5798 50.4132 19.4838C50.2852 19.5638 50.1092 19.6358 49.8852 19.6998C49.6612 19.7638 49.4372 19.7958 49.2132 19.7958C48.8292 19.7958 48.5652 19.7158 48.4212 19.5558C48.2612 19.6838 48.0052 19.7478 47.6532 19.7478C47.3972 19.7478 47.1652 19.6998 46.9572 19.6038C46.7332 19.7158 46.4772 19.7718 46.1892 19.7718C45.9172 19.7718 45.6932 19.7318 45.5172 19.6518C45.3572 19.7958 45.0292 19.8678 44.5332 19.8678C44.2612 19.8678 44.0772 19.8438 43.9812 19.7958C44.0292 20.2598 43.9652 20.6038 43.7892 20.8278C44.0932 21.1318 44.2132 21.4598 44.1492 21.8118C44.1652 21.8278 44.2532 21.8918 44.4132 22.0038C44.5732 22.1158 44.6852 22.2998 44.7492 22.5558C44.9252 22.5558 45.0852 22.6278 45.2292 22.7718C45.3892 22.9158 45.4852 23.0598 45.5172 23.2038C45.5812 23.1398 45.7092 23.1078 45.9012 23.1078C46.0452 23.1078 46.1732 23.1318 46.2852 23.1798C46.3972 23.2278 46.4612 23.2838 46.4772 23.3478C46.5892 23.2838 46.7172 23.2518 46.8612 23.2518C47.0692 23.2518 47.2612 23.3238 47.4372 23.4678C47.5972 23.4358 47.7172 23.4198 47.7972 23.4198C47.9572 23.4198 48.0932 23.4438 48.2052 23.4918C48.2532 23.3638 48.3812 23.2438 48.5892 23.1318C48.7972 23.0038 49.0132 22.9478 49.2372 22.9638C49.3652 22.8038 49.5412 22.6758 49.7652 22.5798C49.9892 22.4838 50.2132 22.4358 50.4372 22.4358C50.8692 22.4358 51.1812 22.6118 51.3732 22.9638C51.4372 23.0918 51.4692 23.2438 51.4692 23.4198C51.4692 23.8038 51.2932 24.1078 50.9412 24.3318C50.8612 24.3798 50.7252 24.4678 50.5332 24.5958C50.3412 24.7078 50.1652 24.7958 50.0052 24.8598C49.8452 24.9238 49.7012 24.9558 49.5732 24.9558C49.3332 25.2438 49.0052 25.3878 48.5892 25.3878C48.3972 25.3878 48.2532 25.3718 48.1572 25.3398C47.9652 25.4998 47.6852 25.5798 47.3172 25.5798C46.9812 25.5798 46.7492 25.5158 46.6212 25.3878C46.5092 25.4358 46.3972 25.4598 46.2852 25.4598C46.0612 25.4598 45.8532 25.3798 45.6612 25.2198C44.8452 25.2678 44.2932 25.0118 44.0052 24.4518C43.7812 24.4518 43.5252 24.3158 43.2372 24.0438C42.9652 23.7558 42.8132 23.5078 42.7812 23.2998C42.4132 23.1558 42.1812 22.8918 42.0852 22.5078C42.0692 22.3798 42.0692 22.2598 42.0852 22.1478C42.0212 22.1318 41.9652 22.0678 41.9172 21.9558C41.8852 21.8278 41.8692 21.6998 41.8692 21.5718C41.8692 21.4758 41.8772 21.4118 41.8932 21.3798C41.7652 20.9958 41.7012 20.6438 41.7012 20.3238C41.7012 20.0038 41.7652 19.7158 41.8932 19.4598C41.7972 19.2838 41.7492 19.0918 41.7492 18.8838C41.7492 18.6278 41.8052 18.3718 41.9172 18.1158C42.0292 17.8598 42.1332 17.6918 42.2292 17.6118C42.1972 17.5318 42.2212 17.3958 42.3012 17.2038C42.3812 16.9958 42.4852 16.8118 42.6132 16.6518C42.7572 16.4758 42.9012 16.3718 43.0452 16.3398L43.0212 16.0758C43.0212 15.4518 43.3572 15.0598 44.0292 14.8998C44.0292 14.6278 44.1892 14.3638 44.5092 14.1078C44.8292 13.8518 45.1092 13.7398 45.3492 13.7718C45.3812 13.5958 45.5332 13.4598 45.8052 13.3638C46.0932 13.2518 46.3092 13.2198 46.4532 13.2678C46.5812 13.0598 46.8372 12.9158 47.2212 12.8358C47.3652 12.6758 47.5732 12.5958 47.8452 12.5958C47.9252 12.5958 48.0292 12.6118 48.1572 12.6438L48.3732 12.6198C48.5652 12.6198 48.7252 12.6598 48.8532 12.7398C48.9972 12.8038 49.0612 12.8838 49.0452 12.9798C49.3972 13.0118 49.6932 13.0918 49.9332 13.2198C50.1732 13.3478 50.3172 13.5798 50.3652 13.9158C50.5732 13.8678 50.8372 13.9238 51.1572 14.0838C51.4772 14.2278 51.7492 14.4598 51.9732 14.7798C52.2132 15.0838 52.3332 15.4438 52.3332 15.8598C52.3332 15.9558 52.3172 16.0998 52.2852 16.2918ZM48.7572 17.8518C48.9172 17.6278 49.3092 17.5158 49.9332 17.5158C50.2852 17.5158 50.5572 17.5478 50.7492 17.6118C50.6212 17.5478 50.5012 17.4118 50.3892 17.2038C50.2932 16.9798 50.2452 16.7718 50.2452 16.5798C50.2452 16.4518 50.2692 16.3558 50.3172 16.2918C50.0932 16.3078 49.9012 16.2518 49.7412 16.1238C49.5972 15.9798 49.4612 15.8198 49.3332 15.6438C49.2212 15.4678 49.1332 15.3398 49.0692 15.2598C48.9892 15.3078 48.8212 15.2678 48.5652 15.1398C48.3252 14.9958 48.1972 14.8518 48.1812 14.7078C48.1172 14.7878 47.9812 14.8598 47.7732 14.9238C47.5652 14.9718 47.4052 14.9878 47.2932 14.9718C47.2452 15.0518 47.1332 15.1318 46.9572 15.2118C46.7812 15.2918 46.5972 15.3158 46.4052 15.2838C46.2452 15.5878 46.0772 15.8358 45.9012 16.0278C45.7252 16.2198 45.5012 16.3638 45.2292 16.4598C45.1972 16.6838 45.0932 16.9318 44.9172 17.2038C44.7572 17.4758 44.5892 17.6838 44.4132 17.8278L44.5092 17.8518C44.7332 17.6918 45.0372 17.6118 45.4212 17.6118C45.6452 17.6118 45.8532 17.6358 46.0452 17.6838C46.2532 17.7318 46.3972 17.7878 46.4772 17.8518C46.8612 17.6118 47.2852 17.4918 47.7492 17.4918C48.1332 17.4918 48.4692 17.6118 48.7572 17.8518ZM56.4412 24.5478C56.5052 24.8998 56.4332 25.1798 56.2252 25.3878C56.0332 25.5798 55.7932 25.6758 55.5052 25.6758C55.2492 25.6758 55.0252 25.5958 54.8332 25.4358C54.6412 25.2598 54.5452 25.0198 54.5452 24.7158C54.5452 24.5238 54.5932 24.3078 54.6892 24.0678C54.5932 23.8438 54.5452 23.6118 54.5452 23.3718C54.5452 23.1798 54.5852 23.0198 54.6652 22.8918C54.5692 22.8278 54.4972 22.7318 54.4492 22.6038C54.4012 22.4758 54.3772 22.3318 54.3772 22.1718C54.3772 22.0118 54.4092 21.8358 54.4732 21.6438C54.3292 21.4678 54.2572 21.2598 54.2572 21.0198C54.2572 20.7158 54.3692 20.4678 54.5932 20.2758C54.5772 20.2278 54.5692 20.1478 54.5692 20.0358C54.5692 19.8758 54.5852 19.7638 54.6172 19.6998C54.4412 19.4758 54.3532 19.1558 54.3532 18.7398C54.3532 18.4518 54.4092 18.2278 54.5212 18.0678C54.4092 17.9718 54.3132 17.8438 54.2332 17.6838C54.1532 17.5078 54.1132 17.3318 54.1132 17.1558C54.1132 16.9638 54.1692 16.7798 54.2812 16.6038C54.2012 16.4118 54.1612 16.2438 54.1612 16.0998C54.1612 15.8598 54.2332 15.6358 54.3772 15.4278C54.1852 15.2358 54.0892 15.0358 54.0892 14.8278C54.0892 14.6678 54.1452 14.4518 54.2572 14.1798C54.1452 13.9558 54.0892 13.7158 54.0892 13.4598C54.0892 13.1238 54.2092 12.9158 54.4492 12.8358C54.4652 12.6118 54.5452 12.4278 54.6892 12.2838C54.8332 12.1398 55.0092 12.0678 55.2172 12.0678C55.4572 12.0678 55.6652 12.1878 55.8412 12.4278C56.0332 12.6518 56.1292 12.9798 56.1292 13.4118C56.1292 13.5878 56.1212 13.7318 56.1052 13.8438C56.1692 13.8118 56.2332 13.7638 56.2972 13.6998C56.3612 13.6198 56.4412 13.5638 56.5372 13.5318C56.6332 13.4998 56.7772 13.4838 56.9692 13.4838C57.0012 13.4038 57.1052 13.3238 57.2812 13.2438C57.4732 13.1638 57.6572 13.1238 57.8332 13.1238C57.9612 13.1238 58.0492 13.1398 58.0972 13.1718C58.2252 13.1078 58.3532 13.0758 58.4812 13.0758C58.6732 13.0758 58.8812 13.2118 59.1052 13.4838C59.4892 13.4518 59.7692 13.5398 59.9452 13.7478C60.2012 13.7318 60.4252 13.7638 60.6172 13.8438C60.8092 13.9238 60.9612 14.0918 61.0732 14.3478C61.3772 14.5398 61.5292 14.7958 61.5292 15.1158C61.5292 15.3878 61.4092 15.6438 61.1692 15.8838C60.9452 16.1078 60.6972 16.2198 60.4252 16.2198C60.1212 16.2198 59.8652 16.0598 59.6572 15.7398C59.4812 15.7398 59.3452 15.7238 59.2492 15.6918C59.1532 15.6598 59.0572 15.5878 58.9612 15.4758C58.8652 15.5078 58.7852 15.5238 58.7212 15.5238C58.5772 15.5238 58.4252 15.4838 58.2652 15.4038C58.0412 15.5478 57.8012 15.6118 57.5452 15.5958C57.4492 15.8198 57.2012 15.9318 56.8012 15.9318C56.8172 15.9798 56.8252 16.0598 56.8252 16.1718C56.8252 16.3798 56.7772 16.5878 56.6812 16.7958C56.6012 16.9878 56.4972 17.1318 56.3692 17.2278C56.4972 17.5318 56.5612 17.8358 56.5612 18.1398C56.5612 18.4118 56.4972 18.6198 56.3692 18.7638C56.4172 18.8278 56.4652 18.9078 56.5132 19.0038C56.5772 19.0998 56.6252 19.1878 56.6572 19.2678C56.6892 19.3958 56.7052 19.4918 56.7052 19.5558C56.7052 19.6678 56.6652 19.8198 56.5852 20.0118C56.6652 20.2038 56.7052 20.3478 56.7052 20.4438C56.7052 20.5718 56.6492 20.7478 56.5372 20.9718C56.6332 21.1318 56.6812 21.3078 56.6812 21.4998C56.6812 21.7238 56.6252 21.9158 56.5132 22.0758C56.6252 22.3318 56.6812 22.5958 56.6812 22.8678C56.6812 23.0758 56.6332 23.2678 56.5372 23.4438C56.6172 23.6038 56.6572 23.7638 56.6572 23.9238C56.6572 24.1478 56.5852 24.3558 56.4412 24.5478Z" fill="white"/>
</svg>
