<svg width="42" height="41" viewBox="0 0 42 41" fill="none" xmlns="http://www.w3.org/2000/svg">
<path d="M21.9822 3.76126C25.8025 -0.291913 32.6035 2.59496 32.3417 8.15867L32.1136 13.0056C32.0313 14.7548 32.7173 16.4527 33.9916 17.6538L37.5226 20.982C41.5758 24.8024 38.6889 31.6034 33.1252 31.3416L28.2783 31.1135C26.529 31.0312 24.8312 31.7172 23.6301 32.9915L20.3018 36.5225C16.4815 40.5757 9.68051 37.6888 9.94231 32.1251L10.1704 27.2781C10.2527 25.5289 9.56671 23.831 8.29241 22.6299L4.76139 19.3017C0.708222 15.4813 3.5951 8.68037 9.15881 8.94217L14.0058 9.17025C15.755 9.25256 17.4529 8.56658 18.654 7.29228L21.9822 3.76126Z" fill="#F3B8FF"/>
<path d="M31.5349 12.636L29.7616 14.3983L31.5349 12.636ZM33.122 14.233L34.8953 12.4708L33.122 14.233ZM34.0945 15.9642L36.5497 15.493L34.0945 15.9642ZM34.2736 16.8969L31.8184 17.3681L34.2736 16.8969ZM34.4526 17.8295L31.9974 18.3008L34.4526 17.8295ZM35.6317 19.0785L34.8779 21.4621L35.6317 19.0785ZM36.6318 19.3948L37.3856 17.0111L36.6318 19.3948ZM37.6319 19.7111L38.3858 17.3274L37.6319 19.7111ZM38.5743 21.1413L36.0777 21.0118V21.0118L38.5743 21.1413ZM38.4588 23.3692L35.9621 23.2398V23.2398L38.4588 23.3692ZM38.2025 25.212L40.6147 25.8689L38.2025 25.212ZM37.8056 26.6695L35.3934 26.0126L37.8056 26.6695ZM37.4471 28.5404L39.9229 28.8873L37.4471 28.5404ZM37.287 29.6825L34.8112 29.3356L37.287 29.6825ZM37.127 30.8246L34.6512 30.4777L37.127 30.8246ZM35.8811 31.806L35.515 34.279L35.8811 31.806ZM33.7096 31.4845L34.0757 29.0114L33.7096 31.4845ZM31.6981 31.0513L32.4038 28.653L31.6981 31.0513ZM30.7724 30.7789L31.4781 28.3806L30.7724 30.7789ZM29.8466 30.5065L29.1409 32.9048L29.8466 30.5065ZM27.9801 30.5821L28.8475 32.9268L27.9801 30.5821ZM26.0985 31.2782L25.2311 28.9335L26.0985 31.2782ZM24.4657 32.2689L22.7645 30.4371L24.4657 32.2689ZM23.0819 33.5541L24.7832 35.386L23.0819 33.5541ZM21.868 35.0159L19.7596 33.6725L21.868 35.0159ZM20.8242 36.6542L22.9326 37.9976L20.8242 36.6542ZM19.3299 37.5577L19.114 35.067L19.3299 37.5577ZM17.3852 37.7263L17.6012 40.2169L17.3852 37.7263ZM13.9142 37.3493L14.368 34.8908L13.9142 37.3493ZM12.554 36.5387L10.6044 38.1036L12.554 36.5387ZM12.0268 35.8818L13.9764 34.3168L12.0268 35.8818ZM11.4995 35.2249L13.4491 33.66L11.4995 35.2249ZM10.7175 33.7063L8.32005 34.415L10.7175 33.7063ZM10.208 31.9828L12.6054 31.2741L10.208 31.9828ZM10.2217 30.1952L12.6228 30.8914L10.2217 30.1952ZM10.4902 29.2693L8.08907 28.573L10.4902 29.2693ZM10.7586 28.3434L8.35754 27.6471L10.7586 28.3434ZM10.731 26.4211L13.1275 25.709L10.731 26.4211ZM10.1389 24.4284L7.74247 25.1405L10.1389 24.4284ZM8.18933 20.9133L6.09945 22.2853L8.18933 20.9133ZM7.00004 19.4714L5.28398 21.2894L7.00004 19.4714ZM5.72378 18.2667L7.43985 16.4487L5.72378 18.2667ZM4.44277 16.9876L6.2553 15.2658L4.44277 16.9876ZM3.79989 16.3109L5.61241 14.5891L3.79989 16.3109ZM3.157 15.6342L1.34448 17.356L3.157 15.6342ZM2.71707 13.9615L0.267413 13.4623L2.71707 13.9615ZM2.92002 12.9655L5.36968 13.4647L2.92002 12.9655ZM4.18692 10.4071L2.81276 8.31862L4.18692 10.4071ZM5.90889 9.27407L7.28305 11.3625L5.90889 9.27407ZM7.74348 8.77307L7.57567 11.2674L7.74348 8.77307ZM8.71709 8.83856L8.8849 6.3442L8.71709 8.83856ZM9.69069 8.90407L9.52288 11.3984L9.69069 8.90407ZM12.5344 8.97428L12.5281 11.4743L12.5344 8.97428ZM13.4695 8.97664L13.4758 6.47665L13.4695 8.97664ZM15.427 8.92586L15.5567 11.4225L15.427 8.92586ZM17.4718 8.81958L17.342 6.32295L17.4718 8.81958ZM18.9791 7.87909L21.1729 9.07804L18.9791 7.87909ZM19.9491 6.10441L17.7553 4.90545L19.9491 6.10441ZM21.0822 4.50962L22.9255 6.19847L21.0822 4.50962ZM22.3785 3.09475L24.2218 4.7836L22.3785 3.09475ZM23.9473 2.59137L24.4883 0.150608L23.9473 2.59137ZM25.7887 2.9995L25.2477 5.44026L25.7887 2.9995ZM27.406 3.4495L26.5737 5.8069L27.406 3.4495ZM28.7992 3.94139L29.6315 1.58399L28.7992 3.94139ZM30.1321 4.75572L31.7977 2.89131L30.1321 4.75572ZM30.7684 5.3241L32.4339 3.45969L30.7684 5.3241ZM31.4046 5.89249L29.7391 7.7569L31.4046 5.89249ZM32.1161 6.88533L34.5778 6.44919L32.1161 6.88533ZM32.2665 7.73422L29.8049 8.17036L32.2665 7.73422ZM31.5415 9.9981L29.2491 9.00083L28.849 9.92054L31.1414 10.9178L33.4339 11.9151L33.834 10.9954L31.5415 9.9981ZM31.1414 10.9178L28.849 9.92054C28.5332 10.6463 28.402 11.4881 28.6028 12.3652C28.798 13.2176 29.2579 13.8914 29.7616 14.3983L31.5349 12.636L33.3082 10.8738C33.2828 10.8483 33.4127 10.9695 33.4767 11.2492C33.5464 11.5536 33.4829 11.8024 33.4339 11.9151L31.1414 10.9178ZM31.5349 12.636L29.7616 14.3983L30.5552 15.1968L32.3284 13.4345L34.1017 11.6723L33.3082 10.8738L31.5349 12.636ZM32.3284 13.4345L30.5552 15.1968L31.3487 15.9953L33.122 14.233L34.8953 12.4708L34.1017 11.6723L32.3284 13.4345ZM33.122 14.233L31.3487 15.9953C31.5933 16.2415 31.6301 16.3872 31.6394 16.4355L34.0945 15.9642L36.5497 15.493C36.3203 14.2977 35.7087 13.2893 34.8953 12.4708L33.122 14.233ZM34.0945 15.9642L31.6394 16.4355L31.8184 17.3681L34.2736 16.8969L36.7287 16.4256L36.5497 15.493L34.0945 15.9642ZM34.2736 16.8969L31.8184 17.3681L31.9974 18.3008L34.4526 17.8295L36.9078 17.3583L36.7287 16.4256L34.2736 16.8969ZM34.4526 17.8295L31.9974 18.3008C32.1369 19.0277 32.4619 19.7342 33.019 20.3243C33.5657 20.9034 34.228 21.2566 34.8779 21.4621L35.6317 19.0785L36.3855 16.6948C36.3687 16.6895 36.5011 16.7291 36.6547 16.8919C36.8188 17.0656 36.8876 17.2532 36.9078 17.3583L34.4526 17.8295ZM35.6317 19.0785L34.8779 21.4621L35.878 21.7784L36.6318 19.3948L37.3856 17.0111L36.3855 16.6948L35.6317 19.0785ZM36.6318 19.3948L35.878 21.7784L36.8781 22.0947L37.6319 19.7111L38.3858 17.3274L37.3856 17.0111L36.6318 19.3948ZM37.6319 19.7111L36.8781 22.0947C36.7913 22.0672 36.5048 21.9435 36.28 21.6022C36.066 21.2775 36.0776 21.0121 36.0777 21.0118L38.5743 21.1413L41.0709 21.2708C41.1095 20.5279 40.9833 19.6528 40.4552 18.8513C39.9162 18.0333 39.1393 17.5657 38.3858 17.3274L37.6319 19.7111ZM38.5743 21.1413L36.0777 21.0118L36.0199 22.1258L38.5165 22.2553L41.0132 22.3847L41.0709 21.2708L38.5743 21.1413ZM38.5165 22.2553L36.0199 22.1258L35.9621 23.2398L38.4588 23.3692L40.9554 23.4987L41.0132 22.3847L38.5165 22.2553ZM38.4588 23.3692L35.9621 23.2398C35.9289 23.88 35.8593 24.3019 35.7904 24.555L38.2025 25.212L40.6147 25.8689C40.8104 25.1503 40.9116 24.3437 40.9554 23.4987L38.4588 23.3692ZM38.2025 25.212L35.7904 24.555L35.5919 25.2838L38.0041 25.9407L40.4162 26.5977L40.6147 25.8689L38.2025 25.212ZM38.0041 25.9407L35.5919 25.2838L35.3934 26.0126L37.8056 26.6695L40.2177 27.3264L40.4162 26.5977L38.0041 25.9407ZM37.8056 26.6695L35.3934 26.0126C35.223 26.6385 35.0858 27.3758 34.9713 28.1935L37.4471 28.5404L39.9229 28.8873C40.0217 28.1822 40.1236 27.6723 40.2177 27.3264L37.8056 26.6695ZM37.4471 28.5404L34.9713 28.1935L34.8112 29.3356L37.287 29.6825L39.7628 30.0295L39.9229 28.8873L37.4471 28.5404ZM37.287 29.6825L34.8112 29.3356L34.6512 30.4777L37.127 30.8246L39.6028 31.1716L39.7628 30.0295L37.287 29.6825ZM37.127 30.8246L34.6512 30.4777C34.6515 30.4757 34.6548 30.4523 34.6661 30.4121C34.6774 30.3719 34.6982 30.3098 34.7349 30.2333C34.8113 30.0739 34.9523 29.8632 35.1885 29.6771C35.7031 29.2718 36.1975 29.3256 36.2473 29.3329L35.8811 31.806L35.515 34.279C36.2886 34.3936 37.3526 34.3374 38.2825 33.6049C39.1867 32.8926 39.5004 31.9025 39.6028 31.1716L37.127 30.8246ZM35.8811 31.806L36.2473 29.3329L35.1615 29.1722L34.7954 31.6452L34.4292 34.1183L35.515 34.279L35.8811 31.806ZM34.7954 31.6452L35.1615 29.1722L34.0757 29.0114L33.7096 31.4845L33.3434 33.9575L34.4292 34.1183L34.7954 31.6452ZM33.7096 31.4845L34.0757 29.0114C33.4514 28.919 32.8957 28.7978 32.4038 28.653L31.6981 31.0513L30.9923 33.4496C31.7347 33.6681 32.5201 33.8356 33.3434 33.9575L33.7096 31.4845ZM31.6981 31.0513L32.4038 28.653L31.4781 28.3806L30.7724 30.7789L30.0666 33.1772L30.9923 33.4496L31.6981 31.0513ZM30.7724 30.7789L31.4781 28.3806L30.5524 28.1082L29.8466 30.5065L29.1409 32.9048L30.0666 33.1772L30.7724 30.7789ZM29.8466 30.5065L30.5524 28.1082C29.3973 27.7682 28.2234 27.8265 27.1127 28.2374L27.9801 30.5821L28.8475 32.9268C28.9912 32.8737 29.0617 32.8815 29.1409 32.9048L29.8466 30.5065ZM27.9801 30.5821L27.1127 28.2374L26.1719 28.5855L27.0393 30.9302L27.9067 33.2749L28.8475 32.9268L27.9801 30.5821ZM27.0393 30.9302L26.1719 28.5855L25.2311 28.9335L26.0985 31.2782L26.9659 33.6229L27.9067 33.2749L27.0393 30.9302ZM26.0985 31.2782L25.2311 28.9335C24.3143 29.2727 23.482 29.7707 22.7645 30.4371L24.4657 32.2689L26.167 34.1007C26.3721 33.9103 26.6282 33.7478 26.9659 33.6229L26.0985 31.2782ZM24.4657 32.2689L22.7645 30.4371L22.0725 31.0797L23.7738 32.9115L25.4751 34.7433L26.167 34.1007L24.4657 32.2689ZM23.7738 32.9115L22.0725 31.0797L21.3806 31.7223L23.0819 33.5541L24.7832 35.386L25.4751 34.7433L23.7738 32.9115ZM23.0819 33.5541L21.3806 31.7223C20.759 32.2996 20.2187 32.9521 19.7596 33.6725L21.868 35.0159L23.9764 36.3593C24.2133 35.9875 24.4823 35.6655 24.7832 35.386L23.0819 33.5541ZM21.868 35.0159L19.7596 33.6725L19.2377 34.4917L21.3461 35.8351L23.4545 37.1784L23.9764 36.3593L21.868 35.0159ZM21.3461 35.8351L19.2377 34.4917L18.7158 35.3108L20.8242 36.6542L22.9326 37.9976L23.4545 37.1784L21.3461 35.8351ZM20.8242 36.6542L18.7158 35.3108C18.725 35.2963 18.7804 35.2203 18.8962 35.1503C19.0116 35.0805 19.1021 35.068 19.114 35.067L19.3299 37.5577L19.5458 40.0483C20.9646 39.9253 22.1643 39.2034 22.9326 37.9976L20.8242 36.6542ZM19.3299 37.5577L19.114 35.067L18.1416 35.1513L18.3576 37.642L18.5735 40.1326L19.5458 40.0483L19.3299 37.5577ZM18.3576 37.642L18.1416 35.1513L17.1693 35.2356L17.3852 37.7263L17.6012 40.2169L18.5735 40.1326L18.3576 37.642ZM17.3852 37.7263L17.1693 35.2356C16.7115 35.2753 16.3377 35.2544 16.0338 35.1983L15.58 37.6568L15.1262 40.1153C15.9328 40.2642 16.7625 40.2896 17.6012 40.2169L17.3852 37.7263ZM15.58 37.6568L16.0338 35.1983L15.2009 35.0446L14.7471 37.503L14.2933 39.9615L15.1262 40.1153L15.58 37.6568ZM14.7471 37.503L15.2009 35.0446L14.368 34.8908L13.9142 37.3493L13.4604 39.8078L14.2933 39.9615L14.7471 37.503ZM13.9142 37.3493L14.368 34.8908C14.3615 34.8896 14.3923 34.8952 14.4376 34.9222C14.4582 34.9345 14.4753 34.9474 14.4881 34.9587C14.5007 34.9698 14.5056 34.9761 14.5037 34.9737L12.554 36.5387L10.6044 38.1036C11.3335 39.0119 12.3191 39.5971 13.4604 39.8078L13.9142 37.3493ZM12.554 36.5387L14.5037 34.9737L13.9764 34.3168L12.0268 35.8818L10.0771 37.4467L10.6044 38.1036L12.554 36.5387ZM12.0268 35.8818L13.9764 34.3168L13.4491 33.66L11.4995 35.2249L9.54987 36.7898L10.0771 37.4467L12.0268 35.8818ZM11.4995 35.2249L13.4491 33.66C13.3145 33.4922 13.1988 33.2813 13.1149 32.9975L10.7175 33.7063L8.32005 34.415C8.57583 35.2802 8.98152 36.0817 9.54987 36.7898L11.4995 35.2249ZM10.7175 33.7063L13.1149 32.9975L12.8602 32.1358L10.4627 32.8445L8.0653 33.5533L8.32005 34.415L10.7175 33.7063ZM10.4627 32.8445L12.8602 32.1358L12.6054 31.2741L10.208 31.9828L7.81055 32.6915L8.0653 33.5533L10.4627 32.8445ZM10.208 31.9828L12.6054 31.2741C12.581 31.1916 12.5668 31.0845 12.6228 30.8914L10.2217 30.1952L7.8206 29.499C7.51865 30.5403 7.49527 31.6251 7.81055 32.6915L10.208 31.9828ZM10.2217 30.1952L12.6228 30.8914L12.8913 29.9655L10.4902 29.2693L8.08907 28.573L7.8206 29.499L10.2217 30.1952ZM10.4902 29.2693L12.8913 29.9655L13.1597 29.0396L10.7586 28.3434L8.35754 27.6471L8.08907 28.573L10.4902 29.2693ZM10.7586 28.3434L13.1597 29.0396C13.4826 27.926 13.4502 26.7951 13.1275 25.709L10.731 26.4211L8.33461 27.1332C8.40664 27.3756 8.3926 27.5262 8.35754 27.6471L10.7586 28.3434ZM10.731 26.4211L13.1275 25.709L12.8314 24.7126L10.435 25.4247L8.03854 26.1368L8.33461 27.1332L10.731 26.4211ZM10.435 25.4247L12.8314 24.7126L12.5353 23.7163L10.1389 24.4284L7.74247 25.1405L8.03854 26.1368L10.435 25.4247ZM10.1389 24.4284L12.5353 23.7163C12.271 22.8265 11.8875 21.9911 11.3816 21.2205L9.29167 22.5925L7.20179 23.9645C7.43079 24.3133 7.61211 24.7018 7.74247 25.1405L10.1389 24.4284ZM9.29167 22.5925L11.3816 21.2205L10.8304 20.3809L8.7405 21.7529L6.65062 23.1249L7.20179 23.9645L9.29167 22.5925ZM8.7405 21.7529L10.8304 20.3809L10.2792 19.5413L8.18933 20.9133L6.09945 22.2853L6.65062 23.1249L8.7405 21.7529ZM8.18933 20.9133L10.2792 19.5413C9.81999 18.8418 9.30169 18.2062 8.7161 17.6534L7.00004 19.4714L5.28398 21.2894C5.54922 21.5398 5.82379 21.8654 6.09945 22.2853L8.18933 20.9133ZM7.00004 19.4714L8.7161 17.6534L8.07797 17.0511L6.36191 18.8691L4.64585 20.6871L5.28398 21.2894L7.00004 19.4714ZM6.36191 18.8691L8.07797 17.0511L7.43985 16.4487L5.72378 18.2667L4.00772 20.0847L4.64585 20.6871L6.36191 18.8691ZM5.72378 18.2667L7.43985 16.4487C7.04946 16.0802 6.65458 15.6861 6.2553 15.2658L4.44277 16.9876L2.63025 18.7095C3.08815 19.1915 3.54728 19.6501 4.00772 20.0847L5.72378 18.2667ZM4.44277 16.9876L6.2553 15.2658L5.61241 14.5891L3.79989 16.3109L1.98736 18.0327L2.63025 18.7095L4.44277 16.9876ZM3.79989 16.3109L5.61241 14.5891L4.96952 13.9123L3.157 15.6342L1.34448 17.356L1.98736 18.0327L3.79989 16.3109ZM3.157 15.6342L4.96952 13.9123C5.02154 13.9671 5.10117 14.0813 5.14335 14.2417C5.18328 14.3935 5.16229 14.4824 5.16672 14.4606L2.71707 13.9615L0.267413 13.4623C-0.0139068 14.8428 0.297407 16.2538 1.34448 17.356L3.157 15.6342ZM2.71707 13.9615L5.16672 14.4606L5.36968 13.4647L2.92002 12.9655L0.470366 12.4663L0.267413 13.4623L2.71707 13.9615ZM2.92002 12.9655L5.36968 13.4647L5.57263 12.4687L3.12298 11.9695L0.67332 11.4704L0.470366 12.4663L2.92002 12.9655ZM3.12298 11.9695L5.57263 12.4687C5.57644 12.4501 5.57884 12.4465 5.57584 12.4538C5.57443 12.4572 5.57213 12.4622 5.56874 12.4685C5.56535 12.4748 5.56135 12.4814 5.55685 12.4881C5.55235 12.4947 5.54794 12.5004 5.54398 12.5051C5.54004 12.5097 5.53716 12.5127 5.53591 12.5139C5.53312 12.5166 5.53962 12.5097 5.56107 12.4956L4.18692 10.4071L2.81276 8.31862C1.69186 9.05614 0.943507 10.1445 0.67332 11.4704L3.12298 11.9695ZM4.18692 10.4071L5.56107 12.4956L6.42206 11.929L5.0479 9.84058L3.67374 7.75211L2.81276 8.31862L4.18692 10.4071ZM5.0479 9.84058L6.42206 11.929L7.28305 11.3625L5.90889 9.27407L4.53473 7.1856L3.67374 7.75211L5.0479 9.84058ZM5.90889 9.27407L7.28305 11.3625C7.42851 11.2668 7.50294 11.2625 7.57567 11.2674L7.74348 8.77307L7.91129 6.2787C6.68588 6.19626 5.53724 6.52597 4.53473 7.1856L5.90889 9.27407ZM7.74348 8.77307L7.57567 11.2674L8.54927 11.3329L8.71709 8.83856L8.8849 6.3442L7.91129 6.2787L7.74348 8.77307ZM8.71709 8.83856L8.54927 11.3329L9.52288 11.3984L9.69069 8.90407L9.85851 6.40971L8.8849 6.3442L8.71709 8.83856ZM9.69069 8.90407L9.52288 11.3984C10.2234 11.4456 10.9135 11.4702 11.5931 11.4719L11.5994 8.97193L11.6057 6.47193C11.0384 6.4705 10.4561 6.44991 9.85851 6.40971L9.69069 8.90407ZM11.5994 8.97193L11.5931 11.4719L12.5281 11.4743L12.5344 8.97428L12.5407 6.47429L11.6057 6.47193L11.5994 8.97193ZM12.5344 8.97428L12.5281 11.4743L13.4632 11.4766L13.4695 8.97664L13.4758 6.47665L12.5407 6.47429L12.5344 8.97428ZM13.4695 8.97664L13.4632 11.4766C14.136 11.4783 14.834 11.46 15.5567 11.4225L15.427 8.92586L15.2972 6.42922C14.6567 6.46251 14.0498 6.47809 13.4758 6.47665L13.4695 8.97664ZM15.427 8.92586L15.5567 11.4225L16.5791 11.3693L16.4494 8.87272L16.3196 6.37609L15.2972 6.42922L15.427 8.92586ZM16.4494 8.87272L16.5791 11.3693L17.6015 11.3162L17.4718 8.81958L17.342 6.32295L16.3196 6.37609L16.4494 8.87272ZM17.4718 8.81958L17.6015 11.3162C19.1365 11.2364 20.4271 10.4426 21.1729 9.07804L18.9791 7.87909L16.7854 6.68014C16.8009 6.6518 16.8752 6.5375 17.0365 6.43687C17.1964 6.33707 17.3247 6.32385 17.342 6.32295L17.4718 8.81958ZM18.9791 7.87909L21.1729 9.07804L21.6578 8.1907L19.4641 6.99175L17.2704 5.7928L16.7854 6.68014L18.9791 7.87909ZM19.4641 6.99175L21.6578 8.1907L22.1428 7.30336L19.9491 6.10441L17.7553 4.90545L17.2704 5.7928L19.4641 6.99175ZM19.9491 6.10441L22.1428 7.30336C22.3747 6.87911 22.6366 6.51373 22.9255 6.19847L21.0822 4.50962L19.2389 2.82078C18.6635 3.44877 18.1701 4.14658 17.7553 4.90545L19.9491 6.10441ZM21.0822 4.50962L22.9255 6.19847L23.5736 5.49103L21.7303 3.80219L19.887 2.11334L19.2389 2.82078L21.0822 4.50962ZM21.7303 3.80219L23.5736 5.49103L24.2218 4.7836L22.3785 3.09475L20.5352 1.4059L19.887 2.11334L21.7303 3.80219ZM22.3785 3.09475L24.2218 4.7836C24.193 4.81498 24.0747 4.92631 23.8586 4.99565C23.6401 5.06574 23.4684 5.0459 23.4063 5.03214L23.9473 2.59137L24.4883 0.150608C22.9838 -0.182849 21.5576 0.289939 20.5352 1.4059L22.3785 3.09475ZM23.9473 2.59137L23.4063 5.03214L24.327 5.2362L24.868 2.79544L25.409 0.354668L24.4883 0.150608L23.9473 2.59137ZM24.868 2.79544L24.327 5.2362L25.2477 5.44026L25.7887 2.9995L26.3296 0.558729L25.409 0.354668L24.868 2.79544ZM25.7887 2.9995L25.2477 5.44026C25.7883 5.56008 26.2264 5.68429 26.5737 5.8069L27.406 3.4495L28.2382 1.0921C27.6567 0.886789 27.0166 0.710993 26.3296 0.558729L25.7887 2.9995ZM27.406 3.4495L26.5737 5.8069L27.2703 6.05284L28.1026 3.69545L28.9349 1.33805L28.2382 1.0921L27.406 3.4495ZM28.1026 3.69545L27.2703 6.05284L27.967 6.29879L28.7992 3.94139L29.6315 1.58399L28.9349 1.33805L28.1026 3.69545ZM28.7992 3.94139L27.967 6.29879C28.0804 6.33882 28.2482 6.42501 28.4666 6.62013L30.1321 4.75572L31.7977 2.89131C31.1677 2.32858 30.447 1.87188 29.6315 1.58399L28.7992 3.94139ZM30.1321 4.75572L28.4666 6.62013L29.1029 7.18852L30.7684 5.3241L32.4339 3.45969L31.7977 2.89131L30.1321 4.75572ZM30.7684 5.3241L29.1029 7.18852L29.7391 7.7569L31.4046 5.89249L33.0702 4.02808L32.4339 3.45969L30.7684 5.3241ZM31.4046 5.89249L29.7391 7.7569C29.8639 7.86838 29.8896 7.91044 29.8685 7.88109C29.8556 7.86307 29.8197 7.81046 29.7791 7.72373C29.7383 7.63659 29.6862 7.50075 29.6544 7.32147L32.1161 6.88533L34.5778 6.44919C34.3717 5.28612 33.5663 4.4713 33.0702 4.02808L31.4046 5.89249ZM32.1161 6.88533L29.6544 7.32147L29.7296 7.74591L32.1913 7.30977L34.653 6.87364L34.5778 6.44919L32.1161 6.88533ZM32.1913 7.30977L29.7296 7.74591L29.8049 8.17036L32.2665 7.73422L34.7282 7.29808L34.653 6.87364L32.1913 7.30977ZM32.2665 7.73422L29.8049 8.17036C29.7717 7.98353 29.7771 7.84449 29.7823 7.77912C29.7877 7.71107 29.7965 7.68005 29.7929 7.69514C29.7897 7.70834 29.7792 7.74756 29.7548 7.81648C29.7308 7.88449 29.6966 7.97212 29.6491 8.08112L31.9416 9.07839L34.2341 10.0757C34.4018 9.69013 34.5535 9.28134 34.6529 8.86983C34.7448 8.48955 34.8389 7.92297 34.7282 7.29808L32.2665 7.73422ZM31.9416 9.07839L29.6491 8.08112L29.2491 9.00083L31.5415 9.9981L33.834 10.9954L34.2341 10.0757L31.9416 9.07839Z" fill="#F3B8FF"/>
<path d="M28.8959 11.6508L30.3746 11.9025L28.8959 11.6508ZM28.7889 12.772L27.2892 12.7402L28.7889 12.772ZM28.765 13.8971L27.2654 13.8653L28.765 13.8971ZM28.7292 15.0272L27.2305 14.9641L28.7292 15.0272ZM28.6814 16.1621L27.1828 16.099L28.6814 16.1621ZM28.9072 17.2618L27.5492 17.8989L28.9072 17.2618ZM29.1569 17.794L30.5149 17.157L29.1569 17.794ZM29.4066 18.3263L28.0486 18.9633L29.4066 18.3263ZM30.0995 19.2091L29.1688 20.3855L30.0995 19.2091ZM30.5427 19.5598L31.4734 18.3834L30.5427 19.5598ZM30.986 19.9104L30.0553 21.0868L30.986 19.9104ZM31.8886 20.5937L32.7683 19.3788L31.8886 20.5937ZM32.8075 21.259L31.9278 22.474L32.8075 21.259ZM33.6068 22.0483L32.4035 22.9439L33.6068 22.0483ZM34.2865 22.9616L33.0832 23.8571L34.2865 22.9616ZM34.7367 23.914L33.2725 24.2398L34.7367 23.914ZM34.847 24.4098L33.3828 24.7356L34.847 24.4098ZM34.9416 25.9022L33.487 25.5363L34.9416 25.9022ZM34.8156 26.4031L33.361 26.0372L34.8156 26.4031ZM34.6897 26.904L36.1443 27.2699L34.6897 26.904ZM34.0709 27.5923L34.6039 28.9944L34.0709 27.5923ZM33.0854 27.9669L33.6185 29.369L33.0854 27.9669ZM32.0339 28.1504L32.0442 26.6504L32.0339 28.1504ZM31.4751 28.1465L31.4648 29.6465L31.4751 28.1465ZM30.9163 28.1427L30.9266 26.6427L30.9163 28.1427ZM29.788 28.2747L29.4398 26.8157L29.788 28.2747ZM29.2185 28.4107L29.5667 29.8697L29.2185 28.4107ZM28.649 28.5466L28.3008 27.0875L28.649 28.5466ZM27.5232 28.538L27.146 29.9898L27.5232 28.538ZM26.9669 28.3935L27.3441 26.9417L26.9669 28.3935ZM26.4107 28.249L26.7878 26.7972L26.4107 28.249ZM25.3831 28.322L24.7544 26.9601L25.3831 28.322ZM24.9117 28.5396L24.2831 27.1777L24.9117 28.5396ZM24.4403 28.7572L25.0689 30.1191L24.4403 28.7572ZM23.6433 29.4298L24.8631 30.3027L23.6433 29.4298ZM22.992 30.34L24.2118 31.2129L22.992 30.34ZM22.1288 31.0614L21.4627 29.7174L22.1288 31.0614ZM21.0539 31.5942L21.72 32.9382L21.0539 31.5942ZM19.8373 33.5395L18.4468 32.977V32.977L19.8373 33.5395ZM19.0019 34.279L18.5769 32.8405L19.0019 34.279ZM17.7838 34.6389L18.2089 36.0775L17.7838 34.6389ZM16.6234 34.6315L16.1407 36.0517L16.6234 34.6315ZM15.5206 34.2566L16.0033 32.8364L15.5206 34.2566ZM14.6873 33.5686L13.3803 34.3045L14.6873 33.5686ZM14.4055 33.0679L15.7125 32.332L14.4055 33.0679ZM14.1236 32.5673L12.8165 33.3032L14.1236 32.5673ZM13.874 31.4998L12.3764 31.4146L13.874 31.4998ZM13.9385 30.3661L15.4361 30.4513L13.9385 30.3661ZM14.0902 29.2417L15.5569 29.5559L14.0902 29.2417ZM14.2096 28.6842L12.7429 28.37L14.2096 28.6842ZM14.329 28.1267L15.7957 28.4409L14.329 28.1267ZM14.4677 27.007L15.9669 27.0585L14.4677 27.007ZM14.5064 25.8826L13.0073 25.831L14.5064 25.8826ZM14.1593 24.8959L13.0238 25.876L14.1593 24.8959ZM13.4264 24.0469L14.5619 23.0668L13.4264 24.0469ZM12.9345 22.9957L14.4053 22.7011L12.9345 22.9957ZM12.8089 22.369L11.3382 22.6636L12.8089 22.369ZM12.1042 20.7768L11.2067 21.9786V21.9786L12.1042 20.7768ZM11.1969 20.0992L12.0944 18.8973V18.8973L11.1969 20.0992ZM10.3409 19.3671L9.29228 20.4396L10.3409 19.3671ZM8.61494 17.8197L7.74829 19.044L8.61494 17.8197ZM7.57654 17.0846L8.44318 15.8603L7.57654 17.0846ZM7.48902 15.5086L8.90161 16.0132L7.48902 15.5086ZM7.70487 14.9043L6.29228 14.3997L7.70487 14.9043ZM8.88946 13.5479L9.80939 14.7327L8.88946 13.5479ZM9.37384 13.1718L8.45391 11.987L9.37384 13.1718ZM10.4321 13.0963L9.73605 14.4251L10.4321 13.0963ZM11.5799 13.6976L12.2759 12.3689L11.5799 13.6976ZM12.7345 13.6227L11.9201 12.3631L12.7345 13.6227ZM13.3153 13.2471L12.5009 11.9875L13.3153 13.2471ZM13.8961 12.8716L14.7106 14.1312L13.8961 12.8716ZM15.0305 12.6994L14.5133 14.1074L15.0305 12.6994ZM17.1901 13.1564L16.7504 11.7222L17.1901 13.1564ZM17.689 13.0034L18.1287 14.4375L17.689 13.0034ZM18.1879 12.8504L18.6276 14.2846L18.1879 12.8504ZM19.0138 12.2754L17.8281 11.3568L19.0138 12.2754ZM19.3408 11.8534L18.155 10.9347L19.3408 11.8534ZM19.6678 11.4313L20.8536 12.35L19.6678 11.4313ZM20.5374 10.7478L21.1886 12.099L20.5374 10.7478ZM21.08 10.4863L21.7312 11.8375L21.08 10.4863ZM21.6226 10.2247L20.9714 8.87348L21.6226 10.2247ZM22.5795 9.58071L23.5971 10.6828L22.5795 9.58071ZM23.4081 8.81574L22.3906 7.71361L23.4081 8.81574ZM24.2647 8.24L23.664 6.8655L24.2647 8.24ZM25.1491 7.8535L25.7498 9.22799L25.1491 7.8535ZM27.745 7.65044L29.1668 7.1723L27.745 7.65044ZM28.0707 8.61875L29.4924 8.14061L28.0707 8.61875ZM28.3229 9.31396L26.9418 9.89925L28.3229 9.31396ZM28.4124 9.52501L29.7935 8.93972L28.4124 9.52501ZM28.5018 9.73606L27.1207 10.3214L28.5018 9.73606ZM28.7387 9.95405L28.8092 8.45571L28.7387 9.95405ZM28.8862 9.96099L28.8157 11.4593L28.8862 9.96099ZM29.0337 9.96793L28.9632 11.4663L29.0337 9.96793ZM29.0861 10.5335L27.6073 10.2818L29.0861 10.5335ZM28.991 11.0922L27.5122 10.8405L27.4172 11.3991L28.8959 11.6508L30.3746 11.9025L30.4697 11.3438L28.991 11.0922ZM28.8959 11.6508L27.4172 11.3991C27.3415 11.8437 27.2987 12.291 27.2892 12.7402L28.7889 12.772L30.2885 12.8038C30.2949 12.503 30.3235 12.2028 30.3746 11.9025L28.8959 11.6508ZM28.7889 12.772L27.2892 12.7402L27.2773 13.3028L28.777 13.3346L30.2766 13.3664L30.2885 12.8038L28.7889 12.772ZM28.777 13.3346L27.2773 13.3028L27.2654 13.8653L28.765 13.8971L30.2647 13.9289L30.2766 13.3664L28.777 13.3346ZM28.765 13.8971L27.2654 13.8653C27.2576 14.2299 27.246 14.5961 27.2305 14.9641L28.7292 15.0272L30.2279 15.0903C30.2442 14.7016 30.2565 14.3145 30.2647 13.9289L28.765 13.8971ZM28.7292 15.0272L27.2305 14.9641L27.2067 15.5316L28.7053 15.5947L30.204 15.6578L30.2279 15.0903L28.7292 15.0272ZM28.7053 15.5947L27.2067 15.5316L27.1828 16.099L28.6814 16.1621L30.1801 16.2252L30.204 15.6578L28.7053 15.5947ZM28.6814 16.1621L27.1828 16.099C27.1563 16.7273 27.2839 17.3334 27.5492 17.8989L28.9072 17.2618L30.2652 16.6247C30.1976 16.4807 30.1747 16.3536 30.1801 16.2252L28.6814 16.1621ZM28.9072 17.2618L27.5492 17.8989L27.7989 18.4311L29.1569 17.794L30.5149 17.157L30.2652 16.6247L28.9072 17.2618ZM29.1569 17.794L27.7989 18.4311L28.0486 18.9633L29.4066 18.3263L30.7646 17.6892L30.5149 17.157L29.1569 17.794ZM29.4066 18.3263L28.0486 18.9633C28.3097 19.5199 28.6836 20.0016 29.1688 20.3855L30.0995 19.2091L31.0302 18.0327C30.9244 17.9491 30.8364 17.8422 30.7646 17.6892L29.4066 18.3263ZM30.0995 19.2091L29.1688 20.3855L29.6121 20.7361L30.5427 19.5598L31.4734 18.3834L31.0302 18.0327L30.0995 19.2091ZM30.5427 19.5598L29.6121 20.7361L30.0553 21.0868L30.986 19.9104L31.9166 18.734L31.4734 18.3834L30.5427 19.5598ZM30.986 19.9104L30.0553 21.0868C30.3675 21.3338 30.6854 21.5745 31.0089 21.8087L31.8886 20.5937L32.7683 19.3788C32.4792 19.1694 32.1953 18.9545 31.9166 18.734L30.986 19.9104ZM31.8886 20.5937L31.0089 21.8087L31.4684 22.1413L32.3481 20.9264L33.2277 19.7114L32.7683 19.3788L31.8886 20.5937ZM32.3481 20.9264L31.4684 22.1413L31.9278 22.474L32.8075 21.259L33.6872 20.0441L33.2277 19.7114L32.3481 20.9264ZM32.8075 21.259L31.9278 22.474C32.1102 22.6061 32.2676 22.7613 32.4035 22.9439L33.6068 22.0483L34.8101 21.1527C34.4928 20.7265 34.1174 20.3556 33.6872 20.0441L32.8075 21.259ZM33.6068 22.0483L32.4035 22.9439L32.7433 23.4005L33.9466 22.5049L35.1499 21.6094L34.8101 21.1527L33.6068 22.0483ZM33.9466 22.5049L32.7433 23.4005L33.0832 23.8571L34.2865 22.9616L35.4898 22.066L35.1499 21.6094L33.9466 22.5049ZM34.2865 22.9616L33.0832 23.8571C33.1989 24.0126 33.25 24.139 33.2725 24.2398L34.7367 23.914L36.2008 23.5881C36.0762 23.0279 35.8272 22.5193 35.4898 22.066L34.2865 22.9616ZM34.7367 23.914L33.2725 24.2398L33.3828 24.7356L34.847 24.4098L36.3112 24.0839L36.2008 23.5881L34.7367 23.914ZM34.847 24.4098L33.3828 24.7356L33.4931 25.2314L34.9573 24.9055L36.4215 24.5797L36.3112 24.0839L34.847 24.4098ZM34.9573 24.9055L33.4931 25.2314C33.515 25.3298 33.5149 25.4251 33.487 25.5363L34.9416 25.9022L36.3963 26.2681C36.5364 25.7115 36.5467 25.1424 36.4215 24.5797L34.9573 24.9055ZM34.9416 25.9022L33.487 25.5363L33.361 26.0372L34.8156 26.4031L36.2703 26.769L36.3963 26.2681L34.9416 25.9022ZM34.8156 26.4031L33.361 26.0372L33.235 26.5381L34.6897 26.904L36.1443 27.2699L36.2703 26.769L34.8156 26.4031ZM34.6897 26.904L33.235 26.5381C33.2455 26.4963 33.2782 26.4108 33.3565 26.3237C33.434 26.2375 33.5103 26.2006 33.5379 26.1901L34.0709 27.5923L34.6039 28.9944C35.3792 28.6996 35.9379 28.0906 36.1443 27.2699L34.6897 26.904ZM34.0709 27.5923L33.5379 26.1901L33.0452 26.3775L33.5782 27.7796L34.1112 29.1817L34.6039 28.9944L34.0709 27.5923ZM33.5782 27.7796L33.0452 26.3775L32.5524 26.5648L33.0854 27.9669L33.6185 29.369L34.1112 29.1817L33.5782 27.7796ZM33.0854 27.9669L32.5524 26.5648C32.4077 26.6198 32.2424 26.6517 32.0442 26.6504L32.0339 28.1504L32.0236 29.6503C32.5705 29.6541 33.1062 29.5637 33.6185 29.369L33.0854 27.9669ZM32.0339 28.1504L32.0442 26.6504L31.4854 26.6465L31.4751 28.1465L31.4648 29.6465L32.0236 29.6503L32.0339 28.1504ZM31.4751 28.1465L31.4854 26.6465L30.9266 26.6427L30.9163 28.1427L30.906 29.6426L31.4648 29.6465L31.4751 28.1465ZM30.9163 28.1427L30.9266 26.6427C30.4277 26.6393 29.9313 26.6984 29.4398 26.8157L29.788 28.2747L30.1362 29.7338C30.404 29.6699 30.6598 29.6409 30.906 29.6426L30.9163 28.1427ZM29.788 28.2747L29.4398 26.8157L28.8703 26.9516L29.2185 28.4107L29.5667 29.8697L30.1362 29.7338L29.788 28.2747ZM29.2185 28.4107L28.8703 26.9516L28.3008 27.0875L28.649 28.5466L28.9971 30.0056L29.5667 29.8697L29.2185 28.4107ZM28.649 28.5466L28.3008 27.0875C28.1552 27.1223 28.029 27.1196 27.9003 27.0862L27.5232 28.538L27.146 29.9898C27.759 30.149 28.3834 30.1521 28.9971 30.0056L28.649 28.5466ZM27.5232 28.538L27.9003 27.0862L27.3441 26.9417L26.9669 28.3935L26.5898 29.8453L27.146 29.9898L27.5232 28.538ZM26.9669 28.3935L27.3441 26.9417L26.7878 26.7972L26.4107 28.249L26.0335 29.7008L26.5898 29.8453L26.9669 28.3935ZM26.4107 28.249L26.7878 26.7972C26.1197 26.6236 25.4176 26.654 24.7544 26.9601L25.3831 28.322L26.0117 29.684C26.0101 29.6847 26.0056 29.6866 25.9987 29.6883C25.9918 29.6901 25.9858 29.6909 25.982 29.6912C25.9784 29.6915 25.9797 29.691 25.9873 29.6918C25.995 29.6925 26.0101 29.6947 26.0335 29.7008L26.4107 28.249ZM25.3831 28.322L24.7544 26.9601L24.2831 27.1777L24.9117 28.5396L25.5403 29.9015L26.0117 29.684L25.3831 28.322ZM24.9117 28.5396L24.2831 27.1777L23.8117 27.3952L24.4403 28.7572L25.0689 30.1191L25.5403 29.9015L24.9117 28.5396ZM24.4403 28.7572L23.8117 27.3952C23.243 27.6577 22.7798 28.059 22.4235 28.5569L23.6433 29.4298L24.8631 30.3027C24.9411 30.1939 25.0091 30.1467 25.0689 30.1191L24.4403 28.7572ZM23.6433 29.4298L22.4235 28.5569L22.0978 29.012L23.3176 29.8849L24.5375 30.7578L24.8631 30.3027L23.6433 29.4298ZM23.3176 29.8849L22.0978 29.012L21.7721 29.467L22.992 30.34L24.2118 31.2129L24.5375 30.7578L23.3176 29.8849ZM22.992 30.34L21.7721 29.467C21.7084 29.5561 21.617 29.641 21.4627 29.7174L22.1288 31.0614L22.7949 32.4054C23.3574 32.1267 23.8413 31.7306 24.2118 31.2129L22.992 30.34ZM22.1288 31.0614L21.4627 29.7174L20.9253 29.9838L21.5914 31.3278L22.2574 32.6718L22.7949 32.4054L22.1288 31.0614ZM21.5914 31.3278L20.9253 29.9838L20.3878 30.2502L21.0539 31.5942L21.72 32.9382L22.2574 32.6718L21.5914 31.3278ZM21.0539 31.5942L20.3878 30.2502C19.6981 30.592 19.1871 31.1466 18.8995 31.8578L20.29 32.4202L21.6806 32.9826C21.6873 32.9661 21.6924 32.9573 21.6944 32.954C21.6964 32.9509 21.6967 32.9509 21.6955 32.9523C21.6942 32.9536 21.6939 32.9536 21.696 32.9521C21.6983 32.9504 21.7055 32.9453 21.72 32.9382L21.0539 31.5942ZM20.29 32.4202L18.8995 31.8578L18.6731 32.4174L20.0637 32.9798L21.4542 33.5423L21.6806 32.9826L20.29 32.4202ZM20.0637 32.9798L18.6731 32.4174L18.4468 32.977L19.8373 33.5395L21.2279 34.1019L21.4542 33.5423L20.0637 32.9798ZM19.8373 33.5395L18.4468 32.977C18.4478 32.9744 18.4537 32.9608 18.4673 32.9412C18.4812 32.9212 18.4994 32.9002 18.521 32.8811C18.5675 32.8399 18.5985 32.8341 18.5769 32.8405L19.0019 34.279L19.427 35.7176C20.2452 35.4758 20.8955 34.9238 21.2279 34.1019L19.8373 33.5395ZM19.0019 34.279L18.5769 32.8405L17.9679 33.0205L18.3929 34.459L18.8179 35.8975L19.427 35.7176L19.0019 34.279ZM18.3929 34.459L17.9679 33.0205L17.3588 33.2004L17.7838 34.6389L18.2089 36.0775L18.8179 35.8975L18.3929 34.459ZM17.7838 34.6389L17.3588 33.2004C17.2217 33.2409 17.1536 33.2274 17.1061 33.2113L16.6234 34.6315L16.1407 36.0517C16.8284 36.2854 17.5339 36.2769 18.2089 36.0775L17.7838 34.6389ZM16.6234 34.6315L17.1061 33.2113L16.5547 33.0238L16.072 34.444L15.5893 35.8642L16.1407 36.0517L16.6234 34.6315ZM16.072 34.444L16.5547 33.0238L16.0033 32.8364L15.5206 34.2566L15.0379 35.6768L15.5893 35.8642L16.072 34.444ZM15.5206 34.2566L16.0033 32.8364C15.9896 32.8317 15.9838 32.8285 15.9836 32.8284C15.9835 32.8284 15.9843 32.8288 15.9859 32.8299C15.9875 32.831 15.9895 32.8324 15.9917 32.8342C15.9964 32.8382 15.9997 32.8417 16.0011 32.8434C16.0023 32.8449 15.9998 32.8421 15.9944 32.8326L14.6873 33.5686L13.3803 34.3045C13.7521 34.9648 14.3259 35.4348 15.0379 35.6768L15.5206 34.2566ZM14.6873 33.5686L15.9944 32.8326L15.7125 32.332L14.4055 33.0679L13.0984 33.8039L13.3803 34.3045L14.6873 33.5686ZM14.4055 33.0679L15.7125 32.332L15.4307 31.8314L14.1236 32.5673L12.8165 33.3032L13.0984 33.8039L14.4055 33.0679ZM14.1236 32.5673L15.4307 31.8314C15.3817 31.7444 15.3666 31.6731 15.3716 31.585L13.874 31.4998L12.3764 31.4146C12.3384 32.0824 12.4897 32.7228 12.8165 33.3032L14.1236 32.5673ZM13.874 31.4998L15.3716 31.585L15.4038 31.0182L13.9062 30.933L12.4087 30.8477L12.3764 31.4146L13.874 31.4998ZM13.9062 30.933L15.4038 31.0182L15.4361 30.4513L13.9385 30.3661L12.4409 30.2809L12.4087 30.8477L13.9062 30.933ZM13.9385 30.3661L15.4361 30.4513C15.4532 30.1507 15.4934 29.8525 15.5569 29.5559L14.0902 29.2417L12.6234 28.9275C12.5277 29.3743 12.4668 29.8256 12.4409 30.2809L13.9385 30.3661ZM14.0902 29.2417L15.5569 29.5559L15.6763 28.9984L14.2096 28.6842L12.7429 28.37L12.6234 28.9275L14.0902 29.2417ZM14.2096 28.6842L15.6763 28.9984L15.7957 28.4409L14.329 28.1267L12.8623 27.8125L12.7429 28.37L14.2096 28.6842ZM14.329 28.1267L15.7957 28.4409C15.8936 27.984 15.9509 27.5228 15.9669 27.0585L14.4677 27.007L12.9686 26.9555C12.9588 27.2407 12.9236 27.5261 12.8623 27.8125L14.329 28.1267ZM14.4677 27.007L15.9669 27.0585L15.9862 26.4963L14.4871 26.4448L12.988 26.3932L12.9686 26.9555L14.4677 27.007ZM14.4871 26.4448L15.9862 26.4963L16.0055 25.9341L14.5064 25.8826L13.0073 25.831L12.988 26.3932L14.4871 26.4448ZM14.5064 25.8826L16.0055 25.9341C16.0313 25.1832 15.7867 24.4856 15.2947 23.9157L14.1593 24.8959L13.0238 25.876C13.0291 25.8821 13.0287 25.8826 13.0255 25.8773C13.0223 25.8719 13.0181 25.8633 13.0143 25.8526C13.0105 25.8418 13.0086 25.8327 13.0077 25.8269C13.0069 25.8214 13.0076 25.8222 13.0073 25.831L14.5064 25.8826ZM14.1593 24.8959L15.2947 23.9157L14.9283 23.4912L13.7929 24.4714L12.6574 25.4516L13.0238 25.876L14.1593 24.8959ZM13.7929 24.4714L14.9283 23.4912L14.5619 23.0668L13.4264 24.0469L12.291 25.0271L12.6574 25.4516L13.7929 24.4714ZM13.4264 24.0469L14.5619 23.0668C14.5091 23.0056 14.4454 22.9013 14.4053 22.7011L12.9345 22.9957L11.4637 23.2903C11.591 23.9258 11.8552 24.5223 12.291 25.0271L13.4264 24.0469ZM12.9345 22.9957L14.4053 22.7011L14.2797 22.0744L12.8089 22.369L11.3382 22.6636L11.4637 23.2903L12.9345 22.9957ZM12.8089 22.369L14.2797 22.0744L14.1542 21.4477L12.6834 21.7423L11.2126 22.0369L11.3382 22.6636L12.8089 22.369ZM12.6834 21.7423L14.1542 21.4477C14.0079 20.7172 13.6392 20.0509 13.0017 19.5749L12.1042 20.7768L11.2067 21.9786C11.2067 21.9786 11.2064 21.9785 11.206 21.9781C11.2055 21.9777 11.2048 21.9771 11.204 21.9764C11.2023 21.9748 11.2003 21.9729 11.1982 21.9705C11.1936 21.9654 11.1907 21.9611 11.1895 21.9592C11.1866 21.9543 11.2 21.9739 11.2126 22.0369L12.6834 21.7423ZM12.1042 20.7768L13.0017 19.5749L12.548 19.2361L11.6505 20.438L10.753 21.6399L11.2067 21.9786L12.1042 20.7768ZM11.6505 20.438L12.548 19.2361L12.0944 18.8973L11.1969 20.0992L10.2994 21.3011L10.753 21.6399L11.6505 20.438ZM11.1969 20.0992L12.0944 18.8973C11.8448 18.711 11.61 18.5101 11.3896 18.2946L10.3409 19.3671L9.29228 20.4396C9.60822 20.7486 9.94406 21.0358 10.2994 21.3011L11.1969 20.0992ZM10.3409 19.3671L11.3896 18.2946L10.9873 17.9013L9.93867 18.9738L8.89001 20.0463L9.29228 20.4396L10.3409 19.3671ZM9.93867 18.9738L10.9873 17.9013L10.5851 17.508L9.5364 18.5805L8.48774 19.653L8.89001 20.0463L9.93867 18.9738ZM9.5364 18.5805L10.5851 17.508C10.2536 17.1838 9.88409 16.8803 9.48158 16.5953L8.61494 17.8197L7.74829 19.044C8.03805 19.2491 8.2829 19.4527 8.48774 19.653L9.5364 18.5805ZM8.61494 17.8197L9.48158 16.5953L8.96238 16.2278L8.09574 17.4521L7.22909 18.6764L7.74829 19.044L8.61494 17.8197ZM8.09574 17.4521L8.96238 16.2278L8.44318 15.8603L7.57654 17.0846L6.70989 18.3089L7.22909 18.6764L8.09574 17.4521ZM7.57654 17.0846L8.44318 15.8603C8.47045 15.8796 8.60317 15.9874 8.67295 16.2109C8.74226 16.4329 8.69446 16.5931 8.68576 16.6174L7.27318 16.1128L5.8606 15.6082C5.70801 16.0354 5.63882 16.5589 5.80924 17.1049C5.98014 17.6523 6.33649 18.0446 6.70989 18.3089L7.57654 17.0846ZM7.27318 16.1128L8.68576 16.6174L8.90161 16.0132L7.48902 15.5086L6.07644 15.004L5.8606 15.6082L7.27318 16.1128ZM7.48902 15.5086L8.90161 16.0132L9.11745 15.4089L7.70487 14.9043L6.29228 14.3997L6.07644 15.004L7.48902 15.5086ZM7.70487 14.9043L9.11745 15.4089C9.16993 15.262 9.23847 15.176 9.32501 15.1088L8.40509 13.924L7.48516 12.7392C6.92587 13.1735 6.5276 13.741 6.29228 14.3997L7.70487 14.9043ZM8.40509 13.924L9.32501 15.1088L9.80939 14.7327L8.88946 13.5479L7.96954 12.3631L7.48516 12.7392L8.40509 13.924ZM8.88946 13.5479L9.80939 14.7327L10.2938 14.3566L9.37384 13.1718L8.45391 11.987L7.96954 12.3631L8.88946 13.5479ZM9.37384 13.1718L10.2938 14.3566C10.2584 14.384 10.1509 14.4494 9.98729 14.4611C9.91283 14.4664 9.84954 14.4586 9.80298 14.4475C9.75807 14.4368 9.73529 14.4247 9.73605 14.4251L10.4321 13.0963L11.1281 11.7676C10.7447 11.5668 10.284 11.4323 9.77389 11.4687C9.25751 11.5055 8.81215 11.7089 8.45391 11.987L9.37384 13.1718ZM10.4321 13.0963L9.73605 14.4251L10.3099 14.7257L11.006 13.397L11.702 12.0682L11.1281 11.7676L10.4321 13.0963ZM11.006 13.397L10.3099 14.7257L10.8838 15.0263L11.5799 13.6976L12.2759 12.3689L11.702 12.0682L11.006 13.397ZM11.5799 13.6976L10.8838 15.0263C11.784 15.4979 12.7453 15.402 13.549 14.8823L12.7345 13.6227L11.9201 12.3631C11.8994 12.3764 11.9497 12.3394 12.0584 12.3323C12.1727 12.3249 12.2533 12.357 12.2759 12.3689L11.5799 13.6976ZM12.7345 13.6227L13.549 14.8823L14.1298 14.5068L13.3153 13.2471L12.5009 11.9875L11.9201 12.3631L12.7345 13.6227ZM13.3153 13.2471L14.1298 14.5068L14.7106 14.1312L13.8961 12.8716L13.0817 11.612L12.5009 11.9875L13.3153 13.2471ZM13.8961 12.8716L14.7106 14.1312C14.7618 14.0981 14.7549 14.1147 14.6953 14.1238C14.6659 14.1282 14.6318 14.1295 14.596 14.1258C14.5604 14.122 14.5321 14.1143 14.5133 14.1074L15.0305 12.6994L15.5476 11.2914C14.6561 10.9639 13.7873 11.1557 13.0817 11.612L13.8961 12.8716ZM15.0305 12.6994L14.5133 14.1074L15.0669 14.3107L15.584 12.9027L16.1012 11.4947L15.5476 11.2914L15.0305 12.6994ZM15.584 12.9027L15.0669 14.3107L15.6204 14.514L16.1376 13.106L16.6547 11.698L16.1012 11.4947L15.584 12.9027ZM16.1376 13.106L15.6204 14.514C16.2551 14.7471 16.9437 14.8008 17.6297 14.5905L17.1901 13.1564L16.7504 11.7222C16.7494 11.7226 16.7501 11.7223 16.7517 11.7221C16.7532 11.7219 16.7527 11.7221 16.7492 11.722C16.7429 11.7217 16.7131 11.7194 16.6547 11.698L16.1376 13.106ZM17.1901 13.1564L17.6297 14.5905L18.1287 14.4375L17.689 13.0034L17.2493 11.5693L16.7504 11.7222L17.1901 13.1564ZM17.689 13.0034L18.1287 14.4375L18.6276 14.2846L18.1879 12.8504L17.7483 11.4163L17.2493 11.5693L17.689 13.0034ZM18.1879 12.8504L18.6276 14.2846C19.2634 14.0897 19.7967 13.7141 20.1996 13.1941L19.0138 12.2754L17.8281 11.3568C17.795 11.3995 17.7778 11.4073 17.7483 11.4163L18.1879 12.8504ZM19.0138 12.2754L20.1996 13.1941L20.5266 12.772L19.3408 11.8534L18.155 10.9347L17.8281 11.3568L19.0138 12.2754ZM19.3408 11.8534L20.5266 12.772L20.8536 12.35L19.6678 11.4313L18.482 10.5127L18.155 10.9347L19.3408 11.8534ZM19.6678 11.4313L20.8536 12.35C20.9119 12.2746 21.0091 12.1856 21.1886 12.099L20.5374 10.7478L19.8861 9.39653C19.3421 9.6587 18.8596 10.0253 18.482 10.5127L19.6678 11.4313ZM20.5374 10.7478L21.1886 12.099L21.7312 11.8375L21.08 10.4863L20.4287 9.135L19.8861 9.39653L20.5374 10.7478ZM21.08 10.4863L21.7312 11.8375L22.2739 11.576L21.6226 10.2247L20.9714 8.87348L20.4287 9.135L21.08 10.4863ZM21.6226 10.2247L22.2739 11.576C22.7602 11.3416 23.2046 11.0452 23.5971 10.6828L22.5795 9.58071L21.562 8.47859C21.4021 8.62622 21.2085 8.75919 20.9714 8.87348L21.6226 10.2247ZM22.5795 9.58071L23.5971 10.6828L24.0113 10.3003L22.9938 9.19822L21.9763 8.0961L21.562 8.47859L22.5795 9.58071ZM22.9938 9.19822L24.0113 10.3003L24.4256 9.91786L23.4081 8.81574L22.3906 7.71361L21.9763 8.0961L22.9938 9.19822ZM23.4081 8.81574L24.4256 9.91786C24.5993 9.75757 24.747 9.66619 24.8653 9.61449L24.2647 8.24L23.664 6.8655C23.1927 7.07147 22.7694 7.36391 22.3906 7.71361L23.4081 8.81574ZM24.2647 8.24L24.8653 9.61449L25.3075 9.42124L24.7069 8.04675L24.1063 6.67225L23.664 6.8655L24.2647 8.24ZM24.7069 8.04675L25.3075 9.42124L25.7498 9.22799L25.1491 7.8535L24.5485 6.479L24.1063 6.67225L24.7069 8.04675ZM25.1491 7.8535L25.7498 9.22799C25.9626 9.135 26.1954 9.05586 26.4503 8.99261L26.0891 7.53675L25.7278 6.0809C25.3192 6.1823 24.9253 6.31433 24.5485 6.479L25.1491 7.8535ZM26.0891 7.53675L26.4503 8.99261L26.948 8.86912L26.5868 7.41327L26.2255 5.95741L25.7278 6.0809L26.0891 7.53675ZM26.5868 7.41327L26.948 8.86912L27.4457 8.74563L27.0845 7.28978L26.7233 5.83392L26.2255 5.95741L26.5868 7.41327ZM27.0845 7.28978L27.4457 8.74563C27.3808 8.76174 27.1032 8.81143 26.7796 8.63472C26.4549 8.45743 26.3457 8.19535 26.3233 8.12858L27.745 7.65044L29.1668 7.1723C29.0358 6.78276 28.7622 6.29919 28.2173 6.00167C27.6735 5.70474 27.12 5.73548 26.7233 5.83392L27.0845 7.28978ZM27.745 7.65044L26.3233 8.12858L26.4861 8.61274L27.9078 8.1346L29.3296 7.65646L29.1668 7.1723L27.745 7.65044ZM27.9078 8.1346L26.4861 8.61274L26.6489 9.0969L28.0707 8.61875L29.4924 8.14061L29.3296 7.65646L27.9078 8.1346ZM28.0707 8.61875L26.6489 9.0969C26.7586 9.42305 26.8581 9.70166 26.9418 9.89925L28.3229 9.31396L29.704 8.72867C29.6685 8.64486 29.5998 8.46 29.4924 8.14061L28.0707 8.61875ZM28.3229 9.31396L26.9418 9.89925L27.0313 10.1103L28.4124 9.52501L29.7935 8.93972L29.704 8.72867L28.3229 9.31396ZM28.4124 9.52501L27.0313 10.1103L27.1207 10.3214L28.5018 9.73606L29.8829 9.15077L29.7935 8.93972L28.4124 9.52501ZM28.5018 9.73606L27.1207 10.3214C27.2676 10.6679 27.7097 11.4073 28.6682 11.4524L28.7387 9.95405L28.8092 8.45571C29.1443 8.47147 29.427 8.61335 29.6214 8.79224C29.7913 8.94854 29.8621 9.10166 29.8829 9.15077L28.5018 9.73606ZM28.7387 9.95405L28.6682 11.4524L28.8157 11.4593L28.8862 9.96099L28.9567 8.46265L28.8092 8.45571L28.7387 9.95405ZM28.8862 9.96099L28.8157 11.4593L28.9632 11.4663L29.0337 9.96793L29.1042 8.46959L28.9567 8.46265L28.8862 9.96099ZM29.0337 9.96793L28.9632 11.4663C28.7262 11.4551 28.4772 11.3836 28.2512 11.2372C28.0326 11.0956 27.8918 10.9207 27.8057 10.7771C27.6514 10.5197 27.631 10.2949 27.6269 10.2512C27.6168 10.1423 27.6343 10.1234 27.6073 10.2818L29.0861 10.5335L30.5648 10.7852C30.6012 10.5712 30.6417 10.2718 30.6141 9.97443C30.6013 9.83644 30.562 9.5403 30.3788 9.23468C30.1496 8.85225 29.709 8.49805 29.1042 8.46959L29.0337 9.96793ZM29.0861 10.5335L27.6073 10.2818L27.5122 10.8405L28.991 11.0922L30.4697 11.3438L30.5648 10.7852L29.0861 10.5335Z" fill="white"/>
</svg>
