<svg width="40" height="40" viewBox="0 0 40 40" fill="none" xmlns="http://www.w3.org/2000/svg">
<g clip-path="url(#clip0_421_353)">
<path d="M16.6293 6.02159C19.7157 1.27258 27.076 3.24752 27.3705 8.9037C27.5022 11.4332 29.2477 13.5903 31.6941 14.2467C37.1644 15.7145 37.5606 23.3248 32.2722 25.3527C29.9072 26.2596 28.3951 28.5863 28.5268 31.1158C28.8212 36.772 21.7058 39.5005 18.143 35.0976C16.5496 33.1286 13.8696 32.4095 11.5046 33.3164C6.21623 35.3443 1.42247 29.4202 4.50888 24.6712C5.88916 22.5474 5.7449 19.7763 4.15156 17.8073C0.588725 13.4044 4.74146 7.01467 10.2118 8.48249C12.6582 9.13892 15.2491 8.14542 16.6293 6.02159Z" fill="#F3B8FF"/>
<path d="M28.7759 13.1579L28.9696 15.6504L28.7759 13.1579ZM31.0951 12.9777L31.2888 15.4702L31.0951 12.9777ZM32.837 13.8138L30.7205 15.1443L32.837 13.8138ZM34.0015 15.6663L36.1181 14.3358L34.0015 15.6663ZM35.3086 17.4126L33.4353 19.0682V19.0682L35.3086 17.4126ZM36.7582 19.0529L38.6314 17.3974V17.3974L36.7582 19.0529ZM36.6454 20.6105L38.2974 22.4868L36.6454 20.6105ZM34.9702 22.0854L33.3182 20.209L34.9702 22.0854ZM33.4284 23.1969L34.6009 25.4048L33.4284 23.1969ZM32.7241 23.5709L31.5515 21.363L32.7241 23.5709ZM32.0198 23.9449L33.1924 26.1529L32.0198 23.9449ZM31.1175 25.4297L28.6563 24.9911L31.1175 25.4297ZM30.7216 27.6513L33.1828 28.0899L30.7216 27.6513ZM30.0269 29.4957L27.9567 28.0942L30.0269 29.4957ZM29.0335 30.9632L31.1037 32.3647L29.0335 30.9632ZM27.0311 33.8433L24.9844 32.4076L27.0311 33.8433ZM25.9108 35.1513L24.1811 33.3463L25.9108 35.1513ZM24.6741 36.3364L22.9444 34.5315L24.6741 36.3364ZM23.1547 36.8889L23.0434 39.3864L23.1547 36.8889ZM21.3524 36.8086L21.4637 34.3111L21.3524 36.8086ZM19.6121 36.3211L20.7883 34.115L19.6121 36.3211ZM18.773 35.8737L17.5968 38.0797L18.773 35.8737ZM17.9338 35.4263L19.1099 33.2202L17.9338 35.4263ZM16.386 34.3263L18.0795 32.4873L16.386 34.3263ZM14.9687 33.0213L13.2753 34.8603L14.9687 33.0213ZM13.308 32.5724L13.831 35.0171L13.308 32.5724ZM11.4039 32.9798L10.8809 30.5351L11.4039 32.9798ZM9.62695 33.0386L10.0592 30.5763L9.62695 33.0386ZM7.97733 32.7491L7.54509 35.2114L7.97733 32.7491ZM6.41483 32.1033L5.01038 34.1716L6.41483 32.1033ZM5.67714 31.6024L7.08159 29.5342L5.67714 31.6024ZM4.93946 31.1015L3.53501 33.1697L4.93946 31.1015ZM4.2667 29.7233L6.75988 29.9079L4.2667 29.7233ZM4.33163 28.8461L1.83845 28.6616L4.33163 28.8461ZM4.39656 27.9689L6.88974 28.1534L4.39656 27.9689ZM4.77973 26.2617L2.44544 25.3667L4.77973 26.2617ZM5.09796 25.4318L7.43224 26.3268L5.09796 25.4318ZM5.41619 24.6018L3.08191 23.7068L5.41619 24.6018ZM5.94426 22.6914L8.3984 23.168L5.94426 22.6914ZM6.15409 21.611L3.69994 21.1344L6.15409 21.611ZM6.36392 20.5305L8.81806 21.0071L6.36392 20.5305ZM6.07719 18.5925L8.24066 17.3398L6.07719 18.5925ZM5.08407 16.8774L2.92059 18.1302L5.08407 16.8774ZM4.09478 15.232L1.97516 16.5576L4.09478 15.232ZM3.10933 13.6562L5.22896 12.3307L3.10933 13.6562ZM3.02841 11.9378L0.742245 10.9261L3.02841 11.9378ZM5.23444 8.7921L6.09084 11.1408L5.23444 8.7921ZM6.20507 8.43819L5.34867 6.08945L6.20507 8.43819ZM7.1757 8.08427L6.3193 5.73553L7.1757 8.08427ZM9.0851 7.95693L8.49857 10.3872L9.0851 7.95693ZM10.9626 8.41007L11.5492 5.97984L10.9626 8.41007ZM12.7366 8.29231L13.6895 10.6036L12.7366 8.29231ZM13.5718 7.94798L14.5247 10.2593L13.5718 7.94798ZM14.407 7.60366L13.4541 5.29237L14.407 7.60366ZM16.8675 6.33094L18.1075 8.50175L16.8675 6.33094ZM17.6802 5.86674L16.4402 3.69592L17.6802 5.86674ZM19.1971 4.85865L17.6689 2.88009L19.1971 4.85865ZM20.6054 3.77087L22.1336 5.74944L20.6054 3.77087ZM22.2531 3.43277L21.7203 5.87534L22.2531 3.43277ZM24.1399 3.84435L24.6727 1.40178L24.1399 3.84435ZM25.2683 4.96989L27.7192 4.47706L25.2683 4.96989ZM25.4532 5.88965L23.0023 6.38249L25.4532 5.88965ZM25.6382 6.80942L28.0891 6.31658L25.6382 6.80942ZM26.21 8.02281L24.6985 10.0141L26.21 8.02281ZM26.9836 8.61007L28.4952 6.61876L26.9836 8.61007ZM27.4319 9.98976L24.9359 10.131L27.4319 9.98976ZM27.4934 11.0758L24.9974 11.2171L25.0588 12.3031L27.5548 12.1619L30.0508 12.0207L29.9894 10.9346L27.4934 11.0758ZM27.5548 12.1619L25.0588 12.3031C25.1034 13.0898 25.3808 14.1327 26.3107 14.8912C27.2053 15.6209 28.2437 15.7068 28.9696 15.6504L28.7759 13.1579L28.5823 10.6654C28.5824 10.6654 28.5875 10.665 28.5972 10.6648C28.607 10.6647 28.6221 10.6648 28.6422 10.6659C28.6816 10.6681 28.7448 10.6745 28.8261 10.6933C28.9948 10.7321 29.2336 10.823 29.471 11.0166C29.9939 11.4431 30.0473 11.958 30.0508 12.0207L27.5548 12.1619ZM28.7759 13.1579L28.9696 15.6504L30.1292 15.5603L29.9355 13.0678L29.7419 10.5753L28.5823 10.6654L28.7759 13.1579ZM29.9355 13.0678L30.1292 15.5603L31.2888 15.4702L31.0951 12.9777L30.9015 10.4852L29.7419 10.5753L29.9355 13.0678ZM31.0951 12.9777L31.2888 15.4702C31.3261 15.4673 31.2088 15.482 31.0285 15.3954C30.8395 15.3047 30.7432 15.1804 30.7205 15.1443L32.837 13.8138L34.9536 12.4833C34.5427 11.8297 33.962 11.2573 33.1923 10.8879C32.4314 10.5227 31.6373 10.428 30.9015 10.4852L31.0951 12.9777ZM32.837 13.8138L30.7205 15.1443L31.3027 16.0706L33.4193 14.74L35.5358 13.4095L34.9536 12.4833L32.837 13.8138ZM33.4193 14.74L31.3027 16.0706L31.885 16.9968L34.0015 15.6663L36.1181 14.3358L35.5358 13.4095L33.4193 14.74ZM34.0015 15.6663L31.885 16.9968C32.3453 17.7291 32.8623 18.4199 33.4353 19.0682L35.3086 17.4126L37.1818 15.7571C36.7884 15.3119 36.434 14.8385 36.1181 14.3358L34.0015 15.6663ZM35.3086 17.4126L33.4353 19.0682L34.1601 19.8883L36.0334 18.2328L37.9066 16.5772L37.1818 15.7571L35.3086 17.4126ZM36.0334 18.2328L34.1601 19.8883L34.8849 20.7084L36.7582 19.0529L38.6314 17.3974L37.9066 16.5772L36.0334 18.2328ZM36.7582 19.0529L34.8849 20.7084C34.8633 20.684 34.5523 20.3146 34.5989 19.6718C34.6445 19.0416 34.9926 18.7347 34.9933 18.7341L36.6454 20.6105L38.2974 22.4868C38.8565 21.9946 39.5026 21.1823 39.5858 20.0329C39.67 18.8709 39.1362 17.9685 38.6314 17.3974L36.7582 19.0529ZM36.6454 20.6105L34.9933 18.7341L34.1557 19.4716L35.8078 21.3479L37.4599 23.2243L38.2974 22.4868L36.6454 20.6105ZM35.8078 21.3479L34.1557 19.4716L33.3182 20.209L34.9702 22.0854L36.6223 23.9617L37.4599 23.2243L35.8078 21.3479ZM34.9702 22.0854L33.3182 20.209C32.8528 20.6187 32.5 20.8592 32.2557 20.9889L33.4284 23.1969L34.6009 25.4048C35.2958 25.0358 35.9709 24.5353 36.6223 23.9617L34.9702 22.0854ZM33.4284 23.1969L32.2557 20.9889L31.5515 21.363L32.7241 23.5709L33.8967 25.7788L34.6009 25.4048L33.4284 23.1969ZM32.7241 23.5709L31.5515 21.363L30.8472 21.737L32.0198 23.9449L33.1924 26.1529L33.8967 25.7788L32.7241 23.5709ZM32.0198 23.9449L30.8472 21.737C29.4495 22.4793 28.8642 23.8244 28.6563 24.9911L31.1175 25.4297L33.5787 25.8684C33.6059 25.7159 33.6286 25.7191 33.5785 25.8014C33.5515 25.8459 33.506 25.9086 33.4364 25.9758C33.3659 26.044 33.283 26.1048 33.1924 26.1529L32.0198 23.9449ZM31.1175 25.4297L28.6563 24.9911L28.4583 26.1019L30.9195 26.5405L33.3807 26.9792L33.5787 25.8684L31.1175 25.4297ZM30.9195 26.5405L28.4583 26.1019L28.2604 27.2126L30.7216 27.6513L33.1828 28.0899L33.3807 26.9792L30.9195 26.5405ZM30.7216 27.6513L28.2604 27.2126C28.1736 27.6992 28.0456 27.9629 27.9567 28.0942L30.0269 29.4957L32.0971 30.8973C32.6704 30.0503 33.0055 29.0844 33.1828 28.0899L30.7216 27.6513ZM30.0269 29.4957L27.9567 28.0942L27.46 28.8279L29.5302 30.2295L31.6004 31.631L32.0971 30.8973L30.0269 29.4957ZM29.5302 30.2295L27.46 28.8279L26.9633 29.5617L29.0335 30.9632L31.1037 32.3647L31.6004 31.631L29.5302 30.2295ZM29.0335 30.9632L26.9633 29.5617C26.6398 30.0395 26.3148 30.5111 25.9882 30.9766L28.0349 32.4123L30.0815 33.848C30.4242 33.3596 30.7649 32.8651 31.1037 32.3647L29.0335 30.9632ZM28.0349 32.4123L25.9882 30.9766L25.4863 31.6921L27.533 33.1278L29.5796 34.5635L30.0815 33.848L28.0349 32.4123ZM27.533 33.1278L25.4863 31.6921L24.9844 32.4076L27.0311 33.8433L29.0777 35.279L29.5796 34.5635L27.533 33.1278ZM27.0311 33.8433L24.9844 32.4076C24.7413 32.7542 24.4735 33.066 24.1811 33.3463L25.9108 35.1513L27.6406 36.9563C28.1726 36.4465 28.6517 35.8863 29.0777 35.279L27.0311 33.8433ZM25.9108 35.1513L24.1811 33.3463L23.5627 33.9389L25.2925 35.7439L27.0222 37.5489L27.6406 36.9563L25.9108 35.1513ZM25.2925 35.7439L23.5627 33.9389L22.9444 34.5315L24.6741 36.3364L26.4039 38.1414L27.0222 37.5489L25.2925 35.7439ZM24.6741 36.3364L22.9444 34.5315C22.9739 34.5031 23.0384 34.4549 23.1309 34.4213C23.2205 34.3887 23.2759 34.3918 23.2659 34.3914L23.1547 36.8889L23.0434 39.3864C24.286 39.4418 25.4697 39.0366 26.4039 38.1414L24.6741 36.3364ZM23.1547 36.8889L23.2659 34.3914L22.3648 34.3512L22.2536 36.8487L22.1423 39.3463L23.0434 39.3864L23.1547 36.8889ZM22.2536 36.8487L22.3648 34.3512L21.4637 34.3111L21.3524 36.8086L21.2412 39.3061L22.1423 39.3463L22.2536 36.8487ZM21.3524 36.8086L21.4637 34.3111C21.2553 34.3018 21.0372 34.2477 20.7883 34.115L19.6121 36.3211L18.436 38.5271C19.306 38.9909 20.248 39.2619 21.2412 39.3061L21.3524 36.8086ZM19.6121 36.3211L20.7883 34.115L19.9491 33.6676L18.773 35.8737L17.5968 38.0797L18.436 38.5271L19.6121 36.3211ZM18.773 35.8737L19.9491 33.6676L19.1099 33.2202L17.9338 35.4263L16.7576 37.6323L17.5968 38.0797L18.773 35.8737ZM17.9338 35.4263L19.1099 33.2202C18.7402 33.0231 18.3977 32.7804 18.0795 32.4873L16.386 34.3263L14.6925 36.1654C15.319 36.7423 16.0084 37.2329 16.7576 37.6323L17.9338 35.4263ZM16.386 34.3263L18.0795 32.4873L17.3708 31.8348L15.6774 33.6738L13.9839 35.5129L14.6925 36.1654L16.386 34.3263ZM15.6774 33.6738L17.3708 31.8348L16.6622 31.1822L14.9687 33.0213L13.2753 34.8603L13.9839 35.5129L15.6774 33.6738ZM14.9687 33.0213L16.6622 31.1822C15.5854 30.1907 14.203 29.8244 12.7851 30.1277L13.308 32.5724L13.831 35.0171C13.8114 35.0213 13.7019 35.0381 13.547 34.9962C13.391 34.954 13.2989 34.8821 13.2753 34.8603L14.9687 33.0213ZM13.308 32.5724L12.7851 30.1277L11.833 30.3314L12.3559 32.7761L12.8789 35.2208L13.831 35.0171L13.308 32.5724ZM12.3559 32.7761L11.833 30.3314L10.8809 30.5351L11.4039 32.9798L11.9268 35.4244L12.8789 35.2208L12.3559 32.7761ZM11.4039 32.9798L10.8809 30.5351C10.51 30.6144 10.2454 30.609 10.0592 30.5763L9.62695 33.0386L9.19471 35.501C10.1083 35.6613 11.0282 35.6167 11.9268 35.4244L11.4039 32.9798ZM9.62695 33.0386L10.0592 30.5763L9.23438 30.4315L8.80214 32.8938L8.3699 35.3562L9.19471 35.501L9.62695 33.0386ZM8.80214 32.8938L9.23438 30.4315L8.40956 30.2867L7.97733 32.7491L7.54509 35.2114L8.3699 35.3562L8.80214 32.8938ZM7.97733 32.7491L8.40956 30.2867C8.23025 30.2552 8.03781 30.1835 7.81928 30.0351L6.41483 32.1033L5.01038 34.1716C5.77543 34.6911 6.62466 35.0498 7.54509 35.2114L7.97733 32.7491ZM6.41483 32.1033L7.81928 30.0351L7.08159 29.5342L5.67714 31.6024L4.2727 33.6706L5.01038 34.1716L6.41483 32.1033ZM5.67714 31.6024L7.08159 29.5342L6.34391 29.0332L4.93946 31.1015L3.53501 33.1697L4.2727 33.6706L5.67714 31.6024ZM4.93946 31.1015L6.34391 29.0332C6.3993 29.0709 6.54076 29.188 6.64903 29.4098C6.75815 29.6333 6.76603 29.8248 6.75988 29.9079L4.2667 29.7233L1.77352 29.5388C1.66313 31.0302 2.31621 32.342 3.53501 33.1697L4.93946 31.1015ZM4.2667 29.7233L6.75988 29.9079L6.82481 29.0306L4.33163 28.8461L1.83845 28.6616L1.77352 29.5388L4.2667 29.7233ZM4.33163 28.8461L6.82481 29.0306L6.88974 28.1534L4.39656 27.9689L1.90338 27.7844L1.83845 28.6616L4.33163 28.8461ZM4.39656 27.9689L6.88974 28.1534C6.91483 27.8145 6.98828 27.4847 7.11401 27.1568L4.77973 26.2617L2.44544 25.3667C2.14687 26.1454 1.96487 26.9536 1.90338 27.7844L4.39656 27.9689ZM4.77973 26.2617L7.11401 27.1568L7.43224 26.3268L5.09796 25.4318L2.76367 24.5367L2.44544 25.3667L4.77973 26.2617ZM5.09796 25.4318L7.43224 26.3268L7.75048 25.4969L5.41619 24.6018L3.08191 23.7068L2.76367 24.5367L5.09796 25.4318ZM5.41619 24.6018L7.75048 25.4969C8.02523 24.7803 8.23705 23.9989 8.3984 23.168L5.94426 22.6914L3.49011 22.2148C3.37169 22.8246 3.23147 23.3167 3.08191 23.7068L5.41619 24.6018ZM5.94426 22.6914L8.3984 23.168L8.60823 22.0876L6.15409 21.611L3.69994 21.1344L3.49011 22.2148L5.94426 22.6914ZM6.15409 21.611L8.60823 22.0876L8.81806 21.0071L6.36392 20.5305L3.90977 20.0539L3.69994 21.1344L6.15409 21.611ZM6.36392 20.5305L8.81806 21.0071C9.05937 19.7646 8.90833 18.4928 8.24066 17.3398L6.07719 18.5925L3.91371 19.8453C3.91984 19.8559 3.92164 19.861 3.92193 19.8618C3.9222 19.8626 3.92309 19.8651 3.92407 19.8717C3.92567 19.8825 3.93238 19.9375 3.90977 20.0539L6.36392 20.5305ZM6.07719 18.5925L8.24066 17.3398L7.7441 16.4822L5.58063 17.735L3.41715 18.9877L3.91371 19.8453L6.07719 18.5925ZM5.58063 17.735L7.7441 16.4822L7.24754 15.6247L5.08407 16.8774L2.92059 18.1302L3.41715 18.9877L5.58063 17.735ZM5.08407 16.8774L7.24754 15.6247C6.90323 15.0301 6.55888 14.4572 6.21441 13.9064L4.09478 15.232L1.97516 16.5576C2.28766 17.0573 2.60283 17.5814 2.92059 18.1302L5.08407 16.8774ZM4.09478 15.232L6.21441 13.9064L5.72169 13.1185L3.60206 14.4441L1.48243 15.7697L1.97516 16.5576L4.09478 15.232ZM3.60206 14.4441L5.72169 13.1185L5.22896 12.3307L3.10933 13.6562L0.989704 14.9818L1.48243 15.7697L3.60206 14.4441ZM3.10933 13.6562L5.22896 12.3307C5.27331 12.4016 5.33168 12.539 5.33997 12.7151C5.3478 12.8813 5.30579 12.9693 5.31457 12.9494L3.02841 11.9378L0.742245 10.9261C0.169668 12.22 0.174367 13.6781 0.989704 14.9818L3.10933 13.6562ZM3.02841 11.9378L5.31457 12.9494L5.72637 12.0189L3.44021 11.0072L1.15404 9.99553L0.742245 10.9261L3.02841 11.9378ZM3.44021 11.0072L5.72637 12.0189L6.13817 11.0883L3.85201 10.0766L1.56584 9.06494L1.15404 9.99553L3.44021 11.0072ZM3.85201 10.0766L6.13817 11.0883C6.14488 11.0731 6.14647 11.0731 6.13967 11.0828C6.1326 11.0929 6.12096 11.107 6.10522 11.1216C6.08954 11.1362 6.07621 11.1453 6.06939 11.1494C6.06304 11.1532 6.06841 11.149 6.09084 11.1408L5.23444 8.7921L4.37804 6.44336C3.10342 6.90811 2.1201 7.81242 1.56584 9.06494L3.85201 10.0766ZM5.23444 8.7921L6.09084 11.1408L7.06147 10.7869L6.20507 8.43819L5.34867 6.08945L4.37804 6.44336L5.23444 8.7921ZM6.20507 8.43819L7.06147 10.7869L8.0321 10.433L7.1757 8.08427L6.3193 5.73553L5.34867 6.08945L6.20507 8.43819ZM7.1757 8.08427L8.0321 10.433C8.2506 10.3533 8.38512 10.3598 8.49857 10.3872L9.0851 7.95693L9.67163 5.52671C8.53339 5.25199 7.39498 5.34332 6.3193 5.73553L7.1757 8.08427ZM9.0851 7.95693L8.49857 10.3872L9.43734 10.6137L10.0239 8.1835L10.6104 5.75328L9.67163 5.52671L9.0851 7.95693ZM10.0239 8.1835L9.43734 10.6137L10.3761 10.8403L10.9626 8.41007L11.5492 5.97984L10.6104 5.75328L10.0239 8.1835ZM10.9626 8.41007L10.3761 10.8403C11.4773 11.1061 12.6105 11.0484 13.6895 10.6036L12.7366 8.29231L11.7837 5.98102C11.7492 5.99528 11.6997 6.01617 11.5492 5.97984L10.9626 8.41007ZM12.7366 8.29231L13.6895 10.6036L14.5247 10.2593L13.5718 7.94798L12.6189 5.6367L11.7837 5.98102L12.7366 8.29231ZM13.5718 7.94798L14.5247 10.2593L15.3599 9.91494L14.407 7.60366L13.4541 5.29237L12.6189 5.6367L13.5718 7.94798ZM14.407 7.60366L15.3599 9.91494C16.0187 9.64331 16.6638 9.32642 17.2949 8.96595L16.0549 6.79513L14.8149 4.62431C14.3624 4.88277 13.9089 5.1049 13.4541 5.29237L14.407 7.60366ZM16.0549 6.79513L17.2949 8.96595L18.1075 8.50175L16.8675 6.33094L15.6276 4.16012L14.8149 4.62431L16.0549 6.79513ZM16.8675 6.33094L18.1075 8.50175L18.9202 8.03755L17.6802 5.86674L16.4402 3.69592L15.6276 4.16012L16.8675 6.33094ZM17.6802 5.86674L18.9202 8.03755C19.5572 7.67369 20.1597 7.27402 20.7252 6.83721L19.1971 4.85865L17.6689 2.88009C17.2955 3.16847 16.8868 3.44086 16.4402 3.69592L17.6802 5.86674ZM19.1971 4.85865L20.7252 6.83721L21.4294 6.29332L19.9012 4.31476L18.3731 2.3362L17.6689 2.88009L19.1971 4.85865ZM19.9012 4.31476L21.4294 6.29332L22.1336 5.74944L20.6054 3.77087L19.0773 1.79231L18.3731 2.3362L19.9012 4.31476ZM20.6054 3.77087L22.1336 5.74944C22.0847 5.7872 21.9922 5.8387 21.872 5.86337C21.7578 5.88681 21.6964 5.87013 21.7203 5.87534L22.2531 3.43277L22.7858 0.990203C21.5049 0.710805 20.1857 0.936179 19.0773 1.79231L20.6054 3.77087ZM22.2531 3.43277L21.7203 5.87534L22.6637 6.08113L23.1965 3.63856L23.7293 1.19599L22.7858 0.990203L22.2531 3.43277ZM23.1965 3.63856L22.6637 6.08113L23.6071 6.28691L24.1399 3.84435L24.6727 1.40178L23.7293 1.19599L23.1965 3.63856ZM24.1399 3.84435L23.6071 6.28691C23.5544 6.27542 23.3439 6.21379 23.1282 5.99861C22.9084 5.77933 22.8354 5.55258 22.8174 5.46273L25.2683 4.96989L27.7192 4.47706C27.5779 3.77403 27.2552 3.05311 26.6593 2.45864C26.0674 1.86828 25.3544 1.55046 24.6727 1.40178L24.1399 3.84435ZM25.2683 4.96989L22.8174 5.46273L23.0023 6.38249L25.4532 5.88965L27.9042 5.39682L27.7192 4.47706L25.2683 4.96989ZM25.4532 5.88965L23.0023 6.38249L23.1873 7.30226L25.6382 6.80942L28.0891 6.31658L27.9042 5.39682L25.4532 5.88965ZM25.6382 6.80942L23.1873 7.30226C23.3335 8.02977 23.6702 9.23362 24.6985 10.0141L26.21 8.02281L27.7215 6.0315C28.0121 6.25211 28.1206 6.47626 28.1351 6.50697C28.1524 6.54361 28.1255 6.49732 28.0891 6.31658L25.6382 6.80942ZM26.21 8.02281L24.6985 10.0141L25.0853 10.3077L26.5968 8.31644L28.1083 6.32513L27.7215 6.0315L26.21 8.02281ZM26.5968 8.31644L25.0853 10.3077L25.4721 10.6014L26.9836 8.61007L28.4952 6.61876L28.1083 6.32513L26.5968 8.31644ZM26.9836 8.61007L25.4721 10.6014C25.2514 10.4338 25.1132 10.2546 25.0331 10.1257C24.9548 9.99958 24.9215 9.9052 24.9115 9.87434C24.8956 9.82534 24.9222 9.88808 24.9359 10.131L27.4319 9.98976L29.9279 9.84853C29.9007 9.3674 29.8321 8.83816 29.6668 8.32927C29.5079 7.84023 29.1856 7.14285 28.4952 6.61876L26.9836 8.61007ZM27.4319 9.98976L24.9359 10.131L24.9974 11.2171L27.4934 11.0758L29.9894 10.9346L29.9279 9.84853L27.4319 9.98976Z" fill="#F3B8FF"/>
<path d="M24.8561 11.8413L23.3597 11.7371L24.8561 11.8413ZM24.9087 12.9784L23.4277 13.2167L24.9087 12.9784ZM25.0927 14.1219L26.5737 13.8836L25.0927 14.1219ZM25.5957 15.1165L24.5199 16.1619L25.5957 15.1165ZM26.4175 15.9623L25.3418 17.0076L26.4175 15.9623ZM27.3787 16.5372L27.7782 15.0913L27.3787 16.5372ZM28.4792 16.8412L28.0797 18.2871L28.4792 16.8412ZM30.134 17.2129L29.8415 18.6841L30.134 17.2129ZM30.6862 17.3227L30.9787 15.8515L30.6862 17.3227ZM31.6804 17.8074L30.7098 18.9511L31.6804 17.8074ZM32.1222 18.1824L31.1517 19.3261L32.1222 18.1824ZM32.5641 18.5573L33.5346 17.4136L32.5641 18.5573ZM32.9171 19.5L31.4351 19.268L32.9171 19.5ZM32.7393 20.6355L34.2213 20.8675L32.7393 20.6355ZM32.2569 21.525L31.3075 20.3636L32.2569 21.525ZM31.8634 21.8467L32.8127 23.008L31.8634 21.8467ZM31.4698 22.1684L32.4192 23.3297L31.4698 22.1684ZM30.5886 22.7689L31.333 24.0711L30.5886 22.7689ZM29.6131 23.3264L30.3575 24.6287L29.6131 23.3264ZM28.5888 23.8048L29.1116 25.2107L28.5888 23.8048ZM27.5157 24.2038L26.9929 22.7978L27.5157 24.2038ZM26.6848 24.8995L25.3947 24.1342L26.6848 24.8995ZM26.0962 25.8918L27.3864 26.6571L26.0962 25.8918ZM25.9708 26.9473L24.5349 27.381L25.9708 26.9473ZM26.3087 28.0659L27.7446 27.6322L26.3087 28.0659ZM26.3853 29.1949L24.9046 28.9549L26.3853 29.1949ZM26.2006 30.3343L27.6813 30.5742L26.2006 30.3343ZM25.9172 31.4565L24.4996 30.9663L25.9172 31.4565ZM25.5351 32.5615L26.9527 33.0517L25.5351 32.5615ZM24.7914 33.426L24.0539 32.1198L24.7914 33.426ZM23.686 34.0501L22.9485 32.7439L23.686 34.0501ZM22.6512 33.9796L23.5837 32.8046L22.6512 33.9796ZM22.1691 33.597L23.1015 32.422L22.1691 33.597ZM21.687 33.2144L20.7546 34.3894L21.687 33.2144ZM20.6796 32.545L19.9607 33.8615L20.6796 32.545ZM19.6289 31.9712L20.3478 30.6547L19.6289 31.9712ZM18.8332 31.1925L17.5187 31.9151L18.8332 31.1925ZM18.2923 30.2087L19.6068 29.4861L18.2923 30.2087ZM17.5386 29.5333L18.0709 28.131L17.5386 29.5333ZM16.572 29.1664L16.0397 30.5688L16.572 29.1664ZM15.5634 29.1388L15.1369 27.7007L15.5634 29.1388ZM15.0381 29.2946L15.4647 30.7327L15.0381 29.2946ZM14.5128 29.4504L14.9393 30.8885L14.5128 29.4504ZM13.455 29.7898L13.9438 31.2079L13.455 29.7898ZM12.39 30.1569L12.8788 31.575L12.39 30.1569ZM11.3363 30.2424L11.6136 28.7682L11.3363 30.2424ZM10.2939 30.0462L10.5712 28.5721L10.2939 30.0462ZM9.41534 29.6048L8.37602 30.6864L9.41534 29.6048ZM8.70065 28.918L9.73996 27.8364L8.70065 28.918ZM8.06403 27.9911L6.71099 28.6386L8.06403 27.9911ZM7.78476 27.4075L6.43172 28.055L7.78476 27.4075ZM7.5055 26.8239L8.85854 26.1764V26.1764L7.5055 26.8239ZM7.83505 25.9117L8.54758 27.2317L7.83505 25.9117ZM9.0527 25.2544L8.34017 23.9345L9.0527 25.2544ZM9.91553 24.4091L8.56941 23.7473L9.91553 24.4091ZM10.4235 23.3758L11.7697 24.0376L10.4235 23.3758ZM10.7522 22.2401L9.26304 22.0605L10.7522 22.2401ZM10.9016 21.0022L12.3908 21.1818L10.9016 21.0022ZM10.4458 20.0454L9.64016 21.3107L10.4458 20.0454ZM9.91521 19.7076L9.10962 20.9729L9.91521 19.7076ZM9.38467 19.3698L10.1903 18.1045L9.38467 19.3698ZM8.57229 18.5365L7.26841 19.278L8.57229 18.5365ZM8.29046 18.0409L9.59434 17.2994L8.29046 18.0409ZM8.00864 17.5454L6.70476 18.2869L8.00864 17.5454ZM7.4834 16.4914L6.10834 17.0908L7.4834 16.4914ZM6.99658 15.3745L8.37164 14.7752L6.99658 15.3745ZM7.2105 14.4479L8.1512 15.6163L7.2105 14.4479ZM8.12514 13.7115L7.18444 12.5431L8.12514 13.7115ZM9.57488 11.6251L8.27598 10.8749L9.57488 11.6251ZM10.4712 11.3371L11.1457 9.9973L10.4712 11.3371ZM11.6022 11.9065L12.2767 10.5667L11.6022 11.9065ZM13.8529 12.408L14.0443 10.9202L13.8529 12.408ZM14.8529 12.3484L14.4209 10.912L14.8529 12.3484ZM15.2911 12.2166L15.7231 13.6531L15.2911 12.2166ZM15.7293 12.0849L15.2973 10.6484L15.7293 12.0849ZM16.6591 11.7179L16.0117 10.3648L16.6591 11.7179ZM17.6422 11.2475L18.2896 12.6007L17.6422 11.2475ZM18.4731 10.562L19.6711 11.4648L18.4731 10.562ZM18.8125 10.1117L17.6145 9.20901L18.8125 10.1117ZM19.1518 9.6614L17.9539 8.75868L19.1518 9.6614ZM19.8966 8.96292L20.6797 10.2423L19.8966 8.96292ZM20.7076 8.46659L19.9246 7.18718L20.7076 8.46659ZM21.5917 8.03337L21.0506 6.63434L21.5917 8.03337ZM22.5487 7.66325L23.0898 9.06228L22.5487 7.66325ZM23.2505 7.93734L24.5995 7.28161L23.2505 7.93734ZM23.6968 8.85565L22.3477 9.51138L23.6968 8.85565ZM24.0361 9.53013L22.7158 10.2421L24.0361 9.53013ZM24.1522 9.74545L25.4725 9.03348L24.1522 9.74545ZM24.9348 10.7107L26.4312 10.815L24.9348 10.7107ZM24.8954 11.276L23.3991 11.1718L23.3597 11.7371L24.8561 11.8413L26.3524 11.9456L26.3918 11.3803L24.8954 11.276ZM24.8561 11.8413L23.3597 11.7371C23.3253 12.2309 23.3486 12.7248 23.4277 13.2167L24.9087 12.9784L26.3896 12.7401C26.3461 12.4696 26.3343 12.2056 26.3524 11.9456L24.8561 11.8413ZM24.9087 12.9784L23.4277 13.2167L23.5198 13.7885L25.0007 13.5502L26.4817 13.3118L26.3896 12.7401L24.9087 12.9784ZM25.0007 13.5502L23.5198 13.7885L23.6118 14.3603L25.0927 14.1219L26.5737 13.8836L26.4817 13.3118L25.0007 13.5502ZM25.0927 14.1219L23.6118 14.3603C23.723 15.0515 24.0354 15.6633 24.5199 16.1619L25.5957 15.1165L26.6714 14.0712C26.608 14.006 26.5851 13.9547 26.5737 13.8836L25.0927 14.1219ZM25.5957 15.1165L24.5199 16.1619L24.9309 16.5848L26.0066 15.5394L27.0823 14.494L26.6714 14.0712L25.5957 15.1165ZM26.0066 15.5394L24.9309 16.5848L25.3418 17.0076L26.4175 15.9623L27.4932 14.9169L27.0823 14.494L26.0066 15.5394ZM26.4175 15.9623L25.3418 17.0076C25.7951 17.4742 26.3466 17.8082 26.9792 17.983L27.3787 16.5372L27.7782 15.0913C27.677 15.0634 27.5878 15.0142 27.4932 14.9169L26.4175 15.9623ZM27.3787 16.5372L26.9792 17.983L27.5294 18.135L27.9289 16.6892L28.3284 15.2434L27.7782 15.0913L27.3787 16.5372ZM27.9289 16.6892L27.5294 18.135L28.0797 18.2871L28.4792 16.8412L28.8787 15.3954L28.3284 15.2434L27.9289 16.6892ZM28.4792 16.8412L28.0797 18.2871C28.4813 18.3981 28.8845 18.4938 29.2892 18.5743L29.5817 17.1031L29.8742 15.6319C29.5424 15.5659 29.2106 15.4871 28.8787 15.3954L28.4792 16.8412ZM29.5817 17.1031L29.2892 18.5743L29.8415 18.6841L30.134 17.2129L30.4264 15.7417L29.8742 15.6319L29.5817 17.1031ZM30.134 17.2129L29.8415 18.6841L30.3937 18.7939L30.6862 17.3227L30.9787 15.8515L30.4264 15.7417L30.134 17.2129ZM30.6862 17.3227L30.3937 18.7939C30.5042 18.8158 30.6038 18.8612 30.7098 18.9511L31.6804 17.8074L32.6509 16.6637C32.1677 16.2537 31.6046 15.9759 30.9787 15.8515L30.6862 17.3227ZM31.6804 17.8074L30.7098 18.9511L31.1517 19.3261L32.1222 18.1824L33.0928 17.0387L32.6509 16.6637L31.6804 17.8074ZM32.1222 18.1824L31.1517 19.3261L31.5935 19.701L32.5641 18.5573L33.5346 17.4136L33.0928 17.0387L32.1222 18.1824ZM32.5641 18.5573L31.5935 19.701C31.5756 19.6858 31.5122 19.6231 31.4685 19.5065C31.4246 19.3892 31.4305 19.2972 31.4351 19.268L32.9171 19.5L34.399 19.732C34.5399 18.8318 34.2235 17.9982 33.5346 17.4136L32.5641 18.5573ZM32.9171 19.5L31.4351 19.268L31.3462 19.8358L32.8282 20.0678L34.3101 20.2998L34.399 19.732L32.9171 19.5ZM32.8282 20.0678L31.3462 19.8358L31.2574 20.4035L32.7393 20.6355L34.2213 20.8675L34.3101 20.2998L32.8282 20.0678ZM32.7393 20.6355L31.2574 20.4035C31.2507 20.4463 31.2442 20.4479 31.2557 20.4266C31.2612 20.4165 31.2691 20.4044 31.2794 20.392C31.2896 20.3796 31.2997 20.3701 31.3075 20.3636L32.2569 21.525L33.2063 22.6863C33.7921 22.2074 34.1129 21.5597 34.2213 20.8675L32.7393 20.6355ZM32.2569 21.525L31.3075 20.3636L30.914 20.6853L31.8634 21.8467L32.8127 23.008L33.2063 22.6863L32.2569 21.525ZM31.8634 21.8467L30.914 20.6853L30.5205 21.007L31.4698 22.1684L32.4192 23.3297L32.8127 23.008L31.8634 21.8467ZM31.4698 22.1684L30.5205 21.007C30.3287 21.1638 30.1046 21.3177 29.8442 21.4666L30.5886 22.7689L31.333 24.0711C31.7228 23.8483 32.0862 23.6019 32.4192 23.3297L31.4698 22.1684ZM30.5886 22.7689L29.8442 21.4666L29.3565 21.7454L30.1008 23.0477L30.8452 24.3499L31.333 24.0711L30.5886 22.7689ZM30.1008 23.0477L29.3565 21.7454L28.8687 22.0242L29.6131 23.3264L30.3575 24.6287L30.8452 24.3499L30.1008 23.0477ZM29.6131 23.3264L28.8687 22.0242C28.6158 22.1687 28.3486 22.2937 28.066 22.3988L28.5888 23.8048L29.1116 25.2107C29.5444 25.0498 29.9601 24.8559 30.3575 24.6287L29.6131 23.3264ZM28.5888 23.8048L28.066 22.3988L27.5295 22.5983L28.0523 24.0043L28.5751 25.4102L29.1116 25.2107L28.5888 23.8048ZM28.0523 24.0043L27.5295 22.5983L26.9929 22.7978L27.5157 24.2038L28.0385 25.6097L28.5751 25.4102L28.0523 24.0043ZM27.5157 24.2038L26.9929 22.7978C26.311 23.0514 25.7644 23.5109 25.3947 24.1342L26.6848 24.8995L27.975 25.6647C27.9922 25.6357 28.0024 25.6278 28.0027 25.6276C28.0038 25.6266 28.0059 25.625 28.0102 25.6225C28.0147 25.6199 28.0235 25.6153 28.0385 25.6097L27.5157 24.2038ZM26.6848 24.8995L25.3947 24.1342L25.1004 24.6304L26.3905 25.3957L27.6807 26.1609L27.975 25.6647L26.6848 24.8995ZM26.3905 25.3957L25.1004 24.6304L24.8061 25.1266L26.0962 25.8918L27.3864 26.6571L27.6807 26.1609L26.3905 25.3957ZM26.0962 25.8918L24.8061 25.1266C24.3924 25.8241 24.3025 26.6115 24.5349 27.381L25.9708 26.9473L27.4068 26.5136C27.4042 26.5051 27.413 26.532 27.4073 26.5807C27.4046 26.6029 27.3997 26.6224 27.3944 26.6377C27.3892 26.6526 27.3851 26.6592 27.3864 26.6571L26.0962 25.8918ZM25.9708 26.9473L24.5349 27.381L24.7038 27.9403L26.1398 27.5066L27.5757 27.0729L27.4068 26.5136L25.9708 26.9473ZM26.1398 27.5066L24.7038 27.9403L24.8727 28.4996L26.3087 28.0659L27.7446 27.6322L27.5757 27.0729L26.1398 27.5066ZM26.3087 28.0659L24.8727 28.4996C24.9203 28.657 24.9292 28.803 24.9046 28.9549L26.3853 29.1949L27.8659 29.4349C27.9644 28.8272 27.9223 28.2205 27.7446 27.6322L26.3087 28.0659ZM26.3853 29.1949L24.9046 28.9549L24.8122 29.5246L26.2929 29.7646L27.7736 30.0046L27.8659 29.4349L26.3853 29.1949ZM26.2929 29.7646L24.8122 29.5246L24.7199 30.0943L26.2006 30.3343L27.6813 30.5742L27.7736 30.0046L26.2929 29.7646ZM26.2006 30.3343L24.7199 30.0943C24.6723 30.3879 24.5991 30.6783 24.4996 30.9663L25.9172 31.4565L27.3348 31.9467C27.49 31.4979 27.6057 31.0402 27.6813 30.5742L26.2006 30.3343ZM25.9172 31.4565L24.4996 30.9663L24.3085 31.5188L25.7261 32.009L27.1438 32.4992L27.3348 31.9467L25.9172 31.4565ZM25.7261 32.009L24.3085 31.5188L24.1175 32.0713L25.5351 32.5615L26.9527 33.0517L27.1438 32.4992L25.7261 32.009ZM25.5351 32.5615L24.1175 32.0713C24.1151 32.0779 24.1139 32.0797 24.1147 32.0783C24.115 32.0778 24.1154 32.0772 24.1159 32.0765C24.1164 32.0758 24.1166 32.0755 24.1165 32.0757C24.1165 32.0757 24.1132 32.0795 24.1044 32.0866C24.0955 32.0938 24.0795 32.1054 24.0539 32.1198L24.7914 33.426L25.5288 34.7322C26.1864 34.3609 26.6951 33.7967 26.9527 33.0517L25.5351 32.5615ZM24.7914 33.426L24.0539 32.1198L23.5012 32.4319L24.2387 33.7381L24.9762 35.0443L25.5288 34.7322L24.7914 33.426ZM24.2387 33.7381L23.5012 32.4319L22.9485 32.7439L23.686 34.0501L24.4235 35.3563L24.9762 35.0443L24.2387 33.7381ZM23.686 34.0501L22.9485 32.7439C22.962 32.7363 23.0734 32.6797 23.253 32.692C23.4366 32.7045 23.5519 32.7794 23.5837 32.8046L22.6512 33.9796L21.7188 35.1546C22.072 35.4348 22.5204 35.649 23.049 35.685C23.5735 35.7208 24.0416 35.5719 24.4235 35.3563L23.686 34.0501ZM22.6512 33.9796L23.5837 32.8046L23.1015 32.422L22.1691 33.597L21.2367 34.772L21.7188 35.1546L22.6512 33.9796ZM22.1691 33.597L23.1015 32.422L22.6194 32.0394L21.687 33.2144L20.7546 34.3894L21.2367 34.772L22.1691 33.597ZM21.687 33.2144L22.6194 32.0394C22.2329 31.7327 21.8259 31.4618 21.3985 31.2284L20.6796 32.545L19.9607 33.8615C20.2337 34.0106 20.4983 34.186 20.7546 34.3894L21.687 33.2144ZM20.6796 32.545L21.3985 31.2284L20.8731 30.9416L20.1542 32.2581L19.4354 33.5746L19.9607 33.8615L20.6796 32.545ZM20.1542 32.2581L20.8731 30.9416L20.3478 30.6547L19.6289 31.9712L18.91 33.2878L19.4354 33.5746L20.1542 32.2581ZM19.6289 31.9712L20.3478 30.6547C20.2313 30.5911 20.1808 30.5303 20.1476 30.4699L18.8332 31.1925L17.5187 31.9151C17.8461 32.5106 18.3261 32.9689 18.91 33.2878L19.6289 31.9712ZM18.8332 31.1925L20.1476 30.4699L19.8772 29.978L18.5628 30.7006L17.2483 31.4232L17.5187 31.9151L18.8332 31.1925ZM18.5628 30.7006L19.8772 29.978L19.6068 29.4861L18.2923 30.2087L16.9779 30.9313L17.2483 31.4232L18.5628 30.7006ZM18.2923 30.2087L19.6068 29.4861C19.2707 28.8747 18.7559 28.391 18.0709 28.131L17.5386 29.5333L17.0063 30.9357C17.0041 30.9349 16.998 30.9323 16.9897 30.9273C16.9813 30.9222 16.9737 30.9164 16.9677 30.911C16.9618 30.9057 16.9598 30.9029 16.9612 30.9048C16.9628 30.9068 16.9688 30.9148 16.9779 30.9313L18.2923 30.2087ZM17.5386 29.5333L18.0709 28.131L17.5877 27.9475L17.0553 29.3499L16.523 30.7522L17.0063 30.9357L17.5386 29.5333ZM17.0553 29.3499L17.5877 27.9475L17.1044 27.7641L16.572 29.1664L16.0397 30.5688L16.523 30.7522L17.0553 29.3499ZM16.572 29.1664L17.1044 27.7641C16.456 27.5179 15.7818 27.5094 15.1369 27.7007L15.5634 29.1388L15.99 30.5769C16.0089 30.5713 16.0215 30.569 16.0284 30.568C16.0351 30.5671 16.0378 30.5672 16.0372 30.5672C16.0365 30.5672 16.0351 30.5671 16.0339 30.5669C16.0329 30.5666 16.0346 30.5668 16.0397 30.5688L16.572 29.1664ZM15.5634 29.1388L15.1369 27.7007L14.6116 27.8565L15.0381 29.2946L15.4647 30.7327L15.99 30.5769L15.5634 29.1388ZM15.0381 29.2946L14.6116 27.8565L14.0863 28.0123L14.5128 29.4504L14.9393 30.8885L15.4647 30.7327L15.0381 29.2946ZM14.5128 29.4504L14.0863 28.0123C13.7146 28.1226 13.3412 28.2424 12.9662 28.3717L13.455 29.7898L13.9438 31.2079C14.2788 31.0924 14.6106 30.986 14.9393 30.8885L14.5128 29.4504ZM13.455 29.7898L12.9662 28.3717L12.4337 28.5552L12.9225 29.9733L13.4113 31.3914L13.9438 31.2079L13.455 29.7898ZM12.9225 29.9733L12.4337 28.5552L11.9011 28.7388L12.39 30.1569L12.8788 31.575L13.4113 31.3914L12.9225 29.9733ZM12.39 30.1569L11.9011 28.7388C11.7765 28.7817 11.6892 28.7824 11.6136 28.7682L11.3363 30.2424L11.0589 31.7165C11.6782 31.833 12.2934 31.7768 12.8788 31.575L12.39 30.1569ZM11.3363 30.2424L11.6136 28.7682L11.0924 28.6702L10.8151 30.1443L10.5377 31.6184L11.0589 31.7165L11.3363 30.2424ZM10.8151 30.1443L11.0924 28.6702L10.5712 28.5721L10.2939 30.0462L10.0165 31.5204L10.5377 31.6184L10.8151 30.1443ZM10.2939 30.0462L10.5712 28.5721C10.4895 28.5567 10.4676 28.5356 10.4547 28.5232L9.41534 29.6048L8.37602 30.6864C8.83958 31.1318 9.40334 31.405 10.0165 31.5204L10.2939 30.0462ZM9.41534 29.6048L10.4547 28.5232L10.0973 28.1798L9.05799 29.2614L8.01868 30.343L8.37602 30.6864L9.41534 29.6048ZM9.05799 29.2614L10.0973 28.1798L9.73996 27.8364L8.70065 28.918L7.66133 29.9996L8.01868 30.343L9.05799 29.2614ZM8.70065 28.918L9.73996 27.8364C9.66439 27.7638 9.54805 27.6172 9.41708 27.3436L8.06403 27.9911L6.71099 28.6386C6.95237 29.143 7.26044 29.6144 7.66133 29.9996L8.70065 28.918ZM8.06403 27.9911L9.41708 27.3436L9.13781 26.76L7.78476 27.4075L6.43172 28.055L6.71099 28.6386L8.06403 27.9911ZM7.78476 27.4075L9.13781 26.76L8.85854 26.1764L7.5055 26.8239L6.15245 27.4714L6.43172 28.055L7.78476 27.4075ZM7.5055 26.8239L8.85854 26.1764C8.87891 26.219 8.98152 26.4747 8.85901 26.8138C8.80346 26.9675 8.72126 27.0772 8.65437 27.145C8.62216 27.1777 8.59464 27.1996 8.57653 27.2127C8.55848 27.2258 8.54777 27.2316 8.54758 27.2317L7.83505 25.9117L7.12252 24.5918C6.73235 24.8024 6.2621 25.1727 6.03749 25.7944C5.80513 26.4376 5.9459 27.0398 6.15245 27.4714L7.5055 26.8239ZM7.83505 25.9117L8.54758 27.2317L9.1564 26.903L8.44387 25.5831L7.73135 24.2631L7.12252 24.5918L7.83505 25.9117ZM8.44387 25.5831L9.1564 26.903L9.76522 26.5744L9.0527 25.2544L8.34017 23.9345L7.73135 24.2631L8.44387 25.5831ZM9.0527 25.2544L9.76522 26.5744C10.389 26.2377 10.9288 25.7479 11.2616 25.0709L9.91553 24.4091L8.56941 23.7473C8.56358 23.7592 8.52814 23.833 8.34017 23.9345L9.0527 25.2544ZM9.91553 24.4091L11.2616 25.0709L11.5156 24.5543L10.1695 23.8925L8.82342 23.2307L8.56941 23.7473L9.91553 24.4091ZM10.1695 23.8925L11.5156 24.5543L11.7697 24.0376L10.4235 23.3758L9.07742 22.714L8.82342 23.2307L10.1695 23.8925ZM10.4235 23.3758L11.7697 24.0376C12.0194 23.5296 12.1731 22.9862 12.2414 22.4198L10.7522 22.2401L9.26304 22.0605C9.23179 22.3194 9.16634 22.5332 9.07742 22.714L10.4235 23.3758ZM10.7522 22.2401L12.2414 22.4198L12.3161 21.8008L10.8269 21.6211L9.33773 21.4415L9.26304 22.0605L10.7522 22.2401ZM10.8269 21.6211L12.3161 21.8008L12.3908 21.1818L10.9016 21.0022L9.41241 20.8225L9.33773 21.4415L10.8269 21.6211ZM10.9016 21.0022L12.3908 21.1818C12.4437 20.7439 12.3976 20.2668 12.1791 19.8083C11.9611 19.3506 11.6207 19.0152 11.2514 18.7801L10.4458 20.0454L9.64016 21.3107C9.6245 21.3007 9.53693 21.2374 9.47084 21.0986C9.40433 20.9591 9.40937 20.8477 9.41241 20.8225L10.9016 21.0022ZM10.4458 20.0454L11.2514 18.7801L10.7208 18.4423L9.91521 19.7076L9.10962 20.9729L9.64016 21.3107L10.4458 20.0454ZM9.91521 19.7076L10.7208 18.4423L10.1903 18.1045L9.38467 19.3698L8.57907 20.6351L9.10962 20.9729L9.91521 19.7076ZM9.38467 19.3698L10.1903 18.1045C10.0212 17.9968 9.93103 17.8914 9.87617 17.7949L8.57229 18.5365L7.26841 19.278C7.58932 19.8423 8.04077 20.2924 8.57907 20.6351L9.38467 19.3698ZM8.57229 18.5365L9.87617 17.7949L9.59434 17.2994L8.29046 18.0409L6.98658 18.7825L7.26841 19.278L8.57229 18.5365ZM8.29046 18.0409L9.59434 17.2994L9.31251 16.8038L8.00864 17.5454L6.70476 18.2869L6.98658 18.7825L8.29046 18.0409ZM8.00864 17.5454L9.31251 16.8038C9.15257 16.5226 9.00097 16.219 8.85846 15.8921L7.4834 16.4914L6.10834 17.0908C6.29038 17.5084 6.48893 17.9075 6.70476 18.2869L8.00864 17.5454ZM7.4834 16.4914L8.85846 15.8921L8.61505 15.3336L7.23999 15.933L5.86494 16.5323L6.10834 17.0908L7.4834 16.4914ZM7.23999 15.933L8.61505 15.3336L8.37164 14.7752L6.99658 15.3745L5.62153 15.9739L5.86494 16.5323L7.23999 15.933ZM6.99658 15.3745L8.37164 14.7752C8.38271 14.8006 8.4447 14.9637 8.38992 15.201C8.33359 15.4451 8.19758 15.5789 8.1512 15.6163L7.2105 14.4479L6.2698 13.2795C5.91853 13.5623 5.59443 13.9733 5.4668 14.5263C5.34071 15.0725 5.44818 15.5762 5.62153 15.9739L6.99658 15.3745ZM7.2105 14.4479L8.1512 15.6163L8.60852 15.248L7.66782 14.0797L6.72712 12.9113L6.2698 13.2795L7.2105 14.4479ZM7.66782 14.0797L8.60852 15.248L9.06584 14.8798L8.12514 13.7115L7.18444 12.5431L6.72712 12.9113L7.66782 14.0797ZM8.12514 13.7115L9.06584 14.8798C9.53197 14.5045 9.91068 14.0427 10.2122 13.5208L8.91327 12.7705L7.61437 12.0203C7.47477 12.262 7.32807 12.4275 7.18444 12.5431L8.12514 13.7115ZM8.91327 12.7705L10.2122 13.5208L10.543 12.9481L9.24407 12.1978L7.94517 11.4476L7.61437 12.0203L8.91327 12.7705ZM9.24407 12.1978L10.543 12.9481L10.8738 12.3753L9.57488 11.6251L8.27598 10.8749L7.94517 11.4476L9.24407 12.1978ZM9.57488 11.6251L10.8738 12.3753C10.8732 12.3764 10.7494 12.59 10.4232 12.6948C10.0832 12.8041 9.83513 12.6962 9.79667 12.6769L10.4712 11.3371L11.1457 9.9973C10.7302 9.78813 10.1443 9.63338 9.50547 9.83865C8.88053 10.0395 8.49711 10.492 8.27598 10.8749L9.57488 11.6251ZM10.4712 11.3371L9.79667 12.6769L10.3622 12.9616L11.0367 11.6218L11.7112 10.282L11.1457 9.9973L10.4712 11.3371ZM11.0367 11.6218L10.3622 12.9616L10.9277 13.2463L11.6022 11.9065L12.2767 10.5667L11.7112 10.282L11.0367 11.6218ZM11.6022 11.9065L10.9277 13.2463C11.4385 13.5035 11.9767 13.679 12.5381 13.7512L12.7295 12.2635L12.9208 10.7757C12.7332 10.7516 12.5199 10.6891 12.2767 10.5667L11.6022 11.9065ZM12.7295 12.2635L12.5381 13.7512L13.0998 13.8235L13.2912 12.3357L13.4826 10.848L12.9208 10.7757L12.7295 12.2635ZM13.2912 12.3357L13.0998 13.8235L13.6616 13.8957L13.8529 12.408L14.0443 10.9202L13.4826 10.848L13.2912 12.3357ZM13.8529 12.408L13.6616 13.8957C14.1968 13.9646 14.7489 13.9461 15.2849 13.7849L14.8529 12.3484L14.4209 10.912C14.3726 10.9265 14.258 10.9477 14.0443 10.9202L13.8529 12.408ZM14.8529 12.3484L15.2849 13.7849L15.7231 13.6531L15.2911 12.2166L14.8591 10.7802L14.4209 10.912L14.8529 12.3484ZM15.2911 12.2166L15.7231 13.6531L16.1613 13.5213L15.7293 12.0849L15.2973 10.6484L14.8591 10.7802L15.2911 12.2166ZM15.7293 12.0849L16.1613 13.5213C16.5396 13.4075 16.9219 13.255 17.3065 13.071L16.6591 11.7179L16.0117 10.3648C15.7409 10.4944 15.5033 10.5865 15.2973 10.6484L15.7293 12.0849ZM16.6591 11.7179L17.3065 13.071L17.798 12.8358L17.1507 11.4827L16.5033 10.1296L16.0117 10.3648L16.6591 11.7179ZM17.1507 11.4827L17.798 12.8358L18.2896 12.6007L17.6422 11.2475L16.9949 9.89442L16.5033 10.1296L17.1507 11.4827ZM17.6422 11.2475L18.2896 12.6007C18.842 12.3364 19.3053 11.9502 19.6711 11.4648L18.4731 10.562L17.2752 9.65933C17.1885 9.77434 17.0979 9.84512 16.9949 9.89442L17.6422 11.2475ZM18.4731 10.562L19.6711 11.4648L20.0104 11.0144L18.8125 10.1117L17.6145 9.20901L17.2752 9.65933L18.4731 10.562ZM18.8125 10.1117L20.0104 11.0144L20.3498 10.5641L19.1518 9.6614L17.9539 8.75868L17.6145 9.20901L18.8125 10.1117ZM19.1518 9.6614L20.3498 10.5641C20.4833 10.387 20.597 10.2929 20.6797 10.2423L19.8966 8.96292L19.1136 7.6835C18.6557 7.96379 18.2728 8.33538 17.9539 8.75868L19.1518 9.6614ZM19.8966 8.96292L20.6797 10.2423L21.0851 9.99417L20.3021 8.71476L19.5191 7.43534L19.1136 7.6835L19.8966 8.96292ZM20.3021 8.71476L21.0851 9.99417L21.4906 9.74601L20.7076 8.46659L19.9246 7.18718L19.5191 7.43534L20.3021 8.71476ZM20.7076 8.46659L21.4906 9.74601C21.6783 9.63117 21.8912 9.5258 22.1327 9.4324L21.5917 8.03337L21.0506 6.63434C20.6541 6.78769 20.2776 6.97113 19.9246 7.18718L20.7076 8.46659ZM21.5917 8.03337L22.1327 9.4324L22.6112 9.24734L22.0702 7.84831L21.5292 6.44928L21.0506 6.63434L21.5917 8.03337ZM22.0702 7.84831L22.6112 9.24734L23.0898 9.06228L22.5487 7.66325L22.0077 6.26422L21.5292 6.44928L22.0702 7.84831ZM22.5487 7.66325L23.0898 9.06228C23.0277 9.08629 22.7598 9.17007 22.4177 9.03644C22.0741 8.90224 21.9325 8.65702 21.9014 8.59307L23.2505 7.93734L24.5995 7.28161C24.4197 6.91157 24.0867 6.46761 23.5092 6.24205C22.9332 6.01705 22.3888 6.11683 22.0077 6.26422L22.5487 7.66325ZM23.2505 7.93734L21.9014 8.59307L22.1246 9.05223L23.4736 8.3965L24.8227 7.74077L24.5995 7.28161L23.2505 7.93734ZM23.4736 8.3965L22.1246 9.05223L22.3477 9.51138L23.6968 8.85565L25.0459 8.19992L24.8227 7.74077L23.4736 8.3965ZM23.6968 8.85565L22.3477 9.51138C22.4981 9.82074 22.6226 10.0692 22.7158 10.2421L24.0361 9.53013L25.3564 8.81816C25.2948 8.70392 25.1931 8.50278 25.0459 8.19992L23.6968 8.85565ZM24.0361 9.53013L22.7158 10.2421L22.832 10.4574L24.1522 9.74545L25.4725 9.03348L25.3564 8.81816L24.0361 9.53013ZM24.1522 9.74545L22.832 10.4574L22.9481 10.6727L24.2683 9.96077L25.5886 9.2488L25.4725 9.03348L24.1522 9.74545ZM24.2683 9.96077L22.9481 10.6727C23.1056 10.9649 23.6124 11.7183 24.6099 11.6664L24.5319 10.1684L24.4539 8.67045C24.8174 8.65153 25.1204 8.78443 25.3206 8.9421C25.494 9.07875 25.5708 9.21589 25.5886 9.2488L24.2683 9.96077ZM24.5319 10.1684L24.6099 11.6664L24.7573 11.6587L24.6793 10.1607L24.6013 8.66278L24.4539 8.67045L24.5319 10.1684ZM24.6793 10.1607L24.7573 11.6587L24.9048 11.651L24.8268 10.1531L24.7488 8.6551L24.6013 8.66278L24.6793 10.1607ZM24.8268 10.1531L24.9048 11.651C24.6678 11.6634 24.413 11.6168 24.1736 11.4935C23.9421 11.3742 23.7847 11.2141 23.6848 11.0797C23.5059 10.8388 23.4633 10.6171 23.4549 10.574C23.4341 10.4667 23.4496 10.4461 23.4385 10.6065L24.9348 10.7107L26.4312 10.815C26.4463 10.5984 26.4569 10.2964 26.4001 10.0033C26.3737 9.86724 26.3053 9.57643 26.0928 9.29042C25.8269 8.93253 25.3535 8.62362 24.7488 8.6551L24.8268 10.1531ZM24.9348 10.7107L23.4385 10.6065L23.3991 11.1718L24.8954 11.276L26.3918 11.3803L26.4312 10.815L24.9348 10.7107Z" fill="white"/>
</g>
<defs>
<clipPath id="clip0_421_353">
<rect width="40" height="40" fill="white"/>
</clipPath>
</defs>
</svg>
