<svg width="39" height="40" viewBox="0 0 39 40" fill="none" xmlns="http://www.w3.org/2000/svg">
<g clip-path="url(#clip0_434_356)">
<path d="M11.633 8.90551C11.9271 3.24931 19.2872 1.27391 22.3739 6.02273V6.02273C23.7543 8.14647 26.3453 9.1398 28.7916 8.48322V8.48322C34.2619 7.01506 38.415 13.4046 34.8525 17.8076V17.8076C33.2592 19.7768 33.1152 22.5478 34.4956 24.6716V24.6716C37.5823 29.4204 32.7889 35.3447 27.5004 33.3172V33.3172C25.1353 32.4104 22.4554 33.1297 20.8621 35.0988V35.0988C17.2996 39.5019 10.184 36.7739 10.4781 31.1177V31.1177C10.6096 28.5881 9.09735 26.2616 6.73227 25.3549V25.3549C1.44379 23.3273 1.83948 15.7169 7.30972 14.2488V14.2488C9.75609 13.5922 11.5014 11.435 11.633 8.90551V8.90551Z" fill="#F3B8FF"/>
<path d="M25.7204 9.00169L27.136 11.0623L25.7204 9.00169ZM27.6378 7.68456L29.0534 9.74521L27.6378 7.68456ZM29.5643 7.53628L28.3982 9.74769L29.5643 7.53628ZM31.4998 8.55684L32.6658 6.34543L31.4998 8.55684ZM33.5056 9.41419L32.7128 11.7852V11.7852L33.5056 9.41419ZM35.5816 10.1083L36.3743 7.73733V7.73733L35.5816 10.1083ZM36.2638 11.5131L38.6333 12.3102L36.2638 11.5131ZM35.5521 13.6285L33.1826 12.8314L35.5521 13.6285ZM34.7739 15.3626L36.8944 16.6868L34.7739 15.3626ZM34.3515 16.039L32.231 14.7148L34.3515 16.039ZM33.9291 16.7154L36.0496 18.0396L33.9291 16.7154ZM33.8914 18.4524L31.5413 19.3049L33.8914 18.4524ZM34.6609 20.5737L37.0111 19.7212L34.6609 20.5737ZM34.983 22.5182L32.4893 22.3414L34.983 22.5182ZM34.8578 24.2858L37.3515 24.4625L34.8578 24.2858ZM34.5664 27.7815L32.0759 27.5633L34.5664 27.7815ZM34.2515 29.4746L31.8505 28.7782L34.2515 29.4746ZM33.7743 31.1197L31.3733 30.4232L33.7743 31.1197ZM32.7356 32.3586L33.8897 34.5763L32.7356 32.3586ZM31.1353 33.1914L29.9812 30.9738L31.1353 33.1914ZM29.3847 33.6407L29.2983 31.1422L29.3847 33.6407ZM28.4343 33.6736L28.5207 36.1721L28.4343 33.6736ZM27.4839 33.7064L27.3975 31.2079L27.4839 33.7064ZM25.5933 33.5292L26.1386 31.0894L25.5933 33.5292ZM23.7131 33.109L23.1679 35.5489L23.7131 33.109ZM22.0508 33.5519L23.7275 35.4063L22.0508 33.5519ZM20.6064 34.8579L18.9298 33.0035L20.6064 34.8579ZM19.0977 35.7985L18.2391 33.4505L19.0977 35.7985ZM17.5248 36.3737L18.3834 38.7216L17.5248 36.3737ZM15.8489 36.597L15.6686 39.0905L15.8489 36.597ZM14.9595 36.5327L15.1398 34.0392L14.9595 36.5327ZM14.0702 36.4684L13.8899 38.9619L14.0702 36.4684ZM12.7978 35.6122L15.0484 34.5238L12.7978 35.6122ZM12.4148 34.8204L10.1642 35.9089L12.4148 34.8204ZM12.0319 34.0285L14.2825 32.94L12.0319 34.0285ZM11.5088 32.3589L9.04005 32.7528L11.5088 32.3589ZM11.3688 31.4811L13.8376 31.0872L11.3688 31.4811ZM11.2287 30.6033L8.75996 30.9972L11.2287 30.6033ZM10.7294 28.6852L13.0924 27.8691L10.7294 28.6852ZM10.3701 27.6449L8.00705 28.461L10.3701 27.6449ZM10.0108 26.6046L12.3738 25.7884L10.0108 26.6046ZM8.79231 25.0705L10.0379 22.9029L8.79231 25.0705ZM7.07395 24.083L5.82834 26.2506L7.07395 24.083ZM5.39378 23.154L4.2226 25.3627L5.39378 23.154ZM3.75181 22.2833L4.92299 20.0746L3.75181 22.2833ZM2.82139 20.8363L0.335892 21.1051L2.82139 20.8363ZM3.15612 17.0087L5.07337 18.6131L3.15612 17.0087ZM3.81915 16.2164L1.90189 14.612L3.81915 16.2164ZM4.48218 15.4241L2.56492 13.8197L4.48218 15.4241ZM6.07128 14.3579L6.78027 16.7553L6.07128 14.3579ZM7.92343 13.8102L7.21444 11.4128L7.92343 13.8102ZM9.4001 12.8201L11.3821 14.3438L9.4001 12.8201ZM9.9507 12.1039L11.9327 13.6275L9.9507 12.1039ZM10.5013 11.3876L8.51928 9.86395L10.5013 11.3876ZM11.994 9.05403L14.1543 10.3124L11.994 9.05403ZM12.4651 8.24533L10.3049 6.98699L12.4651 8.24533ZM13.2735 6.61326L10.96 5.66562L13.2735 6.61326ZM13.948 4.96651L16.2614 5.91415L13.948 4.96651ZM15.205 3.84894L15.9667 6.23008L15.205 3.84894ZM17.0444 3.26054L16.2827 0.8794L17.0444 3.26054ZM18.5847 3.66993L20.4596 2.01622L18.5847 3.66993ZM19.2053 4.37352L17.3304 6.02723L19.2053 4.37352ZM19.8259 5.07711L21.7008 3.4234L19.8259 5.07711ZM20.9283 5.84121L20.6168 8.32173L20.9283 5.84121ZM21.8921 5.96222L22.2035 3.4817L21.8921 5.96222ZM22.9709 6.93211L20.8809 8.30402L22.9709 6.93211ZM23.5678 7.84149L21.4779 9.2134L22.0748 10.1228L24.1648 8.75088L26.2547 7.37897L25.6578 6.46959L23.5678 7.84149ZM24.1648 8.75088L22.0748 10.1228C22.5072 10.7815 23.2695 11.5454 24.4542 11.7364C25.594 11.9202 26.5358 11.4746 27.136 11.0623L25.7204 9.00169L24.3049 6.94104C24.305 6.94097 24.3092 6.93807 24.3176 6.93306C24.326 6.92805 24.3391 6.92055 24.357 6.91149C24.3922 6.89366 24.4502 6.86756 24.5299 6.84308C24.6955 6.79226 24.9476 6.75138 25.2501 6.80014C25.9163 6.90755 26.2203 7.3265 26.2547 7.37897L24.1648 8.75088ZM25.7204 9.00169L27.136 11.0623L28.0947 10.4038L26.6791 8.34313L25.2636 6.28248L24.3049 6.94104L25.7204 9.00169ZM26.6791 8.34313L28.0947 10.4038L29.0534 9.74521L27.6378 7.68456L26.2223 5.62391L25.2636 6.28248L26.6791 8.34313ZM27.6378 7.68456L29.0534 9.74521C29.0842 9.72405 28.99 9.79549 28.7907 9.81084C28.5816 9.82693 28.436 9.7676 28.3982 9.74769L29.5643 7.53628L30.7303 5.32487C30.0474 4.96478 29.2582 4.76006 28.4069 4.82558C27.5655 4.89035 26.8306 5.20604 26.2223 5.62391L27.6378 7.68456ZM29.5643 7.53628L28.3982 9.74769L29.366 10.258L30.532 8.04656L31.6981 5.83515L30.7303 5.32487L29.5643 7.53628ZM30.532 8.04656L29.366 10.258L30.3337 10.7683L31.4998 8.55684L32.6658 6.34543L31.6981 5.83515L30.532 8.04656ZM31.4998 8.55684L30.3337 10.7683C31.0989 11.1717 31.8923 11.5108 32.7128 11.7852L33.5056 9.41419L34.2983 7.0432C33.7348 6.85479 33.1911 6.62237 32.6658 6.34543L31.4998 8.55684ZM33.5056 9.41419L32.7128 11.7852L33.7508 12.1322L34.5436 9.76125L35.3363 7.39026L34.2983 7.0432L33.5056 9.41419ZM34.5436 9.76125L33.7508 12.1322L34.7889 12.4793L35.5816 10.1083L36.3743 7.73733L35.3363 7.39026L34.5436 9.76125ZM35.5816 10.1083L34.7889 12.4793C34.758 12.469 34.3039 12.3049 34.0223 11.7251C33.7463 11.1567 33.894 10.7168 33.8943 10.7159L36.2638 11.5131L38.6333 12.3102C38.8708 11.6042 39.0234 10.5776 38.52 9.54094C38.0111 8.49294 37.0972 7.97903 36.3743 7.73733L35.5816 10.1083ZM36.2638 11.5131L33.8943 10.7159L33.5385 11.7736L35.908 12.5708L38.2775 13.3679L38.6333 12.3102L36.2638 11.5131ZM35.908 12.5708L33.5385 11.7736L33.1826 12.8314L35.5521 13.6285L37.9216 14.4256L38.2775 13.3679L35.908 12.5708ZM35.5521 13.6285L33.1826 12.8314C32.9849 13.419 32.7999 13.8038 32.6534 14.0384L34.7739 15.3626L36.8944 16.6868C37.3111 16.0195 37.6449 15.2483 37.9216 14.4256L35.5521 13.6285ZM34.7739 15.3626L32.6534 14.0384L32.231 14.7148L34.3515 16.039L36.472 17.3632L36.8944 16.6868L34.7739 15.3626ZM34.3515 16.039L32.231 14.7148L31.8086 15.3912L33.9291 16.7154L36.0496 18.0396L36.472 17.3632L34.3515 16.039ZM33.9291 16.7154L31.8086 15.3912C30.9704 16.7335 31.1372 18.1909 31.5413 19.3049L33.8914 18.4524L36.2416 17.5999C36.1888 17.4543 36.21 17.4457 36.2079 17.542C36.2068 17.594 36.1988 17.6711 36.1722 17.7642C36.1453 17.8585 36.1039 17.9526 36.0496 18.0396L33.9291 16.7154ZM33.8914 18.4524L31.5413 19.3049L31.926 20.3656L34.2762 19.5131L36.6263 18.6606L36.2416 17.5999L33.8914 18.4524ZM34.2762 19.5131L31.926 20.3656L32.3108 21.4262L34.6609 20.5737L37.0111 19.7212L36.6263 18.6606L34.2762 19.5131ZM34.6609 20.5737L32.3108 21.4262C32.4793 21.8908 32.5005 22.1832 32.4893 22.3414L34.983 22.5182L37.4768 22.6949C37.5491 21.6747 37.3555 20.6708 37.0111 19.7212L34.6609 20.5737ZM34.983 22.5182L32.4893 22.3414L32.4267 23.2252L34.9204 23.402L37.4141 23.5787L37.4768 22.6949L34.983 22.5182ZM34.9204 23.402L32.4267 23.2252L32.364 24.109L34.8578 24.2858L37.3515 24.4625L37.4141 23.5787L34.9204 23.402ZM34.8578 24.2858L32.364 24.109C32.3232 24.6846 32.278 25.2556 32.2284 25.8221L34.7189 26.0402L37.2093 26.2584C37.2614 25.664 37.3088 25.0653 37.3515 24.4625L34.8578 24.2858ZM34.7189 26.0402L32.2284 25.8221L32.1521 26.6927L34.6426 26.9108L37.1331 27.129L37.2093 26.2584L34.7189 26.0402ZM34.6426 26.9108L32.1521 26.6927L32.0759 27.5633L34.5664 27.7815L37.0568 27.9996L37.1331 27.129L34.6426 26.9108ZM34.5664 27.7815L32.0759 27.5633C32.0389 27.9851 31.9633 28.3891 31.8505 28.7782L34.2515 29.4746L36.6525 30.1711C36.8578 29.4634 36.9921 28.7387 37.0568 27.9996L34.5664 27.7815ZM34.2515 29.4746L31.8505 28.7782L31.6119 29.6007L34.0129 30.2971L36.4139 30.9936L36.6525 30.1711L34.2515 29.4746ZM34.0129 30.2971L31.6119 29.6007L31.3733 30.4232L33.7743 31.1197L36.1753 31.8162L36.4139 30.9936L34.0129 30.2971ZM33.7743 31.1197L31.3733 30.4232C31.3847 30.3839 31.4164 30.3099 31.4796 30.2345C31.5408 30.1615 31.5903 30.1364 31.5815 30.141L32.7356 32.3586L33.8897 34.5763C34.993 34.0021 35.8149 33.0588 36.1753 31.8162L33.7743 31.1197ZM32.7356 32.3586L31.5815 30.141L30.7813 30.5574L31.9354 32.775L33.0895 34.9927L33.8897 34.5763L32.7356 32.3586ZM31.9354 32.775L30.7813 30.5574L29.9812 30.9738L31.1353 33.1914L32.2894 35.4091L33.0895 34.9927L31.9354 32.775ZM31.1353 33.1914L29.9812 30.9738C29.7962 31.0701 29.5803 31.1325 29.2983 31.1422L29.3847 33.6407L29.4711 36.1392C30.4564 36.1052 31.4075 35.8681 32.2894 35.4091L31.1353 33.1914ZM29.3847 33.6407L29.2983 31.1422L28.3479 31.1751L28.4343 33.6736L28.5207 36.1721L29.4711 36.1392L29.3847 33.6407ZM28.4343 33.6736L28.3479 31.1751L27.3975 31.2079L27.4839 33.7064L27.5702 36.2049L28.5207 36.1721L28.4343 33.6736ZM27.4839 33.7064L27.3975 31.2079C26.9788 31.2224 26.5608 31.1837 26.1386 31.0894L25.5933 33.5292L25.0481 35.969C25.8793 36.1548 26.7217 36.2343 27.5702 36.2049L27.4839 33.7064ZM25.5933 33.5292L26.1386 31.0894L25.1985 30.8793L24.6532 33.3191L24.108 35.7589L25.0481 35.969L25.5933 33.5292ZM24.6532 33.3191L25.1985 30.8793L24.2584 30.6692L23.7131 33.109L23.1679 35.5489L24.108 35.7589L24.6532 33.3191ZM23.7131 33.109L24.2584 30.6692C22.8298 30.35 21.4497 30.7251 20.3742 31.6975L22.0508 33.5519L23.7275 35.4063C23.7126 35.4197 23.6262 35.4891 23.4711 35.5304C23.315 35.572 23.1993 35.5559 23.1679 35.5489L23.7131 33.109ZM22.0508 33.5519L20.3742 31.6975L19.652 32.3505L21.3286 34.2049L23.0053 36.0593L23.7275 35.4063L22.0508 33.5519ZM21.3286 34.2049L19.652 32.3505L18.9298 33.0035L20.6064 34.8579L22.2831 36.7123L23.0053 36.0593L21.3286 34.2049ZM20.6064 34.8579L18.9298 33.0035C18.6484 33.2578 18.4166 33.3856 18.2391 33.4505L19.0977 35.7985L19.9564 38.1464C20.8275 37.8278 21.6014 37.3286 22.2831 36.7123L20.6064 34.8579ZM19.0977 35.7985L18.2391 33.4505L17.4526 33.7382L18.3112 36.0861L19.1699 38.434L19.9564 38.1464L19.0977 35.7985ZM18.3112 36.0861L17.4526 33.7382L16.6661 34.0258L17.5248 36.3737L18.3834 38.7216L19.1699 38.434L18.3112 36.0861ZM17.5248 36.3737L16.6661 34.0258C16.4951 34.0883 16.2926 34.1226 16.0292 34.1035L15.8489 36.597L15.6686 39.0905C16.591 39.1572 17.5057 39.0426 18.3834 38.7216L17.5248 36.3737ZM15.8489 36.597L16.0292 34.1035L15.1398 34.0392L14.9595 36.5327L14.7792 39.0262L15.6686 39.0905L15.8489 36.597ZM14.9595 36.5327L15.1398 34.0392L14.2504 33.9749L14.0702 36.4684L13.8899 38.9619L14.7792 39.0262L14.9595 36.5327ZM14.0702 36.4684L14.2504 33.9749C14.3172 33.9797 14.4983 34.0103 14.7031 34.1481C14.9094 34.2869 15.0122 34.4488 15.0484 34.5238L12.7978 35.6122L10.5472 36.7007C11.1984 38.0471 12.4205 38.8557 13.8899 38.9619L14.0702 36.4684ZM12.7978 35.6122L15.0484 34.5238L14.6654 33.7319L12.4148 34.8204L10.1642 35.9089L10.5472 36.7007L12.7978 35.6122ZM12.4148 34.8204L14.6654 33.7319L14.2825 32.94L12.0319 34.0285L9.78125 35.117L10.1642 35.9089L12.4148 34.8204ZM12.0319 34.0285L14.2825 32.94C14.1345 32.6341 14.0329 32.3118 13.9776 31.965L11.5088 32.3589L9.04005 32.7528C9.17145 33.5763 9.41858 34.3671 9.78125 35.117L12.0319 34.0285ZM11.5088 32.3589L13.9776 31.965L13.8376 31.0872L11.3688 31.4811L8.90001 31.875L9.04005 32.7528L11.5088 32.3589ZM11.3688 31.4811L13.8376 31.0872L13.6975 30.2095L11.2287 30.6033L8.75996 30.9972L8.90001 31.875L11.3688 31.4811ZM11.2287 30.6033L13.6975 30.2095C13.5766 29.4516 13.3687 28.6691 13.0924 27.8691L10.7294 28.6852L8.36635 29.5014C8.56913 30.0885 8.69414 30.5847 8.75996 30.9972L11.2287 30.6033ZM10.7294 28.6852L13.0924 27.8691L12.7331 26.8288L10.3701 27.6449L8.00705 28.461L8.36635 29.5014L10.7294 28.6852ZM10.3701 27.6449L12.7331 26.8288L12.3738 25.7884L10.0108 26.6046L7.64775 27.4207L8.00705 28.461L10.3701 27.6449ZM10.0108 26.6046L12.3738 25.7884C11.9606 24.5921 11.1932 23.5668 10.0379 22.9029L8.79231 25.0705L7.54671 27.2381C7.55732 27.2442 7.56145 27.2477 7.56211 27.2483C7.56273 27.2488 7.56476 27.2506 7.5689 27.2558C7.57569 27.2643 7.60904 27.3086 7.64775 27.4207L10.0108 26.6046ZM8.79231 25.0705L10.0379 22.9029L9.17873 22.4092L7.93313 24.5768L6.68753 26.7444L7.54671 27.2381L8.79231 25.0705ZM7.93313 24.5768L9.17873 22.4092L8.31954 21.9154L7.07395 24.083L5.82834 26.2506L6.68753 26.7444L7.93313 24.5768ZM7.07395 24.083L8.31954 21.9154C7.72379 21.5731 7.1389 21.2496 6.56496 20.9453L5.39378 23.154L4.2226 25.3627C4.7433 25.6388 5.27852 25.9347 5.82834 26.2506L7.07395 24.083ZM5.39378 23.154L6.56496 20.9453L5.74398 20.51L4.5728 22.7187L3.40162 24.9273L4.2226 25.3627L5.39378 23.154ZM4.5728 22.7187L5.74398 20.51L4.92299 20.0746L3.75181 22.2833L2.58063 24.492L3.40162 24.9273L4.5728 22.7187ZM3.75181 22.2833L4.92299 20.0746C4.99688 20.1138 5.11623 20.2036 5.21155 20.3518C5.30152 20.4917 5.30923 20.589 5.3069 20.5674L2.82139 20.8363L0.335892 21.1051C0.488055 22.5118 1.22211 23.7716 2.58063 24.492L3.75181 22.2833ZM2.82139 20.8363L5.3069 20.5674L5.19746 19.5557L2.71196 19.8245L0.226456 20.0934L0.335892 21.1051L2.82139 20.8363ZM2.71196 19.8245L5.19746 19.5557L5.08802 18.5439L2.60252 18.8128L0.11702 19.0816L0.226456 20.0934L2.71196 19.8245ZM2.60252 18.8128L5.08802 18.5439C5.08624 18.5275 5.08761 18.5266 5.08658 18.5384C5.0855 18.5507 5.08251 18.5688 5.07621 18.5893C5.06993 18.6098 5.06293 18.6243 5.05908 18.6313C5.05549 18.6377 5.05805 18.6315 5.07337 18.6131L3.15612 17.0087L1.23886 15.4043C0.368177 16.4448 -0.0302747 17.7199 0.11702 19.0816L2.60252 18.8128ZM3.15612 17.0087L5.07337 18.6131L5.73641 17.8208L3.81915 16.2164L1.90189 14.612L1.23886 15.4043L3.15612 17.0087ZM3.81915 16.2164L5.73641 17.8208L6.39944 17.0285L4.48218 15.4241L2.56492 13.8197L1.90189 14.612L3.81915 16.2164ZM4.48218 15.4241L6.39944 17.0285C6.54869 16.8502 6.66836 16.7884 6.78027 16.7553L6.07128 14.3579L5.3623 11.9605C4.23945 12.2926 3.29971 12.9416 2.56492 13.8197L4.48218 15.4241ZM6.07128 14.3579L6.78027 16.7553L7.70635 16.4814L6.99736 14.084L6.28837 11.6867L5.3623 11.9605L6.07128 14.3579ZM6.99736 14.084L7.70635 16.4814L8.63242 16.2075L7.92343 13.8102L7.21444 11.4128L6.28837 11.6867L6.99736 14.084ZM7.92343 13.8102L8.63242 16.2075C9.71871 15.8863 10.6708 15.2691 11.3821 14.3438L9.4001 12.8201L7.41809 11.2964C7.39529 11.326 7.36292 11.3689 7.21444 11.4128L7.92343 13.8102ZM9.4001 12.8201L11.3821 14.3438L11.9327 13.6275L9.9507 12.1039L7.96869 10.5802L7.41809 11.2964L9.4001 12.8201ZM9.9507 12.1039L11.9327 13.6275L12.4833 12.9113L10.5013 11.3876L8.51928 9.86395L7.96869 10.5802L9.9507 12.1039ZM10.5013 11.3876L12.4833 12.9113C12.9177 12.3463 13.3174 11.7491 13.6832 11.1211L11.523 9.86273L9.36274 8.60438C9.10046 9.05465 8.81906 9.474 8.51928 9.86395L10.5013 11.3876ZM11.523 9.86273L13.6832 11.1211L14.1543 10.3124L11.994 9.05403L9.83382 7.79568L9.36274 8.60438L11.523 9.86273ZM11.994 9.05403L14.1543 10.3124L14.6253 9.50368L12.4651 8.24533L10.3049 6.98699L9.83382 7.79568L11.994 9.05403ZM12.4651 8.24533L14.6253 9.50368C14.9946 8.86978 15.316 8.22216 15.5869 7.5609L13.2735 6.61326L10.96 5.66562C10.7812 6.10219 10.5637 6.54263 10.3049 6.98699L12.4651 8.24533ZM13.2735 6.61326L15.5869 7.5609L15.9242 6.73753L13.6107 5.78989L11.2973 4.84224L10.96 5.66562L13.2735 6.61326ZM13.6107 5.78989L15.9242 6.73753L16.2614 5.91415L13.948 4.96651L11.6346 4.01887L11.2973 4.84224L13.6107 5.78989ZM13.948 4.96651L16.2614 5.91415C16.238 5.97132 16.1837 6.06221 16.092 6.14377C16.0049 6.22124 15.9434 6.23752 15.9667 6.23008L15.205 3.84894L14.4433 1.4678C13.1946 1.86723 12.1655 2.7228 11.6346 4.01887L13.948 4.96651ZM15.205 3.84894L15.9667 6.23008L16.8864 5.93588L16.1247 3.55474L15.363 1.1736L14.4433 1.4678L15.205 3.84894ZM16.1247 3.55474L16.8864 5.93588L17.8061 5.64168L17.0444 3.26054L16.2827 0.8794L15.363 1.1736L16.1247 3.55474ZM17.0444 3.26054L17.8061 5.64168C17.7547 5.65811 17.5416 5.71017 17.2472 5.6319C16.9471 5.55215 16.7704 5.39237 16.7098 5.32364L18.5847 3.66993L20.4596 2.01622C19.9852 1.47843 19.345 1.0159 18.5315 0.799674C17.7236 0.584943 16.9472 0.666838 16.2827 0.8794L17.0444 3.26054ZM18.5847 3.66993L16.7098 5.32364L17.3304 6.02723L19.2053 4.37352L21.0802 2.71981L20.4596 2.01622L18.5847 3.66993ZM19.2053 4.37352L17.3304 6.02723L17.951 6.73082L19.8259 5.07711L21.7008 3.4234L21.0802 2.71981L19.2053 4.37352ZM19.8259 5.07711L17.951 6.73082C18.4418 7.28735 19.336 8.1609 20.6168 8.32173L20.9283 5.84121L21.2398 3.36069C21.6018 3.40615 21.808 3.54586 21.8359 3.5652C21.8692 3.58828 21.8227 3.56167 21.7008 3.4234L19.8259 5.07711ZM20.9283 5.84121L20.6168 8.32173L21.0987 8.38224L21.4102 5.90172L21.7217 3.4212L21.2398 3.36069L20.9283 5.84121ZM21.4102 5.90172L21.0987 8.38224L21.5806 8.44274L21.8921 5.96222L22.2035 3.4817L21.7217 3.4212L21.4102 5.90172ZM21.8921 5.96222L21.5806 8.44274C21.3057 8.40822 21.0963 8.32222 20.9624 8.25072C20.8315 8.1808 20.7554 8.11577 20.7313 8.09408C20.693 8.05964 20.7474 8.10062 20.8809 8.30402L22.9709 6.93211L25.0608 5.5602C24.7964 5.15735 24.472 4.73356 24.0741 4.37582C23.6917 4.03204 23.0636 3.5897 22.2035 3.4817L21.8921 5.96222ZM22.9709 6.93211L20.8809 8.30402L21.4779 9.2134L23.5678 7.84149L25.6578 6.46959L25.0608 5.5602L22.9709 6.93211Z" fill="#F3B8FF"/>
<path d="M21.6632 10.1961L20.3157 10.855L21.6632 10.1961ZM22.278 11.154L21.1154 12.1018L22.278 11.154ZM23.0098 12.0518L24.1725 11.104L23.0098 12.0518ZM23.9432 12.661L23.5354 14.1044L23.9432 12.661ZM25.078 12.9816L24.6702 14.4251L25.078 12.9816ZM26.1979 12.998L25.8198 11.5464L26.1979 12.998ZM27.3027 12.7103L27.6808 14.1619L27.3027 12.7103ZM28.9213 12.2035L29.4047 13.6235L28.9213 12.2035ZM29.4543 12.022L28.9709 10.6021L29.4543 12.022ZM30.5576 11.9439L30.29 13.4199L30.5576 11.9439ZM31.1278 12.0473L30.8603 13.5232L31.1278 12.0473ZM31.698 12.1506L31.9655 10.6747L31.698 12.1506ZM32.4755 12.79L31.0765 13.3311L32.4755 12.79ZM32.8902 13.8619L34.2891 13.3208L32.8902 13.8619ZM32.9179 14.8734L31.5146 14.3434L32.9179 14.8734ZM32.7383 15.3489L34.1415 15.8789L32.7383 15.3489ZM32.5587 15.8244L33.9619 16.3544L32.5587 15.8244ZM32.0965 16.7854L33.3928 17.54L32.0965 16.7854ZM31.5312 17.7564L32.8276 18.511L31.5312 17.7564ZM30.884 18.6833L32.0405 19.6386L30.884 18.6833ZM30.1549 19.566L28.9984 18.6107L30.1549 19.566ZM29.7839 20.5842L28.284 20.5677L29.7839 20.5842ZM29.7712 21.7379L31.2711 21.7544L29.7712 21.7379ZM30.1911 22.7143L29.1652 23.8087L30.1911 22.7143ZM31.0436 23.5135L32.0695 22.4192L31.0436 23.5135ZM31.6751 24.4525L30.2732 24.986L31.6751 24.4525ZM32.0857 25.5312L33.4876 24.9977L32.0857 25.5312ZM32.4022 26.6445L30.9296 26.9299L32.4022 26.6445ZM32.6247 27.7924L34.0973 27.507L32.6247 27.7924ZM32.4138 28.9131L31.1214 28.1517L32.4138 28.9131ZM31.7694 30.0068L30.477 29.2453L31.7694 30.0068ZM30.8383 30.4638L31.0572 28.9798L30.8383 30.4638ZM30.2294 30.374L30.4483 28.89L30.2294 30.374ZM29.6205 30.2842L29.4017 31.7681L29.6205 30.2842ZM28.4133 30.2091L28.4501 31.7086L28.4133 30.2091ZM27.2166 30.2384L27.1797 28.7389L27.2166 30.2384ZM26.1378 29.9627L25.3618 31.2463L26.1378 29.9627ZM25.1771 29.3819L25.9532 28.0982L25.1771 29.3819ZM24.1865 29.1746L23.9452 27.6941L24.1865 29.1746ZM23.1661 29.3409L23.4074 30.8214L23.1661 29.3409ZM22.2792 29.822L21.19 28.7907L22.2792 29.822ZM21.9025 30.2198L22.9917 31.2512L21.9025 30.2198ZM21.5257 30.6177L22.615 31.649L21.5257 30.6177ZM20.7799 31.4411L21.9131 32.424L20.7799 31.4411ZM20.0418 32.2921L21.1749 33.275L20.0418 32.2921ZM19.1725 32.8936L18.6745 31.4787L19.1725 32.8936ZM18.1719 33.2457L17.674 31.8308L18.1719 33.2457ZM17.1904 33.3034L16.8323 34.76L17.1904 33.3034ZM16.2279 33.0668L16.5861 31.6102L16.2279 33.0668ZM15.2128 32.5831L14.3657 33.821L15.2128 32.5831ZM14.6789 32.2177L13.8318 33.4557L14.6789 32.2177ZM14.1449 31.8524L14.992 30.6145V30.6145L14.1449 31.8524ZM13.9735 30.8978L15.2512 31.6836L13.9735 30.8978ZM14.6985 29.7191L13.4208 28.9333L14.6985 29.7191ZM15.0222 28.5554L13.5256 28.6565L15.0222 28.5554ZM14.9446 27.4066L16.4412 27.3055L14.9446 27.4066ZM14.6605 26.259L13.2815 26.849L14.6605 26.259ZM14.17 25.1125L15.5491 24.5225L14.17 25.1125ZM13.2964 24.5125L13.2325 26.0111L13.2964 24.5125ZM12.668 24.4857L12.6042 25.9844L12.668 24.4857ZM12.0396 24.4589L12.1035 22.9603L12.0396 24.4589ZM10.9192 24.1443L10.1618 25.439L10.9192 24.1443ZM10.4271 23.8564L11.1846 22.5617L10.4271 23.8564ZM9.93509 23.5686L9.17766 24.8633L9.93509 23.5686ZM8.95273 22.9192L8.06249 24.1264L8.95273 22.9192ZM7.97215 22.1961L8.86239 20.9888L7.97215 22.1961ZM7.69339 21.2868L9.09266 21.8273L7.69339 21.2868ZM8.11645 20.1914L6.71719 19.651L8.11645 20.1914ZM8.32685 17.6596L6.82685 17.6604L8.32685 17.6596ZM8.95854 16.9615L8.87166 15.464L8.95854 16.9615ZM10.2227 16.8881L10.1358 15.3907L10.2227 16.8881ZM12.4221 16.1954L11.8429 14.8117L12.4221 16.1954ZM13.2579 15.6432L12.1647 14.6161L13.2579 15.6432ZM13.5712 15.3097L14.6643 16.3369L13.5712 15.3097ZM13.8846 14.9763L12.7915 13.9491L13.8846 14.9763ZM14.5057 14.1931L13.2679 13.3459L14.5057 14.1931ZM15.1213 13.2937L16.3591 14.1409L15.1213 13.2937ZM15.4974 12.2843L16.9863 12.466L15.4974 12.2843ZM15.5656 11.7246L14.0767 11.543L15.5656 11.7246ZM15.6339 11.1649L14.145 10.9832L15.6339 11.1649ZM15.929 10.1874L17.2473 10.9029L15.929 10.1874ZM16.3825 9.3517L15.0642 8.6362L16.3825 9.3517ZM16.9309 8.53408L15.7621 7.59389L16.9309 8.53408ZM17.5741 7.73452L18.7428 8.67471L17.5741 7.73452ZM18.3187 7.62047L19.1583 6.37741L18.3187 7.62047ZM19.1649 8.19193L18.3253 9.43498L19.1649 8.19193ZM19.7963 8.60591L19.0098 9.88323L19.7963 8.60591ZM20.0046 8.73417L20.791 7.45686L20.0046 8.73417ZM21.1653 9.17792L22.5128 8.51899L21.1653 9.17792ZM21.4142 9.687L20.0667 10.3459L20.3157 10.855L21.6632 10.1961L23.0107 9.53715L22.7618 9.02807L21.4142 9.687ZM21.6632 10.1961L20.3157 10.855C20.5331 11.2997 20.8006 11.7156 21.1154 12.1018L22.278 11.154L23.4407 10.2063C23.2676 9.99394 23.1252 9.77125 23.0107 9.53715L21.6632 10.1961ZM22.278 11.154L21.1154 12.1018L21.4813 12.5507L22.6439 11.6029L23.8066 10.6551L23.4407 10.2063L22.278 11.154ZM22.6439 11.6029L21.4813 12.5507L21.8472 12.9995L23.0098 12.0518L24.1725 11.104L23.8066 10.6551L22.6439 11.6029ZM23.0098 12.0518L21.8472 12.9995C22.2896 13.5422 22.8663 13.9154 23.5354 14.1044L23.9432 12.661L24.351 11.2175C24.2635 11.1927 24.218 11.1598 24.1725 11.104L23.0098 12.0518ZM23.9432 12.661L23.5354 14.1044L24.1028 14.2648L24.5106 12.8213L24.9184 11.3778L24.351 11.2175L23.9432 12.661ZM24.5106 12.8213L24.1028 14.2648L24.6702 14.4251L25.078 12.9816L25.4858 11.5381L24.9184 11.3778L24.5106 12.8213ZM25.078 12.9816L24.6702 14.4251C25.2962 14.6019 25.9409 14.615 26.5759 14.4496L26.1979 12.998L25.8198 11.5464C25.7183 11.5729 25.6164 11.575 25.4858 11.5381L25.078 12.9816ZM26.1979 12.998L26.5759 14.4496L27.1283 14.3057L26.7503 12.8541L26.3723 11.4026L25.8198 11.5464L26.1979 12.998ZM26.7503 12.8541L27.1283 14.3057L27.6808 14.1619L27.3027 12.7103L26.9247 11.2587L26.3723 11.4026L26.7503 12.8541ZM27.3027 12.7103L27.6808 14.1619C28.0841 14.0568 28.4811 13.9379 28.8716 13.8049L28.3882 12.3849L27.9048 10.965C27.5847 11.074 27.258 11.1719 26.9247 11.2587L27.3027 12.7103ZM28.3882 12.3849L28.8716 13.8049L29.4047 13.6235L28.9213 12.2035L28.4379 10.7835L27.9048 10.965L28.3882 12.3849ZM28.9213 12.2035L29.4047 13.6235L29.9377 13.442L29.4543 12.022L28.9709 10.6021L28.4379 10.7835L28.9213 12.2035ZM29.4543 12.022L29.9377 13.442C30.0443 13.4057 30.1533 13.3951 30.29 13.4199L30.5576 11.9439L30.8251 10.468C30.2016 10.355 29.575 10.3964 28.9709 10.6021L29.4543 12.022ZM30.5576 11.9439L30.29 13.4199L30.8603 13.5232L31.1278 12.0473L31.3953 10.5713L30.8251 10.468L30.5576 11.9439ZM31.1278 12.0473L30.8603 13.5232L31.4305 13.6266L31.698 12.1506L31.9655 10.6747L31.3953 10.5713L31.1278 12.0473ZM31.698 12.1506L31.4305 13.6266C31.4074 13.6224 31.321 13.5999 31.2248 13.5208C31.1281 13.4413 31.0872 13.3586 31.0765 13.3311L32.4755 12.79L33.8745 12.2488C33.5458 11.3991 32.8546 10.8358 31.9655 10.6747L31.698 12.1506ZM32.4755 12.79L31.0765 13.3311L31.2839 13.8671L32.6828 13.3259L34.0818 12.7848L33.8745 12.2488L32.4755 12.79ZM32.6828 13.3259L31.2839 13.8671L31.4912 14.403L32.8902 13.8619L34.2891 13.3208L34.0818 12.7848L32.6828 13.3259ZM32.8902 13.8619L31.4912 14.403C31.5068 14.4434 31.502 14.448 31.5013 14.4238C31.501 14.4123 31.5017 14.3979 31.5044 14.382C31.5071 14.3661 31.511 14.3529 31.5146 14.3434L32.9179 14.8734L34.3211 15.4033C34.5885 14.6955 34.5419 13.9742 34.2891 13.3208L32.8902 13.8619ZM32.9179 14.8734L31.5146 14.3434L31.335 14.8189L32.7383 15.3489L34.1415 15.8789L34.3211 15.4033L32.9179 14.8734ZM32.7383 15.3489L31.335 14.8189L31.1554 15.2944L32.5587 15.8244L33.9619 16.3544L34.1415 15.8789L32.7383 15.3489ZM32.5587 15.8244L31.1554 15.2944C31.0679 15.5261 30.951 15.7715 30.8001 16.0308L32.0965 16.7854L33.3928 17.54C33.6187 17.1519 33.81 16.7567 33.9619 16.3544L32.5587 15.8244ZM32.0965 16.7854L30.8001 16.0308L30.5175 16.5163L31.8138 17.2709L33.1102 18.0255L33.3928 17.54L32.0965 16.7854ZM31.8138 17.2709L30.5175 16.5163L30.2349 17.0018L31.5312 17.7564L32.8276 18.511L33.1102 18.0255L31.8138 17.2709ZM31.5312 17.7564L30.2349 17.0018C30.0883 17.2536 29.9196 17.4955 29.7276 17.728L30.884 18.6833L32.0405 19.6386C32.3346 19.2826 32.5973 18.9066 32.8276 18.511L31.5312 17.7564ZM30.884 18.6833L29.7276 17.728L29.363 18.1693L30.5195 19.1246L31.6759 20.08L32.0405 19.6386L30.884 18.6833ZM30.5195 19.1246L29.363 18.1693L28.9984 18.6107L30.1549 19.566L31.3113 20.5213L31.6759 20.08L30.5195 19.1246ZM30.1549 19.566L28.9984 18.6107C28.5351 19.1716 28.292 19.843 28.284 20.5677L29.7839 20.5842L31.2839 20.6007C31.2842 20.567 31.2891 20.555 31.2892 20.5547C31.2897 20.5533 31.2907 20.5508 31.2932 20.5465C31.2958 20.542 31.3012 20.5336 31.3113 20.5213L30.1549 19.566ZM29.7839 20.5842L28.284 20.5677L28.2777 21.1445L29.7776 21.161L31.2775 21.1776L31.2839 20.6007L29.7839 20.5842ZM29.7776 21.161L28.2777 21.1445L28.2713 21.7214L29.7712 21.7379L31.2711 21.7544L31.2775 21.1776L29.7776 21.161ZM29.7712 21.7379L28.2713 21.7214C28.2624 22.5324 28.5788 23.2589 29.1652 23.8087L30.1911 22.7143L31.217 21.62C31.2105 21.6139 31.2316 21.6328 31.251 21.6779C31.2598 21.6984 31.2654 21.7177 31.2684 21.7336C31.2714 21.7492 31.2711 21.7569 31.2711 21.7544L29.7712 21.7379ZM30.1911 22.7143L29.1652 23.8087L29.5915 24.2082L30.6174 23.1139L31.6432 22.0196L31.217 21.62L30.1911 22.7143ZM30.6174 23.1139L29.5915 24.2082L30.0177 24.6078L31.0436 23.5135L32.0695 22.4192L31.6432 22.0196L30.6174 23.1139ZM31.0436 23.5135L30.0177 24.6078C30.1377 24.7203 30.2185 24.8422 30.2732 24.986L31.6751 24.4525L33.077 23.9189C32.858 23.3435 32.5178 22.8395 32.0695 22.4192L31.0436 23.5135ZM31.6751 24.4525L30.2732 24.986L30.4785 25.5254L31.8804 24.9918L33.2823 24.4583L33.077 23.9189L31.6751 24.4525ZM31.8804 24.9918L30.4785 25.5254L30.6838 26.0648L32.0857 25.5312L33.4876 24.9977L33.2823 24.4583L31.8804 24.9918ZM32.0857 25.5312L30.6838 26.0648C30.7896 26.3428 30.8717 26.6308 30.9296 26.9299L32.4022 26.6445L33.8748 26.3591C33.7845 25.893 33.6555 25.4388 33.4876 24.9977L32.0857 25.5312ZM32.4022 26.6445L30.9296 26.9299L31.0409 27.5039L32.5135 27.2185L33.9861 26.933L33.8748 26.3591L32.4022 26.6445ZM32.5135 27.2185L31.0409 27.5039L31.1521 28.0778L32.6247 27.7924L34.0973 27.507L33.9861 26.933L32.5135 27.2185ZM32.6247 27.7924L31.1521 28.0778C31.1535 28.0847 31.1533 28.0868 31.1533 28.0853C31.1533 28.0847 31.1533 28.0839 31.1534 28.0831C31.1534 28.0823 31.1535 28.0819 31.1535 28.0821C31.1535 28.0821 31.1526 28.087 31.1485 28.0976C31.1444 28.1083 31.1363 28.1263 31.1214 28.1517L32.4138 28.9131L33.7061 29.6746C34.0894 29.024 34.2473 28.2808 34.0973 27.507L32.6247 27.7924ZM32.4138 28.9131L31.1214 28.1517L30.7992 28.6985L32.0916 29.46L33.3839 30.2214L33.7061 29.6746L32.4138 28.9131ZM32.0916 29.46L30.7992 28.6985L30.477 29.2453L31.7694 30.0068L33.0617 30.7682L33.3839 30.2214L32.0916 29.46ZM31.7694 30.0068L30.477 29.2453C30.4849 29.232 30.553 29.1272 30.7146 29.0479C30.8798 28.9668 31.0171 28.9739 31.0572 28.9798L30.8383 30.4638L30.6194 31.9477C31.0655 32.0135 31.5609 31.9744 32.0364 31.741C32.5084 31.5093 32.8391 31.1461 33.0617 30.7682L31.7694 30.0068ZM30.8383 30.4638L31.0572 28.9798L30.4483 28.89L30.2294 30.374L30.0105 31.8579L30.6194 31.9477L30.8383 30.4638ZM30.2294 30.374L30.4483 28.89L29.8394 28.8002L29.6205 30.2842L29.4017 31.7681L30.0105 31.8579L30.2294 30.374ZM29.6205 30.2842L29.8394 28.8002C29.3512 28.7282 28.8633 28.6975 28.3765 28.7095L28.4133 30.2091L28.4501 31.7086C28.7611 31.701 29.078 31.7204 29.4017 31.7681L29.6205 30.2842ZM28.4133 30.2091L28.3765 28.7095L27.7781 28.7242L27.8149 30.2237L27.8517 31.7233L28.4501 31.7086L28.4133 30.2091ZM27.8149 30.2237L27.7781 28.7242L27.1797 28.7389L27.2166 30.2384L27.2534 31.738L27.8517 31.7233L27.8149 30.2237ZM27.2166 30.2384L27.1797 28.7389C27.047 28.7421 26.9729 28.7147 26.9139 28.6791L26.1378 29.9627L25.3618 31.2463C25.9433 31.5979 26.5883 31.7543 27.2534 31.738L27.2166 30.2384ZM26.1378 29.9627L26.9139 28.6791L26.4335 28.3887L25.6575 29.6723L24.8814 30.9559L25.3618 31.2463L26.1378 29.9627ZM25.6575 29.6723L26.4335 28.3887L25.9532 28.0982L25.1771 29.3819L24.401 30.6655L24.8814 30.9559L25.6575 29.6723ZM25.1771 29.3819L25.9532 28.0982C25.3562 27.7373 24.6683 27.5763 23.9452 27.6941L24.1865 29.1746L24.4278 30.6551C24.4256 30.6554 24.419 30.6563 24.4092 30.6561C24.3995 30.6559 24.39 30.6547 24.3821 30.653C24.3743 30.6514 24.3711 30.65 24.3733 30.6508C24.3757 30.6518 24.3849 30.6558 24.401 30.6655L25.1771 29.3819ZM24.1865 29.1746L23.9452 27.6941L23.435 27.7773L23.6763 29.2578L23.9176 30.7382L24.4278 30.6551L24.1865 29.1746ZM23.6763 29.2578L23.435 27.7773L22.9248 27.8605L23.1661 29.3409L23.4074 30.8214L23.9176 30.7382L23.6763 29.2578ZM23.1661 29.3409L22.9248 27.8605C22.2403 27.972 21.6525 28.3022 21.19 28.7907L22.2792 29.822L23.3684 30.8533C23.382 30.839 23.3918 30.8307 23.3972 30.8264C23.4026 30.8222 23.405 30.821 23.4044 30.8213C23.4038 30.8216 23.4026 30.8222 23.4015 30.8226C23.4004 30.8229 23.402 30.8223 23.4074 30.8214L23.1661 29.3409ZM22.2792 29.822L21.19 28.7907L20.8133 29.1885L21.9025 30.2198L22.9917 31.2512L23.3684 30.8533L22.2792 29.822ZM21.9025 30.2198L20.8133 29.1885L20.4365 29.5864L21.5257 30.6177L22.615 31.649L22.9917 31.2512L21.9025 30.2198ZM21.5257 30.6177L20.4365 29.5864C20.17 29.8679 19.9068 30.1586 19.6468 30.4582L20.7799 31.4411L21.9131 32.424C22.1452 32.1563 22.3792 31.898 22.615 31.649L21.5257 30.6177ZM20.7799 31.4411L19.6468 30.4582L19.2778 30.8837L20.4109 31.8666L21.544 32.8495L21.9131 32.424L20.7799 31.4411ZM20.4109 31.8666L19.2778 30.8837L18.9087 31.3092L20.0418 32.2921L21.1749 33.275L21.544 32.8495L20.4109 31.8666ZM20.0418 32.2921L18.9087 31.3092C18.8223 31.4088 18.7471 31.4532 18.6745 31.4787L19.1725 32.8936L19.6704 34.3086C20.2649 34.0994 20.7692 33.7427 21.1749 33.275L20.0418 32.2921ZM19.1725 32.8936L18.6745 31.4787L18.1743 31.6547L18.6722 33.0697L19.1701 34.4846L19.6704 34.3086L19.1725 32.8936ZM18.6722 33.0697L18.1743 31.6547L17.674 31.8308L18.1719 33.2457L18.6699 34.6607L19.1701 34.4846L18.6722 33.0697ZM18.1719 33.2457L17.674 31.8308C17.5955 31.8584 17.566 31.8511 17.5486 31.8468L17.1904 33.3034L16.8323 34.76C17.4566 34.9136 18.0813 34.8678 18.6699 34.6607L18.1719 33.2457ZM17.1904 33.3034L17.5486 31.8468L17.0674 31.7285L16.7092 33.1851L16.351 34.6417L16.8323 34.76L17.1904 33.3034ZM16.7092 33.1851L17.0674 31.7285L16.5861 31.6102L16.2279 33.0668L15.8698 34.5234L16.351 34.6417L16.7092 33.1851ZM16.2279 33.0668L16.5861 31.6102C16.4843 31.5851 16.3102 31.5165 16.0598 31.3452L15.2128 32.5831L14.3657 33.821C14.8272 34.1368 15.3299 34.3906 15.8698 34.5234L16.2279 33.0668ZM15.2128 32.5831L16.0598 31.3452L15.5259 30.9798L14.6789 32.2177L13.8318 33.4557L14.3657 33.821L15.2128 32.5831ZM14.6789 32.2177L15.5259 30.9798L14.992 30.6145L14.1449 31.8524L13.2979 33.0903L13.8318 33.4557L14.6789 32.2177ZM14.1449 31.8524L14.992 30.6145C15.031 30.6411 15.2478 30.8111 15.3115 31.1659C15.3404 31.3269 15.3241 31.4629 15.3002 31.5552C15.2887 31.5996 15.2758 31.6323 15.2667 31.6527C15.2577 31.6731 15.2513 31.6835 15.2512 31.6836L13.9735 30.8978L12.6959 30.1119C12.4636 30.4895 12.2419 31.0456 12.3587 31.6962C12.4796 32.3693 12.903 32.8201 13.2979 33.0903L14.1449 31.8524ZM13.9735 30.8978L15.2512 31.6836L15.6136 31.0943L14.336 30.3084L13.0583 29.5226L12.6959 30.1119L13.9735 30.8978ZM14.336 30.3084L15.6136 31.0943L15.9761 30.505L14.6985 29.7191L13.4208 28.9333L13.0583 29.5226L14.336 30.3084ZM14.6985 29.7191L15.9761 30.505C16.3475 29.9012 16.5696 29.2071 16.5188 28.4544L15.0222 28.5554L13.5256 28.6565C13.5265 28.6697 13.5327 28.7513 13.4208 28.9333L14.6985 29.7191ZM15.0222 28.5554L16.5188 28.4544L16.48 27.8799L14.9834 27.981L13.4868 28.0821L13.5256 28.6565L15.0222 28.5554ZM14.9834 27.981L16.48 27.8799L16.4412 27.3055L14.9446 27.4066L13.448 27.5077L13.4868 28.0821L14.9834 27.981ZM14.9446 27.4066L16.4412 27.3055C16.403 26.7407 16.264 26.1934 16.0396 25.6689L14.6605 26.259L13.2815 26.849C13.3841 27.0888 13.4344 27.3066 13.448 27.5077L14.9446 27.4066ZM14.6605 26.259L16.0396 25.6689L15.7944 25.0957L14.4153 25.6857L13.0362 26.2758L13.2815 26.849L14.6605 26.259ZM14.4153 25.6857L15.7944 25.0957L15.5491 24.5225L14.17 25.1125L12.791 25.7025L13.0362 26.2758L14.4153 25.6857ZM14.17 25.1125L15.5491 24.5225C15.3756 24.1169 15.0969 23.727 14.6782 23.4394C14.2603 23.1524 13.7977 23.0325 13.3603 23.0139L13.2964 24.5125L13.2325 26.0111C13.214 26.0104 13.1065 25.9994 12.9798 25.9124C12.8523 25.8248 12.801 25.7259 12.791 25.7025L14.17 25.1125ZM13.2964 24.5125L13.3603 23.0139L12.7319 22.9871L12.668 24.4857L12.6042 25.9844L13.2325 26.0111L13.2964 24.5125ZM12.668 24.4857L12.7319 22.9871L12.1035 22.9603L12.0396 24.4589L11.9758 25.9576L12.6042 25.9844L12.668 24.4857ZM12.0396 24.4589L12.1035 22.9603C11.9032 22.9518 11.7724 22.9056 11.6766 22.8496L10.9192 24.1443L10.1618 25.439C10.7221 25.7668 11.3382 25.9304 11.9758 25.9576L12.0396 24.4589ZM10.9192 24.1443L11.6766 22.8496L11.1846 22.5617L10.4271 23.8564L9.66971 25.1512L10.1618 25.439L10.9192 24.1443ZM10.4271 23.8564L11.1846 22.5617L10.6925 22.2739L9.93509 23.5686L9.17766 24.8633L9.66971 25.1512L10.4271 23.8564ZM9.93509 23.5686L10.6925 22.2739C10.4133 22.1105 10.13 21.9236 9.84297 21.7119L8.95273 22.9192L8.06249 24.1264C8.42916 24.3968 8.80084 24.6428 9.17766 24.8633L9.93509 23.5686ZM8.95273 22.9192L9.84297 21.7119L9.35268 21.3504L8.46244 22.5576L7.5722 23.7649L8.06249 24.1264L8.95273 22.9192ZM8.46244 22.5576L9.35268 21.3504L8.86239 20.9888L7.97215 22.1961L7.08191 23.4033L7.5722 23.7649L8.46244 22.5576ZM7.97215 22.1961L8.86239 20.9888C8.88469 21.0053 9.02004 21.1155 9.09143 21.3483C9.16484 21.5878 9.11411 21.7717 9.09266 21.8273L7.69339 21.2868L6.29412 20.7464C6.13165 21.1671 6.05687 21.6851 6.2232 22.2277C6.38751 22.7636 6.73275 23.1459 7.08191 23.4033L7.97215 22.1961ZM7.69339 21.2868L9.09266 21.8273L9.30419 21.2796L7.90492 20.7391L6.50566 20.1987L6.29412 20.7464L7.69339 21.2868ZM7.90492 20.7391L9.30419 21.2796L9.51572 20.7319L8.11645 20.1914L6.71719 19.651L6.50566 20.1987L7.90492 20.7391ZM8.11645 20.1914L9.51572 20.7319C9.73132 20.1736 9.82795 19.5842 9.8276 18.9815L8.3276 18.9823L6.8276 18.9832C6.82776 19.2623 6.78362 19.479 6.71719 19.651L8.11645 20.1914ZM8.3276 18.9823L9.8276 18.9815L9.82722 18.3201L8.32722 18.321L6.82723 18.3218L6.8276 18.9832L8.3276 18.9823ZM8.32722 18.321L9.82722 18.3201L9.82685 17.6587L8.32685 17.6596L6.82685 17.6604L6.82723 18.3218L8.32722 18.321ZM8.32685 17.6596L9.82685 17.6587C9.82685 17.6599 9.82667 17.9068 9.5968 18.1608C9.35717 18.4256 9.08841 18.4565 9.04542 18.459L8.95854 16.9615L8.87166 15.464C8.40729 15.4909 7.82255 15.6504 7.37236 16.1479C6.93193 16.6346 6.82659 17.2183 6.82685 17.6604L8.32685 17.6596ZM8.95854 16.9615L9.04542 18.459L9.67749 18.4223L9.59061 16.9248L9.50373 15.4273L8.87166 15.464L8.95854 16.9615ZM9.59061 16.9248L9.67749 18.4223L10.3096 18.3856L10.2227 16.8881L10.1358 15.3907L9.50373 15.4273L9.59061 16.9248ZM10.2227 16.8881L10.3096 18.3856C10.8805 18.3525 11.4343 18.235 11.9564 18.0164L11.3772 16.6328L10.798 15.2491C10.6235 15.3222 10.4076 15.3749 10.1358 15.3907L10.2227 16.8881ZM11.3772 16.6328L11.9564 18.0164L12.4788 17.7978L11.8996 16.4141L11.3204 15.0304L10.798 15.2491L11.3772 16.6328ZM11.8996 16.4141L12.4788 17.7978L13.0013 17.5791L12.4221 16.1954L11.8429 14.8117L11.3204 15.0304L11.8996 16.4141ZM12.4221 16.1954L13.0013 17.5791C13.4991 17.3707 13.9677 17.0783 14.351 16.6704L13.2579 15.6432L12.1647 14.6161C12.1302 14.6528 12.0417 14.7285 11.8429 14.8117L12.4221 16.1954ZM13.2579 15.6432L14.351 16.6704L14.6643 16.3369L13.5712 15.3097L12.4781 14.2826L12.1647 14.6161L13.2579 15.6432ZM13.5712 15.3097L14.6643 16.3369L14.9777 16.0034L13.8846 14.9763L12.7915 13.9491L12.4781 14.2826L13.5712 15.3097ZM13.8846 14.9763L14.9777 16.0034C15.2482 15.7155 15.5028 15.3921 15.7436 15.0403L14.5057 14.1931L13.2679 13.3459C13.0983 13.5937 12.9387 13.7924 12.7915 13.9491L13.8846 14.9763ZM14.5057 14.1931L15.7436 15.0403L16.0513 14.5906L14.8135 13.7434L13.5757 12.8962L13.2679 13.3459L14.5057 14.1931ZM14.8135 13.7434L16.0513 14.5906L16.3591 14.1409L15.1213 13.2937L13.8835 12.4465L13.5757 12.8962L14.8135 13.7434ZM15.1213 13.2937L16.3591 14.1409C16.705 13.6356 16.9127 13.0693 16.9863 12.466L15.4974 12.2843L14.0084 12.1027C13.991 12.2456 13.948 12.3522 13.8835 12.4465L15.1213 13.2937ZM15.4974 12.2843L16.9863 12.466L17.0546 11.9063L15.5656 11.7246L14.0767 11.543L14.0084 12.1027L15.4974 12.2843ZM15.5656 11.7246L17.0546 11.9063L17.1229 11.3466L15.6339 11.1649L14.145 10.9832L14.0767 11.543L15.5656 11.7246ZM15.6339 11.1649L17.1229 11.3466C17.1497 11.1264 17.2011 10.988 17.2473 10.9029L15.929 10.1874L14.6106 9.47186C14.3545 9.94379 14.2092 10.4571 14.145 10.9832L15.6339 11.1649ZM15.929 10.1874L17.2473 10.9029L17.4741 10.485L16.1558 9.76953L14.8374 9.05403L14.6106 9.47186L15.929 10.1874ZM16.1558 9.76953L17.4741 10.485L17.7009 10.0672L16.3825 9.3517L15.0642 8.6362L14.8374 9.05403L16.1558 9.76953ZM16.3825 9.3517L17.7009 10.0672C17.8058 9.87384 17.9374 9.67603 18.0997 9.47427L16.9309 8.53408L15.7621 7.59389C15.4956 7.92517 15.2616 8.27244 15.0642 8.6362L16.3825 9.3517ZM16.9309 8.53408L18.0997 9.47427L18.4213 9.07449L17.2525 8.1343L16.0837 7.19411L15.7621 7.59389L16.9309 8.53408ZM17.2525 8.1343L18.4213 9.07449L18.7428 8.67471L17.5741 7.73452L16.4053 6.79433L16.0837 7.19411L17.2525 8.1343ZM17.5741 7.73452L18.7428 8.67471C18.7011 8.72658 18.5112 8.93322 18.1481 8.98882C17.7835 9.04467 17.5381 8.90332 17.4792 8.86352L18.3187 7.62047L19.1583 6.37741C18.8173 6.14713 18.3068 5.92954 17.6939 6.0234C17.0827 6.11703 16.6614 6.47593 16.4053 6.79433L17.5741 7.73452ZM18.3187 7.62047L17.4792 8.86352L17.9023 9.14925L18.7418 7.9062L19.5813 6.66314L19.1583 6.37741L18.3187 7.62047ZM18.7418 7.9062L17.9023 9.14925L18.3253 9.43498L19.1649 8.19193L20.0044 6.94887L19.5813 6.66314L18.7418 7.9062ZM19.1649 8.19193L18.3253 9.43498C18.6104 9.62749 18.8426 9.78027 19.0098 9.88323L19.7963 8.60591L20.5827 7.3286C20.4722 7.26055 20.2834 7.13733 20.0044 6.94887L19.1649 8.19193ZM19.7963 8.60591L19.0098 9.88323L19.2182 10.0115L20.0046 8.73417L20.791 7.45686L20.5827 7.3286L19.7963 8.60591ZM20.0046 8.73417L19.2182 10.0115L19.4265 10.1397L20.2129 8.86243L20.9993 7.58511L20.791 7.45686L20.0046 8.73417ZM20.2129 8.86243L19.4265 10.1397C19.7091 10.3138 20.525 10.7123 21.3625 10.1679L20.545 8.91023L19.7275 7.65256C20.0327 7.4542 20.3616 7.41751 20.6138 7.45381C20.8323 7.48526 20.9675 7.56551 20.9993 7.58511L20.2129 8.86243ZM20.545 8.91023L21.3625 10.1679L21.4863 10.0874L20.6688 8.82977L19.8513 7.5721L19.7275 7.65256L20.545 8.91023ZM20.6688 8.82977L21.4863 10.0874L21.6101 10.007L20.7926 8.7493L19.9751 7.49163L19.8513 7.5721L20.6688 8.82977ZM20.7926 8.7493L21.6101 10.007C21.4111 10.1363 21.1672 10.2236 20.8982 10.2366C20.6381 10.2493 20.4217 10.1895 20.268 10.1231C19.9925 10.0043 19.8446 9.83365 19.8158 9.80052C19.7441 9.71806 19.7472 9.69249 19.8178 9.83685L21.1653 9.17792L22.5128 8.51899C22.4175 8.32397 22.2755 8.05727 22.0795 7.83194C21.9886 7.72736 21.7838 7.50988 21.4566 7.36869C21.0473 7.19203 20.4828 7.16164 19.9751 7.49163L20.7926 8.7493ZM21.1653 9.17792L19.8178 9.83685L20.0667 10.3459L21.4142 9.687L22.7618 9.02807L22.5128 8.51899L21.1653 9.17792Z" fill="white"/>
</g>
<defs>
<clipPath id="clip0_434_356">
<rect width="39" height="40" fill="white"/>
</clipPath>
</defs>
</svg>
