<svg width="31" height="31" viewBox="0 0 31 31" fill="none" xmlns="http://www.w3.org/2000/svg">
<path d="M26.75 4.72104C26.75 4.72104 29.2592 3.7426 29.0501 6.11881C28.9804 7.09726 28.3531 10.5218 27.8652 14.2259L26.1924 25.1984C26.1924 25.1984 26.053 26.8058 24.7983 27.0854C23.5437 27.3649 21.6618 26.107 21.3132 25.8274C21.0344 25.6178 16.0856 22.4727 14.3431 20.9352C13.8551 20.5159 13.2975 19.6772 14.4127 18.6988L21.7315 11.7099C22.5679 10.8713 23.4043 8.91438 19.9192 11.2906L10.161 17.93C10.161 17.93 9.04574 18.6289 6.95472 17.9999L2.42408 16.6021C2.42408 16.6021 0.75124 15.5538 3.60901 14.5054C10.5792 11.2206 19.1525 7.866 26.75 4.72104Z" fill="white"/>
<path d="M27.2178 5.02627L26.8899 5.52877L27.2178 5.02627ZM27.4517 5.17889L27.7795 4.67639L27.4517 5.17889ZM27.843 5.25373L27.5773 4.71578L27.843 5.25373ZM28.158 5.09818L28.4237 5.63613L28.158 5.09818ZM28.3275 5.14951L28.9249 5.09351L28.3275 5.14951ZM28.3517 5.40771L27.7543 5.46371L28.3517 5.40771ZM28.4384 5.71229L28.9906 5.47745L28.4384 5.71229ZM28.5877 6.06324L28.0356 6.29807L28.5877 6.06324ZM28.762 6.47643L28.2087 6.70839L28.762 6.47643ZM28.9613 6.95187L28.408 7.18384L28.9613 6.95187ZM28.9483 7.40022L29.4774 7.68317L28.9483 7.40022ZM28.8357 7.61085L28.3066 7.32791L28.8357 7.61085ZM28.723 7.82148L29.2521 8.10443V8.10443L28.723 7.82148ZM28.5235 8.24621L27.9675 8.02052L28.5235 8.24621ZM28.4366 8.4603L28.9925 8.68599L28.4366 8.4603ZM28.3497 8.6744L28.9056 8.90009L28.3497 8.6744ZM28.3004 9.12216L28.8927 9.02675L28.3004 9.12216ZM28.3757 9.58951L27.7833 9.68492L28.3757 9.58951ZM28.2204 10.0213L28.6503 10.4398L28.2204 10.0213ZM27.8346 10.4176L27.4047 9.99904L27.8346 10.4176ZM27.9018 10.8829L28.3318 10.4644L27.9018 10.8829ZM28.422 11.4172L27.992 11.8357L28.422 11.4172ZM28.3726 11.8666L28.6771 12.3836L28.3726 11.8666ZM28.0633 12.0488L28.3677 12.5658L28.0633 12.0488ZM27.7539 12.231L28.0583 12.748V12.748L27.7539 12.231ZM27.5288 12.6529L28.0948 12.4537L27.5288 12.6529ZM27.6975 13.1324L27.1316 13.3315L27.6975 13.1324ZM27.7029 13.587L28.2661 13.794L27.7029 13.587ZM27.5449 14.0169L26.9818 13.8099L27.5449 14.0169ZM27.3869 14.4473L26.8236 14.2409L27.3869 14.4473ZM27.2289 14.8785L27.7923 15.0849L27.2289 14.8785ZM27.0335 15.3039L26.5088 15.0129L27.0335 15.3039ZM26.9172 15.5137L27.4419 15.8047L26.9172 15.5137ZM26.8008 15.7236L26.2761 15.4326L26.8008 15.7236ZM26.7939 16.1777L27.3414 15.9324L26.7939 16.1777ZM26.9033 16.422L26.3557 16.6673L26.9033 16.422ZM27.0127 16.6663L26.4652 16.9116L27.0127 16.6663ZM27.0431 17.1261L26.4798 16.9194L27.0431 17.1261ZM26.964 17.3417L26.4007 17.135L26.964 17.3417ZM26.8849 17.5572L27.4482 17.7639L26.8849 17.5572ZM27.0127 18.0319L26.5438 18.4062L27.0127 18.0319ZM27.2196 18.291L27.6885 17.9167L27.2196 18.291ZM27.4265 18.5502L27.8954 18.1758L27.4265 18.5502ZM27.5967 19.0313L27.0047 18.9334L27.5967 19.0313ZM27.5232 19.4753L28.1151 19.5733L27.5232 19.4753ZM27.2635 19.8909L26.8701 19.4379L27.2635 19.8909ZM26.8176 20.2781L26.4242 19.8251L26.8176 20.2781ZM26.5278 20.6892L25.9543 20.5129L26.5278 20.6892ZM26.461 20.9066L27.0345 21.0829L26.461 20.9066ZM26.3942 21.124L25.8206 20.9477L26.3942 21.124ZM26.3879 21.5782L25.8066 21.7268L26.3879 21.5782ZM26.509 22.0519L27.0903 21.9033L26.509 22.0519ZM26.7509 22.544L27.24 22.1964L26.7509 22.544ZM27.1137 23.0545L26.6247 23.4021L27.1137 23.0545ZM26.9011 23.4773L27.1358 24.0295L26.9011 23.4773ZM26.5069 23.6448L26.2722 23.0926L26.5069 23.6448ZM25.6971 24.2041L25.0999 24.1466L25.6971 24.2041ZM25.6539 24.6527L26.2511 24.7103L25.6539 24.6527ZM25.9256 25.1868L25.49 25.5994L25.9256 25.1868ZM26.5124 25.8063L26.0767 26.2189L26.5124 25.8063ZM26.3322 26.4893L26.7036 26.9605L26.3322 26.4893ZM26.0954 26.676L25.724 26.2048L26.0954 26.676ZM25.5841 26.8413L25.6306 26.2431L25.5841 26.8413ZM25.035 26.7987L24.9885 27.3969L25.035 26.7987ZM24.5808 26.7132L24.7826 26.1482L24.5808 26.7132ZM24.2216 26.5849L24.0198 27.1499L24.2216 26.5849ZM23.7334 26.7668L24.1075 27.2359L23.7334 26.7668ZM22.6481 27.2828L23.1355 26.9329L22.6481 27.2828ZM22.4885 27.0605L22.9759 26.7106L22.4885 27.0605ZM22.3289 26.8382L21.8415 27.188L22.3289 26.8382ZM22.0049 26.4493L21.578 26.8709V26.8709L22.0049 26.4493ZM21.6761 26.1164L22.103 25.6948V25.6948L21.6761 26.1164ZM21.1805 25.2283L20.6352 25.4786L21.1805 25.2283ZM20.7384 25.0825L20.9032 25.6594L20.7384 25.0825ZM20.075 25.2721L20.2398 25.849L20.075 25.2721ZM19.6935 25.0339L19.1001 25.1225L19.6935 25.0339ZM19.5941 24.3679L20.1875 24.2793L19.5941 24.3679ZM19.1842 24.1685L18.9756 23.6059L19.1842 24.1685ZM18.824 24.302L19.0325 24.8646L18.824 24.302ZM18.4638 24.4356L18.2552 23.873L18.4638 24.4356ZM17.9377 24.4104L17.5229 24.8439L17.9377 24.4104ZM17.606 24.093L18.0208 23.6595L17.606 24.093ZM17.3365 23.6871L17.8897 23.455L17.3365 23.6871ZM17.2327 23.44L16.6795 23.6721L17.2327 23.44ZM17.129 23.1928L16.5758 23.4249L17.129 23.1928ZM16.906 22.7256L16.3786 23.0117L16.906 22.7256ZM16.7866 22.5056L17.314 22.2194L16.7866 22.5056ZM15.9038 22.1839L16.0123 22.774L15.9038 22.1839ZM15.5818 22.2431L15.4734 21.653L15.5818 22.2431ZM15.2399 21.9595L14.6409 21.9943L15.2399 21.9595ZM14.768 21.0368L14.9168 21.6181L14.768 21.0368ZM13.9434 21.2479L13.7946 20.6666L13.9434 21.2479ZM13.3496 21.0346L12.8282 21.3315L13.3496 21.0346ZM12.9866 20.397L12.4652 20.6939L12.9866 20.397ZM13.0163 19.7767L12.5249 19.4325L13.0163 19.7767ZM13.2275 19.4751L13.719 19.8193L13.2275 19.4751ZM13.4387 19.1736L12.9472 18.8294V18.8294L13.4387 19.1736ZM13.7861 18.6578L14.2924 18.9797L13.7861 18.6578ZM14.0585 18.2293L13.5521 17.9074L14.0585 18.2293ZM14.5692 18.0815L14.4644 18.6723L14.5692 18.0815ZM14.9437 18.1479L15.0484 17.5571L14.9437 18.1479ZM15.3182 18.2143L15.423 17.6235L15.3182 18.2143ZM15.8375 18.1065L16.2989 18.49L15.8375 18.1065ZM16.127 17.7581L15.6656 17.3746L16.127 17.7581ZM16.1023 16.4291L16.696 16.342V16.342L16.1023 16.4291ZM16.247 15.929L15.9489 15.4082L16.247 15.929ZM16.4482 15.8138L16.7462 16.3346L16.4482 15.8138ZM16.6493 15.6987L16.3513 15.178L16.6493 15.6987ZM17.095 15.5138L17.2596 16.0908L17.095 15.5138ZM17.3395 15.444L17.1748 14.8671L17.3395 15.444ZM17.584 15.3743L17.7486 15.9513L17.584 15.3743ZM18.0319 15.1917L17.7409 14.667L18.0319 15.1917ZM18.6763 14.5634L18.0804 14.4932L18.6763 14.5634ZM18.7447 13.9835L19.3406 14.0537L18.7447 13.9835ZM18.9175 13.5128L18.4414 13.1476L18.9175 13.5128ZM19.1947 13.1515L19.6707 13.5167L19.1947 13.1515ZM19.6661 12.9936L19.7069 12.395L19.6661 12.9936ZM20.3317 13.039L20.2908 13.6376L20.3317 13.039ZM21.0268 11.8244L21.5406 12.1343L21.0268 11.8244ZM21.2587 11.44L21.7725 11.7499L21.2587 11.44ZM21.5005 11.1074L21.9472 11.5079L21.5005 11.1074ZM21.6263 10.967L22.0731 11.3675L21.6263 10.967ZM21.7522 10.8266L21.3054 10.4261L21.7522 10.8266ZM21.9469 10.7359L22.2976 10.2491L21.9469 10.7359ZM22.0847 10.8352L22.4355 10.3483L22.0847 10.8352ZM21.9202 10.6759L21.5201 11.123L21.9202 10.6759ZM21.4533 10.258L21.8534 9.81091L21.4533 10.258ZM20.7851 10.2385L20.5455 9.6884L20.7851 10.2385ZM20.5678 10.3331L20.8075 10.8832L20.5678 10.3331ZM20.2783 10.7328L19.6944 10.5947L20.2783 10.7328ZM19.7463 11.584L19.6275 12.1721L19.7463 11.584ZM18.7491 11.7182L18.1562 11.6259L18.7491 11.7182ZM18.6478 12.3693L19.2406 12.4615L18.6478 12.3693ZM18.3457 12.7253L18.418 13.3209L18.3457 12.7253ZM18.0943 12.7558L18.022 12.1602L18.0943 12.7558ZM17.843 12.7863L17.7707 12.1907L17.843 12.7863ZM17.4652 13.031L17.9819 13.336L17.4652 13.031ZM17.3388 13.2452L17.8555 13.5502L17.3388 13.2452ZM17.2124 13.4594L16.6956 13.1545L17.2124 13.4594ZM16.7116 13.5235L16.4882 14.0803L16.7116 13.5235ZM16.3373 13.3733L16.5607 12.8164L16.3373 13.3733ZM15.4698 13.2982L16.0004 13.5782L15.4698 13.2982ZM15.3509 13.5234L14.8203 13.2433L15.3509 13.5234ZM15.232 13.7487L14.7014 13.4686L15.232 13.7487ZM14.8813 14.0331L14.7328 13.4518L14.8813 14.0331ZM14.4176 14.1515L14.566 14.7329L14.4176 14.1515ZM14.0326 14.3857L14.4842 14.7808L14.0326 14.3857ZM13.8795 14.5607L13.428 14.1657L13.8795 14.5607ZM13.4806 15.1742L14.0465 15.3736L13.4806 15.1742ZM13.2949 15.7013L13.8608 15.9007L13.2949 15.7013ZM13.0718 16.1734L13.5806 16.4913L13.0718 16.1734ZM12.8112 16.5904L12.3024 16.2724L12.8112 16.5904ZM11.9894 16.5824L11.8102 17.1551L11.9894 16.5824ZM11.6437 16.4742L11.8229 15.9016L11.6437 16.4742ZM10.5256 17.2308L9.93699 17.1143L10.5256 17.2308ZM10.4029 17.8505L9.81434 17.734L10.4029 17.8505ZM10.073 18.0825L9.90602 18.6588L10.073 18.0825ZM9.53573 17.9269L9.36877 18.5032L9.53573 17.9269ZM9.05918 17.9326L9.28297 18.4893L9.05918 17.9326ZM8.64332 18.0998L8.41953 17.5431L8.64332 18.0998ZM8.25398 17.9673L7.79443 18.3531L8.25398 17.9673ZM8.07257 17.7512L8.53212 17.3654L8.07257 17.7512ZM7.89115 17.5351L8.3507 17.1493L7.89115 17.5351ZM7.42512 17.5485L7.04843 17.0815L7.42512 17.5485ZM7.14051 17.7781L6.76382 17.3111L7.14051 17.7781ZM6.85589 18.0076L7.23259 18.4747L6.85589 18.0076ZM6.44211 17.8927L7.00393 17.682L6.44211 17.8927ZM6.18377 17.2036L6.74559 16.993L6.18377 17.2036ZM5.7728 17.0093L6.05502 17.5388L5.7728 17.0093ZM5.20919 17.3097L4.92696 16.7802L5.20919 17.3097ZM4.76466 17.2241L5.25846 16.8833L4.76466 17.2241ZM4.43921 16.7526L3.9454 17.0934L4.43921 16.7526ZM3.33337 17.2841L2.95472 16.8186L3.33337 17.2841ZM2.84525 17.3166L3.31873 16.9481L2.84525 17.3166ZM2.49774 16.8701L2.02425 17.2386L2.49774 16.8701ZM2.08246 16.4356L1.68745 16.8873L2.08246 16.4356ZM1.59942 16.0131L1.99442 15.5615L1.59942 16.0131ZM1.70559 15.7362L1.5942 15.1466L1.70559 15.7362ZM2.40097 15.6048L2.51235 16.1944V16.1944L2.40097 15.6048ZM2.7792 15.1287L2.18086 15.0842L2.7792 15.1287ZM3.1721 14.0239L3.40429 13.4706L3.1721 14.0239ZM3.77464 14.2767L3.54245 14.83L3.77464 14.2767ZM4.31511 14.3847L4.26906 13.7865L4.31511 14.3847ZM4.79352 14.3479L4.83958 14.9461L4.79352 14.3479ZM5.24537 14.2548L5.04663 13.6887L5.24537 14.2548ZM5.67064 14.1056L5.86938 14.6717L5.67064 14.1056ZM5.99647 13.7353L6.55681 13.9498L5.99647 13.7353ZM6.22286 13.144L5.66253 12.9294L6.22286 13.144ZM6.49336 12.6471L6.96607 13.0166L6.49336 12.6471ZM6.80795 12.2447L6.33523 11.8751L6.80795 12.2447ZM7.70161 12.5974L8.06232 12.1179L7.70161 12.5974ZM8.48814 12.7038L9.08441 12.7707L8.48814 12.7038ZM8.58849 11.8088L9.18475 11.8756L8.58849 11.8088ZM8.96016 11.537L9.24801 11.0106L8.96016 11.537ZM9.60315 11.8886L9.3153 12.4151L9.60315 11.8886ZM10.321 11.8482L10.6084 12.3749L10.321 11.8482ZM10.5192 11.74L10.2318 11.2133L10.5192 11.74ZM10.9936 11.7077L11.1523 11.129L10.9936 11.7077ZM11.2699 11.7834L11.1113 12.3621L11.2699 11.7834ZM11.5462 11.8592L11.3876 12.4378L11.5462 11.8592ZM11.9981 10.6179L11.4034 10.5386L11.9981 10.6179ZM12.2276 10.0038L11.7982 9.58468L12.2276 10.0038ZM12.5694 9.65353L12.9988 10.0726L12.5694 9.65353ZM13.0131 9.54701L12.8668 10.1289L13.0131 9.54701ZM13.5588 9.6842L13.7051 9.10231L13.5588 9.6842ZM14.113 9.84371L14.2974 9.27276L14.113 9.84371ZM14.3944 9.93462L14.5789 9.36367L14.3944 9.93462ZM14.6758 10.0255L14.4914 10.5965L14.6758 10.0255ZM15.0886 9.8455L14.5487 9.58375L15.0886 9.8455ZM15.22 9.57457L15.7599 9.83632L15.22 9.57457ZM15.3513 9.30363L15.8912 9.56539L15.3513 9.30363ZM15.7389 9.06387L15.8114 8.46826L15.7389 9.06387ZM16.2515 9.12622L16.179 9.72183L16.2515 9.12622ZM16.6486 8.9081L16.1262 8.61297L16.6486 8.9081ZM16.7894 8.6588L16.267 8.36367L16.7894 8.6588ZM16.9302 8.4095L17.4526 8.70463L16.9302 8.4095ZM17.3191 8.17188L17.2909 8.77122L17.3191 8.17188ZM18.3243 8.25096L18.2245 8.84261L18.3243 8.25096ZM19.355 8.39398L19.3284 8.99339L19.355 8.39398ZM19.8499 8.41592L19.8765 7.81651L19.8499 8.41592ZM20.2147 8.11887L20.7754 8.3324L20.2147 8.11887ZM20.4493 7.50281L19.8886 7.28927L20.4493 7.50281ZM20.7781 7.11742L20.5719 6.55395L20.7781 7.11742ZM21.2009 6.96268L21.4071 7.52615L21.2009 6.96268ZM21.667 6.91377L21.6004 7.51006L21.667 6.91377ZM21.9216 6.94222L21.9883 6.34593L21.9216 6.94222ZM22.1763 6.97068L22.1096 7.56697L22.1763 6.97068ZM22.6783 7.00982L22.7042 6.41038L22.6783 7.00982ZM22.9258 7.02051L22.8999 7.61995L22.9258 7.02051ZM23.5727 6.81906L23.0771 6.48084L23.5727 6.81906ZM23.7248 6.59622L24.2204 6.93443L23.7248 6.59622ZM23.8769 6.37339L23.3813 6.03518L23.8769 6.37339ZM24.2772 6.16263L24.2481 6.76192L24.2772 6.16263ZM24.7738 6.18678L24.7447 6.78607L24.7738 6.18678ZM25.7523 5.01489L25.405 4.52566L25.7523 5.01489ZM25.9406 4.88125L26.2879 5.37049L25.9406 4.88125ZM26.1288 4.74761L26.4761 5.23685L26.1288 4.74761ZM26.4253 4.64074L26.2812 5.22319L26.4253 4.64074ZM26.6417 4.69427L26.7858 4.11182L26.6417 4.69427ZM26.9839 4.87366L26.656 5.37616L26.9839 4.87366ZM27.2178 5.02627L26.8899 5.52877L27.1238 5.68139L27.4517 5.17889L27.7795 4.67639L27.5456 4.52377L27.2178 5.02627ZM27.4517 5.17889L27.1238 5.68139C27.3467 5.82681 27.7192 5.98411 28.1088 5.79168L27.843 5.25373L27.5773 4.71578C27.6138 4.69773 27.653 4.68649 27.6914 4.6821C27.7291 4.6778 27.7593 4.68079 27.7792 4.68459C27.8148 4.6914 27.8165 4.70051 27.7795 4.67639L27.4517 5.17889ZM27.843 5.25373L28.1088 5.79168L28.2662 5.7139L28.0005 5.17595L27.7348 4.638L27.5773 4.71578L27.843 5.25373ZM28.0005 5.17595L28.2662 5.7139L28.4237 5.63613L28.158 5.09818L27.8922 4.56023L27.7348 4.638L28.0005 5.17595ZM28.158 5.09818L28.4237 5.63613C28.4224 5.63675 28.3974 5.64943 28.3538 5.6588C28.3121 5.66777 28.2196 5.681 28.1052 5.64639C27.9759 5.60724 27.8701 5.52218 27.8038 5.41624C27.7458 5.32361 27.7334 5.24055 27.7301 5.2055L28.3275 5.14951L28.9249 5.09351C28.9104 4.93946 28.8195 4.60882 28.4529 4.49786C28.19 4.41826 27.9654 4.52409 27.8922 4.56023L28.158 5.09818ZM28.3275 5.14951L27.7301 5.2055L27.7422 5.33461L28.3396 5.27861L28.937 5.22261L28.9249 5.09351L28.3275 5.14951ZM28.3396 5.27861L27.7422 5.33461L27.7543 5.46371L28.3517 5.40771L28.9491 5.35171L28.937 5.22261L28.3396 5.27861ZM28.3517 5.40771L27.7543 5.46371C27.7702 5.63297 27.8226 5.79739 27.8863 5.94712L28.4384 5.71229L28.9906 5.47745C28.9736 5.43746 28.9629 5.40659 28.9565 5.38408C28.95 5.36127 28.949 5.35111 28.9491 5.35171L28.3517 5.40771ZM28.4384 5.71229L27.8863 5.94712L27.9609 6.1226L28.5131 5.88776L29.0652 5.65293L28.9906 5.47745L28.4384 5.71229ZM28.5131 5.88776L27.9609 6.1226L28.0356 6.29807L28.5877 6.06324L29.1398 5.8284L29.0652 5.65293L28.5131 5.88776ZM28.5877 6.06324L28.0356 6.29807C28.0848 6.41383 28.1425 6.55056 28.2087 6.70839L28.762 6.47643L29.3153 6.24447C29.2486 6.08534 29.1901 5.9466 29.1398 5.8284L28.5877 6.06324ZM28.762 6.47643L28.2087 6.70839L28.3083 6.94612L28.8617 6.71415L29.415 6.48219L29.3153 6.24447L28.762 6.47643ZM28.8617 6.71415L28.3083 6.94612L28.408 7.18384L28.9613 6.95187L29.5147 6.71991L29.415 6.48219L28.8617 6.71415ZM28.9613 6.95187L28.408 7.18384C28.413 7.19595 28.4075 7.18806 28.4081 7.16545C28.4084 7.15483 28.4101 7.14424 28.4127 7.13466C28.4153 7.12522 28.4181 7.11931 28.4192 7.11727L28.9483 7.40022L29.4774 7.68317C29.6451 7.36963 29.6446 7.02986 29.5147 6.71991L28.9613 6.95187ZM28.9483 7.40022L28.4192 7.11727L28.3066 7.32791L28.8357 7.61085L29.3648 7.8938L29.4774 7.68317L28.9483 7.40022ZM28.8357 7.61085L28.3066 7.32791L28.1939 7.53854L28.723 7.82148L29.2521 8.10443L29.3648 7.8938L28.8357 7.61085ZM28.723 7.82148L28.1939 7.53854C28.1092 7.69693 28.0337 7.8576 27.9675 8.02052L28.5235 8.24621L29.0794 8.4719C29.1292 8.34936 29.1866 8.22688 29.2521 8.10443L28.723 7.82148ZM28.5235 8.24621L27.9675 8.02052L27.8806 8.23461L28.4366 8.4603L28.9925 8.68599L29.0794 8.4719L28.5235 8.24621ZM28.4366 8.4603L27.8806 8.23461L27.7937 8.4487L28.3497 8.6744L28.9056 8.90009L28.9925 8.68599L28.4366 8.4603ZM28.3497 8.6744L27.7937 8.4487C27.6934 8.69569 27.6659 8.95621 27.708 9.21758L28.3004 9.12216L28.8927 9.02675C28.8847 8.97654 28.89 8.93855 28.9056 8.90009L28.3497 8.6744ZM28.3004 9.12216L27.708 9.21758L27.7456 9.45125L28.338 9.35583L28.9304 9.26042L28.8927 9.02675L28.3004 9.12216ZM28.338 9.35583L27.7456 9.45125L27.7833 9.68492L28.3757 9.58951L28.968 9.49409L28.9304 9.26042L28.338 9.35583ZM28.3757 9.58951L27.7833 9.68492C27.782 9.67715 27.7811 9.66541 27.7824 9.65097C27.7837 9.63643 27.7869 9.62283 27.791 9.6113C27.7995 9.58781 27.8071 9.58576 27.7905 9.60278L28.2204 10.0213L28.6503 10.4398C28.886 10.1978 29.0286 9.87038 28.968 9.49409L28.3757 9.58951ZM28.2204 10.0213L27.7905 9.60278L27.5976 9.80091L28.0275 10.2194L28.4574 10.638L28.6503 10.4398L28.2204 10.0213ZM28.0275 10.2194L27.5976 9.80091L27.4047 9.99904L27.8346 10.4176L28.2645 10.8361L28.4574 10.638L28.0275 10.2194ZM27.8346 10.4176L27.4047 9.99904C27.2362 10.1721 27.1184 10.423 27.1611 10.7187C27.1983 10.976 27.3448 11.1708 27.4719 11.3014L27.9018 10.8829L28.3318 10.4644C28.2855 10.4168 28.3341 10.4451 28.3488 10.5472C28.3572 10.605 28.3515 10.6688 28.3293 10.7291C28.3081 10.7862 28.2792 10.8211 28.2645 10.8361L27.8346 10.4176ZM27.9018 10.8829L27.4719 11.3014L27.7319 11.5686L28.1619 11.1501L28.5918 10.7315L28.3318 10.4644L27.9018 10.8829ZM28.1619 11.1501L27.7319 11.5686L27.992 11.8357L28.422 11.4172L28.8519 10.9987L28.5918 10.7315L28.1619 11.1501ZM28.422 11.4172L27.992 11.8357C28.0333 11.8781 27.9222 11.7895 27.9433 11.5977C27.9655 11.3951 28.1054 11.3276 28.0682 11.3496L28.3726 11.8666L28.6771 12.3836C28.8461 12.2841 29.0974 12.081 29.1361 11.7286C29.1736 11.387 28.9841 11.1345 28.8519 10.9987L28.422 11.4172ZM28.3726 11.8666L28.0682 11.3496L27.7588 11.5317L28.0633 12.0488L28.3677 12.5658L28.6771 12.3836L28.3726 11.8666ZM28.0633 12.0488L27.7588 11.5317L27.4494 11.7139L27.7539 12.231L28.0583 12.748L28.3677 12.5658L28.0633 12.0488ZM27.7539 12.231L27.4494 11.7139C27.2955 11.8045 27.1228 11.9402 27.0135 12.1452C26.8915 12.374 26.8829 12.6248 26.9628 12.852L27.5288 12.6529L28.0948 12.4537C28.1041 12.4801 28.1134 12.5218 28.1101 12.574C28.1068 12.6271 28.0915 12.6739 28.0723 12.7099C28.038 12.7742 28.0059 12.7788 28.0583 12.748L27.7539 12.231ZM27.5288 12.6529L26.9628 12.852L27.0472 13.0918L27.6132 12.8926L28.1792 12.6935L28.0948 12.4537L27.5288 12.6529ZM27.6132 12.8926L27.0472 13.0918L27.1316 13.3315L27.6975 13.1324L28.2635 12.9332L28.1792 12.6935L27.6132 12.8926ZM27.6975 13.1324L27.1316 13.3315C27.1405 13.3569 27.1411 13.3699 27.1411 13.373C27.1411 13.3753 27.1411 13.3764 27.1397 13.3801L27.7029 13.587L28.2661 13.794C28.3722 13.5053 28.3606 13.2092 28.2635 12.9332L27.6975 13.1324ZM27.7029 13.587L27.1397 13.3801L27.0608 13.595L27.6239 13.802L28.1871 14.009L28.2661 13.794L27.7029 13.587ZM27.6239 13.802L27.0608 13.595L26.9818 13.8099L27.5449 14.0169L28.1081 14.2239L28.1871 14.009L27.6239 13.802ZM27.5449 14.0169L26.9818 13.8099C26.929 13.9533 26.8763 14.097 26.8236 14.2409L27.3869 14.4473L27.9503 14.6538C28.0029 14.5103 28.0555 14.367 28.1081 14.2239L27.5449 14.0169ZM27.3869 14.4473L26.8236 14.2409L26.7446 14.4564L27.3079 14.6629L27.8713 14.8694L27.9503 14.6538L27.3869 14.4473ZM27.3079 14.6629L26.7446 14.4564L26.6656 14.672L27.2289 14.8785L27.7923 15.0849L27.8713 14.8694L27.3079 14.6629ZM27.2289 14.8785L26.6656 14.672C26.624 14.7853 26.572 14.8989 26.5088 15.0129L27.0335 15.3039L27.5583 15.5948C27.6502 15.429 27.7285 15.259 27.7923 15.0849L27.2289 14.8785ZM27.0335 15.3039L26.5088 15.0129L26.3924 15.2228L26.9172 15.5137L27.4419 15.8047L27.5583 15.5948L27.0335 15.3039ZM26.9172 15.5137L26.3924 15.2228L26.2761 15.4326L26.8008 15.7236L27.3255 16.0146L27.4419 15.8047L26.9172 15.5137ZM26.8008 15.7236L26.2761 15.4326C26.0954 15.7585 26.1064 16.1107 26.2463 16.423L26.7939 16.1777L27.3414 15.9324C27.3344 15.9168 27.3412 15.925 27.3408 15.9512C27.3406 15.9638 27.3388 15.9769 27.3354 15.9894C27.332 16.0017 27.3279 16.0102 27.3255 16.0146L26.8008 15.7236ZM26.7939 16.1777L26.2463 16.423L26.3557 16.6673L26.9033 16.422L27.4509 16.1767L27.3414 15.9324L26.7939 16.1777ZM26.9033 16.422L26.3557 16.6673L26.4652 16.9116L27.0127 16.6663L27.5603 16.421L27.4509 16.1767L26.9033 16.422ZM27.0127 16.6663L26.4652 16.9116C26.4772 16.9384 26.4767 16.9479 26.4764 16.9429C26.4762 16.9406 26.4762 16.9365 26.4769 16.9313C26.4777 16.9262 26.4789 16.922 26.4798 16.9194L27.0431 17.1261L27.6064 17.3328C27.7219 17.0179 27.6858 16.7012 27.5603 16.421L27.0127 16.6663ZM27.0431 17.1261L26.4798 16.9194L26.4007 17.135L26.964 17.3417L27.5273 17.5483L27.6064 17.3328L27.0431 17.1261ZM26.964 17.3417L26.4007 17.135L26.3216 17.3505L26.8849 17.5572L27.4482 17.7639L27.5273 17.5483L26.964 17.3417ZM26.8849 17.5572L26.3216 17.3505C26.1674 17.7709 26.3387 18.1492 26.5438 18.4062L27.0127 18.0319L27.4816 17.6575C27.4472 17.6144 27.4505 17.6046 27.4567 17.6277C27.4602 17.6406 27.4638 17.6614 27.4629 17.6878C27.462 17.7147 27.4567 17.7408 27.4482 17.7639L26.8849 17.5572ZM27.0127 18.0319L26.5438 18.4062L26.7507 18.6654L27.2196 18.291L27.6885 17.9167L27.4816 17.6575L27.0127 18.0319ZM27.2196 18.291L26.7507 18.6654L26.9576 18.9245L27.4265 18.5502L27.8954 18.1758L27.6885 17.9167L27.2196 18.291ZM27.4265 18.5502L26.9576 18.9245C26.9765 18.9482 26.9889 18.9668 26.9967 18.9801C27.0005 18.9867 27.003 18.9916 27.0046 18.995C27.0062 18.9984 27.0068 19.0001 27.0068 19.0001C27.0068 18.9999 27.0044 18.9931 27.003 18.9804C27.0017 18.9673 27.0018 18.9511 27.0047 18.9334L27.5967 19.0313L28.1886 19.1293C28.2518 18.7471 28.0886 18.4178 27.8954 18.1758L27.4265 18.5502ZM27.5967 19.0313L27.0047 18.9334L26.968 19.1554L27.5599 19.2533L28.1519 19.3513L28.1886 19.1293L27.5967 19.0313ZM27.5599 19.2533L26.968 19.1554L26.9312 19.3774L27.5232 19.4753L28.1151 19.5733L28.1519 19.3513L27.5599 19.2533ZM27.5232 19.4753L26.9312 19.3774C26.933 19.3666 26.9362 19.3641 26.9311 19.3723C26.925 19.3819 26.9083 19.4047 26.8701 19.4379L27.2635 19.8909L27.6569 20.3439C27.8777 20.1522 28.0615 19.8972 28.1151 19.5733L27.5232 19.4753ZM27.2635 19.8909L26.8701 19.4379L26.6471 19.6315L27.0405 20.0845L27.4339 20.5376L27.6569 20.3439L27.2635 19.8909ZM27.0405 20.0845L26.6471 19.6315L26.4242 19.8251L26.8176 20.2781L27.211 20.7312L27.4339 20.5376L27.0405 20.0845ZM26.8176 20.2781L26.4242 19.8251C26.2156 20.0062 26.0403 20.2331 25.9543 20.5129L26.5278 20.6892L27.1013 20.8654C27.1044 20.8554 27.1223 20.8082 27.211 20.7312L26.8176 20.2781ZM26.5278 20.6892L25.9543 20.5129L25.8875 20.7303L26.461 20.9066L27.0345 21.0829L27.1013 20.8654L26.5278 20.6892ZM26.461 20.9066L25.8875 20.7303L25.8206 20.9477L26.3942 21.124L26.9677 21.3003L27.0345 21.0829L26.461 20.9066ZM26.3942 21.124L25.8206 20.9477C25.7412 21.2061 25.741 21.4703 25.8066 21.7268L26.3879 21.5782L26.9692 21.4296C26.954 21.3704 26.958 21.3318 26.9677 21.3003L26.3942 21.124ZM26.3879 21.5782L25.8066 21.7268L25.8671 21.9636L26.4484 21.8151L27.0297 21.6665L26.9692 21.4296L26.3879 21.5782ZM26.4484 21.8151L25.8671 21.9636L25.9276 22.2005L26.509 22.0519L27.0903 21.9033L27.0297 21.6665L26.4484 21.8151ZM26.509 22.0519L25.9276 22.2005C25.9906 22.4467 26.1097 22.6774 26.2618 22.8916L26.7509 22.544L27.24 22.1964C27.1503 22.0702 27.108 21.9728 27.0903 21.9033L26.509 22.0519ZM26.7509 22.544L26.2618 22.8916L26.4433 23.1468L26.9323 22.7992L27.4214 22.4516L27.24 22.1964L26.7509 22.544ZM26.9323 22.7992L26.4433 23.1468L26.6247 23.4021L27.1137 23.0545L27.6028 22.7069L27.4214 22.4516L26.9323 22.7992ZM27.1137 23.0545L26.6247 23.4021C26.6182 23.3929 26.5884 23.3486 26.5761 23.2719C26.5623 23.1861 26.5764 23.0955 26.6153 23.0182C26.65 22.9492 26.6914 22.9162 26.7 22.9097C26.7089 22.9029 26.7019 22.91 26.6663 22.9251L26.9011 23.4773L27.1358 24.0295C27.3036 23.9581 27.5536 23.8233 27.6873 23.5575C27.8552 23.2236 27.7437 22.9052 27.6028 22.7069L27.1137 23.0545ZM26.9011 23.4773L26.6663 22.9251L26.2722 23.0926L26.5069 23.6448L26.7417 24.197L27.1358 24.0295L26.9011 23.4773ZM26.5069 23.6448L26.2722 23.0926L25.8781 23.2601L26.1128 23.8123L26.3475 24.3645L26.7417 24.197L26.5069 23.6448ZM26.1128 23.8123L25.8781 23.2601C25.5924 23.3815 25.1491 23.6359 25.0999 24.1466L25.6971 24.2041L26.2943 24.2617C26.2897 24.3099 26.2751 24.3515 26.2578 24.3831C26.2415 24.413 26.2261 24.4281 26.2234 24.4306C26.2209 24.433 26.2274 24.4264 26.2492 24.4132C26.2706 24.4003 26.3025 24.3836 26.3475 24.3645L26.1128 23.8123ZM25.6971 24.2041L25.0999 24.1466L25.0783 24.3709L25.6755 24.4284L26.2727 24.486L26.2943 24.2617L25.6971 24.2041ZM25.6755 24.4284L25.0783 24.3709L25.0566 24.5952L25.6539 24.6527L26.2511 24.7103L26.2727 24.486L25.6755 24.4284ZM25.6539 24.6527L25.0566 24.5952C25.0157 25.0205 25.2721 25.3693 25.49 25.5994L25.9256 25.1868L26.3613 24.7742C26.2878 24.6966 26.2565 24.6473 26.2458 24.6263C26.2356 24.6063 26.2579 24.6397 26.2511 24.7103L25.6539 24.6527ZM25.9256 25.1868L25.49 25.5994L25.7834 25.9091L26.219 25.4965L26.6546 25.0839L26.3613 24.7742L25.9256 25.1868ZM26.219 25.4965L25.7834 25.9091L26.0767 26.2189L26.5124 25.8063L26.948 25.3937L26.6546 25.0839L26.219 25.4965ZM26.5124 25.8063L26.0767 26.2189C26.103 26.2466 26.109 26.2582 26.1061 26.2531C26.1032 26.2481 26.0839 26.2134 26.0771 26.1532C26.0695 26.0867 26.0799 26.0116 26.1132 25.9423C26.1441 25.8778 26.1826 25.8433 26.1975 25.8315L26.569 26.3027L26.9404 26.7739C27.1433 26.6139 27.3075 26.3518 27.2693 26.0173C27.2379 25.7419 27.0782 25.5312 26.948 25.3937L26.5124 25.8063ZM26.569 26.3027L26.1975 25.8315L25.9607 26.0182L26.3322 26.4893L26.7036 26.9605L26.9404 26.7739L26.569 26.3027ZM26.3322 26.4893L25.9607 26.0182L25.724 26.2048L26.0954 26.676L26.4669 27.1472L26.7036 26.9605L26.3322 26.4893ZM26.0954 26.676L25.724 26.2048C25.6723 26.2455 25.6485 26.2445 25.6306 26.2431L25.5841 26.8413L25.5376 27.4395C25.8858 27.4666 26.2028 27.3553 26.4669 27.1472L26.0954 26.676ZM25.5841 26.8413L25.6306 26.2431L25.356 26.2218L25.3095 26.82L25.2631 27.4182L25.5376 27.4395L25.5841 26.8413ZM25.3095 26.82L25.356 26.2218L25.0815 26.2005L25.035 26.7987L24.9885 27.3969L25.2631 27.4182L25.3095 26.82ZM25.035 26.7987L25.0815 26.2005C24.9302 26.1887 24.8355 26.1671 24.7826 26.1482L24.5808 26.7132L24.379 27.2782C24.5656 27.3449 24.7737 27.3802 24.9885 27.3969L25.035 26.7987ZM24.5808 26.7132L24.7826 26.1482L24.603 26.084L24.4012 26.649L24.1994 27.2141L24.379 27.2782L24.5808 26.7132ZM24.4012 26.649L24.603 26.084L24.4234 26.0198L24.2216 26.5849L24.0198 27.1499L24.1994 27.2141L24.4012 26.649ZM24.2216 26.5849L24.4234 26.0198C24.1887 25.936 23.9656 25.9744 23.8002 26.0361C23.6371 26.0968 23.4889 26.1944 23.3593 26.2978L23.7334 26.7668L24.1075 27.2359C24.1434 27.2073 24.1715 27.1879 24.1921 27.1754C24.213 27.1626 24.2218 27.1596 24.2193 27.1605C24.2166 27.1615 24.1347 27.191 24.0198 27.1499L24.2216 26.5849ZM23.7334 26.7668L23.3593 26.2978L23.0507 26.5439L23.4249 27.0129L23.799 27.482L24.1075 27.2359L23.7334 26.7668ZM23.4249 27.0129L23.0507 26.5439L22.7422 26.79L23.1163 27.2591L23.4904 27.7281L23.799 27.482L23.4249 27.0129ZM23.1163 27.2591L22.7422 26.79C22.7161 26.8107 22.7068 26.8142 22.7137 26.811C22.7205 26.8077 22.756 26.7918 22.8145 26.7888C22.8787 26.7856 22.9519 26.7991 23.0201 26.8356C23.0846 26.87 23.1205 26.9119 23.1355 26.9329L22.6481 27.2828L22.1607 27.6327C22.3096 27.8402 22.5567 28.0035 22.8754 27.9873C23.1387 27.9739 23.35 27.8402 23.4904 27.7281L23.1163 27.2591ZM22.6481 27.2828L23.1355 26.9329L22.9759 26.7106L22.4885 27.0605L22.0011 27.4104L22.1607 27.6327L22.6481 27.2828ZM22.4885 27.0605L22.9759 26.7106L22.8163 26.4883L22.3289 26.8382L21.8415 27.188L22.0011 27.4104L22.4885 27.0605ZM22.3289 26.8382L22.8163 26.4883C22.6946 26.3188 22.5668 26.1644 22.4318 26.0277L22.0049 26.4493L21.578 26.8709C21.6623 26.9563 21.7504 27.0611 21.8415 27.188L22.3289 26.8382ZM22.0049 26.4493L22.4318 26.0277L22.2674 25.8613L21.8405 26.2828L21.4136 26.7044L21.578 26.8709L22.0049 26.4493ZM21.8405 26.2828L22.2674 25.8613L22.103 25.6948L21.6761 26.1164L21.2492 26.5379L21.4136 26.7044L21.8405 26.2828ZM21.6761 26.1164L22.103 25.6948C22.0486 25.6396 21.9948 25.5641 21.9466 25.459L21.4013 25.7093L20.856 25.9596C20.955 26.1753 21.0844 26.3711 21.2492 26.5379L21.6761 26.1164ZM21.4013 25.7093L21.9466 25.459L21.8362 25.2185L21.2909 25.4688L20.7456 25.7191L20.856 25.9596L21.4013 25.7093ZM21.2909 25.4688L21.8362 25.2185L21.7258 24.978L21.1805 25.2283L20.6352 25.4786L20.7456 25.7191L21.2909 25.4688ZM21.1805 25.2283L21.7258 24.978C21.6299 24.7691 21.4571 24.5856 21.2026 24.5017C20.9719 24.4257 20.7471 24.456 20.5735 24.5056L20.7384 25.0825L20.9032 25.6594C20.9508 25.6458 20.9102 25.6689 20.8269 25.6414C20.7818 25.6265 20.737 25.6006 20.6992 25.5649C20.6628 25.5305 20.6438 25.4973 20.6352 25.4786L21.1805 25.2283ZM20.7384 25.0825L20.5735 24.5056L20.2418 24.6004L20.4067 25.1773L20.5715 25.7542L20.9032 25.6594L20.7384 25.0825ZM20.4067 25.1773L20.2418 24.6004L19.9101 24.6951L20.075 25.2721L20.2398 25.849L20.5715 25.7542L20.4067 25.1773ZM20.075 25.2721L19.9101 24.6951C19.876 24.7049 19.9891 24.662 20.1316 24.751C20.2785 24.8427 20.2907 24.9702 20.287 24.9452L19.6935 25.0339L19.1001 25.1225C19.1296 25.3195 19.2219 25.5977 19.4959 25.7688C19.7655 25.9372 20.0528 25.9024 20.2398 25.849L20.075 25.2721ZM19.6935 25.0339L20.287 24.9452L20.2372 24.6123L19.6438 24.7009L19.0504 24.7895L19.1001 25.1225L19.6935 25.0339ZM19.6438 24.7009L20.2372 24.6123L20.1875 24.2793L19.5941 24.3679L19.0007 24.4565L19.0504 24.7895L19.6438 24.7009ZM19.5941 24.3679L20.1875 24.2793C20.1565 24.0716 20.0497 23.7679 19.7293 23.6121C19.4396 23.4711 19.1495 23.5414 18.9756 23.6059L19.1842 24.1685L19.3927 24.7311C19.4589 24.7065 19.3573 24.7656 19.2043 24.6911C19.0205 24.6017 18.9986 24.4423 19.0007 24.4565L19.5941 24.3679ZM19.1842 24.1685L18.9756 23.6059L18.6154 23.7394L18.824 24.302L19.0325 24.8646L19.3927 24.7311L19.1842 24.1685ZM18.824 24.302L18.6154 23.7394L18.2552 23.873L18.4638 24.4356L18.6723 24.9981L19.0325 24.8646L18.824 24.302ZM18.4638 24.4356L18.2552 23.873C18.2197 23.8861 18.1955 23.8923 18.1815 23.895C18.1674 23.8978 18.1682 23.8961 18.1808 23.8967C18.1943 23.8974 18.2212 23.9006 18.2553 23.9143C18.2906 23.9283 18.3242 23.9498 18.3525 23.9769L17.9377 24.4104L17.5229 24.8439C17.8923 25.1974 18.3719 25.1095 18.6723 24.9981L18.4638 24.4356ZM17.9377 24.4104L18.3525 23.9769L18.1867 23.8182L17.7719 24.2517L17.3571 24.6852L17.5229 24.8439L17.9377 24.4104ZM17.7719 24.2517L18.1867 23.8182L18.0208 23.6595L17.606 24.093L17.1912 24.5265L17.3571 24.6852L17.7719 24.2517ZM17.606 24.093L18.0208 23.6595C17.9789 23.6194 17.9323 23.5565 17.8897 23.455L17.3365 23.6871L16.7832 23.9193C16.8789 24.1474 17.012 24.3551 17.1912 24.5265L17.606 24.093ZM17.3365 23.6871L17.8897 23.455L17.786 23.2078L17.2327 23.44L16.6795 23.6721L16.7832 23.9193L17.3365 23.6871ZM17.2327 23.44L17.786 23.2078L17.6823 22.9607L17.129 23.1928L16.5758 23.4249L16.6795 23.6721L17.2327 23.44ZM17.129 23.1928L17.6823 22.9607C17.606 22.7787 17.5231 22.6049 17.4333 22.4394L16.906 22.7256L16.3786 23.0117C16.448 23.1397 16.5138 23.2773 16.5758 23.4249L17.129 23.1928ZM16.906 22.7256L17.4333 22.4394L17.314 22.2194L16.7866 22.5056L16.2592 22.7917L16.3786 23.0117L16.906 22.7256ZM16.7866 22.5056L17.314 22.2194L17.1946 21.9994L16.6672 22.2856L16.1398 22.5717L16.2592 22.7917L16.7866 22.5056ZM16.6672 22.2856L17.1946 21.9994C17.0899 21.8066 16.9233 21.652 16.7026 21.5716C16.4967 21.4966 16.2904 21.5028 16.1174 21.5346L16.2258 22.1247L16.3343 22.7149C16.376 22.7072 16.3506 22.7205 16.2918 22.6991C16.2606 22.6877 16.2275 22.6691 16.1976 22.6427C16.1682 22.6167 16.15 22.5904 16.1398 22.5717L16.6672 22.2856ZM16.2258 22.1247L16.1174 21.5346L15.7954 21.5938L15.9038 22.1839L16.0123 22.774L16.3343 22.7149L16.2258 22.1247ZM15.9038 22.1839L15.7954 21.5938L15.4734 21.653L15.5818 22.2431L15.6903 22.8332L16.0123 22.774L15.9038 22.1839ZM15.5818 22.2431L15.4734 21.653C15.4559 21.6562 15.5838 21.6283 15.7184 21.74C15.8452 21.8451 15.8411 21.9624 15.8389 21.9248L15.2399 21.9595L14.6409 21.9943C14.652 22.1852 14.7115 22.4639 14.9523 22.6636C15.2008 22.8698 15.493 22.8695 15.6903 22.8332L15.5818 22.2431ZM15.2399 21.9595L15.8389 21.9248L15.819 21.582L15.22 21.6168L14.621 21.6515L14.6409 21.9943L15.2399 21.9595ZM15.22 21.6168L15.819 21.582L15.7992 21.2393L15.2002 21.274L14.6012 21.3088L14.621 21.6515L15.22 21.6168ZM15.2002 21.274L15.7992 21.2393C15.7857 21.0081 15.6906 20.6929 15.3709 20.5174C15.0969 20.367 14.8054 20.4079 14.6192 20.4555L14.768 21.0368L14.9168 21.6181C14.9501 21.6095 14.9544 21.6123 14.9371 21.6119C14.9187 21.6115 14.8623 21.6071 14.7935 21.5693C14.7187 21.5283 14.6636 21.4666 14.6315 21.4039C14.6031 21.3483 14.6012 21.3091 14.6012 21.3088L15.2002 21.274ZM14.768 21.0368L14.6192 20.4555L14.2069 20.5611L14.3557 21.1423L14.5045 21.7236L14.9168 21.6181L14.768 21.0368ZM14.3557 21.1423L14.2069 20.5611L13.7946 20.6666L13.9434 21.2479L14.0922 21.8291L14.5045 21.7236L14.3557 21.1423ZM13.9434 21.2479L13.7946 20.6666C13.7338 20.6822 13.7445 20.6657 13.7916 20.6826C13.8154 20.6911 13.837 20.7044 13.8535 20.7191C13.8691 20.733 13.8736 20.7422 13.871 20.7377L13.3496 21.0346L12.8282 21.3315C12.9474 21.5407 13.1308 21.7203 13.386 21.812C13.6311 21.9 13.8782 21.8839 14.0922 21.8291L13.9434 21.2479ZM13.3496 21.0346L13.871 20.7377L13.6896 20.419L13.1681 20.7158L12.6467 21.0127L12.8282 21.3315L13.3496 21.0346ZM13.1681 20.7158L13.6896 20.419L13.5081 20.1002L12.9866 20.397L12.4652 20.6939L12.6467 21.0127L13.1681 20.7158ZM12.9866 20.397L13.5081 20.1002C13.5002 20.0864 13.4995 20.0815 13.5004 20.0851C13.5009 20.0868 13.5017 20.0902 13.5022 20.095C13.5027 20.0998 13.5029 20.1054 13.5026 20.1113C13.5024 20.1172 13.5016 20.1226 13.5007 20.1272C13.4997 20.1319 13.4987 20.135 13.4981 20.1365C13.497 20.1396 13.4984 20.1343 13.5078 20.1209L13.0163 19.7767L12.5249 19.4325C12.4017 19.6084 12.3153 19.8177 12.304 20.0539C12.2927 20.2902 12.3588 20.5069 12.4652 20.6939L12.9866 20.397ZM13.0163 19.7767L13.5078 20.1209L13.719 19.8193L13.2275 19.4751L12.7361 19.131L12.5249 19.4325L13.0163 19.7767ZM13.2275 19.4751L13.719 19.8193L13.9302 19.5177L13.4387 19.1736L12.9472 18.8294L12.7361 19.131L13.2275 19.4751ZM13.4387 19.1736L13.9302 19.5177C14.074 19.3123 14.1953 19.1325 14.2924 18.9797L13.7861 18.6578L13.2797 18.3359C13.1953 18.4687 13.085 18.6327 12.9472 18.8294L13.4387 19.1736ZM13.7861 18.6578L14.2924 18.9797L14.4286 18.7654L13.9223 18.4436L13.4159 18.1217L13.2797 18.3359L13.7861 18.6578ZM13.9223 18.4436L14.4286 18.7654L14.5648 18.5512L14.0585 18.2293L13.5521 17.9074L13.4159 18.1217L13.9223 18.4436ZM14.0585 18.2293L14.5648 18.5512C14.5495 18.5753 14.5269 18.6011 14.4971 18.623C14.4677 18.6447 14.4401 18.6561 14.4211 18.6616C14.3883 18.6711 14.3937 18.6598 14.4644 18.6723L14.5692 18.0815L14.6739 17.4907C14.3228 17.4285 13.8349 17.4626 13.5521 17.9074L14.0585 18.2293ZM14.5692 18.0815L14.4644 18.6723L14.8389 18.7387L14.9437 18.1479L15.0484 17.5571L14.6739 17.4907L14.5692 18.0815ZM14.9437 18.1479L14.8389 18.7387L15.2135 18.8051L15.3182 18.2143L15.423 17.6235L15.0484 17.5571L14.9437 18.1479ZM15.3182 18.2143L15.2135 18.8051C15.5259 18.8605 15.9893 18.8626 16.2989 18.49L15.8375 18.1065L15.376 17.723C15.3997 17.6945 15.4278 17.6719 15.456 17.656C15.4833 17.6406 15.5045 17.6349 15.5133 17.6331C15.5216 17.6314 15.5193 17.6329 15.5029 17.6326C15.4867 17.6323 15.4605 17.6302 15.423 17.6235L15.3182 18.2143ZM15.8375 18.1065L16.2989 18.49L16.4437 18.3158L15.9823 17.9323L15.5208 17.5488L15.376 17.723L15.8375 18.1065ZM15.9823 17.9323L16.4437 18.3158L16.5885 18.1416L16.127 17.7581L15.6656 17.3746L15.5208 17.5488L15.9823 17.9323ZM16.127 17.7581L16.5885 18.1416C16.8507 17.826 16.8545 17.4223 16.8089 17.1119L16.2153 17.199L15.6217 17.2861C15.6347 17.3752 15.6313 17.422 15.6288 17.4377C15.6268 17.4506 15.6295 17.418 15.6656 17.3746L16.127 17.7581ZM16.2153 17.199L16.8089 17.1119L16.7525 16.7269L16.1588 16.814L15.5652 16.9011L15.6217 17.2861L16.2153 17.199ZM16.1588 16.814L16.7525 16.7269L16.696 16.342L16.1023 16.4291L15.5087 16.5162L15.5652 16.9011L16.1588 16.814ZM16.1023 16.4291L16.696 16.342C16.6904 16.3044 16.6897 16.2806 16.69 16.2684C16.6903 16.2561 16.6916 16.2612 16.6866 16.2783C16.6813 16.2965 16.6691 16.328 16.6428 16.3631C16.6156 16.3993 16.5814 16.4289 16.545 16.4497L16.247 15.929L15.9489 15.4082C15.4757 15.6791 15.4621 16.199 15.5087 16.5162L16.1023 16.4291ZM16.247 15.929L16.545 16.4497L16.7462 16.3346L16.4482 15.8138L16.1501 15.2931L15.9489 15.4082L16.247 15.929ZM16.4482 15.8138L16.7462 16.3346L16.9474 16.2195L16.6493 15.6987L16.3513 15.178L16.1501 15.2931L16.4482 15.8138ZM16.6493 15.6987L16.9474 16.2195C17.0356 16.169 17.1387 16.1253 17.2596 16.0908L17.095 15.5138L16.9303 14.9368C16.7252 14.9954 16.5313 15.075 16.3513 15.178L16.6493 15.6987ZM17.095 15.5138L17.2596 16.0908L17.5041 16.021L17.3395 15.444L17.1748 14.8671L16.9303 14.9368L17.095 15.5138ZM17.3395 15.444L17.5041 16.021L17.7486 15.9513L17.584 15.3743L17.4193 14.7973L17.1748 14.8671L17.3395 15.444ZM17.584 15.3743L17.7486 15.9513C17.9515 15.8934 18.1437 15.8158 18.3228 15.7165L18.0319 15.1917L17.7409 14.667C17.6488 14.7181 17.5424 14.7622 17.4193 14.7973L17.584 15.3743ZM18.0319 15.1917L18.3228 15.7165L18.5262 15.6037L18.2353 15.079L17.9444 14.5542L17.7409 14.667L18.0319 15.1917ZM18.2353 15.079L18.5262 15.6037L18.7296 15.4909L18.4387 14.9662L18.1478 14.4414L17.9444 14.5542L18.2353 15.079ZM18.4387 14.9662L18.7296 15.4909C19.0771 15.2983 19.2332 14.9641 19.2722 14.6337L18.6763 14.5634L18.0804 14.4932C18.0765 14.527 18.0711 14.5245 18.083 14.5042C18.0892 14.4939 18.0984 14.4814 18.111 14.4691C18.1236 14.4568 18.1366 14.4477 18.1478 14.4414L18.4387 14.9662ZM18.6763 14.5634L19.2722 14.6337L19.3064 14.3437L18.7105 14.2735L18.1146 14.2032L18.0804 14.4932L18.6763 14.5634ZM18.7105 14.2735L19.3064 14.3437L19.3406 14.0537L18.7447 13.9835L18.1488 13.9132L18.1146 14.2032L18.7105 14.2735ZM18.7447 13.9835L19.3406 14.0537C19.3542 13.938 19.383 13.8917 19.3935 13.878L18.9175 13.5128L18.4414 13.1476C18.2672 13.3748 18.1808 13.6423 18.1488 13.9132L18.7447 13.9835ZM18.9175 13.5128L19.3935 13.878L19.5321 13.6974L19.0561 13.3322L18.58 12.967L18.4414 13.1476L18.9175 13.5128ZM19.0561 13.3322L19.5321 13.6974L19.6707 13.5167L19.1947 13.1515L18.7186 12.7863L18.58 12.967L19.0561 13.3322ZM19.1947 13.1515L19.6707 13.5167C19.656 13.5359 19.6379 13.5531 19.6181 13.5669C19.5986 13.5804 19.5821 13.5874 19.5724 13.5906C19.5558 13.5962 19.5674 13.5882 19.6252 13.5922L19.6661 12.9936L19.7069 12.395C19.3843 12.3729 18.9838 12.4407 18.7186 12.7863L19.1947 13.1515ZM19.6661 12.9936L19.6252 13.5922L19.958 13.6149L19.9989 13.0163L20.0397 12.4177L19.7069 12.395L19.6661 12.9936ZM19.9989 13.0163L19.958 13.6149L20.2908 13.6376L20.3317 13.039L20.3725 12.4404L20.0397 12.4177L19.9989 13.0163ZM20.3317 13.039L20.2908 13.6376C20.4722 13.65 20.6983 13.6305 20.9072 13.5041C21.1337 13.3671 21.2592 13.1541 21.3101 12.9381L20.7261 12.8004L20.1421 12.6628C20.1459 12.6466 20.1563 12.6141 20.1822 12.5759C20.2092 12.5362 20.2453 12.502 20.2862 12.4773C20.3636 12.4305 20.413 12.4432 20.3725 12.4404L20.3317 13.039ZM20.7261 12.8004L21.3101 12.9381L21.3717 12.6768L20.7877 12.5392L20.2037 12.4015L20.1421 12.6628L20.7261 12.8004ZM20.7877 12.5392L21.3717 12.6768L21.4333 12.4156L20.8493 12.2779L20.2653 12.1402L20.2037 12.4015L20.7877 12.5392ZM20.8493 12.2779L21.4333 12.4156C21.4628 12.2906 21.5011 12.1997 21.5406 12.1343L21.0268 11.8244L20.5131 11.5145C20.398 11.7053 20.318 11.9168 20.2653 12.1402L20.8493 12.2779ZM21.0268 11.8244L21.5406 12.1343L21.6565 11.9421L21.1428 11.6322L20.629 11.3223L20.5131 11.5145L21.0268 11.8244ZM21.1428 11.6322L21.6565 11.9421L21.7725 11.7499L21.2587 11.44L20.7449 11.1301L20.629 11.3223L21.1428 11.6322ZM21.2587 11.44L21.7725 11.7499C21.8338 11.6481 21.8927 11.5688 21.9472 11.5079L21.5005 11.1074L21.0537 10.7069C20.9405 10.8333 20.8381 10.9756 20.7449 11.1301L21.2587 11.44ZM21.5005 11.1074L21.9472 11.5079L22.0731 11.3675L21.6263 10.967L21.1795 10.5665L21.0537 10.7069L21.5005 11.1074ZM21.6263 10.967L22.0731 11.3675L22.1989 11.2271L21.7522 10.8266L21.3054 10.4261L21.1795 10.5665L21.6263 10.967ZM21.7522 10.8266L22.1989 11.2271C22.2215 11.202 22.194 11.2418 22.1172 11.2776C22.0731 11.2982 21.9954 11.3254 21.8935 11.3227C21.7841 11.3199 21.6804 11.2834 21.5962 11.2227L21.9469 10.7359L22.2976 10.2491C22.05 10.0706 21.7788 10.1114 21.6104 10.1899C21.4686 10.2559 21.3667 10.3577 21.3054 10.4261L21.7522 10.8266ZM21.9469 10.7359L21.5962 11.2227L21.6651 11.2724L22.0158 10.7855L22.3665 10.2987L22.2976 10.2491L21.9469 10.7359ZM22.0158 10.7855L21.6651 11.2724L21.734 11.322L22.0847 10.8352L22.4355 10.3483L22.3665 10.2987L22.0158 10.7855ZM22.0847 10.8352L21.734 11.322C21.74 11.3263 21.7692 11.3476 21.8054 11.3678C21.8161 11.3737 21.8367 11.3848 21.8635 11.3963C21.8787 11.4027 21.9483 11.433 22.0433 11.442C22.0914 11.4466 22.1954 11.451 22.3158 11.4046C22.4584 11.3497 22.5906 11.235 22.6576 11.067C22.715 10.9235 22.7017 10.7982 22.6911 10.7386C22.6795 10.674 22.6598 10.6252 22.6484 10.5996C22.6255 10.5484 22.6005 10.5119 22.5914 10.4989C22.5793 10.4816 22.5686 10.4682 22.562 10.4602C22.5489 10.4443 22.5373 10.4317 22.5311 10.4251C22.5178 10.411 22.5047 10.3981 22.4954 10.3891C22.4583 10.3532 22.3973 10.2977 22.3203 10.2288L21.9202 10.6759L21.5201 11.123C21.5987 11.1934 21.643 11.234 21.6607 11.2513C21.6651 11.2555 21.6625 11.2532 21.6567 11.247C21.6542 11.2443 21.6455 11.235 21.6345 11.2216C21.629 11.215 21.6192 11.2027 21.6078 11.1864C21.5994 11.1743 21.5748 11.1387 21.5522 11.088C21.541 11.0627 21.5213 11.0142 21.5098 10.9499C21.4992 10.8905 21.4859 10.7654 21.5432 10.622C21.6102 10.4541 21.7422 10.3395 21.8847 10.2847C22.005 10.2384 22.1087 10.2428 22.1566 10.2474C22.2511 10.2563 22.32 10.2864 22.3343 10.2925C22.3602 10.3035 22.3797 10.314 22.3891 10.3193C22.4085 10.3301 22.4223 10.3393 22.426 10.3418C22.4314 10.3454 22.4348 10.3479 22.4355 10.3483L22.0847 10.8352ZM21.9202 10.6759L22.3203 10.2288L22.0869 10.0198L21.6867 10.4669L21.2866 10.914L21.5201 11.123L21.9202 10.6759ZM21.6867 10.4669L22.0869 10.0198L21.8534 9.81091L21.4533 10.258L21.0531 10.7051L21.2866 10.914L21.6867 10.4669ZM21.4533 10.258L21.8534 9.81091C21.59 9.57518 21.1946 9.40561 20.7628 9.59371L21.0025 10.1438L21.2421 10.6938C21.2224 10.7024 21.1954 10.7105 21.1629 10.7133C21.1302 10.716 21.1005 10.7127 21.0765 10.7066C21.0309 10.695 21.0235 10.6786 21.0531 10.7051L21.4533 10.258ZM21.0025 10.1438L20.7628 9.59371L20.5455 9.6884L20.7851 10.2385L21.0248 10.7885L21.2421 10.6938L21.0025 10.1438ZM20.7851 10.2385L20.5455 9.6884L20.3282 9.78309L20.5678 10.3331L20.8075 10.8832L21.0248 10.7885L20.7851 10.2385ZM20.5678 10.3331L20.3282 9.78309C19.9573 9.94468 19.7708 10.2719 19.6944 10.5947L20.2783 10.7328L20.8622 10.871C20.8728 10.8263 20.8816 10.8201 20.8727 10.8324C20.8679 10.839 20.8595 10.8488 20.8468 10.8591C20.8341 10.8695 20.8204 10.8776 20.8075 10.8832L20.5678 10.3331ZM20.2783 10.7328L19.6944 10.5947L19.6223 10.8997L20.2062 11.0378L20.79 11.1759L20.8622 10.871L20.2783 10.7328ZM20.2062 11.0378L19.6223 10.8997L19.5501 11.2047L20.134 11.3428L20.7179 11.4809L20.79 11.1759L20.2062 11.0378ZM20.134 11.3428L19.5501 11.2047C19.5487 11.2109 19.5704 11.1168 19.684 11.0461C19.7944 10.9775 19.8821 10.9993 19.8652 10.9959L19.7463 11.584L19.6275 12.1721C19.8209 12.2112 20.0784 12.2141 20.318 12.065C20.5608 11.9139 20.6713 11.6781 20.7179 11.4809L20.134 11.3428ZM19.7463 11.584L19.8652 10.9959L19.5497 10.9321L19.4308 11.5202L19.3119 12.1083L19.6275 12.1721L19.7463 11.584ZM19.4308 11.5202L19.5497 10.9321L19.2341 10.8683L19.1153 11.4565L18.9964 12.0446L19.3119 12.1083L19.4308 11.5202ZM19.1153 11.4565L19.2341 10.8683C19.0373 10.8286 18.763 10.826 18.517 11.0019C18.2743 11.1754 18.1864 11.4321 18.1562 11.6259L18.7491 11.7182L19.3419 11.8105C19.3455 11.7873 19.3355 11.8919 19.2149 11.9781C19.0909 12.0667 18.9829 12.0418 18.9964 12.0446L19.1153 11.4565ZM18.7491 11.7182L18.1562 11.6259L18.1056 11.9515L18.6984 12.0437L19.2913 12.136L19.3419 11.8105L18.7491 11.7182ZM18.6984 12.0437L18.1056 11.9515L18.0549 12.277L18.6478 12.3693L19.2406 12.4615L19.2913 12.136L18.6984 12.0437ZM18.6478 12.3693L18.0549 12.277C18.0483 12.3191 18.0446 12.2856 18.0894 12.2329C18.1132 12.2048 18.1449 12.1785 18.1828 12.1589C18.2199 12.1396 18.2525 12.1322 18.2734 12.1297L18.3457 12.7253L18.418 13.3209C18.6379 13.2942 18.8477 13.1939 19.0045 13.0092C19.1499 12.8377 19.2134 12.6365 19.2406 12.4615L18.6478 12.3693ZM18.3457 12.7253L18.2734 12.1297L18.022 12.1602L18.0943 12.7558L18.1666 13.3514L18.418 13.3209L18.3457 12.7253ZM18.0943 12.7558L18.022 12.1602L17.7707 12.1907L17.843 12.7863L17.9153 13.3819L18.1666 13.3514L18.0943 12.7558ZM17.843 12.7863L17.7707 12.1907C17.4217 12.233 17.1296 12.4191 16.9484 12.7261L17.4652 13.031L17.9819 13.336C17.9824 13.3352 17.9801 13.3392 17.9741 13.3456C17.9679 13.3522 17.9594 13.3596 17.949 13.3663C17.9263 13.381 17.9106 13.3825 17.9153 13.3819L17.843 12.7863ZM17.4652 13.031L16.9484 12.7261L16.822 12.9403L17.3388 13.2452L17.8555 13.5502L17.9819 13.336L17.4652 13.031ZM17.3388 13.2452L16.822 12.9403L16.6956 13.1545L17.2124 13.4594L17.7291 13.7644L17.8555 13.5502L17.3388 13.2452ZM17.2124 13.4594L16.6956 13.1545C16.7164 13.1193 16.7519 13.0765 16.8055 13.0415C16.8588 13.0066 16.9107 12.9921 16.9479 12.9874C16.9824 12.983 17.0003 12.9873 16.9948 12.9862C16.9896 12.9852 16.9704 12.9808 16.9351 12.9666L16.7116 13.5235L16.4882 14.0803C16.6569 14.148 16.8718 14.2069 17.1001 14.1777C17.3642 14.1439 17.5912 13.9981 17.7291 13.7644L17.2124 13.4594ZM16.7116 13.5235L16.9351 12.9666L16.5607 12.8164L16.3373 13.3733L16.1139 13.9301L16.4882 14.0803L16.7116 13.5235ZM16.3373 13.3733L16.5607 12.8164L16.1864 12.6662L15.963 13.2231L15.7396 13.7799L16.1139 13.9301L16.3373 13.3733ZM15.963 13.2231L16.1864 12.6662C16.0174 12.5984 15.7968 12.5379 15.5623 12.5736C15.2873 12.6154 15.0654 12.7789 14.9392 13.0181L15.4698 13.2982L16.0004 13.5782C15.9827 13.6119 15.9497 13.6572 15.8955 13.6962C15.8408 13.7354 15.7852 13.7535 15.7428 13.7599C15.7037 13.7659 15.6817 13.7613 15.6847 13.7618C15.6875 13.7623 15.7049 13.766 15.7396 13.7799L15.963 13.2231ZM15.4698 13.2982L14.9392 13.0181L14.8203 13.2433L15.3509 13.5234L15.8815 13.8035L16.0004 13.5782L15.4698 13.2982ZM15.3509 13.5234L14.8203 13.2433L14.7014 13.4686L15.232 13.7487L15.7626 14.0287L15.8815 13.8035L15.3509 13.5234ZM15.232 13.7487L14.7014 13.4686C14.6979 13.4753 14.6961 13.4772 14.6972 13.4759C14.6983 13.4744 14.7015 13.4708 14.707 13.4664C14.7125 13.4619 14.7185 13.4581 14.7241 13.4553C14.7297 13.4526 14.733 13.4517 14.7328 13.4518L14.8813 14.0331L15.0297 14.6144C15.3601 14.5301 15.61 14.3179 15.7626 14.0287L15.232 13.7487ZM14.8813 14.0331L14.7328 13.4518L14.501 13.511L14.6494 14.0923L14.7979 14.6737L15.0297 14.6144L14.8813 14.0331ZM14.6494 14.0923L14.501 13.511L14.2691 13.5702L14.4176 14.1515L14.566 14.7329L14.7979 14.6737L14.6494 14.0923ZM14.4176 14.1515L14.2691 13.5702C14.0006 13.6387 13.7654 13.7799 13.581 13.9907L14.0326 14.3857L14.4842 14.7808C14.5039 14.7582 14.5253 14.7432 14.566 14.7329L14.4176 14.1515ZM14.0326 14.3857L13.581 13.9907L13.428 14.1657L13.8795 14.5607L14.3311 14.9558L14.4842 14.7808L14.0326 14.3857ZM13.8795 14.5607L13.428 14.1657L13.2749 14.3406L13.7265 14.7357L14.1781 15.1307L14.3311 14.9558L13.8795 14.5607ZM13.7265 14.7357L13.2749 14.3406C13.1136 14.525 12.9969 14.7415 12.9146 14.9749L13.4806 15.1742L14.0465 15.3736C14.088 15.2556 14.1352 15.1797 14.1781 15.1307L13.7265 14.7357ZM13.4806 15.1742L12.9146 14.9749L12.8218 15.2385L13.3877 15.4378L13.9537 15.6371L14.0465 15.3736L13.4806 15.1742ZM13.3877 15.4378L12.8218 15.2385L12.729 15.502L13.2949 15.7013L13.8608 15.9007L13.9537 15.6371L13.3877 15.4378ZM13.2949 15.7013L12.729 15.502C12.6798 15.6417 12.6236 15.7584 12.563 15.8554L13.0718 16.1734L13.5806 16.4913C13.6937 16.3104 13.7863 16.1124 13.8608 15.9007L13.2949 15.7013ZM13.0718 16.1734L12.563 15.8554L12.4327 16.0639L12.9415 16.3819L13.4503 16.6998L13.5806 16.4913L13.0718 16.1734ZM12.9415 16.3819L12.4327 16.0639L12.3024 16.2724L12.8112 16.5904L13.3201 16.9083L13.4503 16.6998L12.9415 16.3819ZM12.8112 16.5904L12.3024 16.2724C12.3193 16.2454 12.3469 16.2125 12.3878 16.1838C12.4288 16.155 12.4701 16.1396 12.5034 16.1326C12.562 16.1202 12.576 16.1373 12.5144 16.118L12.3352 16.6906L12.156 17.2633C12.3249 17.3161 12.5335 17.3526 12.7508 17.3068C12.9917 17.256 13.1912 17.1145 13.3201 16.9083L12.8112 16.5904ZM12.3352 16.6906L12.5144 16.118L12.1686 16.0098L11.9894 16.5824L11.8102 17.1551L12.156 17.2633L12.3352 16.6906ZM11.9894 16.5824L12.1686 16.0098L11.8229 15.9016L11.6437 16.4742L11.4645 17.0469L11.8102 17.1551L11.9894 16.5824ZM11.6437 16.4742L11.8229 15.9016C11.5209 15.8071 11.1011 15.7585 10.751 16.0318L11.1201 16.5048L11.4893 16.9778C11.4658 16.9961 11.4409 17.009 11.4179 17.0171C11.3957 17.0249 11.38 17.0265 11.3748 17.0268C11.37 17.027 11.3746 17.0262 11.3906 17.0287C11.4065 17.0311 11.4308 17.0363 11.4645 17.0469L11.6437 16.4742ZM11.1201 16.5048L10.751 16.0318L10.5732 16.1705L10.9424 16.6435L11.3116 17.1165L11.4893 16.9778L11.1201 16.5048ZM10.9424 16.6435L10.5732 16.1705L10.3955 16.3092L10.7646 16.7822L11.1338 17.2552L11.3116 17.1165L10.9424 16.6435ZM10.7646 16.7822L10.3955 16.3092C10.1252 16.5202 9.99471 16.8227 9.93699 17.1143L10.5256 17.2308L11.1142 17.3473C11.1258 17.2884 11.1392 17.2578 11.1455 17.2459C11.1509 17.2359 11.1487 17.2436 11.1338 17.2552L10.7646 16.7822ZM10.5256 17.2308L9.93699 17.1143L9.87567 17.4242L10.4642 17.5407L11.0528 17.6571L11.1142 17.3473L10.5256 17.2308ZM10.4642 17.5407L9.87567 17.4242L9.81434 17.734L10.4029 17.8505L10.9915 17.967L11.0528 17.6571L10.4642 17.5407ZM10.4029 17.8505L9.81434 17.734C9.80751 17.7685 9.81808 17.6616 9.94464 17.5726C10.0903 17.4702 10.2261 17.5022 10.2399 17.5062L10.073 18.0825L9.90602 18.6588C10.099 18.7147 10.3793 18.734 10.6349 18.5542C10.8715 18.3879 10.9575 18.139 10.9915 17.967L10.4029 17.8505ZM10.073 18.0825L10.2399 17.5062L9.97132 17.4284L9.80435 18.0047L9.63739 18.581L9.90602 18.6588L10.073 18.0825ZM9.80435 18.0047L9.97132 17.4284L9.70269 17.3506L9.53573 17.9269L9.36877 18.5032L9.63739 18.581L9.80435 18.0047ZM9.53573 17.9269L9.70269 17.3506C9.42743 17.2708 9.12661 17.2589 8.83539 17.3759L9.05918 17.9326L9.28297 18.4893C9.27913 18.4909 9.2796 18.4895 9.28954 18.4894C9.30086 18.4892 9.32627 18.4909 9.36877 18.5032L9.53573 17.9269ZM9.05918 17.9326L8.83539 17.3759L8.62746 17.4595L8.85125 18.0162L9.07505 18.5729L9.28297 18.4893L9.05918 17.9326ZM8.85125 18.0162L8.62746 17.4595L8.41953 17.5431L8.64332 18.0998L8.86712 18.6565L9.07505 18.5729L8.85125 18.0162ZM8.64332 18.0998L8.41953 17.5431C8.44094 17.5345 8.47365 17.5252 8.51522 17.5234C8.55759 17.5216 8.59883 17.528 8.63536 17.5405C8.70588 17.5645 8.72876 17.5997 8.71353 17.5815L8.25398 17.9673L7.79443 18.3531C7.90015 18.479 8.04839 18.6083 8.24869 18.6765C8.46208 18.7491 8.67748 18.7328 8.86712 18.6565L8.64332 18.0998ZM8.25398 17.9673L8.71353 17.5815L8.53212 17.3654L8.07257 17.7512L7.61302 18.1369L7.79443 18.3531L8.25398 17.9673ZM8.07257 17.7512L8.53212 17.3654L8.3507 17.1493L7.89115 17.5351L7.4316 17.9208L7.61302 18.1369L8.07257 17.7512ZM7.89115 17.5351L8.3507 17.1493C8.19987 16.9696 7.96653 16.822 7.66662 16.8306C7.40205 16.8383 7.1911 16.9664 7.04843 17.0815L7.42512 17.5485L7.80181 18.0155C7.84888 17.9776 7.81047 18.027 7.70125 18.0301C7.6407 18.0319 7.57839 18.0182 7.52342 17.9904C7.47165 17.9642 7.4426 17.9339 7.4316 17.9208L7.89115 17.5351ZM7.42512 17.5485L7.04843 17.0815L6.76382 17.3111L7.14051 17.7781L7.5172 18.2451L7.80181 18.0155L7.42512 17.5485ZM7.14051 17.7781L6.76382 17.3111L6.4792 17.5406L6.85589 18.0076L7.23259 18.4747L7.5172 18.2451L7.14051 17.7781ZM6.85589 18.0076L6.4792 17.5406C6.43023 17.5801 6.55321 17.4551 6.77076 17.5156C6.98622 17.5754 7.0269 17.7433 7.00393 17.682L6.44211 17.8927L5.8803 18.1033C5.94343 18.2717 6.09614 18.5736 6.44952 18.6718C6.80501 18.7706 7.09182 18.5882 7.23259 18.4747L6.85589 18.0076ZM6.44211 17.8927L7.00393 17.682L6.87476 17.3375L6.31294 17.5481L5.75113 17.7588L5.8803 18.1033L6.44211 17.8927ZM6.31294 17.5481L6.87476 17.3375L6.74559 16.993L6.18377 17.2036L5.62196 17.4142L5.75113 17.7588L6.31294 17.5481ZM6.18377 17.2036L6.74559 16.993C6.68007 16.8182 6.54812 16.5705 6.27293 16.4403C5.97041 16.2973 5.67972 16.379 5.49058 16.4798L5.7728 17.0093L6.05502 17.5388C6.05374 17.5394 5.92549 17.6034 5.75996 17.5252C5.62176 17.4598 5.60136 17.3593 5.62196 17.4142L6.18377 17.2036ZM5.7728 17.0093L5.49058 16.4798L5.20877 16.63L5.49099 17.1595L5.77321 17.689L6.05502 17.5388L5.7728 17.0093ZM5.49099 17.1595L5.20877 16.63L4.92696 16.7802L5.20919 17.3097L5.49141 17.8392L5.77321 17.689L5.49099 17.1595ZM5.20919 17.3097L4.92696 16.7802C4.90531 16.7917 4.96396 16.7537 5.07056 16.7742C5.1892 16.7971 5.24826 16.8685 5.25846 16.8833L4.76466 17.2241L4.27085 17.5649C4.38953 17.7369 4.57692 17.9012 4.84374 17.9526C5.09851 18.0016 5.32519 17.9278 5.49141 17.8392L5.20919 17.3097ZM4.76466 17.2241L5.25846 16.8833L5.09574 16.6475L4.60193 16.9883L4.10812 17.3292L4.27085 17.5649L4.76466 17.2241ZM4.60193 16.9883L5.09574 16.6475L4.93301 16.4118L4.43921 16.7526L3.9454 17.0934L4.10812 17.3292L4.60193 16.9883ZM4.43921 16.7526L4.93301 16.4118C4.78888 16.2029 4.54254 16.0264 4.21346 16.0402C3.942 16.0516 3.72544 16.1916 3.58346 16.3071L3.96211 16.7726L4.34076 17.238C4.36758 17.2162 4.37709 17.2126 4.36973 17.2162C4.3624 17.2197 4.32499 17.2366 4.26368 17.2392C4.19629 17.242 4.12168 17.2263 4.05414 17.1883C3.99106 17.1528 3.95773 17.1112 3.9454 17.0934L4.43921 16.7526ZM3.96211 16.7726L3.58346 16.3071L3.26909 16.5629L3.64774 17.0283L4.02639 17.4937L4.34076 17.238L3.96211 16.7726ZM3.64774 17.0283L3.26909 16.5629L2.95472 16.8186L3.33337 17.2841L3.71202 17.7495L4.02639 17.4937L3.64774 17.0283ZM3.33337 17.2841L2.95472 16.8186C2.92784 16.8405 2.91711 16.8451 2.92223 16.8426C2.92739 16.8401 2.95973 16.825 3.01428 16.8214C3.07386 16.8174 3.14243 16.8285 3.20726 16.8606C3.26875 16.8911 3.30388 16.929 3.31873 16.9481L2.84525 17.3166L2.37177 17.6851C2.52981 17.8882 2.78045 18.0396 3.09404 18.0187C3.357 18.0012 3.56824 17.8665 3.71202 17.7495L3.33337 17.2841ZM2.84525 17.3166L3.31873 16.9481L3.14497 16.7248L2.67149 17.0933L2.19801 17.4619L2.37177 17.6851L2.84525 17.3166ZM2.67149 17.0933L3.14497 16.7248L2.97122 16.5016L2.49774 16.8701L2.02425 17.2386L2.19801 17.4619L2.67149 17.0933ZM2.49774 16.8701L2.97122 16.5016C2.82905 16.3189 2.66347 16.1467 2.47747 15.984L2.08246 16.4356L1.68745 16.8873C1.82348 17.0062 1.93475 17.1236 2.02425 17.2386L2.49774 16.8701ZM2.08246 16.4356L2.47747 15.984L2.23594 15.7728L1.84094 16.2244L1.44593 16.676L1.68745 16.8873L2.08246 16.4356ZM1.84094 16.2244L2.23594 15.7728L1.99442 15.5615L1.59942 16.0131L1.20441 16.4648L1.44593 16.676L1.84094 16.2244ZM1.59942 16.0131L1.99442 15.5615C1.97911 15.5481 2.01086 15.5711 2.04368 15.632C2.08114 15.7015 2.13857 15.8623 2.06544 16.0531C1.99952 16.225 1.87354 16.2962 1.8409 16.3128C1.80313 16.332 1.78687 16.3315 1.81697 16.3258L1.70559 15.7362L1.5942 15.1466C1.50841 15.1629 1.4008 15.1903 1.29623 15.2435C1.1968 15.2942 1.02857 15.4054 0.944962 15.6235C0.854138 15.8604 0.918419 16.0734 0.987285 16.2012C1.05151 16.3204 1.13922 16.4078 1.20441 16.4648L1.59942 16.0131ZM1.70559 15.7362L1.81697 16.3258L2.16466 16.2601L2.05328 15.6705L1.9419 15.081L1.5942 15.1466L1.70559 15.7362ZM2.05328 15.6705L2.16466 16.2601L2.51235 16.1944L2.40097 15.6048L2.28959 15.0153L1.9419 15.081L2.05328 15.6705ZM2.40097 15.6048L2.51235 16.1944C2.7453 16.1504 2.97212 16.0365 3.13917 15.8262C3.29929 15.6246 3.36152 15.3886 3.37755 15.1733L2.7792 15.1287L2.18086 15.0842C2.17652 15.1425 2.16554 15.1226 2.19957 15.0798C2.21674 15.0581 2.23809 15.0404 2.25951 15.0283C2.27978 15.0168 2.29226 15.0148 2.28959 15.0153L2.40097 15.6048ZM2.7792 15.1287L3.37755 15.1733L3.40809 14.7628L2.80975 14.7183L2.2114 14.6738L2.18086 15.0842L2.7792 15.1287ZM2.80975 14.7183L3.40809 14.7628L3.43864 14.3524L2.84029 14.3079L2.24194 14.2633L2.2114 14.6738L2.80975 14.7183ZM2.84029 14.3079L3.43864 14.3524C3.44122 14.3177 3.44497 14.3171 3.4378 14.3372C3.43064 14.3574 3.40338 14.4235 3.32867 14.4875C3.2453 14.5588 3.14533 14.591 3.05837 14.5939C3.01972 14.5951 2.98978 14.5905 2.97107 14.5864C2.95246 14.5823 2.94175 14.5779 2.93992 14.5771L3.1721 14.0239L3.40429 13.4706C3.21057 13.3893 2.85429 13.314 2.54836 13.5758C2.30106 13.7875 2.2546 14.0932 2.24194 14.2633L2.84029 14.3079ZM3.1721 14.0239L2.93992 14.5771L3.24118 14.7035L3.47337 14.1503L3.70555 13.597L3.40429 13.4706L3.1721 14.0239ZM3.47337 14.1503L3.24118 14.7035L3.54245 14.83L3.77464 14.2767L4.00682 13.7235L3.70555 13.597L3.47337 14.1503ZM3.77464 14.2767L3.54245 14.83C3.80093 14.9384 4.07866 15.0047 4.36116 14.983L4.31511 14.3847L4.26906 13.7865C4.23262 13.7893 4.15003 13.7836 4.00682 13.7235L3.77464 14.2767ZM4.31511 14.3847L4.36116 14.983L4.60037 14.9646L4.55432 14.3663L4.50827 13.7681L4.26906 13.7865L4.31511 14.3847ZM4.55432 14.3663L4.60037 14.9646L4.83958 14.9461L4.79352 14.3479L4.74747 13.7497L4.50827 13.7681L4.55432 14.3663ZM4.79352 14.3479L4.83958 14.9461C5.04777 14.9301 5.24999 14.8891 5.44411 14.821L5.24537 14.2548L5.04663 13.6887C4.95723 13.7201 4.85822 13.7412 4.74747 13.7497L4.79352 14.3479ZM5.24537 14.2548L5.44411 14.821L5.65674 14.7463L5.45801 14.1802L5.25927 13.6141L5.04663 13.6887L5.24537 14.2548ZM5.45801 14.1802L5.65674 14.7463L5.86938 14.6717L5.67064 14.1056L5.4719 13.5394L5.25927 13.6141L5.45801 14.1802ZM5.67064 14.1056L5.86938 14.6717C6.23669 14.5427 6.44487 14.2422 6.55681 13.9498L5.99647 13.7353L5.43614 13.5207C5.42688 13.5449 5.41886 13.5609 5.41336 13.5705C5.4079 13.58 5.40562 13.582 5.40798 13.5793C5.41054 13.5764 5.41745 13.5692 5.42941 13.561C5.4416 13.5525 5.45611 13.545 5.4719 13.5394L5.67064 14.1056ZM5.99647 13.7353L6.55681 13.9498L6.67 13.6542L6.10967 13.4396L5.54934 13.2251L5.43614 13.5207L5.99647 13.7353ZM6.10967 13.4396L6.67 13.6542L6.7832 13.3585L6.22286 13.144L5.66253 12.9294L5.54934 13.2251L6.10967 13.4396ZM6.22286 13.144L6.7832 13.3585C6.84221 13.2044 6.90552 13.0941 6.96607 13.0166L6.49336 12.6471L6.02064 12.2776C5.87146 12.4684 5.75444 12.6894 5.66253 12.9294L6.22286 13.144ZM6.49336 12.6471L6.96607 13.0166L7.12337 12.8154L6.65065 12.4459L6.17793 12.0764L6.02064 12.2776L6.49336 12.6471ZM6.65065 12.4459L7.12337 12.8154L7.28067 12.6142L6.80795 12.2447L6.33523 11.8751L6.17793 12.0764L6.65065 12.4459ZM6.80795 12.2447L7.28067 12.6142C7.24947 12.6541 7.19572 12.7026 7.11725 12.7331C7.04002 12.7632 6.97259 12.7626 6.93235 12.7568C6.89578 12.7516 6.88172 12.7422 6.89459 12.7487C6.90641 12.7546 6.93216 12.7694 6.97272 12.7999L7.33343 12.3204L7.69414 11.8409C7.54226 11.7267 7.33967 11.6032 7.10358 11.5691C6.81345 11.5273 6.52641 11.6306 6.33523 11.8751L6.80795 12.2447ZM7.33343 12.3204L6.97272 12.7999L7.3409 13.0769L7.70161 12.5974L8.06232 12.1179L7.69414 11.8409L7.33343 12.3204ZM7.70161 12.5974L7.3409 13.0769L7.70908 13.3539L8.06979 12.8744L8.4305 12.3949L8.06232 12.1179L7.70161 12.5974ZM8.06979 12.8744L7.70908 13.3539C7.7985 13.4211 7.91199 13.4929 8.04492 13.537C8.18144 13.5824 8.37781 13.6103 8.58497 13.5258C8.79478 13.4403 8.91698 13.2799 8.98267 13.1449C9.04556 13.0157 9.07197 12.8817 9.08441 12.7707L8.48814 12.7038L7.89188 12.637C7.8876 12.6752 7.88403 12.6601 7.9037 12.6197C7.92616 12.5736 7.99188 12.4717 8.13197 12.4146C8.26941 12.3586 8.3828 12.3848 8.42309 12.3982C8.4598 12.4104 8.46381 12.42 8.4305 12.3949L8.06979 12.8744ZM8.48814 12.7038L9.08441 12.7707L9.13458 12.3232L8.53831 12.2563L7.94205 12.1895L7.89188 12.637L8.48814 12.7038ZM8.53831 12.2563L9.13458 12.3232L9.18475 11.8756L8.58849 11.8088L7.99222 11.7419L7.94205 12.1895L8.53831 12.2563ZM8.58849 11.8088L9.18475 11.8756C9.18941 11.8341 9.19428 11.8303 9.18674 11.849C9.17934 11.8673 9.14717 11.9381 9.06061 12.0014C8.96332 12.0726 8.85389 12.0929 8.76929 12.0862C8.69852 12.0807 8.66283 12.0583 8.6723 12.0635L8.96016 11.537L9.24801 11.0106C9.06966 10.9131 8.69938 10.779 8.35237 11.0327C8.07156 11.238 8.01176 11.5676 7.99222 11.7419L8.58849 11.8088ZM8.96016 11.537L8.6723 12.0635L8.9938 12.2393L9.28165 11.7128L9.56951 11.1864L9.24801 11.0106L8.96016 11.537ZM9.28165 11.7128L8.9938 12.2393L9.3153 12.4151L9.60315 11.8886L9.89101 11.3622L9.56951 11.1864L9.28165 11.7128ZM9.60315 11.8886L9.3153 12.4151C9.59374 12.5673 10.008 12.7024 10.4102 12.483L10.1228 11.9563L9.83544 11.4296C9.86366 11.4142 9.89298 11.4047 9.91996 11.4003C9.94608 11.3961 9.96426 11.3975 9.97129 11.3985C9.97783 11.3993 9.97442 11.3996 9.95972 11.3943C9.94507 11.3891 9.92233 11.3793 9.89101 11.3622L9.60315 11.8886ZM10.1228 11.9563L10.4102 12.483L10.6084 12.3749L10.321 11.8482L10.0336 11.3215L9.83544 11.4296L10.1228 11.9563ZM10.321 11.8482L10.6084 12.3749L10.8065 12.2667L10.5192 11.74L10.2318 11.2133L10.0336 11.3215L10.321 11.8482ZM10.5192 11.74L10.8065 12.2667C10.8005 12.27 10.7941 12.2726 10.7878 12.2744C10.7817 12.2762 10.778 12.2765 10.7777 12.2765C10.7775 12.2765 10.7949 12.2753 10.835 12.2863L10.9936 11.7077L11.1523 11.129C10.8604 11.049 10.5343 11.0483 10.2318 11.2133L10.5192 11.74ZM10.9936 11.7077L10.835 12.2863L11.1113 12.3621L11.2699 11.7834L11.4286 11.2048L11.1523 11.129L10.9936 11.7077ZM11.2699 11.7834L11.1113 12.3621L11.3876 12.4378L11.5462 11.8592L11.7049 11.2806L11.4286 11.2048L11.2699 11.7834ZM11.5462 11.8592L11.3876 12.4378C11.5065 12.4704 11.6529 12.486 11.81 12.4485C11.9727 12.4097 12.1076 12.3233 12.2093 12.2129C12.3923 12.0143 12.4513 11.759 12.4758 11.5752L11.8811 11.4959L11.2863 11.4167C11.2805 11.4604 11.2744 11.4782 11.2744 11.478C11.2747 11.4772 11.2777 11.4689 11.2853 11.4557C11.2929 11.4424 11.306 11.4223 11.3269 11.3996C11.3728 11.3498 11.4428 11.3024 11.5315 11.2813C11.6147 11.2614 11.6781 11.2732 11.7049 11.2806L11.5462 11.8592ZM11.8811 11.4959L12.4758 11.5752L12.5343 11.1362L11.9396 11.0569L11.3449 10.9776L11.2863 11.4167L11.8811 11.4959ZM11.9396 11.0569L12.5343 11.1362L12.5929 10.6972L11.9981 10.6179L11.4034 10.5386L11.3449 10.9776L11.9396 11.0569ZM11.9981 10.6179L12.5929 10.6972C12.6083 10.581 12.6287 10.5032 12.6468 10.4548C12.6652 10.4055 12.6745 10.4049 12.6569 10.4228L12.2276 10.0038L11.7982 9.58468C11.546 9.84309 11.4474 10.2088 11.4034 10.5386L11.9981 10.6179ZM12.2276 10.0038L12.6569 10.4228L12.8279 10.2477L12.3985 9.82865L11.9691 9.40956L11.7982 9.58468L12.2276 10.0038ZM12.3985 9.82865L12.8279 10.2477L12.9988 10.0726L12.5694 9.65353L12.14 9.23445L11.9691 9.40956L12.3985 9.82865ZM12.5694 9.65353L12.9988 10.0726C12.9923 10.0793 12.9804 10.0896 12.9628 10.0999C12.9449 10.1103 12.9253 10.1181 12.9058 10.1228C12.8662 10.1323 12.8483 10.1242 12.8668 10.1289L13.0131 9.54701L13.1594 8.96512C12.8074 8.87661 12.4281 8.93931 12.14 9.23445L12.5694 9.65353ZM13.0131 9.54701L12.8668 10.1289L13.1396 10.1975L13.2859 9.61561L13.4322 9.03372L13.1594 8.96512L13.0131 9.54701ZM13.2859 9.61561L13.1396 10.1975L13.4125 10.2661L13.5588 9.6842L13.7051 9.10231L13.4322 9.03372L13.2859 9.61561ZM13.5588 9.6842L13.4125 10.2661C13.5809 10.3084 13.7529 10.3579 13.9286 10.4147L14.113 9.84371L14.2974 9.27276C14.0979 9.20829 13.9004 9.15143 13.7051 9.10231L13.5588 9.6842ZM14.113 9.84371L13.9286 10.4147L14.21 10.5056L14.3944 9.93462L14.5789 9.36367L14.2974 9.27276L14.113 9.84371ZM14.3944 9.93462L14.21 10.5056L14.4914 10.5965L14.6758 10.0255L14.8603 9.45458L14.5789 9.36367L14.3944 9.93462ZM14.6758 10.0255L14.4914 10.5965C14.6799 10.6574 14.9192 10.6808 15.1596 10.5759C15.3982 10.4719 15.5435 10.2825 15.6285 10.1073L15.0886 9.8455L14.5487 9.58375C14.5461 9.5891 14.5789 9.52007 14.6799 9.47601C14.7827 9.43118 14.8593 9.45428 14.8603 9.45458L14.6758 10.0255ZM15.0886 9.8455L15.6285 10.1073L15.7599 9.83632L15.22 9.57457L14.6801 9.31281L14.5487 9.58375L15.0886 9.8455ZM15.22 9.57457L15.7599 9.83632L15.8912 9.56539L15.3513 9.30363L14.8114 9.04187L14.6801 9.31281L15.22 9.57457ZM15.3513 9.30363L15.8912 9.56539C15.901 9.54531 15.8883 9.58218 15.8295 9.61849C15.8002 9.63667 15.7674 9.64939 15.7346 9.65584C15.7028 9.66211 15.6788 9.66098 15.6665 9.65948L15.7389 9.06387L15.8114 8.46826C15.6096 8.44371 15.3941 8.47685 15.1983 8.59795C15.0104 8.71418 14.8893 8.88132 14.8114 9.04187L15.3513 9.30363ZM15.7389 9.06387L15.6665 9.65948L15.9227 9.69066L15.9952 9.09505L16.0677 8.49944L15.8114 8.46826L15.7389 9.06387ZM15.9952 9.09505L15.9227 9.69066L16.179 9.72183L16.2515 9.12622L16.3239 8.53062L16.0677 8.49944L15.9952 9.09505ZM16.2515 9.12622L16.179 9.72183C16.3711 9.7452 16.5764 9.71826 16.7677 9.61317C16.9544 9.5106 17.0835 9.35806 17.1709 9.20323L16.6486 8.9081L16.1262 8.61297C16.1197 8.62434 16.1356 8.59125 16.19 8.5614C16.2489 8.52901 16.3027 8.52803 16.3239 8.53062L16.2515 9.12622ZM16.6486 8.9081L17.1709 9.20323L17.3118 8.95393L16.7894 8.6588L16.267 8.36367L16.1262 8.61297L16.6486 8.9081ZM16.7894 8.6588L17.3118 8.95393L17.4526 8.70463L16.9302 8.4095L16.4078 8.11437L16.267 8.36367L16.7894 8.6588ZM16.9302 8.4095L17.4526 8.70463C17.462 8.68803 17.4527 8.71177 17.4107 8.73743C17.39 8.75009 17.3667 8.75975 17.343 8.76551C17.3197 8.77115 17.3014 8.77171 17.2909 8.77122L17.3191 8.17188L17.3473 7.57255C17.156 7.56354 16.9615 7.60566 16.785 7.71346C16.6134 7.81832 16.4924 7.96477 16.4078 8.11437L16.9302 8.4095ZM17.3191 8.17188L17.2909 8.77122L17.5389 8.7829L17.5671 8.18357L17.5954 7.58423L17.3473 7.57255L17.3191 8.17188ZM17.5671 8.18357L17.5389 8.7829L17.7869 8.79459L17.8152 8.19525L17.8434 7.59592L17.5954 7.58423L17.5671 8.18357ZM17.8152 8.19525L17.7869 8.79459C17.9268 8.80118 18.0726 8.81699 18.2245 8.84261L18.3243 8.25096L18.424 7.65931C18.2279 7.62623 18.0342 7.60491 17.8434 7.59592L17.8152 8.19525ZM18.3243 8.25096L18.2245 8.84261L18.4856 8.88662L18.5854 8.29497L18.6851 7.70332L18.424 7.65931L18.3243 8.25096ZM18.5854 8.29497L18.4856 8.88662L18.7467 8.93064L18.8464 8.33899L18.9462 7.74734L18.6851 7.70332L18.5854 8.29497ZM18.8464 8.33899L18.7467 8.93064C18.9433 8.96379 19.1373 8.98492 19.3284 8.99339L19.355 8.39398L19.3816 7.79457C19.2427 7.78841 19.0977 7.77288 18.9462 7.74734L18.8464 8.33899ZM19.355 8.39398L19.3284 8.99339L19.5759 9.00436L19.6025 8.40495L19.629 7.80554L19.3816 7.79457L19.355 8.39398ZM19.6025 8.40495L19.5759 9.00436L19.8233 9.01533L19.8499 8.41592L19.8765 7.81651L19.629 7.80554L19.6025 8.40495ZM19.8499 8.41592L19.8233 9.01533C20.0443 9.02513 20.2623 8.96009 20.4437 8.81239C20.6125 8.67495 20.7131 8.49598 20.7754 8.3324L20.2147 8.11887L19.654 7.90533C19.6381 7.94711 19.6388 7.92032 19.686 7.8819C19.7112 7.86135 19.7441 7.84236 19.7826 7.83002C19.8207 7.81783 19.8537 7.8155 19.8765 7.81651L19.8499 8.41592ZM20.2147 8.11887L20.7754 8.3324L20.8927 8.02438L20.332 7.81084L19.7713 7.5973L19.654 7.90533L20.2147 8.11887ZM20.332 7.81084L20.8927 8.02438L21.01 7.71635L20.4493 7.50281L19.8886 7.28927L19.7713 7.5973L20.332 7.81084ZM20.4493 7.50281L21.01 7.71635C21.0205 7.68883 21.0298 7.66976 21.0368 7.65739C21.0437 7.64506 21.0475 7.64082 21.0466 7.64184C21.0456 7.64307 21.0398 7.64953 21.0283 7.65776C21.0166 7.6662 21.0016 7.67452 20.9842 7.68088L20.7781 7.11742L20.5719 6.55395C20.2036 6.68871 19.9994 6.99836 19.8886 7.28927L20.4493 7.50281ZM20.7781 7.11742L20.9842 7.68088L21.1957 7.60351L20.9895 7.04005L20.7833 6.47658L20.5719 6.55395L20.7781 7.11742ZM20.9895 7.04005L21.1957 7.60351L21.4071 7.52615L21.2009 6.96268L20.9948 6.39921L20.7833 6.47658L20.9895 7.04005ZM21.2009 6.96268L21.4071 7.52615C21.4496 7.51061 21.5101 7.49997 21.6004 7.51006L21.667 6.91377L21.7337 6.31748C21.4844 6.28963 21.2342 6.3116 20.9948 6.39921L21.2009 6.96268ZM21.667 6.91377L21.6004 7.51006L21.855 7.53851L21.9216 6.94222L21.9883 6.34593L21.7337 6.31748L21.667 6.91377ZM21.9216 6.94222L21.855 7.53851L22.1096 7.56697L22.1763 6.97068L22.2429 6.37439L21.9883 6.34593L21.9216 6.94222ZM22.1763 6.97068L22.1096 7.56697C22.2924 7.5874 22.4734 7.60153 22.6524 7.60926L22.6783 7.00982L22.7042 6.41038C22.5533 6.40386 22.3996 6.3919 22.2429 6.37439L22.1763 6.97068ZM22.6783 7.00982L22.6524 7.60926L22.8999 7.61995L22.9258 7.02051L22.9517 6.42107L22.7042 6.41038L22.6783 7.00982ZM22.9258 7.02051L22.8999 7.61995L23.1473 7.63064L23.1732 7.0312L23.1991 6.43176L22.9517 6.42107L22.9258 7.02051ZM23.1732 7.0312L23.1473 7.63064C23.5408 7.64764 23.8625 7.45888 24.0683 7.15727L23.5727 6.81906L23.0771 6.48084C23.0707 6.49022 23.081 6.47184 23.1154 6.45359C23.1521 6.43412 23.1853 6.43116 23.1991 6.43176L23.1732 7.0312ZM23.5727 6.81906L24.0683 7.15727L24.2204 6.93443L23.7248 6.59622L23.2292 6.25801L23.0771 6.48084L23.5727 6.81906ZM23.7248 6.59622L24.2204 6.93443L24.3725 6.7116L23.8769 6.37339L23.3813 6.03518L23.2292 6.25801L23.7248 6.59622ZM23.8769 6.37339L24.3725 6.7116C24.3785 6.70272 24.3677 6.72169 24.3325 6.74021C24.2951 6.7599 24.2616 6.76258 24.2481 6.76192L24.2772 6.16263L24.3064 5.56334C23.9119 5.54415 23.5882 5.73194 23.3813 6.03518L23.8769 6.37339ZM24.2772 6.16263L24.2481 6.76192L24.4964 6.774L24.5255 6.17471L24.5547 5.57542L24.3064 5.56334L24.2772 6.16263ZM24.5255 6.17471L24.4964 6.774L24.7447 6.78607L24.7738 6.18678L24.803 5.58749L24.5547 5.57542L24.5255 6.17471ZM24.7738 6.18678L24.7447 6.78607C24.9424 6.79569 25.143 6.74942 25.3219 6.63264C25.4944 6.52002 25.6115 6.36511 25.6908 6.21141L25.1576 5.93628L24.6244 5.66115C24.6134 5.6825 24.6214 5.65687 24.666 5.62775C24.6884 5.61315 24.7143 5.60156 24.7415 5.59455C24.7683 5.58767 24.7899 5.58685 24.803 5.58749L24.7738 6.18678ZM25.1576 5.93628L25.6908 6.21141L25.8263 5.94882L25.2931 5.6737L24.7599 5.39857L24.6244 5.66115L25.1576 5.93628ZM25.2931 5.6737L25.8263 5.94882L25.9618 5.68624L25.4286 5.41112L24.8954 5.13599L24.7599 5.39857L25.2931 5.6737ZM25.4286 5.41112L25.9618 5.68624C26.0201 5.57321 26.0711 5.52438 26.0997 5.50413L25.7523 5.01489L25.405 4.52566C25.1825 4.6836 25.0177 4.89892 24.8954 5.13599L25.4286 5.41112ZM25.7523 5.01489L26.0997 5.50413L26.2879 5.37049L25.9406 4.88125L25.5932 4.39202L25.405 4.52566L25.7523 5.01489ZM25.9406 4.88125L26.2879 5.37049L26.4761 5.23685L26.1288 4.74761L25.7814 4.25837L25.5932 4.39202L25.9406 4.88125ZM26.1288 4.74761L26.4761 5.23685C26.5131 5.2106 26.5199 5.21151 26.5005 5.21852C26.4826 5.22496 26.3987 5.25224 26.2812 5.22319L26.4253 4.64074L26.5693 4.05829C26.3797 4.01139 26.2102 4.04756 26.0936 4.08963C25.9753 4.13226 25.87 4.19553 25.7814 4.25837L26.1288 4.74761ZM26.4253 4.64074L26.2812 5.22319L26.3894 5.24996L26.5335 4.66751L26.6775 4.08505L26.5693 4.05829L26.4253 4.64074ZM26.5335 4.66751L26.3894 5.24996L26.4977 5.27673L26.6417 4.69427L26.7858 4.11182L26.6775 4.08505L26.5335 4.66751ZM26.6417 4.69427L26.4977 5.27673C26.4777 5.27179 26.4685 5.26751 26.4728 5.26931C26.4761 5.27071 26.4858 5.275 26.5028 5.28389C26.5373 5.30201 26.5876 5.33154 26.656 5.37616L26.9839 4.87366L27.3117 4.37116C27.1593 4.27171 26.9682 4.15692 26.7858 4.11182L26.6417 4.69427ZM26.9839 4.87366L26.656 5.37616L26.8899 5.52877L27.2178 5.02627L27.5456 4.52377L27.3117 4.37116L26.9839 4.87366Z" fill="white"/>
</svg>
